<svg xmlns="http://www.w3.org/2000/svg" fill="none" viewBox="0 0 48 48">
  
  
  
<g transform="matrix(1,0,0,1,0,0)"><path fill="#62de84" d="M35 31L35 17L40.7477 17.5675C42.1451 17.7054 43.3581 18.5808 43.6309 19.9583C43.8304 20.9653 44 22.3196 44 24.0138C44 25.7029 43.8314 27.0542 43.6327 28.0603C43.3597 29.4427 42.1407 30.3197 40.738 30.4533L35 31Z"></path><path fill="#62de84" d="M4.40889 14.2054C4.6006 12.4139 5.84951 11.067 7.63048 10.7945C10.1042 10.4161 14.5237 10 22 10C29.4763 10 33.8958 10.4161 36.3695 10.7945C38.1505 11.067 39.3994 12.4139 39.5911 14.2054C39.7986 16.1446 40 19.2501 40 24C40 28.7499 39.7986 31.8554 39.5911 33.7946C39.3994 35.5861 38.1505 36.933 36.3695 37.2055C33.8958 37.5839 29.4763 38 22 38C14.5237 38 10.1042 37.5839 7.63048 37.2055C5.84951 36.933 4.6006 35.5861 4.40889 33.7946C4.20136 31.8554 4 28.7499 4 24C4 19.2501 4.20136 16.1446 4.40889 14.2054Z"></path><g>
    <path fill="#31aa51" d="M9.60058 30.9468C9.6316 31.7018 9.94508 32.4253 10.6594 32.6719C11.1744 32.8497 11.9271 33 13 33C14.0729 33 14.8256 32.8497 15.3406 32.6719C16.0549 32.4253 16.3684 31.7018 16.3994 30.9468C16.446 29.8139 16.5 27.7014 16.5 24C16.5 20.2986 16.446 18.1861 16.3994 17.0532C16.3684 16.2982 16.0549 15.5747 15.3406 15.3281C14.8256 15.1503 14.0729 15 13 15C11.9271 15 11.1744 15.1503 10.6594 15.3281C9.94508 15.5747 9.6316 16.2982 9.60058 17.0532C9.55404 18.1861 9.5 20.2986 9.5 24C9.5 27.7014 9.55404 29.8139 9.60058 30.9468Z"></path>
    <path fill="#31aa51" d="M18.6006 30.9468C18.6316 31.7018 18.9451 32.4253 19.6594 32.6719C20.1744 32.8497 20.9271 33 22 33C23.0729 33 23.8256 32.8497 24.3406 32.6719C25.0549 32.4253 25.3684 31.7018 25.3994 30.9468C25.446 29.8139 25.5 27.7014 25.5 24C25.5 20.2986 25.446 18.1861 25.3994 17.0532C25.3684 16.2982 25.0549 15.5747 24.3406 15.3281C23.8256 15.1503 23.0729 15 22 15C20.9271 15 20.1744 15.1503 19.6594 15.3281C18.9451 15.5747 18.6316 16.2982 18.6006 17.0532C18.554 18.1861 18.5 20.2986 18.5 24C18.5 27.7014 18.554 29.8139 18.6006 30.9468Z"></path>
    <path fill="#31aa51" d="M27.6006 30.9468C27.6316 31.7018 27.9451 32.4253 28.6594 32.6719C29.1744 32.8497 29.9271 33 31 33C32.0729 33 32.8256 32.8497 33.3406 32.6719C34.0549 32.4253 34.3684 31.7018 34.3994 30.9468C34.446 29.8139 34.5 27.7014 34.5 24C34.5 20.2986 34.446 18.1861 34.3994 17.0532C34.3684 16.2982 34.0549 15.5747 33.3406 15.3281C32.8256 15.1503 32.0729 15 31 15C29.9271 15 29.1744 15.1503 28.6594 15.3281C27.9451 15.5747 27.6316 16.2982 27.6006 17.0532C27.554 18.1861 27.5 20.2986 27.5 24C27.5 27.7014 27.554 29.8139 27.6006 30.9468Z"></path>
  </g></g></svg>