<svg xmlns="http://www.w3.org/2000/svg" fill="none" viewBox="0 0 48 48">
  
  
<g transform="matrix(1,0,0,1,0,0)"><path fill="#62de84" d="M35 31L35 17L40.7477 17.5675C42.1451 17.7054 43.3581 18.5808 43.6309 19.9583C43.8304 20.9653 44 22.3196 44 24.0138C44 25.7029 43.8314 27.0542 43.6327 28.0603C43.3597 29.4427 42.1407 30.3197 40.738 30.4533L35 31Z"></path><path fill="#62de84" d="M4.40889 14.2054C4.6006 12.4139 5.84951 11.067 7.63048 10.7945C10.1042 10.4161 14.5237 10 22 10C29.4763 10 33.8958 10.4161 36.3695 10.7945C38.1505 11.067 39.3994 12.4139 39.5911 14.2054C39.7986 16.1446 40 19.2501 40 24C40 28.7499 39.7986 31.8554 39.5911 33.7946C39.3994 35.5861 38.1505 36.933 36.3695 37.2055C33.8958 37.5839 29.4763 38 22 38C14.5237 38 10.1042 37.5839 7.63048 37.2055C5.84951 36.933 4.6006 35.5861 4.40889 33.7946C4.20136 31.8554 4 28.7499 4 24C4 19.2501 4.20136 16.1446 4.40889 14.2054Z"></path></g></svg>