<svg xmlns="http://www.w3.org/2000/svg" fill="none" viewBox="0 0 48 48">
  
  
  
<g transform="matrix(1,0,0,1,0,0)"><path fill="#31aa51" d="M4.47884 12.4845C4.64705 10.7663 5.77606 9.41068 7.46811 9.06812C9.92988 8.56972 14.405 8 22 8C29.595 8 34.0701 8.56972 36.5319 9.06812C38.2239 9.41068 39.353 10.7663 39.5212 12.4845C39.7508 14.8304 40 18.9907 40 26C40 33.0093 39.7508 37.1696 39.5212 39.5155C39.353 41.2337 38.2239 42.5893 36.5319 42.9319C34.0701 43.4303 29.595 44 22 44C14.405 44 9.92988 43.4303 7.46811 42.9319C5.77606 42.5893 4.64705 41.2337 4.47884 39.5155C4.24918 37.1696 4 33.0093 4 26C4 18.9907 4.24918 14.8304 4.47884 12.4845Z"></path><path fill="#62de84" d="M9.47884 7.4845C9.64705 5.76633 10.7761 4.41068 12.4681 4.06812C14.9299 3.56972 19.405 3 27 3C34.595 3 39.0701 3.56972 41.5319 4.06812C43.2239 4.41068 44.353 5.76633 44.5212 7.4845C44.7508 9.83036 45 13.9907 45 21C45 28.0093 44.7508 32.1696 44.5212 34.5155C44.353 36.2337 43.2239 37.5893 41.5319 37.9319C39.0701 38.4303 34.595 39 27 39C19.405 39 14.9299 38.4303 12.4681 37.9319C10.7761 37.5893 9.64705 36.2337 9.47884 34.5155C9.24918 32.1696 9 28.0093 9 21C9 13.9907 9.24918 9.83036 9.47884 7.4845Z"></path><path fill="#31aa51" d="M36.8412 24.616C36.71 26.565 34.8222 27.3074 33.3667 26.0033C32.5229 25.2473 31.4686 24.2701 30.1645 23.0118C27.3559 25.5908 24.2084 28.3005 21.4684 30.5556C20.6879 31.1979 19.5489 31.136 18.8343 30.4213L17.5779 29.1649C16.8642 28.4512 16.8024 27.3151 17.4435 26.5357C19.6979 23.7953 22.4068 20.6468 24.9854 17.8374C23.7231 16.5313 22.743 15.4758 21.9851 14.6313C20.6796 13.1766 21.4229 11.29 23.374 11.1589C24.5354 11.0808 25.9978 11.0195 27.8113 11.0023C31.0004 10.972 33.0706 11.2459 34.3277 11.5183C35.4297 11.7571 36.2423 12.569 36.4812 13.6702C36.7537 14.9261 37.0278 16.9945 36.9977 20.1811C36.9807 21.9937 36.9193 23.4554 36.8412 24.616Z"></path></g></svg>