<svg xmlns="http://www.w3.org/2000/svg" fill="none" viewBox="0 0 48 48">


<g transform="matrix(1,0,0,1,0,0)"><circle cx="24" cy="24" r="20" fill="#ffcb6b"></circle><path fill="#d9920d" d="M27.9011 14.5345C26.3807 13.3907 24.5374 14.175 24.4175 16.0093C24.3476 17.0789 24.2854 18.4454 24.2474 20.1782C19.6518 20.239 15.3071 20.41 13.1163 20.5369C11.7082 20.6184 11.173 21.4444 11.049 22.774C11.0186 23.0989 11 23.4633 11 23.8681C11 24.317 11.0229 24.7162 11.0593 25.0671C11.191 26.3384 11.6556 27.1457 13 27.2638C15.1762 27.4549 19.5694 27.719 24.2472 27.8119C24.2851 29.5492 24.3474 30.9187 24.4175 31.9904C24.5374 33.825 26.3812 34.6094 27.9019 33.4654C28.9275 32.6939 30.2264 31.6605 31.8228 30.2925C34.2716 28.1941 35.6704 26.6205 36.4568 25.5718C37.1811 24.6059 37.181 23.395 36.4567 22.4291C35.6702 21.3805 34.2715 19.8069 31.8228 17.7083C30.226 16.3397 28.9269 15.3061 27.9011 14.5345Z"></path></g></svg>