<svg xmlns="http://www.w3.org/2000/svg" fill="none" viewBox="0 0 48 48">


<g transform="matrix(1,0,0,1,0,0)"><circle cx="24" cy="24" r="20" fill="#ffcb6b"></circle><path fill="#d9920d" d="M29.2392 14.5289C30.04 13.7919 31.265 13.832 32.0308 14.6063L33.1814 15.7696C33.9472 16.5438 33.9869 17.7824 33.2579 18.5921C32.1726 19.7975 30.4564 21.6715 28.3279 23.8862C30.5577 26.2 32.3546 28.1614 33.4768 29.4079C34.2058 30.2176 34.1662 31.4562 33.4004 32.2304L32.2498 33.3937C31.484 34.168 30.259 34.2081 29.4582 33.4711C28.2259 32.3369 26.2871 30.5212 24 28.2681C21.7129 30.5212 19.7741 32.3369 18.5418 33.4711C17.741 34.2081 16.516 34.168 15.7502 33.3937L14.5996 32.2304C13.8338 31.4562 13.7942 30.2176 14.5232 29.4079C15.6454 28.1614 17.4423 26.2 19.6721 23.8862C17.5436 21.6715 15.8274 19.7975 14.7421 18.5921C14.0131 17.7824 14.0528 16.5438 14.8186 15.7696L15.9692 14.6063C16.735 13.832 17.96 13.7919 18.7608 14.5289C19.9536 15.6267 21.8082 17.363 24 19.5165C26.1918 17.363 28.0464 15.6267 29.2392 14.5289Z"></path></g></svg>