<svg xmlns="http://www.w3.org/2000/svg" fill="none" viewBox="0 0 48 48">
  
  
<g transform="matrix(1,0,0,1,0,0)"><circle cx="24" cy="24" r="20" fill="#ffcb6b"></circle><path fill="#f3a412" d="M22.638 34.9111C21.696 34.7777 21.1509 33.9427 21.1168 32.9919C21.0756 31.8464 21.0288 29.9516 21.0093 26.9907C18.0484 26.9712 16.1536 26.9244 15.0081 26.8832C14.0573 26.8491 13.2223 26.304 13.0889 25.362C13.0361 24.989 13 24.5375 13 24C13 23.4625 13.0361 23.011 13.0889 22.638C13.2223 21.696 14.0573 21.1509 15.0081 21.1168C16.1536 21.0756 18.0484 21.0288 21.0093 21.0093C21.0288 18.0484 21.0756 16.1536 21.1168 15.0081C21.1509 14.0573 21.696 13.2223 22.638 13.0889C23.011 13.0361 23.4625 13 24 13C24.5375 13 24.989 13.0361 25.362 13.0889C26.304 13.2223 26.8491 14.0573 26.8832 15.0081C26.9244 16.1536 26.9712 18.0484 26.9907 21.0093C29.9516 21.0288 31.8464 21.0756 32.9919 21.1168C33.9427 21.1509 34.7777 21.696 34.9111 22.638C34.9639 23.011 35 23.4625 35 24C35 24.5375 34.9639 24.989 34.9111 25.362C34.7777 26.304 33.9427 26.8491 32.9919 26.8832C31.8464 26.9244 29.9516 26.9712 26.9907 26.9907C26.9712 29.9516 26.9244 31.8464 26.8832 32.9919C26.8491 33.9427 26.304 34.7777 25.362 34.9111C24.989 34.9639 24.5375 35 24 35C23.4625 35 23.011 34.9639 22.638 34.9111Z"></path></g></svg>