<?xml version="1.0" encoding="UTF-8" standalone="no"?>
<!-- Created with Inkscape (http://www.inkscape.org/) -->

<svg
   width="59.61002mm"
   height="8.3290596mm"
   viewBox="0 0 59.61002 8.3290596"
   version="1.1"
   id="svg5"
   sodipodi:docname="logo.svg"
   inkscape:version="1.1.2 (b8e25be833, 2022-02-05)"
   xmlns:inkscape="http://www.inkscape.org/namespaces/inkscape"
   xmlns:sodipodi="http://sodipodi.sourceforge.net/DTD/sodipodi-0.dtd"
   xmlns="http://www.w3.org/2000/svg"
   xmlns:svg="http://www.w3.org/2000/svg">
  <sodipodi:namedview
     id="namedview7"
     pagecolor="#292d3e"
     bordercolor="#999999"
     borderopacity="1"
     inkscape:pageshadow="0"
     inkscape:pageopacity="0"
     inkscape:pagecheckerboard="0"
     inkscape:document-units="mm"
     showgrid="false"
     inkscape:snap-midpoints="true"
     inkscape:snap-smooth-nodes="true"
     inkscape:snap-intersection-paths="true"
     inkscape:object-paths="true"
     inkscape:snap-bbox="true"
     inkscape:bbox-paths="true"
     inkscape:bbox-nodes="true"
     inkscape:snap-bbox-edge-midpoints="true"
     inkscape:snap-bbox-midpoints="true"
     inkscape:snap-nodes="true"
     inkscape:zoom="4"
     inkscape:cx="168.875"
     inkscape:cy="69.25"
     inkscape:window-width="2880"
     inkscape:window-height="1708"
     inkscape:window-x="-12"
     inkscape:window-y="-12"
     inkscape:window-maximized="1"
     inkscape:current-layer="layer1"
     fit-margin-top="0"
     fit-margin-left="0"
     fit-margin-right="0"
     fit-margin-bottom="0" />
  <defs
     id="defs2" />
  <g
     inkscape:label="Layer 1"
     inkscape:groupmode="layer"
     id="layer1">
    <path
       style="color:#000000;fill:#fffefe;fill-opacity:1;stroke:none;-inkscape-stroke:none"
       d="m 25.619143,2.40273 c -2e-6,0.97823 0.210957,2.35137 0.75,3.54688 0.269522,0.59775 0.623283,1.15313 1.101563,1.57421 0.47828,0.42109 1.095338,0.69923 1.802734,0.69922 0.748099,0 1.331132,-0.42086 1.699219,-0.94531 0.368088,-0.52445 0.590997,-1.15444 0.802732,-1.75977 0.21174,-0.60532 0.41207,-1.18767 0.64844,-1.58007 0.23637,-0.3924 0.43783,-0.56536 0.77539,-0.58594 0.40847,-0.0249 0.69929,0.15084 1.03711,0.53906 0.33782,0.38823 0.66,0.9766 0.99023,1.59375 0.33024,0.61716 0.66931,1.26271 1.11524,1.78906 0.44593,0.52636 1.05149,0.94922 1.80859,0.94922 0.7074,0 1.29481,-0.29706 1.67578,-0.75 0.38098,-0.45293 0.57938,-1.02638 0.69727,-1.62695 0.23577,-1.20114 0.15039,-2.56387 0.15039,-3.44336 h -0.95117 c 0,0.93293 0.0671,2.2413 -0.13281,3.25977 -0.1,0.50923 -0.26638,0.93308 -0.49024,1.19921 -0.22385,0.26614 -0.47942,0.41016 -0.94922,0.41016 -0.42009,0 -0.73761,-0.20249 -1.08398,-0.61133 -0.34637,-0.40884 -0.67127,-1.00699 -1.00195,-1.625 -0.33069,-0.618 -0.6661,-1.25592 -1.11133,-1.76758 -0.44523,-0.51165 -1.06227,-0.90901 -1.8125,-0.86328 -0.69997,0.0427 -1.21045,0.51039 -1.531253,1.04297 -0.320808,0.53258 -0.521867,1.1595 -0.730469,1.75586 -0.208602,0.59636 -0.424668,1.15843 -0.683594,1.52735 -0.258925,0.36891 -0.492776,0.54101 -0.921875,0.54101 -0.469801,0 -0.83731,-0.16294 -1.175781,-0.46094 C 27.759188,6.51294 27.465258,6.07103 27.234378,5.55898 26.772617,4.53488 26.570314,3.23692 26.570315,2.40273 Z"
       id="path38264" />
    <path
       d="M 3.227906,8.22323 Q 2.476492,8.22323 2.05316,7.82106 1.640411,7.4189 1.640411,6.68865 V 3.27024 H 0 V 2.40241 H 1.640411 V 0.762 H 2.592908 V 2.40241 H 4.921234 V 3.27024 H 2.592908 v 3.41841 q 0,0.66675 0.634998,0.66675 h 1.587495 v 0.86783 z"
       style="font-size:10.5833px;line-height:1.25;font-family:'JetBrains Mono';-inkscape-font-specification:'JetBrains Mono';fill:#b0b2bd;fill-opacity:1;stroke-width:0.264583"
       id="path15711" />
    <path
       d="m 8.434893,8.32906 q -0.920747,0 -1.449912,-0.46567 -0.529165,-0.47624 -0.529165,-1.28058 0,-0.81491 0.529165,-1.28057 0.529165,-0.46567 1.428746,-0.46567 h 1.799161 V 4.25449 q 0,-0.53975 -0.328083,-0.8255 Q 9.567306,3.13266 8.974642,3.13266 8.45606,3.13266 8.106811,3.35491 7.757562,3.56657 7.704646,3.93699 H 6.752149 q 0.09525,-0.75141 0.709081,-1.19591 0.613831,-0.4445 1.534578,-0.4445 1.005414,0 1.587495,0.51858 0.582082,0.51858 0.582082,1.40758 V 8.22323 H 10.234054 V 7.11198 h -0.158749 l 0.158749,-0.15875 q 0,0.635 -0.497415,1.00541 Q 9.249807,8.32906 8.434893,8.32906 Z M 8.667726,7.57764 q 0.677331,0 1.111246,-0.33866 0.433916,-0.33867 0.433916,-0.86783 V 5.54565 H 8.434893 q -0.476248,0 -0.751414,0.26458 -0.275166,0.26459 -0.275166,0.71967 0,0.48683 0.328083,0.77258 0.338665,0.27516 0.93133,0.27516 z"
       style="font-size:10.5833px;line-height:1.25;font-family:'JetBrains Mono';-inkscape-font-specification:'JetBrains Mono';fill:#b0b2bd;fill-opacity:1;stroke-width:0.264583"
       id="path15713" />
    <path
       d="m 15.112959,8.30789 q -0.592664,0 -1.037163,-0.17991 Q 13.641881,7.93748 13.377298,7.59881 13.123299,7.26015 13.070383,6.79448 h 0.952497 q 0.0635,0.30692 0.338665,0.48683 0.285749,0.17992 0.751414,0.17992 h 0.444499 q 0.560915,0 0.836081,-0.22225 0.275165,-0.23283 0.275165,-0.61383 0,-0.37042 -0.253999,-0.58208 -0.243416,-0.22225 -0.730247,-0.29634 l -0.783165,-0.127 Q 14.044046,5.47157 13.620714,5.09057 13.207965,4.69899 13.207965,3.95816 q 0,-0.78317 0.497416,-1.2065 0.497415,-0.43391 1.492245,-0.43391 h 0.402165 q 0.836081,0 1.344079,0.39158 0.507999,0.39158 0.613832,1.05833 h -0.952497 q -0.0635,-0.27517 -0.317499,-0.43392 -0.254,-0.16933 -0.687915,-0.16933 h -0.402165 q -0.539748,0 -0.793748,0.20108 -0.243416,0.20108 -0.243416,0.60325 0,0.35983 0.211666,0.52916 0.211666,0.16934 0.666748,0.24342 l 0.783164,0.127 q 0.941914,0.14817 1.365246,0.55033 0.433915,0.40217 0.433915,1.16416 0,0.80434 -0.518581,1.27 -0.507999,0.45508 -1.545162,0.45508 z"
       style="font-size:10.5833px;line-height:1.25;font-family:'JetBrains Mono';-inkscape-font-specification:'JetBrains Mono';fill:#b0b2bd;fill-opacity:1;stroke-width:0.264583"
       id="path15715" />
    <path
       d="M 19.473283,8.22323 V 0.49742 h 0.952497 v 4.3074 h 1.12183 l 1.693328,-2.40241 h 1.09008 l -1.957911,2.77283 1.989661,3.04799 H 23.251521 L 21.558193,5.63032 H 20.42578 v 2.59291 z"
       style="font-size:10.5833px;line-height:1.25;font-family:'JetBrains Mono';-inkscape-font-specification:'JetBrains Mono';fill:#b0b2bd;fill-opacity:1;stroke-width:0.264583"
       id="path15717" />
    <path
       d="M 42.359241,8.22323 V 7.3554 h 2.06374 V 3.27024 h -1.79916 V 2.40241 h 2.75166 V 7.3554 h 1.95791 v 0.86783 z m 2.43415,-6.86857 q -0.34924,0 -0.55033,-0.17991 -0.20108,-0.17992 -0.20108,-0.48683 0,-0.3175 0.20108,-0.49742 Q 44.444151,0 44.793391,0 q 0.34925,0 0.55034,0.1905 0.20108,0.17992 0.20108,0.49742 0,0.30691 -0.20108,0.48683 -0.20109,0.17991 -0.55034,0.17991 z"
       style="font-size:10.5833px;line-height:1.25;font-family:'JetBrains Mono';-inkscape-font-specification:'JetBrains Mono';fill:#b0b2bd;fill-opacity:1;stroke-width:0.264583"
       id="path15721" />
    <path
       d="M 48.984391,8.22323 V 2.40241 h 0.93133 v 1.11125 h 0.22225 l -0.30692,0.68791 q 0,-0.94191 0.40217,-1.41816 0.41274,-0.48683 1.21708,-0.48683 0.92074,0 1.46049,0.58208 0.55033,0.5715 0.55033,1.55574 v 0.34925 h -0.95249 V 4.51907 q 0,-0.68791 -0.33867,-1.04775 -0.32808,-0.37041 -0.94191,-0.37041 -0.60325,0 -0.9525,0.37041 -0.33867,0.37042 -0.33867,1.04775 v 3.70416 z"
       style="font-size:10.5833px;line-height:1.25;font-family:'JetBrains Mono';-inkscape-font-specification:'JetBrains Mono';fill:#b0b2bd;fill-opacity:1;stroke-width:0.264583"
       id="path15723" />
    <path
       d="m 57.334611,8.32906 q -0.68791,0 -1.20649,-0.27517 -0.508,-0.27516 -0.79375,-0.77258 -0.27517,-0.508 -0.27517,-1.17474 v -1.5875 q 0,-0.67733 0.27517,-1.17474 0.28575,-0.49742 0.79375,-0.77259 0.51858,-0.27516 1.20649,-0.27516 0.68792,0 1.19592,0.27516 0.51858,0.27517 0.79374,0.77259 0.28575,0.49741 0.28575,1.17474 v 1.02658 h -3.61949 v 0.56092 q 0,0.68791 0.34925,1.05833 0.34925,0.35983 0.99483,0.35983 0.55034,0 0.889,-0.1905 0.33867,-0.20108 0.41275,-0.59267 h 0.9525 q -0.0953,0.73025 -0.71967,1.16417 -0.61383,0.42333 -1.53458,0.42333 z m 1.34408,-3.41841 V 4.51907 q 0,-0.68791 -0.34925,-1.05833 -0.33866,-0.37041 -0.99483,-0.37041 -0.64558,0 -0.99483,0.37041 -0.34925,0.37042 -0.34925,1.05833 v 0.30692 h 2.76225 z"
       style="font-size:10.5833px;line-height:1.25;font-family:'JetBrains Mono';-inkscape-font-specification:'JetBrains Mono';fill:#b0b2bd;fill-opacity:1;stroke-width:0.264583"
       id="path15725" />
  </g>
</svg>
