<svg id="Layer_1" data-name="Layer 1" xmlns="http://www.w3.org/2000/svg" xmlns:xlink="http://www.w3.org/1999/xlink" viewBox="0 0 24 24"><defs><style>.cls-1{fill:none;}.cls-2{clip-path:url(#clip-path);}</style><clipPath id="clip-path"><rect class="cls-1" y="-0.08" width="24" height="24"/></clipPath></defs><title>archive-open</title><g class="cls-2"><path d="M16,21.75H8A3.75,3.75,0,0,1,4.25,18V12A3.75,3.75,0,0,1,8,8.25h8A3.75,3.75,0,0,1,19.75,12v6A3.75,3.75,0,0,1,16,21.75Zm-8-12A2.25,2.25,0,0,0,5.75,12v6A2.25,2.25,0,0,0,8,20.25h8A2.25,2.25,0,0,0,18.25,18V12A2.25,2.25,0,0,0,16,9.75Z"/><path d="M6,6.75a.75.75,0,0,1-.18-1.48l12-3a.75.75,0,0,1,.36,1.46l-12,3Z"/><path d="M13,12.75H11a.75.75,0,0,1,0-1.5h2a.75.75,0,0,1,0,1.5Z"/></g></svg>