<svg id="Layer_1" data-name="Layer 1" xmlns="http://www.w3.org/2000/svg" xmlns:xlink="http://www.w3.org/1999/xlink" viewBox="0 0 24 24"><defs><style>.cls-1{fill:none;}.cls-2{clip-path:url(#clip-path);}</style><clipPath id="clip-path"><rect class="cls-1" x="0.15" y="-0.08" width="24" height="24"/></clipPath></defs><title>archive</title><g class="cls-2"><path d="M16,20.25H8A3.75,3.75,0,0,1,4.25,16.5v-6A3.75,3.75,0,0,1,8,6.75h8a3.75,3.75,0,0,1,3.75,3.75v6A3.75,3.75,0,0,1,16,20.25Zm-8-12A2.25,2.25,0,0,0,5.75,10.5v6A2.25,2.25,0,0,0,8,18.75h8a2.25,2.25,0,0,0,2.25-2.25v-6A2.25,2.25,0,0,0,16,8.25Z"/><path d="M18,5.25H6a.75.75,0,0,1,0-1.5H18a.75.75,0,0,1,0,1.5Z"/><path d="M13,11.25H11a.75.75,0,0,1,0-1.5h2a.75.75,0,0,1,0,1.5Z"/></g></svg>