<svg id="Layer_1" data-name="Layer 1" xmlns="http://www.w3.org/2000/svg" xmlns:xlink="http://www.w3.org/1999/xlink" viewBox="0 0 24 24"><defs><style>.cls-1{fill:none;}.cls-2{clip-path:url(#clip-path);}</style><clipPath id="clip-path"><rect class="cls-1" width="24" height="24"/></clipPath></defs><title>arrow-down</title><g class="cls-2"><path d="M12,19.08a1.71,1.71,0,0,1-1.4-.7L2.6,7.72a1.75,1.75,0,0,1-.16-1.84A1.73,1.73,0,0,1,4,4.92H20a1.75,1.75,0,0,1,1.57,1,1.77,1.77,0,0,1-.17,1.84l-8,10.66A1.71,1.71,0,0,1,12,19.08ZM4,6.42a.23.23,0,0,0-.22.13.25.25,0,0,0,0,.27l8,10.66c.13.18.27.18.4,0l8-10.66a.23.23,0,0,0,0-.26A.22.22,0,0,0,20,6.42Z"/></g></svg>