<svg id="Layer_1" data-name="Layer 1" xmlns="http://www.w3.org/2000/svg" xmlns:xlink="http://www.w3.org/1999/xlink" viewBox="0 0 24 24"><defs><style>.cls-1{fill:none;}.cls-2{clip-path:url(#clip-path);}</style><clipPath id="clip-path"><rect class="cls-1" y="0.02" width="24" height="24"/></clipPath></defs><title>arrow-down-double-alt</title><g class="cls-2"><path d="M12,13.58a.71.71,0,0,1-.53-.22L8.19,10.09A.75.75,0,0,1,8.19,9,.74.74,0,0,1,9.25,9l2,2V3.17a.75.75,0,0,1,1.5,0v9.66a.75.75,0,0,1-.46.7A1,1,0,0,1,12,13.58Z"/><path d="M12,13.58a.74.74,0,0,1-.53-.22.75.75,0,0,1,0-1.06L14.75,9a.74.74,0,0,1,1.06,0,.75.75,0,0,1,0,1.06l-3.28,3.27A.74.74,0,0,1,12,13.58Z"/><path d="M18.94,16.8H5.06a.75.75,0,1,1,0-1.5H18.94a.75.75,0,0,1,0,1.5Z"/><path d="M18.94,21.58H5.06a.75.75,0,1,1,0-1.5H18.94a.75.75,0,0,1,0,1.5Z"/></g></svg>