<svg id="Layer_1" data-name="Layer 1" xmlns="http://www.w3.org/2000/svg" xmlns:xlink="http://www.w3.org/1999/xlink" viewBox="0 0 24 24"><defs><style>.cls-1{fill:none;}.cls-2{clip-path:url(#clip-path);}</style><clipPath id="clip-path"><rect class="cls-1" y="-0.04" width="24" height="24"/></clipPath></defs><title>arrow-up</title><g class="cls-2"><path d="M20,19.08H4a1.73,1.73,0,0,1-1.56-1,1.75,1.75,0,0,1,.16-1.84l8-10.66a1.8,1.8,0,0,1,2.8,0l8,10.66a1.77,1.77,0,0,1,.17,1.84A1.75,1.75,0,0,1,20,19.08ZM12,6.42a.23.23,0,0,0-.2.1l-8,10.66a.25.25,0,0,0,0,.27.23.23,0,0,0,.22.13H20a.22.22,0,0,0,.22-.14.23.23,0,0,0,0-.26l-8-10.66A.23.23,0,0,0,12,6.42Z"/></g></svg>