<svg id="Layer_1" data-name="Layer 1" xmlns="http://www.w3.org/2000/svg" xmlns:xlink="http://www.w3.org/1999/xlink" viewBox="0 0 24 24"><defs><style>.cls-1{fill:none;}.cls-2{clip-path:url(#clip-path);}</style><clipPath id="clip-path"><rect class="cls-1" width="24" height="24"/></clipPath></defs><title>arrow-double-45</title><g class="cls-2"><path d="M18.18,18.92a.77.77,0,0,1-.53-.21L4.45,5.57a.75.75,0,0,1,0-1.06.76.76,0,0,1,1.07,0l13.2,13.14a.75.75,0,0,1,0,1.06A.74.74,0,0,1,18.18,18.92Z"/><path d="M11.6,20.07a.75.75,0,0,1,0-1.5l7,0,0-7a.76.76,0,0,1,.75-.75h0a.74.74,0,0,1,.75.75l0,7.71a.75.75,0,0,1-.75.75l-7.71,0Z"/><path d="M4.71,13.16A.74.74,0,0,1,4,12.41l0-7.71A.75.75,0,0,1,4.69,4l7.71,0h0a.75.75,0,1,1,0,1.5l-7,0,0,7a.76.76,0,0,1-.75.75Z"/></g></svg>