<svg id="Layer_1" data-name="Layer 1" xmlns="http://www.w3.org/2000/svg" xmlns:xlink="http://www.w3.org/1999/xlink" viewBox="0 0 24 24"><defs><style>.cls-1{fill:none;}.cls-2{clip-path:url(#clip-path);}</style><clipPath id="clip-path"><rect class="cls-1" width="24" height="24"/></clipPath></defs><title>arrow-double-right</title><g class="cls-2"><path d="M3.51,21.75a1.82,1.82,0,0,1-.79-.18,1.74,1.74,0,0,1-1-1.57V4a1.73,1.73,0,0,1,1-1.57,1.71,1.71,0,0,1,1.83.18L9.29,6.15a.75.75,0,1,1-.9,1.2L3.65,3.8a.23.23,0,0,0-.26,0A.24.24,0,0,0,3.25,4V20a.24.24,0,0,0,.14.22.23.23,0,0,0,.26,0l4.74-3.55a.76.76,0,0,1,1,.15.75.75,0,0,1-.15,1.05L4.55,21.4A1.74,1.74,0,0,1,3.51,21.75Z"/><path d="M9.84,21.75a1.82,1.82,0,0,1-.79-.18,1.75,1.75,0,0,1-1-1.57V4a1.73,1.73,0,0,1,1-1.56,1.75,1.75,0,0,1,1.84.16l10.66,8a1.75,1.75,0,0,1,0,2.8l-10.66,8A1.79,1.79,0,0,1,9.84,21.75Zm0-18a.21.21,0,0,0-.12,0A.23.23,0,0,0,9.59,4V20a.22.22,0,0,0,.13.22.24.24,0,0,0,.27,0l10.66-8a.23.23,0,0,0,.1-.2.24.24,0,0,0-.1-.2L10,3.8A.26.26,0,0,0,9.84,3.75Z"/></g></svg>