<svg id="Layer_1" data-name="Layer 1" xmlns="http://www.w3.org/2000/svg" xmlns:xlink="http://www.w3.org/1999/xlink" viewBox="0 0 24 24"><defs><style>.cls-1{fill:none;}.cls-2{clip-path:url(#clip-path);}</style><clipPath id="clip-path"><rect class="cls-1" width="24" height="24"/></clipPath></defs><title>arrow-up-double-alt</title><g class="cls-2"><path d="M12,21.58a.75.75,0,0,1-.75-.75V11.17a.75.75,0,0,1,1.28-.53l3.28,3.27a.75.75,0,0,1,0,1.06.74.74,0,0,1-1.06,0l-2-2v7.85A.75.75,0,0,1,12,21.58Z"/><path d="M8.72,15.19A.74.74,0,0,1,8.19,15a.75.75,0,0,1,0-1.06l3.28-3.27a.74.74,0,0,1,1.06,0,.75.75,0,0,1,0,1.06L9.25,15A.73.73,0,0,1,8.72,15.19Z"/><path d="M18.94,8.7H5.06a.75.75,0,1,1,0-1.5H18.94a.75.75,0,0,1,0,1.5Z"/><path d="M18.94,3.92H5.06a.75.75,0,0,1,0-1.5H18.94a.75.75,0,0,1,0,1.5Z"/></g></svg>