<svg id="Layer_1" data-name="Layer 1" xmlns="http://www.w3.org/2000/svg" xmlns:xlink="http://www.w3.org/1999/xlink" viewBox="0 0 24 24"><defs><style>.cls-1{fill:none;}.cls-2{clip-path:url(#clip-path);}</style><clipPath id="clip-path"><rect class="cls-1" width="24" height="24"/></clipPath></defs><title>arrow-right-double</title><g class="cls-2"><path d="M16,16.71a.74.74,0,0,1-.53-.22.75.75,0,0,1,0-1.06l2.68-2.68H8.1a.75.75,0,0,1,0-1.5H19.94a.75.75,0,0,1,.53,1.28l-4,4A.74.74,0,0,1,16,16.71Z"/><path d="M19.94,12.75a.71.71,0,0,1-.53-.22l-4-4a.75.75,0,1,1,1.06-1.06l4,4a.75.75,0,0,1,0,1.06A.74.74,0,0,1,19.94,12.75Z"/><path d="M8.1,16.71A.76.76,0,0,1,7.35,16V8a.75.75,0,1,1,1.5,0V16A.75.75,0,0,1,8.1,16.71Z"/><path d="M4.06,16.71A.76.76,0,0,1,3.31,16V8a.75.75,0,0,1,1.5,0V16A.75.75,0,0,1,4.06,16.71Z"/></g></svg>