<svg id="Layer_1" data-name="Layer 1" xmlns="http://www.w3.org/2000/svg" xmlns:xlink="http://www.w3.org/1999/xlink" viewBox="0 0 24 24"><defs><style>.cls-1{fill:none;}.cls-2{clip-path:url(#clip-path);}</style><clipPath id="clip-path"><rect class="cls-1" width="24" height="24"/></clipPath></defs><title>arrow-double-down</title><g class="cls-2"><path d="M17.25,9.59a.74.74,0,0,1-.45-.15.75.75,0,0,1-.15-1L20.2,3.65a.25.25,0,0,0-.2-.4H4a.24.24,0,0,0-.22.14.23.23,0,0,0,0,.26L7.35,8.39a.75.75,0,1,1-1.2.9L2.6,4.55a1.73,1.73,0,0,1-.16-1.83A1.72,1.72,0,0,1,4,1.75H20a1.73,1.73,0,0,1,1.57,1,1.69,1.69,0,0,1-.18,1.82L17.85,9.29A.77.77,0,0,1,17.25,9.59Z"/><path d="M12,22.25a1.71,1.71,0,0,1-1.4-.7l-8-10.66a1.77,1.77,0,0,1-.17-1.84A1.75,1.75,0,0,1,4,8.09H20a1.73,1.73,0,0,1,1.56,1,1.75,1.75,0,0,1-.16,1.84l-8,10.66A1.71,1.71,0,0,1,12,22.25ZM4,9.59a.22.22,0,0,0-.22.13.25.25,0,0,0,0,.27l8,10.66c.13.18.27.18.4,0L20.2,10a.25.25,0,0,0,0-.27A.23.23,0,0,0,20,9.59Z"/></g></svg>