<svg id="Layer_1" data-name="Layer 1" xmlns="http://www.w3.org/2000/svg" xmlns:xlink="http://www.w3.org/1999/xlink" viewBox="0 0 24 24"><defs><style>.cls-1{fill:none;}.cls-2{clip-path:url(#clip-path);}</style><clipPath id="clip-path"><rect class="cls-1" width="24" height="24"/></clipPath></defs><title>arrow-block-right</title><g class="cls-2"><path d="M13,20.74a1,1,0,0,1-.29,0,.75.75,0,0,1-.46-.7V16.7H3A.76.76,0,0,1,2.26,16V8A.76.76,0,0,1,3,7.2h9.25l0-3.19a.75.75,0,0,1,1.28-.53l8,8a.75.75,0,0,1,0,1.06l-8,8A.71.71,0,0,1,13,20.74ZM3.76,15.2H13a.76.76,0,0,1,.75.75v2.23L19.93,12,13.75,5.83V8a.77.77,0,0,1-.22.53A.75.75,0,0,1,13,8.7H3.76Z"/></g></svg>