<svg id="Layer_1" data-name="Layer 1" xmlns="http://www.w3.org/2000/svg" xmlns:xlink="http://www.w3.org/1999/xlink" viewBox="0 0 24 24"><defs><style>.cls-1{fill:none;}.cls-2{clip-path:url(#clip-path);}</style><clipPath id="clip-path"><rect class="cls-1" y="-0.04" width="24" height="24"/></clipPath></defs><title>arrow-dot-right</title><g class="cls-2"><path d="M7,12.78A.76.76,0,0,1,6.25,12,.75.75,0,0,1,7,11.28l12.82,0h0a.75.75,0,0,1,0,1.5L7,12.78Z"/><path d="M16.47,17.5a.77.77,0,0,1-.53-.21.75.75,0,0,1,0-1.06L20.15,12,15.92,7.78A.75.75,0,0,1,17,6.71l4.76,4.75a.75.75,0,0,1,0,1.06L17,17.28A.73.73,0,0,1,16.47,17.5Z"/><path d="M4.89,14.9A2.86,2.86,0,1,1,7.75,12,2.87,2.87,0,0,1,4.89,14.9Zm0-4.22A1.36,1.36,0,1,0,6.25,12,1.36,1.36,0,0,0,4.89,10.68Z"/></g></svg>