<svg id="Layer_1" data-name="Layer 1" xmlns="http://www.w3.org/2000/svg" xmlns:xlink="http://www.w3.org/1999/xlink" viewBox="0 0 24 24"><defs><style>.cls-1{fill:none;}.cls-2{clip-path:url(#clip-path);}</style><clipPath id="clip-path"><rect class="cls-1" width="24" height="24"/></clipPath></defs><title>arrow-45</title><g class="cls-2"><path d="M5.57,19.2A.77.77,0,0,1,5,19a.75.75,0,0,1,0-1.06L16.87,6a.75.75,0,0,1,1.06,0,.77.77,0,0,1,0,1.07L6.1,19A.74.74,0,0,1,5.57,19.2Z"/><path d="M18.43,13.24a.76.76,0,0,1-.75-.75l0-6.19H11.47a.75.75,0,0,1,0-1.5h6.94a.74.74,0,0,1,.53.21.77.77,0,0,1,.22.53l0,7a.75.75,0,0,1-.75.75Z"/></g></svg>