<svg id="Layer_1" data-name="Layer 1" xmlns="http://www.w3.org/2000/svg" xmlns:xlink="http://www.w3.org/1999/xlink" viewBox="0 0 24 24"><defs><style>.cls-1{fill:none;}.cls-2{clip-path:url(#clip-path);}</style><clipPath id="clip-path"><rect class="cls-1" width="24" height="24"/></clipPath></defs><title>arrow-left-double</title><g class="cls-2"><path d="M15.9,12.75H4.06a.75.75,0,0,1-.53-1.28l4-4A.75.75,0,0,1,8.55,8.57L5.87,11.25h10a.75.75,0,1,1,0,1.5Z"/><path d="M8,16.71a.74.74,0,0,1-.53-.22l-4-4a.75.75,0,1,1,1.06-1.06l4,4a.75.75,0,0,1,0,1.06A.74.74,0,0,1,8,16.71Z"/><path d="M15.9,16.71a.75.75,0,0,1-.75-.75V8a.75.75,0,1,1,1.5,0V16A.76.76,0,0,1,15.9,16.71Z"/><path d="M19.94,16.71a.75.75,0,0,1-.75-.75V8a.75.75,0,0,1,1.5,0V16A.76.76,0,0,1,19.94,16.71Z"/></g></svg>