<svg id="Layer_1" data-name="Layer 1" xmlns="http://www.w3.org/2000/svg" xmlns:xlink="http://www.w3.org/1999/xlink" viewBox="0 0 24 24"><defs><style>.cls-1{fill:none;}.cls-2{clip-path:url(#clip-path);}</style><clipPath id="clip-path"><rect class="cls-1" width="24" height="24"/></clipPath></defs><title>arrow-double</title><g class="cls-2"><path d="M3.09,12.79a.75.75,0,0,1,0-1.5l16.77,0h0a.74.74,0,0,1,.75.74.75.75,0,0,1-.74.76l-16.77,0Z"/><path d="M16.41,17.66a.71.71,0,0,1-.53-.22.75.75,0,0,1,0-1.06L20.24,12,15.85,7.63a.75.75,0,0,1,0-1.06.75.75,0,0,1,1.06,0l4.92,4.9a.75.75,0,0,1,0,1.06l-4.89,4.92A.74.74,0,0,1,16.41,17.66Z"/><path d="M7.62,17.66a.79.79,0,0,1-.53-.22l-4.92-4.9a.75.75,0,0,1,0-1.06L7.06,6.56A.75.75,0,0,1,8.13,7.62L3.76,12l4.39,4.36a.76.76,0,0,1-.53,1.29Z"/></g></svg>