<svg id="Layer_1" data-name="Layer 1" xmlns="http://www.w3.org/2000/svg" xmlns:xlink="http://www.w3.org/1999/xlink" viewBox="0 0 24 24"><defs><style>.cls-1{fill:none;}.cls-2{clip-path:url(#clip-path);}</style><clipPath id="clip-path"><rect class="cls-1" width="24" height="24"/></clipPath></defs><title>arrow-block-down</title><g class="cls-2"><path d="M12,21.74a.71.71,0,0,1-.53-.22l-8-8A.75.75,0,0,1,4,12.26H7.3V3a.76.76,0,0,1,.75-.75h8A.76.76,0,0,1,16.8,3v9.25l3.19,0h0a.75.75,0,0,1,.69.47.72.72,0,0,1-.16.81l-8,8A.74.74,0,0,1,12,21.74Zm-6.17-8L12,19.93l6.18-6.18H16.05A.75.75,0,0,1,15.3,13V3.76H8.8V13a.76.76,0,0,1-.75.75Z"/></g></svg>