<svg id="Layer_1" data-name="Layer 1" xmlns="http://www.w3.org/2000/svg" xmlns:xlink="http://www.w3.org/1999/xlink" viewBox="0 0 24 24"><defs><style>.cls-1{fill:none;}.cls-2{clip-path:url(#clip-path);}</style><clipPath id="clip-path"><rect class="cls-1" y="-0.04" width="24" height="24"/></clipPath></defs><title>arrow-dot-left</title><g class="cls-2"><path d="M4.18,12.76a.75.75,0,1,1,0-1.5l12.81,0h0a.76.76,0,0,1,.75.75.75.75,0,0,1-.75.75l-12.82,0Z"/><path d="M7.55,17.5A.77.77,0,0,1,7,17.29L2.26,12.54a.75.75,0,0,1,0-1.06L7,6.72a.75.75,0,0,1,1.06,0,.75.75,0,0,1,0,1.06L3.85,12l4.23,4.21a.75.75,0,0,1,0,1.06A.73.73,0,0,1,7.55,17.5Z"/><path d="M19.11,14.82A2.86,2.86,0,1,1,22,12,2.86,2.86,0,0,1,19.11,14.82Zm0-4.22A1.36,1.36,0,1,0,20.47,12,1.36,1.36,0,0,0,19.11,10.6Z"/></g></svg>