<svg id="Layer_1" data-name="Layer 1" xmlns="http://www.w3.org/2000/svg" xmlns:xlink="http://www.w3.org/1999/xlink" viewBox="0 0 24 24"><defs><style>.cls-1{fill:none;}.cls-2{clip-path:url(#clip-path);}</style><clipPath id="clip-path"><rect class="cls-1" width="24" height="24"/></clipPath></defs><title>arrow-up-double</title><g class="cls-2"><path d="M12,16.65a.76.76,0,0,1-.75-.75V4.06a.75.75,0,0,1,1.28-.53l4,4a.75.75,0,0,1-1.06,1.06L12.75,5.87v10A.76.76,0,0,1,12,16.65Z"/><path d="M8,8.77a.74.74,0,0,1-.53-.22.75.75,0,0,1,0-1.06l4-4a.75.75,0,1,1,1.06,1.06l-4,4A.73.73,0,0,1,8,8.77Z"/><path d="M16,16.65H8a.75.75,0,0,1,0-1.5H16a.75.75,0,0,1,0,1.5Z"/><path d="M16,20.69H8a.75.75,0,1,1,0-1.5H16a.75.75,0,1,1,0,1.5Z"/></g></svg>