<svg id="Layer_1" data-name="Layer 1" xmlns="http://www.w3.org/2000/svg" xmlns:xlink="http://www.w3.org/1999/xlink" viewBox="0 0 24 24"><defs><style>.cls-1{fill:none;}.cls-2{clip-path:url(#clip-path);}</style><clipPath id="clip-path"><rect class="cls-1" width="24" height="24"/></clipPath></defs><title>arrow-curve</title><g class="cls-2"><path d="M5.19,22.47a.72.72,0,0,1-.29-.06.74.74,0,0,1-.46-.69V10.78c0-4.89,4.12-6.22,6.29-6.24h9.19L18.2,2.81a.74.74,0,0,1,0-1.06.75.75,0,0,1,1.06,0l3,3a.74.74,0,0,1,.17.81.76.76,0,0,1-.7.47h-11c-.19,0-4.8.13-4.8,4.74v9.13l1.64-1.64a.75.75,0,1,1,1.06,1.06L5.72,22.25A.79.79,0,0,1,5.19,22.47Z"/><path d="M18.81,9a.79.79,0,0,1-.53-.22.75.75,0,0,1,0-1.06L21.2,4.76a.75.75,0,0,1,1.06,1.06L19.34,8.74A.75.75,0,0,1,18.81,9Z"/><path d="M5.19,22.47a.71.71,0,0,1-.53-.22L1.74,19.33a.74.74,0,0,1,0-1.06.75.75,0,0,1,1.06,0l2.92,2.92a.75.75,0,0,1,0,1.06A.74.74,0,0,1,5.19,22.47Z"/></g></svg>