<svg id="Layer_1" data-name="Layer 1" xmlns="http://www.w3.org/2000/svg" xmlns:xlink="http://www.w3.org/1999/xlink" viewBox="0 0 24 24"><defs><style>.cls-1{fill:none;}.cls-2{clip-path:url(#clip-path);}</style><clipPath id="clip-path"><rect class="cls-1" width="24" height="24"/></clipPath></defs><title>arrow-double-left</title><g class="cls-2"><path d="M20.5,21.75a1.76,1.76,0,0,1-1.06-.36l-4.73-3.54a.75.75,0,0,1,.9-1.2l4.74,3.55a.23.23,0,0,0,.26,0,.24.24,0,0,0,.14-.22V4a.24.24,0,0,0-.14-.22.23.23,0,0,0-.26,0L15.61,7.35a.75.75,0,0,1-.9-1.2L19.45,2.6A1.75,1.75,0,0,1,22.25,4V20a1.75,1.75,0,0,1-1.75,1.75Z"/><path d="M14.16,21.75a1.77,1.77,0,0,1-1.05-.35l-10.66-8a1.75,1.75,0,0,1,0-2.8l10.66-8A1.77,1.77,0,0,1,15,2.43a1.75,1.75,0,0,1,1,1.57V20a1.73,1.73,0,0,1-1,1.56A1.7,1.7,0,0,1,14.16,21.75Zm0-18a.26.26,0,0,0-.15,0l-10.66,8a.25.25,0,0,0,0,.4L14,20.2a.24.24,0,0,0,.27,0,.23.23,0,0,0,.13-.22V4a.23.23,0,0,0-.13-.22A.21.21,0,0,0,14.16,3.75Z"/></g></svg>