<svg id="Layer_1" data-name="Layer 1" xmlns="http://www.w3.org/2000/svg" xmlns:xlink="http://www.w3.org/1999/xlink" viewBox="0 0 24 24"><defs><style>.cls-1{fill:none;}.cls-2{clip-path:url(#clip-path);}</style><clipPath id="clip-path"><rect class="cls-1" width="24" height="24"/></clipPath></defs><title>arrow-left</title><g class="cls-2"><path d="M17.33,21.75a1.77,1.77,0,0,1-1-.35l-10.66-8a1.75,1.75,0,0,1,0-2.8l10.66-8a1.75,1.75,0,0,1,1.84-.16,1.73,1.73,0,0,1,1,1.56V20a1.73,1.73,0,0,1-1,1.56A1.7,1.7,0,0,1,17.33,21.75Zm0-18a.26.26,0,0,0-.15,0l-10.66,8a.25.25,0,0,0,0,.4l10.66,8a.25.25,0,0,0,.27,0,.23.23,0,0,0,.13-.22V4a.23.23,0,0,0-.13-.22A.21.21,0,0,0,17.33,3.75Z"/></g></svg>