<svg id="Layer_1" data-name="Layer 1" xmlns="http://www.w3.org/2000/svg" xmlns:xlink="http://www.w3.org/1999/xlink" viewBox="0 0 24 24"><defs><style>.cls-1{fill:none;}.cls-2{clip-path:url(#clip-path);}</style><clipPath id="clip-path"><rect class="cls-1" width="24" height="24"/></clipPath></defs><title>arrow-down-double</title><g class="cls-2"><path d="M12,20.69a.75.75,0,0,1-.53-.22l-4-4a.75.75,0,1,1,1.06-1.06l2.68,2.68V8.1a.75.75,0,0,1,1.5,0V19.94a.76.76,0,0,1-.75.75Z"/><path d="M12,20.69a.79.79,0,0,1-.53-.22.75.75,0,0,1,0-1.06l4-4a.75.75,0,0,1,1.06,1.06l-4,4A.79.79,0,0,1,12,20.69Z"/><path d="M16,8.85H8a.75.75,0,0,1,0-1.5H16a.75.75,0,0,1,0,1.5Z"/><path d="M16,4.81H8a.75.75,0,0,1,0-1.5H16a.75.75,0,1,1,0,1.5Z"/></g></svg>