<svg id="Layer_1" data-name="Layer 1" xmlns="http://www.w3.org/2000/svg" xmlns:xlink="http://www.w3.org/1999/xlink" viewBox="0 0 24 24"><defs><style>.cls-1{fill:none;}.cls-2{clip-path:url(#clip-path);}</style><clipPath id="clip-path"><rect class="cls-1" width="24" height="24"/></clipPath></defs><title>arrow-block-up</title><g class="cls-2"><path d="M16,21.74H8A.76.76,0,0,1,7.2,21V11.74L4,11.77H4a.74.74,0,0,1-.69-.47.72.72,0,0,1,.16-.81l8-8a.75.75,0,0,1,1.06,0l8,8A.75.75,0,0,1,20,11.74H16.7V21A.76.76,0,0,1,16,21.74ZM8.7,20.24h6.5V11a.76.76,0,0,1,.75-.75h2.23L12,4.07,5.83,10.25H8a.76.76,0,0,1,.53.22A.75.75,0,0,1,8.7,11Z"/></g></svg>