<svg id="Layer_1" data-name="Layer 1" xmlns="http://www.w3.org/2000/svg" xmlns:xlink="http://www.w3.org/1999/xlink" viewBox="0 0 24 24"><defs><style>.cls-1{fill:none;}.cls-2{clip-path:url(#clip-path);}</style><clipPath id="clip-path"><rect class="cls-1" width="24" height="24"/></clipPath></defs><title>arrow-block-left</title><g class="cls-2"><path d="M11,20.74a.71.71,0,0,1-.53-.22l-8-8a.75.75,0,0,1,0-1.06l8-8A.75.75,0,0,1,11.74,4V7.3H21a.76.76,0,0,1,.75.75v8a.76.76,0,0,1-.75.75H11.74l0,3.19a.74.74,0,0,1-.47.69A.71.71,0,0,1,11,20.74ZM4.07,12l6.18,6.18V16.05A.75.75,0,0,1,11,15.3h9.25V8.8H11a.76.76,0,0,1-.75-.75V5.82Z"/></g></svg>