<svg id="Layer_1" data-name="Layer 1" xmlns="http://www.w3.org/2000/svg" xmlns:xlink="http://www.w3.org/1999/xlink" viewBox="0 0 24 24"><defs><style>.cls-1{fill:none;}.cls-2{clip-path:url(#clip-path);}</style><clipPath id="clip-path"><rect class="cls-1" y="-0.04" width="24" height="24"/></clipPath></defs><title>arrow-right</title><g class="cls-2"><path d="M6.67,21.75a1.7,1.7,0,0,1-.79-.19,1.73,1.73,0,0,1-1-1.56V4a1.73,1.73,0,0,1,1-1.56,1.75,1.75,0,0,1,1.84.16l10.66,8a1.75,1.75,0,0,1,0,2.8l-10.66,8A1.77,1.77,0,0,1,6.67,21.75Zm0-18a.21.21,0,0,0-.12,0A.23.23,0,0,0,6.42,4V20a.23.23,0,0,0,.13.22.25.25,0,0,0,.27,0l10.66-8a.25.25,0,0,0,0-.4L6.82,3.8A.26.26,0,0,0,6.67,3.75Z"/></g></svg>