<svg id="Layer_1" data-name="Layer 1" xmlns="http://www.w3.org/2000/svg" xmlns:xlink="http://www.w3.org/1999/xlink" viewBox="0 0 24 24"><defs><style>.cls-1{fill:none;}.cls-2{clip-path:url(#clip-path);}</style><clipPath id="clip-path"><rect class="cls-1" width="24" height="24"/></clipPath></defs><title>arrow-dot-up</title><g class="cls-2"><path d="M12,17.75a.75.75,0,0,1-.75-.75l0-12.82a.75.75,0,0,1,1.5,0l0,12.81a.76.76,0,0,1-.75.76Z"/><path d="M7.24,8.3a.7.7,0,0,1-.52-.22A.75.75,0,0,1,6.71,7l4.75-4.76a.75.75,0,0,1,1.06,0L17.28,7a.75.75,0,0,1,0,1.06.75.75,0,0,1-1.06,0L12,3.85,7.78,8.08A.75.75,0,0,1,7.24,8.3Z"/><path d="M12,22a2.86,2.86,0,1,1,2.86-2.85A2.86,2.86,0,0,1,12,22Zm0-4.21a1.36,1.36,0,1,0,1.36,1.36A1.36,1.36,0,0,0,12,17.75Z"/></g></svg>