<svg id="Layer_1" data-name="Layer 1" xmlns="http://www.w3.org/2000/svg" xmlns:xlink="http://www.w3.org/1999/xlink" viewBox="0 0 24 24"><defs><style>.cls-1{fill:none;}.cls-2{clip-path:url(#clip-path);}</style><clipPath id="clip-path"><rect class="cls-1" width="24" height="24"/></clipPath></defs><title>arrow-double-slash</title><g class="cls-2"><path d="M3.09,13.08a.75.75,0,0,1,0-1.5l16.77,0h0a.75.75,0,0,1,0,1.5l-16.77,0Z"/><path d="M16.41,18a.76.76,0,0,1-.54-1.28l4.37-4.39L15.85,7.92a.75.75,0,1,1,1.06-1.06l4.92,4.89a.75.75,0,0,1,0,1.06l-4.89,4.92A.75.75,0,0,1,16.41,18Z"/><path d="M7.62,18a.74.74,0,0,1-.53-.22l-4.92-4.9A.75.75,0,0,1,2,12.3a.77.77,0,0,1,.22-.53L7.06,6.85a.75.75,0,0,1,1.06,0,.75.75,0,0,1,0,1.06L3.76,12.3l4.39,4.37a.75.75,0,0,1,0,1.06A.74.74,0,0,1,7.62,18Z"/><path d="M12,19.69a.76.76,0,0,1-.75-.75V5.06a.75.75,0,1,1,1.5,0V18.94A.76.76,0,0,1,12,19.69Z"/></g></svg>