<svg id="Layer_1" data-name="Layer 1" xmlns="http://www.w3.org/2000/svg" xmlns:xlink="http://www.w3.org/1999/xlink" viewBox="0 0 24 24"><defs><style>.cls-1{fill:none;}.cls-2{clip-path:url(#clip-path);}</style><clipPath id="clip-path"><rect class="cls-1" width="24" height="24"/></clipPath></defs><title>arrow-double-up</title><g class="cls-2"><path d="M20,22.25H4a1.73,1.73,0,0,1-1.57-1,1.69,1.69,0,0,1,.18-1.82l3.54-4.74a.75.75,0,1,1,1.2.9L3.8,20.35a.23.23,0,0,0,0,.26.22.22,0,0,0,.22.14H20a.24.24,0,0,0,.22-.14.23.23,0,0,0,0-.26l-3.55-4.74a.75.75,0,1,1,1.2-.9l3.55,4.74a1.75,1.75,0,0,1-1.4,2.8Z"/><path d="M20,15.91H4a1.73,1.73,0,0,1-1.56-1,1.75,1.75,0,0,1,.16-1.84l8-10.66a1.72,1.72,0,0,1,1.4-.7h0a1.71,1.71,0,0,1,1.4.7l8,10.66A1.77,1.77,0,0,1,21.57,15,1.75,1.75,0,0,1,20,15.91ZM12,3.25a.24.24,0,0,0-.2.1L3.8,14a.25.25,0,0,0,0,.27.23.23,0,0,0,.22.13H20a.22.22,0,0,0,.22-.13.25.25,0,0,0,0-.27l-8-10.66C12.13,3.26,12,3.22,12,3.25Z"/></g></svg>