<svg id="Layer_1" data-name="Layer 1" xmlns="http://www.w3.org/2000/svg" xmlns:xlink="http://www.w3.org/1999/xlink" viewBox="0 0 24 24"><defs><style>.cls-1{fill:none;}.cls-2{clip-path:url(#clip-path);}</style><clipPath id="clip-path"><rect class="cls-1" width="24" height="24"/></clipPath></defs><title>arrow-doble-slash-vertical</title><g class="cls-2"><path d="M12,21.66a.76.76,0,0,1-.75-.75l0-16.77A.74.74,0,0,1,12,3.39h0a.75.75,0,0,1,.75.74l0,16.77a.75.75,0,0,1-.75.76Z"/><path d="M7.08,8.37a.73.73,0,0,1-.53-.22.75.75,0,0,1,0-1.06l4.89-4.92A.75.75,0,0,1,12,2h0a.75.75,0,0,1,.53.22l4.92,4.89a.75.75,0,0,1,0,1.06.76.76,0,0,1-1.07,0L12,3.76,7.61,8.15A.79.79,0,0,1,7.08,8.37Z"/><path d="M12,22.05a.75.75,0,0,1-.53-.22L6.54,16.94a.75.75,0,0,1,0-1.06.75.75,0,0,1,1.06,0L12,20.24l4.37-4.39a.75.75,0,1,1,1.06,1.06l-4.9,4.92a.75.75,0,0,1-.53.22Z"/><path d="M18.94,12.75H5.06a.75.75,0,1,1,0-1.5H18.94a.75.75,0,0,1,0,1.5Z"/></g></svg>