<svg id="Layer_1" data-name="Layer 1" xmlns="http://www.w3.org/2000/svg" xmlns:xlink="http://www.w3.org/1999/xlink" viewBox="0 0 24 24"><defs><style>.cls-1{fill:none;}.cls-2{clip-path:url(#clip-path);}</style><clipPath id="clip-path"><rect class="cls-1" width="24" height="24"/></clipPath></defs><title>arrow-dot-down</title><g class="cls-2"><path d="M12,20.57a.74.74,0,0,1-.75-.75L11.22,7A.76.76,0,0,1,12,6.25h0a.75.75,0,0,1,.75.75l0,12.82a.76.76,0,0,1-.75.75Z"/><path d="M12,22a.77.77,0,0,1-.53-.21L6.72,17a.75.75,0,0,1,0-1.06.75.75,0,0,1,1.06,0L12,20.15l4.21-4.23A.75.75,0,0,1,17.29,17l-4.75,4.76A.73.73,0,0,1,12,22Z"/><path d="M12,7.75a2.86,2.86,0,1,1,2.86-2.86A2.86,2.86,0,0,1,12,7.75Zm0-4.21a1.36,1.36,0,1,0,1.36,1.35A1.35,1.35,0,0,0,12,3.54Z"/></g></svg>