<svg id="Layer_1" data-name="Layer 1" xmlns="http://www.w3.org/2000/svg" xmlns:xlink="http://www.w3.org/1999/xlink" viewBox="0 0 24 24"><defs><style>.cls-1{fill:none;}.cls-2{clip-path:url(#clip-path);}</style><clipPath id="clip-path"><rect class="cls-1" y="-0.06" width="24" height="24"/></clipPath></defs><title>Artboard 100</title><g class="cls-2"><path d="M18.34,22a.75.75,0,0,1-.75-.75l0-7.07a.76.76,0,0,1,.75-.75h0a.75.75,0,0,1,.75.75l0,7.07a.74.74,0,0,1-.75.75Z"/><path d="M18.34,23a.74.74,0,0,1-.53-.22l-3.34-3.32a.75.75,0,0,1,0-1.06.75.75,0,0,1,1.06,0l2.81,2.8,2.79-2.81a.75.75,0,0,1,1.07,1.06l-3.33,3.34A.73.73,0,0,1,18.34,23Z"/><path d="M8.83,22.52H5.33a3.76,3.76,0,0,1-3.75-3.75V10.48A3.78,3.78,0,0,1,2,8.8L4.83,3.09A3.75,3.75,0,0,1,8.19,1h7.14a3.75,3.75,0,0,1,3.75,3.75v6a.75.75,0,0,1-1.5,0v-6a2.25,2.25,0,0,0-2.25-2.25H8.19a2.24,2.24,0,0,0-2,1.24L3.32,9.47a2.34,2.34,0,0,0-.24,1v8.29A2.25,2.25,0,0,0,5.33,21h3.5a.75.75,0,1,1,0,1.5Z"/><path d="M13.83,11.52a.75.75,0,0,1-.75-.75v-5a.75.75,0,0,1,1.5,0v5A.74.74,0,0,1,13.83,11.52Z"/><path d="M8.83,11.52a.75.75,0,0,1-.75-.75v-5a.75.75,0,0,1,1.5,0v5A.74.74,0,0,1,8.83,11.52Z"/></g></svg>