<svg id="Layer_1" data-name="Layer 1" xmlns="http://www.w3.org/2000/svg" xmlns:xlink="http://www.w3.org/1999/xlink" viewBox="0 0 24 24"><defs><style>.cls-1{fill:none;}.cls-2{clip-path:url(#clip-path);}</style><clipPath id="clip-path"><rect class="cls-1" width="24" height="24"/></clipPath></defs><title>Artboard 99</title><g class="cls-2"><path d="M16.16,22.75a.71.71,0,0,1-.53-.22.74.74,0,0,1,0-1.06l5.12-5.13a.75.75,0,1,1,1.06,1.06l-5.12,5.13A.74.74,0,0,1,16.16,22.75Z"/><path d="M21.28,22.75a.74.74,0,0,1-.53-.22L15.63,17.4a.74.74,0,0,1,0-1.06.75.75,0,0,1,1.06,0l5.12,5.13a.75.75,0,0,1,0,1.06A.73.73,0,0,1,21.28,22.75Z"/><path d="M9.22,22.75H5.72A3.75,3.75,0,0,1,2,19V10.71A3.9,3.9,0,0,1,2.36,9L5.22,3.32A3.72,3.72,0,0,1,8.57,1.25h7.15A3.75,3.75,0,0,1,19.47,5v6A.75.75,0,0,1,18,11V5a2.25,2.25,0,0,0-2.25-2.25H8.57A2.24,2.24,0,0,0,6.56,4L3.71,9.7a2.21,2.21,0,0,0-.24,1V19a2.25,2.25,0,0,0,2.25,2.25h3.5a.75.75,0,0,1,0,1.5Z"/><path d="M14.22,11.75a.75.75,0,0,1-.75-.75V6A.75.75,0,1,1,15,6v5A.76.76,0,0,1,14.22,11.75Z"/><path d="M9.22,11.75A.75.75,0,0,1,8.47,11V6A.75.75,0,0,1,10,6v5A.76.76,0,0,1,9.22,11.75Z"/></g></svg>