<svg id="Layer_1" data-name="Layer 1" xmlns="http://www.w3.org/2000/svg" xmlns:xlink="http://www.w3.org/1999/xlink" viewBox="0 0 24 24"><defs><style>.cls-1{fill:none;}.cls-2{clip-path:url(#clip-path);}</style><clipPath id="clip-path"><rect class="cls-1" width="24" height="24"/></clipPath></defs><title>Artboard 98</title><g class="cls-2"><path d="M18.19,22.91a.75.75,0,0,1-.75-.75V14.91a.75.75,0,0,1,1.5,0v7.25A.76.76,0,0,1,18.19,22.91Z"/><path d="M21.81,19.28H14.56a.75.75,0,0,1,0-1.5h7.25a.75.75,0,1,1,0,1.5Z"/><path d="M12.72,22.59H5.19a3.75,3.75,0,0,1-3.75-3.75V10.55a3.69,3.69,0,0,1,.39-1.67L4.69,3.17A3.73,3.73,0,0,1,8,1.09h7.15a3.76,3.76,0,0,1,3.75,3.75v6a.75.75,0,0,1-1.5,0v-6a2.25,2.25,0,0,0-2.25-2.25H8A2.23,2.23,0,0,0,6,3.84L3.18,9.54a2.24,2.24,0,0,0-.24,1v8.29a2.25,2.25,0,0,0,2.25,2.25h7.53a.75.75,0,1,1,0,1.5Z"/><path d="M13.69,11.59a.74.74,0,0,1-.75-.75v-5a.75.75,0,0,1,1.5,0v5A.75.75,0,0,1,13.69,11.59Z"/><path d="M8.69,11.59a.74.74,0,0,1-.75-.75v-5a.75.75,0,1,1,1.5,0v5A.75.75,0,0,1,8.69,11.59Z"/></g></svg>