<svg id="Layer_1" data-name="Layer 1" xmlns="http://www.w3.org/2000/svg" xmlns:xlink="http://www.w3.org/1999/xlink" viewBox="0 0 24 24"><defs><style>.cls-1{fill:none;}.cls-2{clip-path:url(#clip-path);}</style><clipPath id="clip-path"><rect class="cls-1" width="24" height="24"/></clipPath></defs><title>Artboard 97</title><g class="cls-2"><path d="M12,22.6a3.16,3.16,0,0,1-2.27-.94L2.34,14.27a3.21,3.21,0,0,1,0-4.54L9.73,2.34a3.29,3.29,0,0,1,4.54,0l7.39,7.39a3.21,3.21,0,0,1,0,4.54l-7.39,7.39A3.16,3.16,0,0,1,12,22.6ZM12,2.9a1.7,1.7,0,0,0-1.21.5L3.4,10.79a1.71,1.71,0,0,0,0,2.42l7.39,7.39h0a1.75,1.75,0,0,0,2.42,0l7.39-7.39a1.71,1.71,0,0,0,0-2.42L13.21,3.4A1.7,1.7,0,0,0,12,2.9Z"/><path d="M12,15.27a.76.76,0,0,1-.75-.75v-8a.75.75,0,0,1,1.5,0v8A.76.76,0,0,1,12,15.27Z"/><path d="M12,18.25a.75.75,0,0,1-.53-.22.63.63,0,0,1-.16-.24.72.72,0,0,1-.06-.29.75.75,0,0,1,.22-.53.78.78,0,0,1,.24-.16.75.75,0,0,1,1,.69.72.72,0,0,1-.06.29.63.63,0,0,1-.16.24A.75.75,0,0,1,12,18.25Z"/></g></svg>