<svg id="Layer_1" data-name="Layer 1" xmlns="http://www.w3.org/2000/svg" xmlns:xlink="http://www.w3.org/1999/xlink" viewBox="0 0 24 24"><defs><style>.cls-1{fill:none;}.cls-2{clip-path:url(#clip-path);}</style><clipPath id="clip-path"><rect class="cls-1" x="-0.15" y="0.06" width="24" height="24"/></clipPath></defs><title>attachment</title><g class="cls-2"><path d="M12,22.75a6.33,6.33,0,0,1-5-2c-2.28-2.58-1.8-6.66-1.77-6.83V6C5.25,4.36,6,1.25,9,1.25S12.75,4.36,12.75,6v8a.75.75,0,0,1-1.5,0V6c0-.13,0-3.25-2.25-3.25S6.75,5.87,6.75,6v8c0,.13-.42,3.69,1.41,5.75A4.86,4.86,0,0,0,12,21.25a4.86,4.86,0,0,0,3.84-1.5c1.83-2.06,1.42-5.62,1.42-5.66V2a.75.75,0,0,1,1.5,0V14c0,.08.5,4.16-1.78,6.74A6.33,6.33,0,0,1,12,22.75Z"/></g></svg>