<svg id="Layer_1" data-name="Layer 1" xmlns="http://www.w3.org/2000/svg" xmlns:xlink="http://www.w3.org/1999/xlink" viewBox="0 0 24 24"><defs><style>.cls-1{fill:none;}.cls-2{clip-path:url(#clip-path);}</style><clipPath id="clip-path"><rect class="cls-1" y="-0.13" width="24" height="24"/></clipPath></defs><title>back</title><g class="cls-2"><path d="M7.39,20.37a5.53,5.53,0,0,1-5.74-5.73A5.51,5.51,0,0,1,7.39,8.8H19.78L15.9,4.91a.74.74,0,0,1,0-1.06.75.75,0,0,1,1.06,0L22.13,9a.77.77,0,0,1,.16.82.75.75,0,0,1-.69.46H7.39a4,4,0,0,0-4.24,4.34,4.07,4.07,0,0,0,4.24,4.23.75.75,0,1,1,0,1.5Z"/><path d="M16.48,15.41a.74.74,0,0,1-.53-.22.75.75,0,0,1,0-1.06L21.07,9a.75.75,0,1,1,1.06,1.06L17,15.19A.74.74,0,0,1,16.48,15.41Z"/></g></svg>