<svg id="Layer_1" data-name="Layer 1" xmlns="http://www.w3.org/2000/svg" xmlns:xlink="http://www.w3.org/1999/xlink" viewBox="0 0 24 24"><defs><style>.cls-1{fill:none;}.cls-2{clip-path:url(#clip-path);}</style><clipPath id="clip-path"><rect class="cls-1" y="-0.11" width="24" height="24"/></clipPath></defs><title>back-alt</title><g class="cls-2"><path d="M7.57,20.37A.74.74,0,0,1,7,20.15L1.87,15a.77.77,0,0,1-.16-.82.75.75,0,0,1,.69-.46H16.61a4,4,0,0,0,4.24-4.34,4.07,4.07,0,0,0-4.24-4.23.75.75,0,0,1,0-1.5,5.53,5.53,0,0,1,5.74,5.73,5.51,5.51,0,0,1-5.74,5.84H4.22L8.1,19.09a.74.74,0,0,1,0,1.06A.71.71,0,0,1,7.57,20.37Z"/><path d="M2.4,15.2A.74.74,0,0,1,1.87,15a.75.75,0,0,1,0-1.06L7,8.81a.74.74,0,0,1,1.06,0,.75.75,0,0,1,0,1.06L2.94,15A.75.75,0,0,1,2.4,15.2Z"/></g></svg>