<svg id="Layer_1" data-name="Layer 1" xmlns="http://www.w3.org/2000/svg" xmlns:xlink="http://www.w3.org/1999/xlink" viewBox="0 0 24 24"><defs><style>.cls-1{fill:none;}.cls-2{clip-path:url(#clip-path);}</style><clipPath id="clip-path"><rect class="cls-1" y="0.06" width="24" height="24"/></clipPath></defs><title>battery</title><g class="cls-2"><path d="M16.21,18.25H7.79a6.25,6.25,0,0,1,0-12.5h8.42a6.25,6.25,0,0,1,0,12.5Zm-8.42-11a4.75,4.75,0,0,0,0,9.5h8.42a4.75,4.75,0,0,0,0-9.5Z"/><path d="M6.69,14.33a.75.75,0,0,1-.75-.75V10.42a.75.75,0,0,1,1.5,0v3.16A.76.76,0,0,1,6.69,14.33Z"/><path d="M10,14.33a.76.76,0,0,1-.75-.75V10.42a.75.75,0,0,1,1.5,0v3.16A.76.76,0,0,1,10,14.33Z"/></g></svg>