<svg id="Layer_1" data-name="Layer 1" xmlns="http://www.w3.org/2000/svg" xmlns:xlink="http://www.w3.org/1999/xlink" viewBox="0 0 24 24"><defs><style>.cls-1{fill:none;}.cls-2{clip-path:url(#clip-path);}</style><clipPath id="clip-path"><rect class="cls-1" x="0.15" y="-0.06" width="24" height="24"/></clipPath></defs><title>bell</title><g class="cls-2"><path d="M19.94,19.25h-.08a.74.74,0,0,1-.66-.83c0-.33.05-.65.05-1V13.17A8,8,0,0,0,17.1,7.65,7,7,0,0,0,12,5.38a7.55,7.55,0,0,0-7.25,7.79v4.26c0,.34,0,.66,0,1a.74.74,0,0,1-.66.83.76.76,0,0,1-.83-.67,10.65,10.65,0,0,1-.06-1.15V13.17A9,9,0,0,1,12,3.88a8.45,8.45,0,0,1,6.2,2.75,9.53,9.53,0,0,1,2.55,6.54v4.26a10.65,10.65,0,0,1-.06,1.15A.76.76,0,0,1,19.94,19.25Z"/><path d="M19.94,19.25H4.06a.75.75,0,1,1,0-1.5H19.94a.75.75,0,0,1,0,1.5Z"/><path d="M12,5.38a.75.75,0,0,1-.75-.75V2.5a.75.75,0,0,1,1.5,0V4.63A.75.75,0,0,1,12,5.38Z"/><path d="M12,22.25A3.75,3.75,0,0,1,8.25,18.5a.75.75,0,0,1,1.5,0,2.25,2.25,0,0,0,4.5,0,.75.75,0,0,1,1.5,0A3.75,3.75,0,0,1,12,22.25Z"/></g></svg>