<svg id="Layer_1" data-name="Layer 1" xmlns="http://www.w3.org/2000/svg" xmlns:xlink="http://www.w3.org/1999/xlink" viewBox="0 0 24 24"><defs><style>.cls-1{fill:none;}.cls-2{clip-path:url(#clip-path);}</style><clipPath id="clip-path"><rect class="cls-1" x="-0.15" y="0.08" width="24" height="24"/></clipPath></defs><title>bookmark</title><g class="cls-2"><path d="M20,22.75a.75.75,0,0,1-.53-.22L12,15.06,4.53,22.53a.75.75,0,0,1-.82.16A.74.74,0,0,1,3.25,22V5.09A3.84,3.84,0,0,1,7.09,1.25h9.82a3.84,3.84,0,0,1,3.84,3.84V22a.74.74,0,0,1-.46.69A.75.75,0,0,1,20,22.75Zm-8-9.5a.74.74,0,0,1,.53.22l6.72,6.72V5.09a2.34,2.34,0,0,0-2.34-2.34H7.09A2.34,2.34,0,0,0,4.75,5.09v15.1l6.72-6.72A.74.74,0,0,1,12,13.25Z"/></g></svg>