<svg id="Layer_1" data-name="Layer 1" xmlns="http://www.w3.org/2000/svg" xmlns:xlink="http://www.w3.org/1999/xlink" viewBox="0 0 24 24"><defs><style>.cls-1{fill:none;}.cls-2{clip-path:url(#clip-path);}</style><clipPath id="clip-path"><rect class="cls-1" y="-0.06" width="24" height="24"/></clipPath></defs><title>box-question</title><g class="cls-2"><path d="M12.29,16.68a.76.76,0,1,1,.75-.76A.76.76,0,0,1,12.29,16.68Z"/><path d="M12.28,14.19a.75.75,0,0,1,0-1.5,1.83,1.83,0,1,0,0-3.65,2.71,2.71,0,0,0-1.93.5,2.15,2.15,0,0,0-.6,1.69.75.75,0,0,1-1.5,0A3.57,3.57,0,0,1,9.36,8.41a4.14,4.14,0,0,1,3-.86h0a3.32,3.32,0,0,1-.11,6.64Z"/><path d="M17.25,22.75H6.75a4,4,0,0,1-4-4V5.25a4,4,0,0,1,4-4h10.5a4,4,0,0,1,4,4v13.5A4,4,0,0,1,17.25,22.75Zm-10.5-20a2.5,2.5,0,0,0-2.5,2.5v13.5a2.5,2.5,0,0,0,2.5,2.5h10.5a2.5,2.5,0,0,0,2.5-2.5V5.25a2.5,2.5,0,0,0-2.5-2.5Z"/></g></svg>