<svg id="Layer_1" data-name="Layer 1" xmlns="http://www.w3.org/2000/svg" xmlns:xlink="http://www.w3.org/1999/xlink" viewBox="0 0 24 24"><defs><style>.cls-1{fill:none;}.cls-2{clip-path:url(#clip-path);}</style><clipPath id="clip-path"><rect class="cls-1" width="24" height="24"/></clipPath></defs><title>boxes</title><g class="cls-2"><path d="M14.4,11.08H9.6A1.92,1.92,0,0,1,7.67,9.15V4.35A1.92,1.92,0,0,1,9.6,2.42h4.8a1.92,1.92,0,0,1,1.93,1.93v4.8A1.92,1.92,0,0,1,14.4,11.08ZM9.6,3.92a.43.43,0,0,0-.43.43v4.8a.43.43,0,0,0,.43.43h4.8a.43.43,0,0,0,.43-.43V4.35a.43.43,0,0,0-.43-.43Z"/><path d="M9,21.58H4.16a1.92,1.92,0,0,1-1.93-1.93v-4.8a1.92,1.92,0,0,1,1.93-1.93H9a1.92,1.92,0,0,1,1.93,1.93v4.8A1.92,1.92,0,0,1,9,21.58Zm-4.8-7.16a.43.43,0,0,0-.43.43v4.8a.43.43,0,0,0,.43.43H9a.43.43,0,0,0,.43-.43v-4.8A.43.43,0,0,0,9,14.42Z"/><path d="M19.84,21.58H15a1.93,1.93,0,0,1-1.93-1.93v-4.8A1.93,1.93,0,0,1,15,12.92h4.8a1.93,1.93,0,0,1,1.94,1.93v4.8A1.93,1.93,0,0,1,19.84,21.58ZM15,14.42a.43.43,0,0,0-.43.43v4.8a.43.43,0,0,0,.43.43h4.8a.44.44,0,0,0,.44-.43v-4.8a.44.44,0,0,0-.44-.43Z"/></g></svg>