<svg id="Layer_1" data-name="Layer 1" xmlns="http://www.w3.org/2000/svg" xmlns:xlink="http://www.w3.org/1999/xlink" viewBox="0 0 24 24"><defs><style>.cls-1{fill:none;}.cls-2{clip-path:url(#clip-path);}</style><clipPath id="clip-path"><rect class="cls-1" y="0.01" width="24" height="24"/></clipPath></defs><title>braces</title><g class="cls-2"><path d="M3.65,12.75a.75.75,0,0,1-.73-.56.76.76,0,0,1,.53-.92S5.91,10.6,5.91,9V4.5A2.52,2.52,0,0,1,8.49,1.92a.75.75,0,0,1,0,1.5A1,1,0,0,0,7.41,4.51V9c0,2.77-3.43,3.7-3.57,3.74Z"/><path d="M8.49,22.08a.58.58,0,0,1-.19,0c-.15,0-3.57-1-3.57-3.74V13.83a1,1,0,0,0-1.08-1.08.75.75,0,0,1,0-1.5,2.54,2.54,0,0,1,2.58,2.57v4.5c0,1.6,2.42,2.28,2.45,2.29a.74.74,0,0,1,.53.91A.74.74,0,0,1,8.49,22.08Z"/><path d="M20.35,12.75l-.19,0c-.14,0-3.57-1-3.57-3.74V4.5a1,1,0,0,0-1.08-1.08.75.75,0,0,1,0-1.5,2.52,2.52,0,0,1,2.58,2.57V9c0,1.6,2.43,2.28,2.45,2.28a.76.76,0,0,1,.54.92A.75.75,0,0,1,20.35,12.75Z"/><path d="M15.51,22.08a.75.75,0,0,1-.19-1.47s2.45-.67,2.45-2.29V13.83a2.54,2.54,0,0,1,2.58-2.58.75.75,0,0,1,0,1.5,1,1,0,0,0-1.08,1.09v4.48c0,2.77-3.42,3.7-3.57,3.74A.58.58,0,0,1,15.51,22.08Z"/></g></svg>