<svg id="Layer_1" data-name="Layer 1" xmlns="http://www.w3.org/2000/svg" xmlns:xlink="http://www.w3.org/1999/xlink" viewBox="0 0 24 24"><defs><style>.cls-1{fill:none;}.cls-2{clip-path:url(#clip-path);}</style><clipPath id="clip-path"><rect class="cls-1" x="-0.15" y="0.06" width="24" height="24"/></clipPath></defs><title>braces-square</title><g class="cls-2"><path d="M15.71,20.75a.75.75,0,0,1,0-1.5h2.5A2.27,2.27,0,0,0,20.46,17l0-10a2.24,2.24,0,0,0-2.25-2.24h-2.5a.75.75,0,0,1,0-1.5h2.5a3.79,3.79,0,0,1,2.66,1.09A3.72,3.72,0,0,1,21.93,7l0,10a3.76,3.76,0,0,1-3.74,3.76H15.71Z"/><path d="M8.29,20.75H5.78A3.76,3.76,0,0,1,2,17l0-10A3.74,3.74,0,0,1,5.82,3.25H8.33a.75.75,0,0,1,0,1.5H5.82A2.24,2.24,0,0,0,3.57,7l0,10a2.27,2.27,0,0,0,2.25,2.26h2.5a.75.75,0,0,1,0,1.5Z"/></g></svg>