<svg id="Layer_1" data-name="Layer 1" xmlns="http://www.w3.org/2000/svg" xmlns:xlink="http://www.w3.org/1999/xlink" viewBox="0 0 24 24"><defs><style>.cls-1{fill:none;}.cls-2{clip-path:url(#clip-path);}</style><clipPath id="clip-path"><rect class="cls-1" width="24" height="24"/></clipPath></defs><title>branches</title><g class="cls-2"><path d="M5.16,15.91A3.91,3.91,0,1,1,9.07,12,3.91,3.91,0,0,1,5.16,15.91Zm0-6.32A2.41,2.41,0,1,0,7.57,12,2.41,2.41,0,0,0,5.16,9.59Z"/><path d="M18.84,9.59a3.91,3.91,0,1,1,3.91-3.91A3.92,3.92,0,0,1,18.84,9.59Zm0-6.31a2.41,2.41,0,1,0,2.41,2.4A2.41,2.41,0,0,0,18.84,3.28Z"/><path d="M18.84,22.22a3.91,3.91,0,1,1,3.91-3.9A3.91,3.91,0,0,1,18.84,22.22Zm0-6.31a2.41,2.41,0,1,0,2.41,2.41A2.41,2.41,0,0,0,18.84,15.91Z"/><path d="M16.23,17.28a.74.74,0,0,1-.37-.1L7.94,12.65A.74.74,0,0,1,7.57,12a.75.75,0,0,1,.4-.65l8.18-4.21a.75.75,0,0,1,.69,1.34L9.89,12l6.72,3.84a.75.75,0,0,1-.38,1.4Z"/></g></svg>