<svg id="Layer_1" data-name="Layer 1" xmlns="http://www.w3.org/2000/svg" xmlns:xlink="http://www.w3.org/1999/xlink" viewBox="0 0 24 24"><defs><style>.cls-1{fill:none;}.cls-2{clip-path:url(#clip-path);}</style><clipPath id="clip-path"><rect class="cls-1" width="24" height="24"/></clipPath></defs><title>bt-box</title><g class="cls-2"><path d="M18.7,22.75H5.3a4.06,4.06,0,0,1-4-4.05V5.3a4.06,4.06,0,0,1,4.05-4H18.7A4.06,4.06,0,0,1,22.75,5.3V18.7A4.06,4.06,0,0,1,18.7,22.75ZM5.3,2.75A2.56,2.56,0,0,0,2.75,5.3V18.7A2.56,2.56,0,0,0,5.3,21.25H18.7a2.56,2.56,0,0,0,2.55-2.55V5.3A2.56,2.56,0,0,0,18.7,2.75Z"/><path d="M11.91,19.08a.93.93,0,0,1-.29,0,.75.75,0,0,1-.46-.7V13.86L9.35,15.67a.75.75,0,0,1-1.06,0,.74.74,0,0,1,0-1.06L10.91,12,8.3,9.37A.75.75,0,0,1,9.36,8.31l1.8,1.8V5.67a.75.75,0,0,1,1.28-.53l3.19,3.19a.75.75,0,0,1,0,1.06L13,12l2.61,2.61a.76.76,0,0,1,0,1.07l-3.21,3.2A.73.73,0,0,1,11.91,19.08Zm.75-5.35v2.79l1.4-1.39Zm0-6.25v2.76L14,8.86Z"/></g></svg>