<svg id="Layer_1" data-name="Layer 1" xmlns="http://www.w3.org/2000/svg" xmlns:xlink="http://www.w3.org/1999/xlink" viewBox="0 0 24 24"><defs><style>.cls-1{fill:none;}.cls-2{clip-path:url(#clip-path);}</style><clipPath id="clip-path"><rect class="cls-1" width="24" height="24"/></clipPath></defs><title>bt</title><g class="cls-2"><path d="M11.91,22.05a.71.71,0,0,1-.28-.06.75.75,0,0,1-.47-.69V13.88L7.9,17.14a.74.74,0,0,1-1.06,0,.75.75,0,0,1,0-1.06L11,12,6.87,7.89A.75.75,0,0,1,7.93,6.83l3.23,3.24V2.7A.75.75,0,0,1,11.63,2a.74.74,0,0,1,.81.16l4.69,4.69a.75.75,0,0,1,0,1.06L13.07,12l4.08,4.08a.74.74,0,0,1,0,1.06l-4.71,4.71A.75.75,0,0,1,11.91,22.05Zm.75-8.36v5.8l2.9-2.9Zm0-9.18v5.75l2.88-2.87Z"/></g></svg>