<svg id="Layer_1" data-name="Layer 1" xmlns="http://www.w3.org/2000/svg" xmlns:xlink="http://www.w3.org/1999/xlink" viewBox="0 0 24 24"><defs><style>.cls-1{fill:none;}.cls-2{clip-path:url(#clip-path);}</style><clipPath id="clip-path"><rect class="cls-1" width="24" height="24"/></clipPath></defs><title>busy</title><g class="cls-2"><path d="M16.5,21.75a.76.76,0,0,1-.75-.75V16.5a3.75,3.75,0,0,0-7.5,0V21a.75.75,0,0,1-1.5,0V16.5a5.25,5.25,0,0,1,10.5,0V21A.76.76,0,0,1,16.5,21.75Z"/><path d="M17.63,21.75H6.38a.75.75,0,1,1,0-1.5H17.63a.75.75,0,0,1,0,1.5Z"/><path d="M12,12.75A5.26,5.26,0,0,1,6.75,7.5V3a.75.75,0,0,1,1.5,0V7.5a3.75,3.75,0,0,0,7.5,0V3a.75.75,0,0,1,1.5,0V7.5A5.26,5.26,0,0,1,12,12.75Z"/><path d="M17.63,3.75H6.38a.75.75,0,1,1,0-1.5H17.63a.75.75,0,0,1,0,1.5Z"/></g></svg>