<svg id="Layer_1" data-name="Layer 1" xmlns="http://www.w3.org/2000/svg" xmlns:xlink="http://www.w3.org/1999/xlink" viewBox="0 0 24 24"><defs><style>.cls-1{fill:none;}.cls-2{clip-path:url(#clip-path);}</style><clipPath id="clip-path"><rect class="cls-1" x="0.15" y="-0.06" width="24" height="24"/></clipPath></defs><title>calendar</title><g class="cls-2"><path d="M6,22a3.76,3.76,0,0,1-3.75-3.74l0-9A3.76,3.76,0,0,1,6,5.51H7A.75.75,0,0,1,7,7H6A2.24,2.24,0,0,0,3.74,9.27l0,9A2.24,2.24,0,0,0,6,20.51H6l12,0a2.24,2.24,0,0,0,2.24-2.25l0-9A2.25,2.25,0,0,0,18,7H17a.75.75,0,0,1-.75-.74A.76.76,0,0,1,17,5.48h1a3.76,3.76,0,0,1,3.75,3.74l0,9A3.74,3.74,0,0,1,18,22L6,22Z"/><path d="M10,7a.75.75,0,0,1,0-1.5h4A.75.75,0,0,1,14,7Z"/><path d="M8.48,8.51A2.25,2.25,0,0,1,6.23,6.26v-2a2.24,2.24,0,0,1,.65-1.59A2.14,2.14,0,0,1,8.48,2a2.26,2.26,0,0,1,2.25,2.24v2A2.26,2.26,0,0,1,8.49,8.51Zm0-5h0A.69.69,0,0,0,8,3.73a.71.71,0,0,0-.22.53v2A.75.75,0,0,0,8.48,7h0a.76.76,0,0,0,.75-.76v-2A.75.75,0,0,0,8.48,3.51Z"/><path d="M15.48,8.49a2.22,2.22,0,0,1-1.59-.66,2.25,2.25,0,0,1-.66-1.59v-2A2.24,2.24,0,0,1,15.47,2h0a2.26,2.26,0,0,1,2.25,2.24v2a2.25,2.25,0,0,1-2.24,2.26Zm0-5h0a.75.75,0,0,0-.74.75v2a.75.75,0,0,0,.75.75h0a.75.75,0,0,0,.75-.75v-2A.75.75,0,0,0,15.48,3.49Z"/><path d="M3,12a.75.75,0,0,1,0-1.5l18,0h0a.75.75,0,0,1,.75.75A.73.73,0,0,1,21,12L3,12Z"/></g></svg>