<svg id="Layer_1" data-name="Layer 1" xmlns="http://www.w3.org/2000/svg" xmlns:xlink="http://www.w3.org/1999/xlink" viewBox="0 0 24 24"><defs><style>.cls-1{fill:none;}.cls-2{clip-path:url(#clip-path);}</style><clipPath id="clip-path"><rect class="cls-1" y="-0.09" width="24" height="24"/></clipPath></defs><title>calendar-tick</title><g class="cls-2"><path d="M17,22.86a.71.71,0,0,1-.53-.22.74.74,0,0,1,0-1.06L21.1,17a.74.74,0,0,1,1.06,0,.75.75,0,0,1,0,1.06l-4.63,4.63A.74.74,0,0,1,17,22.86Z"/><path d="M17,22.86a.71.71,0,0,1-.53-.22l-1.88-1.87a.75.75,0,0,1,0-1.06.74.74,0,0,1,1.06,0l1.88,1.87a.75.75,0,0,1,0,1.06A.74.74,0,0,1,17,22.86Z"/><path d="M5.39,21.17a3.76,3.76,0,0,1-3.75-3.75l0-9A3.75,3.75,0,0,1,5.36,4.67h1a.75.75,0,0,1,.75.75.73.73,0,0,1-.74.75h-1A2.25,2.25,0,0,0,3.12,8.42l0,9a2.27,2.27,0,0,0,2.25,2.25h0l6.23,0h0a.75.75,0,1,1,0,1.5l-6.23,0Z"/><path d="M20.39,15.5a.75.75,0,0,1-.75-.75l0-6.37A2.21,2.21,0,0,0,19,6.79a2.24,2.24,0,0,0-1.59-.65h-1a.76.76,0,0,1-.75-.75.75.75,0,0,1,.75-.75h1a3.74,3.74,0,0,1,3.75,3.74l0,6.37a.76.76,0,0,1-.75.75Z"/><path d="M9.36,6.16a.76.76,0,0,1-.75-.75.75.75,0,0,1,.75-.75h4a.74.74,0,0,1,.75.74.75.75,0,0,1-.74.76h-4Z"/><path d="M7.86,7.66A2.2,2.2,0,0,1,6.28,7a2.23,2.23,0,0,1-.67-1.58v-2A2.25,2.25,0,0,1,7.85,1.16h0A2.25,2.25,0,0,1,10.11,3.4v2A2.25,2.25,0,0,1,7.87,7.66Zm0-5h0a.75.75,0,0,0-.75.75v2a.75.75,0,0,0,.22.53.79.79,0,0,0,.53.22h0a.74.74,0,0,0,.74-.75v-2A.75.75,0,0,0,7.86,2.66Z"/><path d="M14.86,7.64A2.23,2.23,0,0,1,13.28,7a2.28,2.28,0,0,1-.67-1.59v-2a2.24,2.24,0,0,1,2.24-2.26h0a2.25,2.25,0,0,1,2.25,2.25v2a2.24,2.24,0,0,1-2.24,2.25Zm0-5h0a.75.75,0,0,0-.75.75v2a.75.75,0,0,0,.22.53.79.79,0,0,0,.53.22h0a.74.74,0,0,0,.74-.75v-2A.76.76,0,0,0,14.86,2.64Z"/><path d="M2.38,11.17a.75.75,0,0,1,0-1.5l18,0h0a.75.75,0,0,1,0,1.5l-18,0Z"/></g></svg>