<svg id="Layer_1" data-name="Layer 1" xmlns="http://www.w3.org/2000/svg" xmlns:xlink="http://www.w3.org/1999/xlink" viewBox="0 0 24 24"><defs><style>.cls-1{fill:none;}.cls-2{clip-path:url(#clip-path);}</style><clipPath id="clip-path"><rect class="cls-1" y="0.14" width="24" height="24"/></clipPath></defs><title>calendar-search</title><g class="cls-2"><path d="M15.59,19.67a3.15,3.15,0,1,1,3.14-3.15A3.16,3.16,0,0,1,15.59,19.67Zm0-4.8a1.65,1.65,0,1,0,1.64,1.65A1.65,1.65,0,0,0,15.59,14.87Z"/><path d="M20.78,22.46a.74.74,0,0,1-.53-.22l-3.5-3.49a.77.77,0,0,1,0-1.07.75.75,0,0,1,1.06,0l3.5,3.5a.75.75,0,0,1,0,1.06A.74.74,0,0,1,20.78,22.46Z"/><path d="M6,21.56a3.71,3.71,0,0,1-2.64-1.09,3.77,3.77,0,0,1-1.11-2.65l0-9A3.76,3.76,0,0,1,6,5.06H7a.75.75,0,0,1,0,1.5H6A2.26,2.26,0,0,0,3.74,8.82l0,9a2.28,2.28,0,0,0,.67,1.59A2.22,2.22,0,0,0,6,20.06H6l6.23,0h0a.75.75,0,0,1,.75.75.74.74,0,0,1-.74.75L6,21.56Z"/><path d="M21,15.89a.74.74,0,0,1-.75-.75l0-6.36A2.24,2.24,0,0,0,18,6.53H17A.75.75,0,0,1,17,5h1a3.74,3.74,0,0,1,3.75,3.74l0,6.37a.76.76,0,0,1-.75.75Z"/><path d="M10,6.55a.75.75,0,0,1-.75-.75A.74.74,0,0,1,10,5.05h4a.75.75,0,0,1,0,1.5Z"/><path d="M8.49,8.05A2.24,2.24,0,0,1,6.24,5.81v-2A2.26,2.26,0,0,1,8.47,1.55h0A2.25,2.25,0,0,1,10.73,3.8v2A2.25,2.25,0,0,1,8.49,8.05Zm0-1.5v0a.76.76,0,0,0,.75-.75v-2a.75.75,0,0,0-.75-.75h0a.76.76,0,0,0-.75.76v2a.74.74,0,0,0,.75.74Z"/><path d="M15.48,8a2.24,2.24,0,0,1-1.58-.66,2.21,2.21,0,0,1-.66-1.59v-2a2.24,2.24,0,0,1,2.24-2.25h0a2.24,2.24,0,0,1,2.25,2.24v2A2.27,2.27,0,0,1,15.49,8h0Zm0-5h0a.76.76,0,0,0-.75.75v2a.71.71,0,0,0,.22.53.73.73,0,0,0,.52.22h0a.76.76,0,0,0,.75-.75v-2A.77.77,0,0,0,16,3.25.74.74,0,0,0,15.48,3Z"/><path d="M3,11.57a.75.75,0,0,1,0-1.5L21,10h0a.75.75,0,0,1,0,1.5L3,11.57Z"/></g></svg>