<svg id="Layer_1" data-name="Layer 1" xmlns="http://www.w3.org/2000/svg" xmlns:xlink="http://www.w3.org/1999/xlink" viewBox="0 0 24 24"><defs><style>.cls-1{fill:none;}.cls-2{clip-path:url(#clip-path);}</style><clipPath id="clip-path"><rect class="cls-1" x="0.15" y="-0.09" width="24" height="24"/></clipPath></defs><title>calendar-plus</title><g class="cls-2"><path d="M18,22.67a.75.75,0,0,1-.75-.75v-6a.75.75,0,1,1,1.5,0v6A.74.74,0,0,1,18,22.67Z"/><path d="M21,19.67H15a.75.75,0,0,1,0-1.5h6a.75.75,0,0,1,0,1.5Z"/><path d="M6,21.35a3.71,3.71,0,0,1-2.64-1.09,3.77,3.77,0,0,1-1.11-2.65l0-9A3.76,3.76,0,0,1,6,4.85H7a.75.75,0,0,1,0,1.5H6A2.26,2.26,0,0,0,3.74,8.61l0,9a2.28,2.28,0,0,0,.67,1.59A2.22,2.22,0,0,0,6,19.85H6l6.23,0h0a.75.75,0,0,1,0,1.5L6,21.35Z"/><path d="M21,15.68a.74.74,0,0,1-.75-.75l0-6.36A2.24,2.24,0,0,0,18,6.32H17a.75.75,0,1,1,0-1.5h1a3.74,3.74,0,0,1,3.75,3.74l0,6.37a.76.76,0,0,1-.75.75Z"/><path d="M10,6.34a.75.75,0,0,1,0-1.5h4a.75.75,0,0,1,.75.75.74.74,0,0,1-.74.75H10Z"/><path d="M8.48,7.84A2.23,2.23,0,0,1,6.9,7.19,2.28,2.28,0,0,1,6.23,5.6v-2A2.25,2.25,0,0,1,8.47,1.34h0a2.25,2.25,0,0,1,2.25,2.25v2A2.24,2.24,0,0,1,8.49,7.84Zm0-5h0A.75.75,0,0,0,8,3.06a.79.79,0,0,0-.22.54v2a.75.75,0,0,0,.75.74h0a.74.74,0,0,0,.74-.75v-2a.75.75,0,0,0-.75-.75Z"/><path d="M15.48,7.83a2.22,2.22,0,0,1-1.58-.66,2.26,2.26,0,0,1-.67-1.59v-2a2.24,2.24,0,0,1,2.24-2.25h0a2.24,2.24,0,0,1,2.25,2.24v2a2.2,2.2,0,0,1-.65,1.59,2.26,2.26,0,0,1-1.59.67h0Zm0-5h0a.75.75,0,0,0-.75.75v2a.77.77,0,0,0,.75.75h0A.75.75,0,0,0,16,6.11a.76.76,0,0,0,.21-.53v-2A.77.77,0,0,0,16,3,.74.74,0,0,0,15.48,2.83Z"/><path d="M3,11.36a.75.75,0,0,1,0-1.5l18,0h0a.75.75,0,0,1,0,1.5l-18,0Z"/></g></svg>