<svg id="Layer_1" data-name="Layer 1" xmlns="http://www.w3.org/2000/svg" xmlns:xlink="http://www.w3.org/1999/xlink" viewBox="0 0 24 24"><defs><style>.cls-1{fill:none;}.cls-2{clip-path:url(#clip-path);}</style><clipPath id="clip-path"><rect class="cls-1" width="24" height="24"/></clipPath></defs><title>CD</title><g class="cls-2"><path d="M12,22.75A10.75,10.75,0,1,1,22.75,12,10.76,10.76,0,0,1,12,22.75Zm0-20A9.25,9.25,0,1,0,21.25,12,9.26,9.26,0,0,0,12,2.75Z"/><path d="M12,15.75A3.75,3.75,0,1,1,15.75,12,3.75,3.75,0,0,1,12,15.75Zm0-6A2.25,2.25,0,1,0,14.25,12,2.25,2.25,0,0,0,12,9.75Z"/></g></svg>