<svg id="Layer_1" data-name="Layer 1" xmlns="http://www.w3.org/2000/svg" xmlns:xlink="http://www.w3.org/1999/xlink" viewBox="0 0 24 24"><defs><style>.cls-1{fill:none;}.cls-2{clip-path:url(#clip-path);}</style><clipPath id="clip-path"><rect class="cls-1" y="0.01" width="24" height="24"/></clipPath></defs><title>chat-question</title><g class="cls-2"><path d="M13.44,16.32a.76.76,0,1,1,.75-.76A.76.76,0,0,1,13.44,16.32Z"/><path d="M13.43,13.84a.75.75,0,0,1,0-1.5,1.83,1.83,0,0,0,0-3.66,2.76,2.76,0,0,0-1.93.5,2.15,2.15,0,0,0-.6,1.69.75.75,0,0,1-1.5,0,3.57,3.57,0,0,1,1.11-2.82,4.19,4.19,0,0,1,3-.86h0a3.33,3.33,0,0,1-.11,6.65Z"/><path d="M13.08,20.49a8.75,8.75,0,0,1-4-1,.76.76,0,0,1-.32-1,.75.75,0,0,1,1-.32,7.33,7.33,0,0,0,4.68.69A7.25,7.25,0,1,0,6,10a7.31,7.31,0,0,0,.85,5.49.75.75,0,0,1-.25,1,.75.75,0,0,1-1-.25A8.73,8.73,0,0,1,11.47,3.14a8.75,8.75,0,0,1,3.21,17.21A9.61,9.61,0,0,1,13.08,20.49Z"/><path d="M5.33,21A1.42,1.42,0,0,1,4,19l1.53-3.42a.75.75,0,0,1,1-.38.76.76,0,0,1,.38,1L5.48,19.45l3.67-1.31a.75.75,0,1,1,.5,1.41L5.8,20.92A1.31,1.31,0,0,1,5.33,21Z"/></g></svg>