<svg id="Layer_1" data-name="Layer 1" xmlns="http://www.w3.org/2000/svg" xmlns:xlink="http://www.w3.org/1999/xlink" viewBox="0 0 24 24"><defs><style>.cls-1{fill:none;}.cls-2{clip-path:url(#clip-path);}</style><clipPath id="clip-path"><rect class="cls-1" y="0.02" width="24" height="24"/></clipPath></defs><title>circle-exclamation</title><g class="cls-2"><path d="M12,22.75A10.75,10.75,0,1,1,22.75,12,10.76,10.76,0,0,1,12,22.75Zm0-20A9.25,9.25,0,1,0,21.25,12,9.26,9.26,0,0,0,12,2.75Z"/><path d="M12,15.37a.76.76,0,0,1-.75-.75v-8a.75.75,0,0,1,1.5,0v8A.76.76,0,0,1,12,15.37Z"/><path d="M12,18.35a.72.72,0,0,1-.29-.06.63.63,0,0,1-.24-.16.75.75,0,0,1,0-1.06.77.77,0,0,1,1.06,0,.75.75,0,0,1,0,1.06.63.63,0,0,1-.24.16A.72.72,0,0,1,12,18.35Z"/></g></svg>