<svg id="Layer_1" data-name="Layer 1" xmlns="http://www.w3.org/2000/svg" xmlns:xlink="http://www.w3.org/1999/xlink" viewBox="0 0 24 24"><defs><style>.cls-1{fill:none;}.cls-2{clip-path:url(#clip-path);}</style><clipPath id="clip-path"><rect class="cls-1" width="24" height="24"/></clipPath></defs><title>circle-lock</title><g class="cls-2"><path d="M11,21.21a9.25,9.25,0,0,1-5.37-1.72,9.21,9.21,0,0,1,10.72-15,.75.75,0,0,1-.87,1.22,7.71,7.71,0,1,0-.57,12.91.75.75,0,1,1,.76,1.29A9.2,9.2,0,0,1,11,21.21Z"/><path d="M18.63,15.38a3.6,3.6,0,1,1,2.5-6.18h0a3.59,3.59,0,0,1-2.5,6.18Zm0-5.69a2.1,2.1,0,1,0,1.46.59A2.11,2.11,0,0,0,18.63,9.69Z"/><path d="M9.12,14.27a.75.75,0,0,1-.75-.74l0-1.56a.73.73,0,0,1,.73-.76l6.7-.12a.75.75,0,0,1,0,1.5l-5.94.1v.82a.75.75,0,0,1-.74.76Z"/></g></svg>