<svg id="Layer_1" data-name="Layer 1" xmlns="http://www.w3.org/2000/svg" xmlns:xlink="http://www.w3.org/1999/xlink" viewBox="0 0 24 24"><defs><style>.cls-1{fill:none;}.cls-2{clip-path:url(#clip-path);}</style><clipPath id="clip-path"><rect class="cls-1" x="0.15" y="-0.06" width="24" height="24"/></clipPath></defs><title>circle-scroll</title><g class="cls-2"><path d="M12,21.77A9.77,9.77,0,1,1,21.77,12,9.79,9.79,0,0,1,12,21.77Zm0-18A8.27,8.27,0,1,0,20.27,12,8.28,8.28,0,0,0,12,3.73Z"/><path d="M11.91,17.91h0a.75.75,0,0,1-.53-.22L9.11,15.43a.75.75,0,0,1,0-1.06.75.75,0,0,1,1.06,0l1.74,1.73,1.92-1.91a.74.74,0,0,1,1.06,0,.75.75,0,0,1,0,1.06l-2.45,2.44A.75.75,0,0,1,11.91,17.91Z"/><path d="M14.36,10a.71.71,0,0,1-.53-.22L11.91,7.9,10.17,9.63A.75.75,0,0,1,9.11,8.57l2.27-2.26a.77.77,0,0,1,1.06,0l2.45,2.44a.75.75,0,0,1,0,1.06A.74.74,0,0,1,14.36,10Z"/></g></svg>