<svg id="Layer_1" data-name="Layer 1" xmlns="http://www.w3.org/2000/svg" xmlns:xlink="http://www.w3.org/1999/xlink" viewBox="0 0 24 24"><defs><style>.cls-1{fill:none;}.cls-2{clip-path:url(#clip-path);}</style><clipPath id="clip-path"><rect class="cls-1" width="24" height="24"/></clipPath></defs><title>circle-slash</title><g class="cls-2"><path d="M12,22.71A10.71,10.71,0,1,1,22.71,12,10.73,10.73,0,0,1,12,22.71ZM12,2.79A9.21,9.21,0,1,0,21.21,12,9.22,9.22,0,0,0,12,2.79Z"/><path d="M12,12.75a.74.74,0,0,1-.53-.22.75.75,0,0,1,0-1.06l7-7A.75.75,0,0,1,19.57,5.5l-7,7A.74.74,0,0,1,12,12.75Z"/></g></svg>