<svg id="Layer_1" data-name="Layer 1" xmlns="http://www.w3.org/2000/svg" xmlns:xlink="http://www.w3.org/1999/xlink" viewBox="0 0 24 24"><defs><style>.cls-1{fill:none;}.cls-2{clip-path:url(#clip-path);}</style><clipPath id="clip-path"><rect class="cls-1" x="-0.15" y="0.03" width="24" height="24"/></clipPath></defs><title>circle-bigcross</title><g class="cls-2"><path d="M12,21.77A9.77,9.77,0,1,1,21.77,12,9.79,9.79,0,0,1,12,21.77Zm0-18A8.27,8.27,0,1,0,20.27,12,8.28,8.28,0,0,0,12,3.73Z"/><path d="M18.38,19.13a.79.79,0,0,1-.53-.22L5.09,6.16a.75.75,0,0,1,0-1.06.75.75,0,0,1,1.06,0L18.91,17.84a.77.77,0,0,1,0,1.07A.79.79,0,0,1,18.38,19.13Z"/><path d="M5.62,19.13a.79.79,0,0,1-.53-.22.77.77,0,0,1,0-1.07L17.85,5.09a.75.75,0,0,1,1.06,0,.75.75,0,0,1,0,1.06L6.15,18.91A.79.79,0,0,1,5.62,19.13Z"/></g></svg>