<svg id="Layer_1" data-name="Layer 1" xmlns="http://www.w3.org/2000/svg" xmlns:xlink="http://www.w3.org/1999/xlink" viewBox="0 0 24 24"><defs><style>.cls-1{fill:none;}.cls-2{clip-path:url(#clip-path);}</style><clipPath id="clip-path"><rect class="cls-1" width="24" height="24"/></clipPath></defs><title>circle-question</title><g class="cls-2"><path d="M12.42,17.18a.76.76,0,1,1,.75-.75A.76.76,0,0,1,12.42,17.18Z"/><path d="M12,21.77A9.77,9.77,0,1,1,21.77,12,9.79,9.79,0,0,1,12,21.77Zm0-18A8.27,8.27,0,1,0,20.27,12,8.28,8.28,0,0,0,12,3.73Z"/><path d="M12.41,14.31a.75.75,0,0,1,0-1.5,2.24,2.24,0,1,0,0-4.47,3.27,3.27,0,0,0-2.32.6A2.62,2.62,0,0,0,9.35,11a.75.75,0,0,1-1.5,0A4,4,0,0,1,9.11,7.81a4.68,4.68,0,0,1,3.39-1h0a3.74,3.74,0,0,1-.1,7.47Z"/></g></svg>