<svg id="Layer_1" data-name="Layer 1" xmlns="http://www.w3.org/2000/svg" xmlns:xlink="http://www.w3.org/1999/xlink" viewBox="0 0 24 24"><defs><style>.cls-1{fill:none;}.cls-2{clip-path:url(#clip-path);}</style><clipPath id="clip-path"><rect class="cls-1" y="0.06" width="24" height="24"/></clipPath></defs><title>circle-code</title><g class="cls-2"><path d="M12,21.77A9.77,9.77,0,1,1,21.77,12,9.79,9.79,0,0,1,12,21.77Zm0-18A8.27,8.27,0,1,0,20.27,12,8.28,8.28,0,0,0,12,3.73Z"/><path d="M14.9,15.11a.77.77,0,0,1-.53-.22.75.75,0,0,1,0-1.06l1.73-1.74-1.91-1.92a.74.74,0,0,1,0-1.06.75.75,0,0,1,1.06,0l2.44,2.45a.74.74,0,0,1,0,1.06l-2.26,2.27A.79.79,0,0,1,14.9,15.11Z"/><path d="M9.1,15.11a.79.79,0,0,1-.53-.22L6.31,12.62a.74.74,0,0,1,0-1.06L8.75,9.11a.75.75,0,0,1,1.06,0,.74.74,0,0,1,0,1.06L7.9,12.09l1.73,1.74a.75.75,0,0,1,0,1.06A.77.77,0,0,1,9.1,15.11Z"/></g></svg>