<svg id="Layer_1" data-name="Layer 1" xmlns="http://www.w3.org/2000/svg" xmlns:xlink="http://www.w3.org/1999/xlink" viewBox="0 0 24 24"><defs><style>.cls-1{fill:none;}.cls-2{clip-path:url(#clip-path);}</style><clipPath id="clip-path"><rect class="cls-1" y="-0.06" width="24" height="24"/></clipPath></defs><title>cloud-tick</title><g class="cls-2"><path d="M11.38,19.51h0a.75.75,0,0,1-.53-.22L9.55,18a.75.75,0,0,1,1.06-1.06l.77.77,2.83-2.84a.75.75,0,0,1,1.06,0,.74.74,0,0,1,0,1.06l-3.36,3.37A.77.77,0,0,1,11.38,19.51Z"/><path d="M7,18H5.5a4.26,4.26,0,0,1-4.25-4.25A4.27,4.27,0,0,1,5.5,9.49H7A.75.75,0,1,1,7,11H5.5a2.77,2.77,0,0,0-2.75,2.75A2.75,2.75,0,0,0,5.5,16.49H7A.75.75,0,0,1,7,18Z"/><path d="M18.5,18H17a.75.75,0,0,1,0-1.5h1.5a2.71,2.71,0,0,0,1.94-.8A2.75,2.75,0,0,0,18.5,11H17a.75.75,0,0,1,0-1.5h1.5a4.25,4.25,0,0,1,3,7.26A4.19,4.19,0,0,1,18.5,18Z"/><path d="M17,11a.75.75,0,0,1-.75-.75,4.25,4.25,0,0,0-8.5,0,.75.75,0,1,1-1.5,0,5.75,5.75,0,0,1,11.5,0A.75.75,0,0,1,17,11Z"/></g></svg>