<svg id="Layer_1" data-name="Layer 1" xmlns="http://www.w3.org/2000/svg" xmlns:xlink="http://www.w3.org/1999/xlink" viewBox="0 0 24 24"><defs><style>.cls-1{fill:none;}.cls-2{clip-path:url(#clip-path);}</style><clipPath id="clip-path"><rect class="cls-1" y="-0.06" width="24" height="24"/></clipPath></defs><title>cloud-cross</title><g class="cls-2"><path d="M7,17.79H5.5a4.24,4.24,0,0,1-3-7.25,4.2,4.2,0,0,1,3-1.25H7a.75.75,0,0,1,0,1.5H5.5a2.77,2.77,0,0,0-2.75,2.75A2.75,2.75,0,0,0,5.5,16.29H7a.75.75,0,0,1,0,1.5Z"/><path d="M18.5,17.79H17a.75.75,0,0,1,0-1.5h1.5a2.71,2.71,0,0,0,1.94-.8,2.75,2.75,0,0,0-1.94-4.7H17a.75.75,0,0,1,0-1.5h1.5a4.25,4.25,0,0,1,3,7.26A4.19,4.19,0,0,1,18.5,17.79Z"/><path d="M17,10.79a.75.75,0,0,1-.75-.75,4.25,4.25,0,0,0-8.5,0,.75.75,0,0,1-1.5,0,5.75,5.75,0,0,1,11.5,0A.75.75,0,0,1,17,10.79Z"/><path d="M13.91,19.71a.79.79,0,0,1-.53-.22L9.56,15.66a.74.74,0,0,1,0-1.06.75.75,0,0,1,1.06,0l3.82,3.83a.74.74,0,0,1,0,1.06A.77.77,0,0,1,13.91,19.71Z"/><path d="M10.09,19.71a.77.77,0,0,1-.53-.22.74.74,0,0,1,0-1.06l3.82-3.83a.75.75,0,0,1,1.06,0,.74.74,0,0,1,0,1.06l-3.82,3.83A.79.79,0,0,1,10.09,19.71Z"/></g></svg>