<svg id="Layer_1" data-name="Layer 1" xmlns="http://www.w3.org/2000/svg" xmlns:xlink="http://www.w3.org/1999/xlink" viewBox="0 0 24 24"><defs><style>.cls-1{fill:none;}.cls-2{clip-path:url(#clip-path);}</style><clipPath id="clip-path"><rect class="cls-1" x="0.15" y="-0.06" width="24" height="24"/></clipPath></defs><title>cloud-plus_1</title><g class="cls-2"><path d="M7,17.71H5.5a4.25,4.25,0,0,1-3-7.26,4.19,4.19,0,0,1,3-1.24H7a.75.75,0,0,1,0,1.5H5.5a2.71,2.71,0,0,0-1.94.8,2.75,2.75,0,0,0,1.94,4.7H7a.75.75,0,0,1,0,1.5Z"/><path d="M18.5,17.71H17a.75.75,0,0,1,0-1.5h1.5a2.78,2.78,0,0,0,2.75-2.75,2.75,2.75,0,0,0-2.75-2.75H17a.75.75,0,0,1,0-1.5h1.5a4.25,4.25,0,0,1,4.25,4.25,4.27,4.27,0,0,1-4.25,4.25Z"/><path d="M17,10.71a.76.76,0,0,1-.75-.75,4.25,4.25,0,1,0-8.5,0,.75.75,0,0,1-1.5,0,5.75,5.75,0,0,1,11.5,0A.76.76,0,0,1,17,10.71Z"/><path d="M12,19.79a.75.75,0,0,1-.75-.75V14.87a.75.75,0,1,1,1.5,0V19A.75.75,0,0,1,12,19.79Z"/><path d="M14.09,17.71H9.91a.75.75,0,0,1,0-1.5h4.18a.75.75,0,0,1,0,1.5Z"/></g></svg>