<svg id="Layer_1" data-name="Layer 1" xmlns="http://www.w3.org/2000/svg" xmlns:xlink="http://www.w3.org/1999/xlink" viewBox="0 0 24 24"><defs><style>.cls-1{fill:none;}.cls-2{clip-path:url(#clip-path);}</style><clipPath id="clip-path"><rect class="cls-1" y="0.06" width="24" height="24"/></clipPath></defs><title>cloud-export</title><g class="cls-2"><path d="M12,18.75a.76.76,0,0,1-.75-.75V12a.75.75,0,0,1,1.28-.53l3,3a.75.75,0,0,1-1.06,1.06l-1.72-1.72V18A.76.76,0,0,1,12,18.75Z"/><path d="M9,15.75a.74.74,0,0,1-.53-.22.75.75,0,0,1,0-1.06l3-3a.75.75,0,0,1,1.06,1.06l-3,3A.74.74,0,0,1,9,15.75Z"/><path d="M7,18.75H5.5A4.26,4.26,0,0,1,1.25,14.5,4.27,4.27,0,0,1,5.5,10.25H7a.75.75,0,0,1,0,1.5H5.5A2.78,2.78,0,0,0,2.75,14.5,2.75,2.75,0,0,0,5.5,17.25H7a.75.75,0,0,1,0,1.5Z"/><path d="M18.5,18.75H17a.75.75,0,0,1,0-1.5h1.5a2.78,2.78,0,0,0,2.75-2.75,2.75,2.75,0,0,0-2.75-2.75H17a.75.75,0,0,1,0-1.5h1.5a4.26,4.26,0,0,1,4.25,4.25,4.27,4.27,0,0,1-4.25,4.25Z"/><path d="M17,11.75a.76.76,0,0,1-.75-.75,4.25,4.25,0,0,0-8.5,0,.75.75,0,0,1-1.5,0,5.75,5.75,0,0,1,11.5,0A.76.76,0,0,1,17,11.75Z"/></g></svg>