<svg id="Layer_1" data-name="Layer 1" xmlns="http://www.w3.org/2000/svg" xmlns:xlink="http://www.w3.org/1999/xlink" viewBox="0 0 24 24"><defs><style>.cls-1{fill:none;}.cls-2{clip-path:url(#clip-path);}</style><clipPath id="clip-path"><rect class="cls-1" x="-0.15" y="0.06" width="24" height="24"/></clipPath></defs><title>code-branches</title><g class="cls-2"><path d="M7,22.45a3.88,3.88,0,1,1,3.87-3.87A3.88,3.88,0,0,1,7,22.45ZM7,16.2a2.38,2.38,0,1,0,2.37,2.38A2.39,2.39,0,0,0,7,16.2Z"/><path d="M7,9.3a3.88,3.88,0,1,1,3.87-3.88A3.88,3.88,0,0,1,7,9.3ZM7,3.05A2.38,2.38,0,1,0,9.38,5.42,2.38,2.38,0,0,0,7,3.05Z"/><path d="M17,16.45a3.88,3.88,0,1,1,3.88-3.87A3.87,3.87,0,0,1,17,16.45Zm0-6.25a2.38,2.38,0,1,0,2.38,2.38A2.38,2.38,0,0,0,17,10.2Z"/><path d="M7,16.2a.74.74,0,0,1-.75-.75V8.55a.75.75,0,0,1,1.48-.19c0,.14,1,3.47,6.13,3.47a.75.75,0,0,1,0,1.5,8.21,8.21,0,0,1-6.11-2.19v4.31A.75.75,0,0,1,7,16.2Z"/></g></svg>