<svg id="Layer_1" data-name="Layer 1" xmlns="http://www.w3.org/2000/svg" xmlns:xlink="http://www.w3.org/1999/xlink" viewBox="0 0 24 24"><defs><style>.cls-1{fill:none;}.cls-2{clip-path:url(#clip-path);}</style><clipPath id="clip-path"><rect class="cls-1" y="0.06" width="24" height="24"/></clipPath></defs><title>code</title><g class="cls-2"><path d="M5.9,16a.74.74,0,0,1-.53-.22L2.25,12.66A.77.77,0,0,1,2,12.13a.75.75,0,0,1,.22-.53L5.62,8.22a.75.75,0,0,1,1.06,0,.74.74,0,0,1,0,1.06L3.84,12.13l2.59,2.59a.75.75,0,0,1,0,1.06A.74.74,0,0,1,5.9,16Z"/><path d="M18.1,16a.74.74,0,0,1-.53-.22.75.75,0,0,1,0-1.06l2.59-2.59L17.32,9.28a.74.74,0,0,1,0-1.06.75.75,0,0,1,1.06,0l3.37,3.38a.75.75,0,0,1,.22.53.77.77,0,0,1-.22.53l-3.12,3.12A.74.74,0,0,1,18.1,16Z"/><path d="M10.2,17.6a.65.65,0,0,1-.27-.05.75.75,0,0,1-.44-1l3.61-9.7a.75.75,0,0,1,1.41.52l-3.61,9.7A.75.75,0,0,1,10.2,17.6Z"/></g></svg>