<svg id="Layer_1" data-name="Layer 1" xmlns="http://www.w3.org/2000/svg" xmlns:xlink="http://www.w3.org/1999/xlink" viewBox="0 0 24 24"><defs><style>.cls-1{fill:none;}.cls-2{clip-path:url(#clip-path);}</style><clipPath id="clip-path"><rect class="cls-1" y="0.03" width="24" height="24"/></clipPath></defs><title>copy</title><g class="cls-2"><path d="M14.78,22.49H6.44a2.61,2.61,0,0,1-2.61-2.61V6.9A2.6,2.6,0,0,1,6.44,4.3h8.34a2.6,2.6,0,0,1,2.61,2.6v13A2.61,2.61,0,0,1,14.78,22.49ZM6.44,5.8A1.11,1.11,0,0,0,5.33,6.9v13A1.11,1.11,0,0,0,6.44,21h8.34a1.11,1.11,0,0,0,1.11-1.11V6.9a1.11,1.11,0,0,0-1.11-1.1Z"/><path d="M19.42,17.85a.75.75,0,0,1-.75-.75V6.65A3.65,3.65,0,0,0,15,3H9.22a.75.75,0,0,1,0-1.5H15a5.15,5.15,0,0,1,5.14,5.14V17.1A.76.76,0,0,1,19.42,17.85Z"/></g></svg>