<svg id="Layer_1" data-name="Layer 1" xmlns="http://www.w3.org/2000/svg" xmlns:xlink="http://www.w3.org/1999/xlink" viewBox="0 0 24 24"><defs><style>.cls-1{fill:none;}.cls-2{clip-path:url(#clip-path);}</style><clipPath id="clip-path"><rect class="cls-1" y="0.02" width="24" height="24"/></clipPath></defs><title>cube</title><g class="cls-2"><path d="M11.93,12.77a.68.68,0,0,1-.34-.08L2.25,8a.75.75,0,0,1-.42-.67.74.74,0,0,1,.42-.67L11.59,2a.79.79,0,0,1,.67,0l9.49,4.7a.75.75,0,0,1,.42.67.77.77,0,0,1-.42.67l-9.49,4.7A.78.78,0,0,1,11.93,12.77ZM4.25,7.33l7.68,3.86,7.8-3.86-7.8-3.86Z"/><path d="M12,22.12a.84.84,0,0,1-.34-.08l-9.41-4.7a.73.73,0,0,1-.42-.67V7.33a.75.75,0,0,1,1.5,0v8.88L12,20.53l8.67-4.28V7.33a.75.75,0,1,1,1.5,0v9.39a.75.75,0,0,1-.42.67L12.33,22A.76.76,0,0,1,12,22.12Z"/><path d="M12,22.12a.75.75,0,0,1-.75-.75L11.18,12a.76.76,0,0,1,.74-.76h0a.76.76,0,0,1,.75.75l.07,9.34a.75.75,0,0,1-.74.76Z"/></g></svg>