<svg id="Layer_1" data-name="Layer 1" xmlns="http://www.w3.org/2000/svg" xmlns:xlink="http://www.w3.org/1999/xlink" viewBox="0 0 24 24"><defs><style>.cls-1{fill:none;}.cls-2{clip-path:url(#clip-path);}</style><clipPath id="clip-path"><rect class="cls-1" y="0.02" width="24" height="24"/></clipPath></defs><title>d</title><g class="cls-2"><path d="M12,22a5.45,5.45,0,1,1,5.45-5.45A5.46,5.46,0,0,1,12,22Zm0-9.39A3.95,3.95,0,1,0,16,16.55,3.95,3.95,0,0,0,12,12.61Z"/><path d="M16.7,17.3a.74.74,0,0,1-.75-.75V2.75a.75.75,0,0,1,1.5,0v13.8A.75.75,0,0,1,16.7,17.3Z"/></g></svg>