<svg id="Layer_1" data-name="Layer 1" xmlns="http://www.w3.org/2000/svg" xmlns:xlink="http://www.w3.org/1999/xlink" viewBox="0 0 24 24"><defs><style>.cls-1{fill:none;}.cls-2{clip-path:url(#clip-path);}</style><clipPath id="clip-path"><rect class="cls-1" y="-0.03" width="24" height="24"/></clipPath></defs><title>dashboard</title><g class="cls-2"><path d="M21.54,19.25a.66.66,0,0,1-.23,0,.74.74,0,0,1-.48-.94,9.25,9.25,0,1,0-17.66,0,.75.75,0,1,1-1.42.46,10.75,10.75,0,1,1,21-3.23,10.68,10.68,0,0,1-.5,3.23A.74.74,0,0,1,21.54,19.25Z"/><path d="M21.54,19.25H2.46a.75.75,0,0,1,0-1.5H21.54a.75.75,0,0,1,0,1.5Z"/><path d="M12,16.25a.74.74,0,0,1-.53-.22.75.75,0,0,1,0-1.06l4-4A.75.75,0,0,1,16.53,12l-4,4A.74.74,0,0,1,12,16.25Z"/></g></svg>