<svg id="Layer_1" data-name="Layer 1" xmlns="http://www.w3.org/2000/svg" xmlns:xlink="http://www.w3.org/1999/xlink" viewBox="0 0 24 24"><defs><style>.cls-1{fill:none;}.cls-2{clip-path:url(#clip-path);}</style><clipPath id="clip-path"><rect class="cls-1" x="-0.15" y="0.06" width="24" height="24"/></clipPath></defs><title>database</title><g class="cls-2"><path d="M12,12.14c-6,0-10.46-2.14-10.46-5s4.5-5,10.46-5,10.46,2.15,10.46,5S18,12.14,12,12.14Zm0-8.49c-5.28,0-9,1.84-9,3.5s3.68,3.49,9,3.49,9-1.84,9-3.49S17.28,3.65,12,3.65Z"/><path d="M12,17a16.54,16.54,0,0,1-8.35-1.94A3.76,3.76,0,0,1,1.54,12,3.78,3.78,0,0,1,3.66,8.93a.76.76,0,0,1,1,.25.75.75,0,0,1-.24,1C3.54,10.77,3,11.4,3,12s.5,1.23,1.41,1.79A15,15,0,0,0,12,15.5a15,15,0,0,0,7.55-1.71C20.46,13.23,21,12.6,21,12s-.5-1.23-1.41-1.79a.75.75,0,0,1-.24-1,.76.76,0,0,1,1-.25A3.78,3.78,0,0,1,22.46,12a3.78,3.78,0,0,1-2.12,3.07A16.58,16.58,0,0,1,12,17Z"/><path d="M12,21.85c-6,0-10.46-2.15-10.46-5a3.78,3.78,0,0,1,2.12-3.06.75.75,0,0,1,1,.24.76.76,0,0,1-.24,1C3.54,15.62,3,16.26,3,16.85c0,1.66,3.68,3.5,9,3.5s9-1.84,9-3.5c0-.59-.5-1.23-1.41-1.78a.76.76,0,0,1-.24-1,.75.75,0,0,1,1-.24,3.78,3.78,0,0,1,2.12,3.06C22.46,19.7,18,21.85,12,21.85Z"/></g></svg>