<svg id="Layer_1" data-name="Layer 1" xmlns="http://www.w3.org/2000/svg" xmlns:xlink="http://www.w3.org/1999/xlink" viewBox="0 0 24 24"><defs><style>.cls-1{fill:none;}.cls-2{clip-path:url(#clip-path);}</style><clipPath id="clip-path"><rect class="cls-1" y="0.02" width="24" height="24"/></clipPath></defs><title>data-stats</title><g class="cls-2"><path d="M9.16,18.83a.77.77,0,0,1-.53-.22L5.71,15.78H3.1a.75.75,0,1,1,0-1.5H6a.72.72,0,0,1,.52.21l2.22,2.14L11.48,5.74a.77.77,0,0,1,.7-.57.74.74,0,0,1,.74.52l2.66,8,2.2-2.2a.75.75,0,0,1,.53-.22H20.9a.75.75,0,0,1,0,1.5H18.62L15.79,15.6a.73.73,0,0,1-.71.2.76.76,0,0,1-.54-.49L12.31,8.6,9.88,18.26a.75.75,0,0,1-.52.54A.69.69,0,0,1,9.16,18.83Z"/></g></svg>