<svg id="Layer_1" data-name="Layer 1" xmlns="http://www.w3.org/2000/svg" xmlns:xlink="http://www.w3.org/1999/xlink" viewBox="0 0 24 24"><defs><style>.cls-1{fill:none;}.cls-2{clip-path:url(#clip-path);}</style><clipPath id="clip-path"><rect class="cls-1" width="24" height="24"/></clipPath></defs><title>desk-alt</title><g class="cls-2"><path d="M21.75,17.63H11.87a.76.76,0,0,1-.75-.75v-9H3v9a.75.75,0,0,1-1.5,0V7.13a.75.75,0,0,1,.75-.75h19.5a.75.75,0,0,1,.75.75v9.75A.76.76,0,0,1,21.75,17.63Zm-9.13-1.5H21V7.88H12.62Z"/><path d="M21.75,12.75H11.87a.75.75,0,1,1,0-1.5h9.88a.75.75,0,0,1,0,1.5Z"/></g></svg>