<svg id="Layer_1" data-name="Layer 1" xmlns="http://www.w3.org/2000/svg" xmlns:xlink="http://www.w3.org/1999/xlink" viewBox="0 0 24 24"><defs><style>.cls-1{fill:none;}.cls-2{clip-path:url(#clip-path);}</style><clipPath id="clip-path"><rect class="cls-1" y="-0.02" width="24" height="24"/></clipPath></defs><title>doc-tick</title><g class="cls-2"><path d="M17.34,20.06a.74.74,0,0,1-.53-.22l-1.63-1.63a.75.75,0,0,1,1.06-1.06l1.1,1.1,3.71-3.71a.75.75,0,0,1,1.06,0,.74.74,0,0,1,0,1.06l-4.24,4.24A.73.73,0,0,1,17.34,20.06Z"/><path d="M11.79,20.77H3.84a2.18,2.18,0,0,1-2.17-2.18V4a.74.74,0,0,1,.75-.75H8.21c5.92,0,13,4,13.32,4.14a.74.74,0,0,1,.39.65v4a.75.75,0,0,1-1.5,0V8.47C18.88,7.66,13,4.73,8.21,4.73h-5V18.59a.67.67,0,0,0,.67.68h8a.75.75,0,0,1,0,1.5Z"/><path d="M21.17,8.77H2.42a.75.75,0,0,1,0-1.5H21.17a.75.75,0,0,1,0,1.5Z"/></g></svg>