<svg id="Layer_1" data-name="Layer 1" xmlns="http://www.w3.org/2000/svg" xmlns:xlink="http://www.w3.org/1999/xlink" viewBox="0 0 24 24"><defs><style>.cls-1{fill:none;}.cls-2{clip-path:url(#clip-path);}</style><clipPath id="clip-path"><rect class="cls-1" width="24" height="24"/></clipPath></defs><title>doc-cross</title><g class="cls-2"><path d="M12,20.64H4.05a2.17,2.17,0,0,1-2.17-2.18V3.85a.75.75,0,0,1,.75-.75H8.42c5.92,0,13,4,13.32,4.14a.74.74,0,0,1,.39.65v4a.75.75,0,1,1-1.5,0V8.34C19.09,7.53,13.2,4.6,8.42,4.6h-5V18.46a.67.67,0,0,0,.67.68h8a.75.75,0,0,1,0,1.5Z"/><path d="M21.38,8.64H2.63a.75.75,0,0,1,0-1.5H21.38a.75.75,0,1,1,0,1.5Z"/><path d="M20.88,20.9a.74.74,0,0,1-.53-.22L15,15.29A.75.75,0,0,1,16,14.23l5.39,5.39a.74.74,0,0,1,0,1.06A.71.71,0,0,1,20.88,20.9Z"/><path d="M15.49,20.9a.74.74,0,0,1-.53-.22.75.75,0,0,1,0-1.06l5.39-5.39a.75.75,0,0,1,1.06,0,.74.74,0,0,1,0,1.06L16,20.68A.73.73,0,0,1,15.49,20.9Z"/></g></svg>