<svg id="Layer_1" data-name="Layer 1" xmlns="http://www.w3.org/2000/svg" xmlns:xlink="http://www.w3.org/1999/xlink" viewBox="0 0 24 24"><defs><style>.cls-1{fill:none;}.cls-2{clip-path:url(#clip-path);}</style><clipPath id="clip-path"><rect class="cls-1" x="-0.07" y="0.02" width="24" height="24"/></clipPath></defs><title>doc-import</title><g class="cls-2"><path d="M11.93,20.31H4a2.18,2.18,0,0,1-2.18-2.17V3.52a.76.76,0,0,1,.75-.75H8.35c5.92,0,13,4,13.33,4.14a.75.75,0,0,1,.38.65v4a.75.75,0,0,1-1.5,0V8C19,7.2,13.13,4.27,8.35,4.27h-5V18.14a.67.67,0,0,0,.68.67h7.94a.75.75,0,0,1,0,1.5Z"/><path d="M21.31,8.31H2.56a.75.75,0,0,1,0-1.5H21.31a.75.75,0,1,1,0,1.5Z"/><path d="M18.28,20.3a.76.76,0,0,1-.75-.75v-6.7a.76.76,0,0,1,.75-.76.74.74,0,0,1,.75.75v6.71a.74.74,0,0,1-.74.75Z"/><path d="M18.29,21.23a.71.71,0,0,1-.53-.22l-3.17-3.15a.76.76,0,0,1,0-1.07.77.77,0,0,1,1.07,0l2.63,2.63,2.63-2.64a.74.74,0,0,1,1.06,0,.75.75,0,0,1,0,1.06L18.82,21A.79.79,0,0,1,18.29,21.23Z"/></g></svg>