<svg id="Layer_1" data-name="Layer 1" xmlns="http://www.w3.org/2000/svg" xmlns:xlink="http://www.w3.org/1999/xlink" viewBox="0 0 24 24"><defs><style>.cls-1{fill:none;}.cls-2{clip-path:url(#clip-path);}</style><clipPath id="clip-path"><rect class="cls-1" x="0.15" y="0.02" width="24" height="24"/></clipPath></defs><title>doc-export</title><g class="cls-2"><path d="M11.93,20.31H4a2.18,2.18,0,0,1-2.18-2.17V3.52a.76.76,0,0,1,.75-.75H8.35c5.92,0,13,4,13.33,4.14a.75.75,0,0,1,.38.65v4a.75.75,0,0,1-1.5,0V8C19,7.2,13.13,4.27,8.35,4.27h-5V18.14a.67.67,0,0,0,.68.67h7.94a.75.75,0,0,1,0,1.5Z"/><path d="M21.31,8.31H2.56a.75.75,0,0,1,0-1.5H21.31a.75.75,0,1,1,0,1.5Z"/><path d="M18.29,21.23a.76.76,0,0,1-.75-.75l0-6.71a.76.76,0,0,1,.75-.75h0a.74.74,0,0,1,.75.75l0,6.71a.75.75,0,0,1-.75.75Z"/><path d="M15.12,16.76a.75.75,0,0,1-.54-1.27l3.16-3.17a.75.75,0,0,1,1.06,0L22,15.47a.75.75,0,0,1-1.06,1.06L18.27,13.9l-2.62,2.64A.74.74,0,0,1,15.12,16.76Z"/></g></svg>