<svg id="Layer_1" data-name="Layer 1" xmlns="http://www.w3.org/2000/svg" xmlns:xlink="http://www.w3.org/1999/xlink" viewBox="0 0 24 24"><defs><style>.cls-1{fill:none;}.cls-2{clip-path:url(#clip-path);}</style><clipPath id="clip-path"><rect class="cls-1" x="0.09" y="0.02" width="24" height="24"/></clipPath></defs><title>doc-plus</title><g class="cls-2"><path d="M11.69,20.75H3.74a2.19,2.19,0,0,1-2.18-2.18V4a.75.75,0,0,1,.75-.75H8.1c5.92,0,13,4,13.33,4.14a.73.73,0,0,1,.38.65v4a.75.75,0,0,1-1.5,0V8.45C18.77,7.64,12.89,4.71,8.1,4.71h-5V18.57a.68.68,0,0,0,.68.68h8a.75.75,0,0,1,0,1.5Z"/><path d="M21.06,8.75H2.31a.75.75,0,0,1,0-1.5H21.06a.75.75,0,0,1,0,1.5Z"/><path d="M21.69,18.31H14.06a.75.75,0,1,1,0-1.5h7.63a.75.75,0,0,1,0,1.5Z"/><path d="M17.88,22.13a.75.75,0,0,1-.75-.75V13.75a.75.75,0,0,1,1.5,0v7.63A.76.76,0,0,1,17.88,22.13Z"/></g></svg>