<svg id="Layer_1" data-name="Layer 1" xmlns="http://www.w3.org/2000/svg" xmlns:xlink="http://www.w3.org/1999/xlink" viewBox="0 0 24 24"><defs><style>.cls-1{fill:none;}.cls-2{clip-path:url(#clip-path);}</style><clipPath id="clip-path"><rect class="cls-1" y="0.02" width="24" height="24"/></clipPath></defs><title>doc</title><g class="cls-2"><path d="M20,20.77H4.05a2.18,2.18,0,0,1-2.17-2.18V4a.74.74,0,0,1,.75-.75H8.42c5.92,0,13,4,13.32,4.14a.74.74,0,0,1,.39.65V18.59A2.19,2.19,0,0,1,20,20.77ZM3.38,4.73V18.59a.67.67,0,0,0,.67.68H20a.68.68,0,0,0,.68-.68V8.47C19.09,7.66,13.2,4.73,8.42,4.73Z"/><path d="M21.38,8.77H2.63a.75.75,0,1,1,0-1.5H21.38a.75.75,0,0,1,0,1.5Z"/></g></svg>