<svg id="Layer_1" data-name="Layer 1" xmlns="http://www.w3.org/2000/svg" xmlns:xlink="http://www.w3.org/1999/xlink" viewBox="0 0 24 24"><defs><style>.cls-1{fill:none;}.cls-2{clip-path:url(#clip-path);}</style><clipPath id="clip-path"><rect class="cls-1" y="0.06" width="24" height="24"/></clipPath></defs><title>dots6</title><g class="cls-2"><path d="M15.94,10.78A2.75,2.75,0,1,1,18.69,8,2.75,2.75,0,0,1,15.94,10.78Zm0-4A1.25,1.25,0,1,0,17.19,8,1.25,1.25,0,0,0,15.94,6.78Z"/><path d="M15.94,18.81a2.75,2.75,0,1,1,2.75-2.75A2.75,2.75,0,0,1,15.94,18.81Zm0-4a1.25,1.25,0,1,0,1.25,1.25A1.25,1.25,0,0,0,15.94,14.81Z"/><path d="M8.06,10.69a2.75,2.75,0,1,1,2.75-2.75A2.75,2.75,0,0,1,8.06,10.69Zm0-4A1.25,1.25,0,1,0,9.31,7.94,1.25,1.25,0,0,0,8.06,6.69Z"/><path d="M8.06,18.72A2.75,2.75,0,1,1,10.81,16,2.75,2.75,0,0,1,8.06,18.72Zm0-4A1.25,1.25,0,1,0,9.31,16,1.26,1.26,0,0,0,8.06,14.72Z"/></g></svg>