<svg id="Layer_1" data-name="Layer 1" xmlns="http://www.w3.org/2000/svg" xmlns:xlink="http://www.w3.org/1999/xlink" viewBox="0 0 24 24"><defs><style>.cls-1{fill:none;}.cls-2{clip-path:url(#clip-path);}</style><clipPath id="clip-path"><rect class="cls-1" x="0.08" y="-0.06" width="24" height="24"/></clipPath></defs><title>dots5</title><g class="cls-2"><path d="M19.88,10.78A2.75,2.75,0,1,1,22.63,8,2.75,2.75,0,0,1,19.88,10.78Zm0-4A1.25,1.25,0,1,0,21.13,8,1.25,1.25,0,0,0,19.88,6.78Z"/><path d="M19.88,18.81a2.75,2.75,0,1,1,2.75-2.75A2.75,2.75,0,0,1,19.88,18.81Zm0-4a1.25,1.25,0,1,0,1.25,1.25A1.25,1.25,0,0,0,19.88,14.81Z"/><path d="M12,10.69a2.75,2.75,0,1,1,2.75-2.75A2.75,2.75,0,0,1,12,10.69Zm0-4a1.25,1.25,0,1,0,1.25,1.25A1.25,1.25,0,0,0,12,6.69Z"/><path d="M12,18.72A2.75,2.75,0,1,1,14.75,16,2.75,2.75,0,0,1,12,18.72Zm0-4A1.25,1.25,0,1,0,13.25,16,1.26,1.26,0,0,0,12,14.72Z"/><path d="M4.12,10.78A2.75,2.75,0,1,1,6.87,8,2.76,2.76,0,0,1,4.12,10.78Zm0-4A1.25,1.25,0,1,0,5.37,8,1.25,1.25,0,0,0,4.12,6.78Z"/><path d="M4.12,18.81a2.75,2.75,0,1,1,2.75-2.75A2.75,2.75,0,0,1,4.12,18.81Zm0-4a1.25,1.25,0,1,0,1.25,1.25A1.25,1.25,0,0,0,4.12,14.81Z"/></g></svg>