<svg id="Layer_1" data-name="Layer 1" xmlns="http://www.w3.org/2000/svg" xmlns:xlink="http://www.w3.org/1999/xlink" viewBox="0 0 24 24"><defs><style>.cls-1{fill:none;}.cls-2{clip-path:url(#clip-path);}</style><clipPath id="clip-path"><rect class="cls-1" width="24" height="24"/></clipPath></defs><title>dots</title><g class="cls-2"><path d="M8,6.87a2.75,2.75,0,1,1,2.75-2.75A2.75,2.75,0,0,1,8,6.87Zm0-4A1.25,1.25,0,1,0,9.28,4.12,1.25,1.25,0,0,0,8,2.87Z"/><path d="M16.06,6.87a2.75,2.75,0,1,1,2.75-2.75A2.75,2.75,0,0,1,16.06,6.87Zm0-4a1.25,1.25,0,1,0,1.25,1.25A1.25,1.25,0,0,0,16.06,2.87Z"/><path d="M7.94,14.75A2.75,2.75,0,1,1,10.69,12,2.75,2.75,0,0,1,7.94,14.75Zm0-4A1.25,1.25,0,1,0,9.19,12,1.25,1.25,0,0,0,7.94,10.75Z"/><path d="M16,14.75A2.75,2.75,0,1,1,18.72,12,2.75,2.75,0,0,1,16,14.75Zm0-4A1.25,1.25,0,1,0,17.22,12,1.26,1.26,0,0,0,16,10.75Z"/><path d="M8,22.63a2.75,2.75,0,1,1,2.75-2.75A2.75,2.75,0,0,1,8,22.63Zm0-4a1.25,1.25,0,1,0,1.25,1.25A1.25,1.25,0,0,0,8,18.63Z"/><path d="M16.06,22.63a2.75,2.75,0,1,1,2.75-2.75A2.75,2.75,0,0,1,16.06,22.63Zm0-4a1.25,1.25,0,1,0,1.25,1.25A1.25,1.25,0,0,0,16.06,18.63Z"/></g></svg>