<svg id="Layer_1" data-name="Layer 1" xmlns="http://www.w3.org/2000/svg" xmlns:xlink="http://www.w3.org/1999/xlink" viewBox="0 0 24 24"><defs><style>.cls-1{fill:none;}.cls-2{clip-path:url(#clip-path);}</style><clipPath id="clip-path"><rect class="cls-1" x="0.15" y="0.06" width="24" height="24"/></clipPath></defs><title>dots4</title><g class="cls-2"><path d="M4,6.87A2.75,2.75,0,1,1,6.76,4.12,2.75,2.75,0,0,1,4,6.87Zm0-4A1.25,1.25,0,1,0,5.26,4.12,1.25,1.25,0,0,0,4,2.87Z"/><path d="M12,6.87a2.75,2.75,0,1,1,2.75-2.75A2.75,2.75,0,0,1,12,6.87Zm0-4a1.25,1.25,0,1,0,1.25,1.25A1.25,1.25,0,0,0,12,2.87Z"/><path d="M20.08,6.87a2.75,2.75,0,1,1,2.75-2.75A2.75,2.75,0,0,1,20.08,6.87Zm0-4a1.25,1.25,0,1,0,1.25,1.25A1.25,1.25,0,0,0,20.08,2.87Z"/><path d="M3.92,14.75A2.75,2.75,0,1,1,6.67,12,2.75,2.75,0,0,1,3.92,14.75Zm0-4A1.25,1.25,0,1,0,5.17,12,1.26,1.26,0,0,0,3.92,10.75Z"/><path d="M12,14.75A2.75,2.75,0,1,1,14.71,12,2.75,2.75,0,0,1,12,14.75Zm0-4A1.25,1.25,0,1,0,13.21,12,1.25,1.25,0,0,0,12,10.75Z"/><path d="M20,14.75A2.75,2.75,0,1,1,22.74,12,2.75,2.75,0,0,1,20,14.75Zm0-4A1.25,1.25,0,1,0,21.24,12,1.25,1.25,0,0,0,20,10.75Z"/><path d="M12,22.63a2.75,2.75,0,1,1,2.75-2.75A2.76,2.76,0,0,1,12,22.63Zm0-4a1.25,1.25,0,1,0,1.25,1.25A1.25,1.25,0,0,0,12,18.63Z"/></g></svg>