<svg id="Layer_1" data-name="Layer 1" xmlns="http://www.w3.org/2000/svg" xmlns:xlink="http://www.w3.org/1999/xlink" viewBox="0 0 24 24"><defs><style>.cls-1{fill:none;}.cls-2{clip-path:url(#clip-path);}</style><clipPath id="clip-path"><rect class="cls-1" x="-0.15" y="0.06" width="24" height="24"/></clipPath></defs><title>download</title><g class="cls-2"><path d="M7,19.63a3.76,3.76,0,0,1-3.75-3.74v-2.5A.76.76,0,0,1,4,12.63H4a.76.76,0,0,1,.75.75v2.5A2.26,2.26,0,0,0,7,18.13H7l10,0a2.24,2.24,0,0,0,2.24-2.25v-2.5A.74.74,0,0,1,20,12.6h0a.75.75,0,0,1,.75.74v2.5A3.74,3.74,0,0,1,17,19.6l-10,0Z"/><path d="M12,14.87a.76.76,0,0,1-.75-.75l0-9A.76.76,0,0,1,12,4.37h0a.75.75,0,0,1,.75.75l0,9a.74.74,0,0,1-.74.75Z"/><path d="M12,16.12a.77.77,0,0,1-.53-.22L7.21,11.66A.75.75,0,1,1,8.27,10.6L12,14.3l3.71-3.72a.75.75,0,1,1,1.06,1.06l-4.23,4.25A.75.75,0,0,1,12,16.12Z"/></g></svg>