<svg id="Layer_1" data-name="Layer 1" xmlns="http://www.w3.org/2000/svg" xmlns:xlink="http://www.w3.org/1999/xlink" viewBox="0 0 24 24"><defs><style>.cls-1{fill:none;}.cls-2{clip-path:url(#clip-path);}</style><clipPath id="clip-path"><rect class="cls-1" width="24" height="24"/></clipPath></defs><title>edit</title><g class="cls-2"><path d="M15.35,22.41h-10A3.76,3.76,0,0,1,1.6,18.66v-10A3.75,3.75,0,0,1,5.35,4.91h3a.75.75,0,0,1,0,1.5h-3A2.25,2.25,0,0,0,3.1,8.66v10a2.25,2.25,0,0,0,2.25,2.25h10a2.25,2.25,0,0,0,2.25-2.25v-2a.75.75,0,0,1,1.5,0v2A3.76,3.76,0,0,1,15.35,22.41Z"/><path d="M18.33,9.25a.74.74,0,0,1-.74-.73,2.34,2.34,0,0,0-.36-1.1,2.16,2.16,0,0,0-.66-.65,2.27,2.27,0,0,0-1.09-.36.73.73,0,0,1-.72-.77.71.71,0,0,1,.77-.72,3.69,3.69,0,0,1,3.55,3.55.73.73,0,0,1-.72.77Z"/><path d="M13.17,14.41H10.35a.75.75,0,0,1-.75-.75V10.83a.78.78,0,0,1,.21-.54l5.66-5.66a.77.77,0,0,1,1.07,0l1,1a.78.78,0,0,1,.2.69.76.76,0,0,1,.69.21l1,1a.77.77,0,0,1,0,1.07l-5.66,5.66A.79.79,0,0,1,13.17,14.41Zm-2.07-1.5h1.76L17.77,8l-.44-.44a.78.78,0,0,1-.2-.69.78.78,0,0,1-.69-.2L16,6.23l-4.9,4.91Z"/><path d="M18.83,8.75a.79.79,0,0,1-.53-.22l-1-1a.78.78,0,0,1-.2-.69.78.78,0,0,1-.69-.2l-1-1a.79.79,0,0,1-.22-.54.72.72,0,0,1,.23-.53l2.83-2.82a.75.75,0,0,1,1.06,0l2.82,2.82a.75.75,0,0,1,0,1.06L19.37,8.52a.74.74,0,0,1-.53.23Zm-1-2.47a.74.74,0,0,1,.53.22l.43.43L20.6,5.17,18.83,3.4,17.07,5.17l.44.43a.78.78,0,0,1,.2.69Z"/></g></svg>