<svg id="Layer_1" data-name="Layer 1" xmlns="http://www.w3.org/2000/svg" xmlns:xlink="http://www.w3.org/1999/xlink" viewBox="0 0 24 24"><defs><style>.cls-1{fill:none;}.cls-2{clip-path:url(#clip-path);}</style><clipPath id="clip-path"><rect class="cls-1" y="-0.06" width="24" height="24"/></clipPath></defs><title>envelope</title><g class="cls-2"><path d="M18,19.75H6A3.75,3.75,0,0,1,2.25,16V8A3.75,3.75,0,0,1,6,4.25H18A3.75,3.75,0,0,1,21.75,8v8A3.75,3.75,0,0,1,18,19.75ZM6,5.75A2.25,2.25,0,0,0,3.75,8v8A2.25,2.25,0,0,0,6,18.25H18A2.25,2.25,0,0,0,20.25,16V8A2.25,2.25,0,0,0,18,5.75Z"/><path d="M12,14.83a.67.67,0,0,1-.24,0l-9-3.08a.75.75,0,0,1-.47-1,.75.75,0,0,1,1-.47l8.77,3,8.76-2.84a.75.75,0,0,1,.94.49.74.74,0,0,1-.48.94l-9,2.92A.85.85,0,0,1,12,14.83Z"/></g></svg>