<svg id="Layer_1" data-name="Layer 1" xmlns="http://www.w3.org/2000/svg" xmlns:xlink="http://www.w3.org/1999/xlink" viewBox="0 0 24 24"><defs><style>.cls-1{fill:none;}.cls-2{clip-path:url(#clip-path);}</style><clipPath id="clip-path"><rect class="cls-1" width="24" height="24"/></clipPath></defs><title>exc-circle</title><g class="cls-2"><circle cx="12" cy="15.54" r="0.75"/><path d="M12,13.41a.75.75,0,0,1-.75-.75V8.46a.75.75,0,1,1,1.5,0v4.2A.75.75,0,0,1,12,13.41Z"/><path d="M12,21.77A9.77,9.77,0,1,1,21.77,12,9.79,9.79,0,0,1,12,21.77Zm0-18A8.27,8.27,0,1,0,20.27,12,8.28,8.28,0,0,0,12,3.73Z"/></g></svg>