<svg id="Layer_1" data-name="Layer 1" xmlns="http://www.w3.org/2000/svg" xmlns:xlink="http://www.w3.org/1999/xlink" viewBox="0 0 24 24"><defs><style>.cls-1{fill:none;}.cls-2{clip-path:url(#clip-path);}</style><clipPath id="clip-path"><rect class="cls-1" width="24" height="24"/></clipPath></defs><title>exc-triangle</title><g class="cls-2"><circle cx="12" cy="16.75" r="0.75"/><path d="M20.38,20.65H3.62A1.38,1.38,0,0,1,2.41,20a1.4,1.4,0,0,1,0-1.4L10.79,4h0a1.45,1.45,0,0,1,2.42,0l8.38,14.52a1.4,1.4,0,0,1,0,1.4A1.38,1.38,0,0,1,20.38,20.65ZM3.8,19.15H20.2L12,5ZM12.09,4.79Z"/><path d="M12,14.62a.75.75,0,0,1-.75-.75V9.66a.75.75,0,0,1,1.5,0v4.21A.75.75,0,0,1,12,14.62Z"/></g></svg>