<svg id="Layer_1" data-name="Layer 1" xmlns="http://www.w3.org/2000/svg" xmlns:xlink="http://www.w3.org/1999/xlink" viewBox="0 0 24 24"><defs><style>.cls-1{fill:none;}.cls-2{clip-path:url(#clip-path);}</style><clipPath id="clip-path"><rect class="cls-1" x="-0.01" width="24" height="24"/></clipPath></defs><title>exc-octa</title><g class="cls-2"><circle cx="12" cy="15.54" r="0.75"/><path d="M12,13.41a.74.74,0,0,1-.75-.75V8.46a.75.75,0,1,1,1.5,0v4.2A.75.75,0,0,1,12,13.41Z"/><path d="M15.76,21.83H8.24a.75.75,0,0,1-.53-.22L2.39,16.29a.75.75,0,0,1-.22-.53V8.24a.75.75,0,0,1,.22-.53L7.71,2.39a.75.75,0,0,1,.53-.22h7.52a.75.75,0,0,1,.53.22l5.32,5.32a.75.75,0,0,1,.22.53v7.52a.75.75,0,0,1-.22.53l-5.32,5.32A.75.75,0,0,1,15.76,21.83Zm-7.21-1.5h6.9l4.88-4.88V8.55L15.45,3.67H8.55L3.67,8.55v6.9Z"/></g></svg>