<svg id="Layer_1" data-name="Layer 1" xmlns="http://www.w3.org/2000/svg" xmlns:xlink="http://www.w3.org/1999/xlink" viewBox="0 0 24 24"><defs><style>.cls-1{fill:none;}.cls-2{clip-path:url(#clip-path);}</style><clipPath id="clip-path"><rect class="cls-1" y="0.06" width="24" height="24"/></clipPath></defs><title>eye-slash</title><g class="cls-2"><path d="M12.08,17.26c-3.63,0-7.2-1.73-10.62-5.15a.74.74,0,0,1-.16-.82.75.75,0,0,1,.32-.36c.79-.91,4.39-4.72,9.66-5,3.87-.21,7.65,1.52,11.26,5.13a.74.74,0,0,1,.16.82.77.77,0,0,1-.32.37c-.79.9-4.39,4.71-9.66,5Zm-9-5.68c3.13,2.93,6.34,4.34,9.56,4.16,4.14-.22,7.23-3,8.32-4.16-3.13-2.94-6.36-4.34-9.58-4.16A13.1,13.1,0,0,0,3.06,11.58Z"/><path d="M16.82,16.19l-.15,0a.74.74,0,0,1-.59-.88,2.93,2.93,0,0,0,.06-.63,4.17,4.17,0,0,0-8.34,0,4.74,4.74,0,0,0,0,.55.75.75,0,0,1-1.48.22,4.81,4.81,0,0,1-.06-.77,5.67,5.67,0,0,1,11.34,0,4.45,4.45,0,0,1-.09.93A.75.75,0,0,1,16.82,16.19Z"/><path d="M17.18,20a.74.74,0,0,1-.53-.22L2.17,5.29A.75.75,0,0,1,3.23,4.23L17.71,18.71a.74.74,0,0,1,0,1.06A.71.71,0,0,1,17.18,20Z"/></g></svg>