<svg id="Layer_1" data-name="Layer 1" xmlns="http://www.w3.org/2000/svg" xmlns:xlink="http://www.w3.org/1999/xlink" viewBox="0 0 24 24"><defs><style>.cls-1{fill:none;}.cls-2{clip-path:url(#clip-path);}</style><clipPath id="clip-path"><rect class="cls-1" width="24" height="24"/></clipPath></defs><title>file-import</title><g class="cls-2"><path d="M17.31,22.32a.74.74,0,0,1-.75-.75l0-5.08a.76.76,0,0,1,.75-.75h0a.75.75,0,0,1,.75.75l0,5.08a.76.76,0,0,1-.75.75Z"/><path d="M17.31,23a.74.74,0,0,1-.53-.22l-2.4-2.38a.75.75,0,0,1,1.06-1.07l1.87,1.86,1.86-1.87a.75.75,0,1,1,1.06,1.06l-2.39,2.4A.74.74,0,0,1,17.31,23Z"/><path d="M11.05,21.48H7.3a3.76,3.76,0,0,1-3.75-3.75v-13A3.76,3.76,0,0,1,7.3,1h5.91a.75.75,0,0,1,0,1.5H7.3A2.25,2.25,0,0,0,5.05,4.73v13A2.25,2.25,0,0,0,7.3,20h3.75a.75.75,0,0,1,0,1.5Z"/><path d="M17.3,13.89a.75.75,0,0,1-.75-.75V6.64a.75.75,0,0,1,1.5,0v6.5A.74.74,0,0,1,17.3,13.89Z"/><path d="M16.4,8.48H13.21a1.77,1.77,0,0,1-1.66-1.84V2.82A1.76,1.76,0,0,1,13.21,1a.78.78,0,0,1,.58.27l4.09,4.91a.74.74,0,0,1,.17.48A1.76,1.76,0,0,1,16.4,8.48ZM13.06,2.72s0,.06,0,.1V6.64a.37.37,0,0,0,.16.34H16.4a.24.24,0,0,0,.11-.13Z"/></g></svg>