<svg id="Layer_1" data-name="Layer 1" xmlns="http://www.w3.org/2000/svg" xmlns:xlink="http://www.w3.org/1999/xlink" viewBox="0 0 24 24"><defs><style>.cls-1{fill:none;}.cls-2{clip-path:url(#clip-path);}</style><clipPath id="clip-path"><rect class="cls-1" width="24" height="24"/></clipPath></defs><title>file-export</title><g class="cls-2"><path d="M17.31,23a.75.75,0,0,1-.75-.75V17.19a.75.75,0,0,1,.75-.75h0a.76.76,0,0,1,.75.75v5.08a.75.75,0,0,1-.75.75Z"/><path d="M14.91,19.64a.73.73,0,0,1-.53-.22.74.74,0,0,1,0-1.06L16.76,16a.77.77,0,0,1,1.07,0l2.4,2.39a.75.75,0,0,1,0,1.06.75.75,0,0,1-1.06,0L17.3,17.55l-1.86,1.87A.74.74,0,0,1,14.91,19.64Z"/><path d="M11.05,21.48H7.3a3.76,3.76,0,0,1-3.75-3.75v-13A3.75,3.75,0,0,1,7.3,1h5.91a.75.75,0,0,1,0,1.5H7.3A2.25,2.25,0,0,0,5.05,4.73v13A2.25,2.25,0,0,0,7.3,20h3.75a.75.75,0,0,1,0,1.5Z"/><path d="M17.3,13.89a.75.75,0,0,1-.75-.75V6.64a.75.75,0,0,1,1.5,0v6.5A.74.74,0,0,1,17.3,13.89Z"/><path d="M16.4,8.48H13.21a1.77,1.77,0,0,1-1.66-1.84V2.82A1.76,1.76,0,0,1,13.21,1a.78.78,0,0,1,.58.27l4.09,4.91a.74.74,0,0,1,.17.48A1.76,1.76,0,0,1,16.4,8.48ZM13.06,2.72s0,.06,0,.1V6.64a.37.37,0,0,0,.16.34H16.4a.24.24,0,0,0,.11-.13Z"/></g></svg>