<svg id="Layer_1" data-name="Layer 1" xmlns="http://www.w3.org/2000/svg" xmlns:xlink="http://www.w3.org/1999/xlink" viewBox="0 0 24 24"><defs><style>.cls-1{fill:none;}.cls-2{clip-path:url(#clip-path);}</style><clipPath id="clip-path"><rect class="cls-1" x="0.15" y="-0.06" width="24" height="24"/></clipPath></defs><title>file-code</title><g class="cls-2"><path d="M16.73,20.92a.71.71,0,0,1-.53-.22l-1.39-1.38a.75.75,0,0,1,0-1.06l1.5-1.5a.75.75,0,1,1,1.06,1.06l-1,1,.85.85a.75.75,0,0,1,0,1.06A.74.74,0,0,1,16.73,20.92Z"/><path d="M20.27,20.92a.74.74,0,0,1-.53-.22.75.75,0,0,1,0-1.06l.85-.85-1-1a.75.75,0,1,1,1.06-1.06l1.5,1.5a.75.75,0,0,1,0,1.06L20.8,20.7A.71.71,0,0,1,20.27,20.92Z"/><path d="M12.25,22.25H8.5A3.75,3.75,0,0,1,4.75,18.5V5.5A3.75,3.75,0,0,1,8.5,1.75h5.91a.75.75,0,0,1,0,1.5H8.5A2.25,2.25,0,0,0,6.25,5.5v13A2.25,2.25,0,0,0,8.5,20.75h3.75a.75.75,0,0,1,0,1.5Z"/><path d="M18.5,14.67a.76.76,0,0,1-.75-.75V7.41a.75.75,0,0,1,1.5,0v6.51A.76.76,0,0,1,18.5,14.67Z"/><path d="M17.59,9.25H14.41a1.76,1.76,0,0,1-1.66-1.84V3.59a1.76,1.76,0,0,1,1.66-1.84A.74.74,0,0,1,15,2l4.1,4.91a.78.78,0,0,1,.17.48A1.76,1.76,0,0,1,17.59,9.25ZM14.26,3.49a.31.31,0,0,0,0,.1V7.41c0,.23.13.34.16.34h3.18s.07,0,.11-.12Z"/></g></svg>