<svg id="Layer_1" data-name="Layer 1" xmlns="http://www.w3.org/2000/svg" xmlns:xlink="http://www.w3.org/1999/xlink" viewBox="0 0 24 24"><defs><style>.cls-1{fill:none;}.cls-2{clip-path:url(#clip-path);}</style><clipPath id="clip-path"><rect class="cls-1" y="-0.06" width="24" height="24"/></clipPath></defs><title>file-cross</title><g class="cls-2"><path d="M15.3,22a.74.74,0,0,1-.53-.22.75.75,0,0,1,0-1.06L19,16.52a.75.75,0,0,1,1.06,0,.74.74,0,0,1,0,1.06l-4.24,4.24A.73.73,0,0,1,15.3,22Z"/><path d="M19.54,22a.74.74,0,0,1-.53-.22l-4.24-4.24a.75.75,0,1,1,1.06-1.06l4.24,4.24a.74.74,0,0,1,0,1.06A.71.71,0,0,1,19.54,22Z"/><path d="M11.21,22.25H7.46A3.75,3.75,0,0,1,3.71,18.5V5.5A3.75,3.75,0,0,1,7.46,1.75h5.91a.75.75,0,0,1,0,1.5H7.46A2.25,2.25,0,0,0,5.21,5.5v13a2.25,2.25,0,0,0,2.25,2.25h3.75a.75.75,0,0,1,0,1.5Z"/><path d="M17.46,14.67a.75.75,0,0,1-.75-.75V7.41a.75.75,0,0,1,1.5,0v6.51A.76.76,0,0,1,17.46,14.67Z"/><path d="M16.55,9.25H13.36a1.76,1.76,0,0,1-1.65-1.84V3.59a1.76,1.76,0,0,1,1.65-1.84.75.75,0,0,1,.58.27L18,6.93a.79.79,0,0,1,.18.48A1.77,1.77,0,0,1,16.55,9.25ZM13.21,3.49V7.41c0,.23.12.34.15.34h3.19s.07,0,.11-.12Z"/></g></svg>