<svg id="Layer_1" data-name="Layer 1" xmlns="http://www.w3.org/2000/svg" xmlns:xlink="http://www.w3.org/1999/xlink" viewBox="0 0 24 24"><defs><style>.cls-1{fill:none;}.cls-2{clip-path:url(#clip-path);}</style><clipPath id="clip-path"><rect class="cls-1" width="24" height="24"/></clipPath></defs><title>file-tick</title><g class="cls-2"><path d="M15.57,22.25A.74.74,0,0,1,15,22,.75.75,0,0,1,15,21l4.63-4.63a.75.75,0,1,1,1.06,1.06L16.1,22A.73.73,0,0,1,15.57,22.25Z"/><path d="M15.57,22.25A.74.74,0,0,1,15,22l-1.87-1.87a.75.75,0,0,1,0-1.06.74.74,0,0,1,1.06,0L16.1,21a.74.74,0,0,1,0,1.06A.73.73,0,0,1,15.57,22.25Z"/><path d="M10.55,22.25H6.8A3.75,3.75,0,0,1,3.05,18.5V5.5A3.75,3.75,0,0,1,6.8,1.75h5.91a.75.75,0,0,1,0,1.5H6.8A2.25,2.25,0,0,0,4.55,5.5v13A2.25,2.25,0,0,0,6.8,20.75h3.75a.75.75,0,0,1,0,1.5Z"/><path d="M16.8,14.67a.75.75,0,0,1-.75-.75V7.41a.75.75,0,0,1,1.5,0v6.51A.76.76,0,0,1,16.8,14.67Z"/><path d="M15.89,9.25H12.7a1.76,1.76,0,0,1-1.65-1.84V3.59A1.76,1.76,0,0,1,12.7,1.75a.75.75,0,0,1,.58.27l4.09,4.91a.79.79,0,0,1,.18.48A1.77,1.77,0,0,1,15.89,9.25ZM12.55,3.49V7.41c0,.23.12.34.15.34h3.19s.07,0,.11-.12Z"/></g></svg>