<svg id="Layer_1" data-name="Layer 1" xmlns="http://www.w3.org/2000/svg" xmlns:xlink="http://www.w3.org/1999/xlink" viewBox="0 0 24 24"><defs><style>.cls-1{fill:none;}.cls-2{clip-path:url(#clip-path);}</style><clipPath id="clip-path"><rect class="cls-1" y="0.06" width="24" height="24"/></clipPath></defs><title>file-plus</title><g class="cls-2"><path d="M17,23.08a.75.75,0,0,1-.75-.75v-6a.75.75,0,0,1,1.5,0v6A.74.74,0,0,1,17,23.08Z"/><path d="M20,20.08H14a.75.75,0,0,1,0-1.5h6a.75.75,0,1,1,0,1.5Z"/><path d="M10.77,21.42H7a3.76,3.76,0,0,1-3.75-3.75v-13A3.75,3.75,0,0,1,7,.92h5.91a.75.75,0,1,1,0,1.5H7A2.25,2.25,0,0,0,4.77,4.67v13A2.25,2.25,0,0,0,7,19.92h3.75a.75.75,0,0,1,0,1.5Z"/><path d="M17,13.83a.74.74,0,0,1-.75-.75V6.58a.75.75,0,0,1,1.5,0v6.5A.75.75,0,0,1,17,13.83Z"/><path d="M16.11,8.42H12.92a1.76,1.76,0,0,1-1.65-1.84V2.75A1.75,1.75,0,0,1,12.92.92a.74.74,0,0,1,.58.26L17.59,6.1a.7.7,0,0,1,.18.48A1.77,1.77,0,0,1,16.11,8.42ZM12.77,2.66V6.58a.37.37,0,0,0,.15.34h3.19s.07,0,.11-.13Z"/></g></svg>