<svg id="Layer_1" data-name="Layer 1" xmlns="http://www.w3.org/2000/svg" xmlns:xlink="http://www.w3.org/1999/xlink" viewBox="0 0 24 24"><defs><style>.cls-1{fill:none;}.cls-2{clip-path:url(#clip-path);}</style><clipPath id="clip-path"><rect class="cls-1" width="24" height="24"/></clipPath></defs><title>file-text</title><g class="cls-2"><path d="M15.5,22.25h-7A3.75,3.75,0,0,1,4.75,18.5V5.5A3.75,3.75,0,0,1,8.5,1.75h5.91a.75.75,0,0,1,0,1.5H8.5A2.25,2.25,0,0,0,6.25,5.5v13A2.25,2.25,0,0,0,8.5,20.75h7a2.25,2.25,0,0,0,2.25-2.25V7.41a.75.75,0,0,1,1.5,0V18.5A3.75,3.75,0,0,1,15.5,22.25Z"/><path d="M17.59,9.25H14.41a1.76,1.76,0,0,1-1.66-1.84V3.59a1.76,1.76,0,0,1,1.66-1.84A.74.74,0,0,1,15,2l4.1,4.91a.78.78,0,0,1,.17.48A1.76,1.76,0,0,1,17.59,9.25ZM14.26,3.49a.31.31,0,0,0,0,.1V7.41c0,.23.13.34.16.34h3.18s.07,0,.11-.12Z"/><path d="M15,13.75H9a.75.75,0,0,1,0-1.5h6a.75.75,0,0,1,0,1.5Z"/><path d="M15,17.75H9a.75.75,0,0,1,0-1.5h6a.75.75,0,0,1,0,1.5Z"/></g></svg>