<svg id="Layer_1" data-name="Layer 1" xmlns="http://www.w3.org/2000/svg" xmlns:xlink="http://www.w3.org/1999/xlink" viewBox="0 0 24 24"><defs><style>.cls-1{fill:none;}.cls-2{clip-path:url(#clip-path);}</style><clipPath id="clip-path"><rect class="cls-1" width="24" height="24"/></clipPath></defs><title>file-structure</title><g class="cls-2"><path d="M16.15,12.61H2.25a.76.76,0,0,1-.75-.75V7.22a.76.76,0,0,1,.75-.75h13.9a.75.75,0,0,1,.75.75v4.64A.75.75,0,0,1,16.15,12.61ZM3,11.11H15.4V8H3Z"/><path d="M16.15,22.07H2.25a.76.76,0,0,1-.75-.75V16.68a.76.76,0,0,1,.75-.75h13.9a.75.75,0,0,1,.75.75v4.64A.75.75,0,0,1,16.15,22.07ZM3,20.57H15.4V17.43H3Z"/><path d="M21.75,19.75h-5.6a.75.75,0,1,1,0-1.5H21V2.68a.75.75,0,1,1,1.5,0V19A.76.76,0,0,1,21.75,19.75Z"/><path d="M21.75,10.29h-5.6a.75.75,0,0,1,0-1.5h5.6a.75.75,0,0,1,0,1.5Z"/></g></svg>