<svg id="Layer_1" data-name="Layer 1" xmlns="http://www.w3.org/2000/svg" xmlns:xlink="http://www.w3.org/1999/xlink" viewBox="0 0 24 24"><defs><style>.cls-1{fill:none;}.cls-2{clip-path:url(#clip-path);}</style><clipPath id="clip-path"><rect class="cls-1" x="0.15" y="-0.08" width="24" height="24"/></clipPath></defs><title>fingerprint</title><g class="cls-2"><path d="M12,21.25a.76.76,0,0,1-.75-.75v-4a.75.75,0,0,1,1.5,0v4A.76.76,0,0,1,12,21.25Z"/><path d="M16,21.27a.76.76,0,0,1-.75-.75v-4a3.23,3.23,0,0,0-6.46,0v4a.75.75,0,0,1-1.5,0v-4a4.73,4.73,0,0,1,9.46,0v4A.76.76,0,0,1,16,21.27Z"/><path d="M19.63,21.27a.75.75,0,0,1-.75-.75V11.93c0-4.24-3.09-7.7-6.88-7.7s-6.87,3.46-6.87,7.7v8.59a.75.75,0,0,1-1.5,0V11.93c0-5.07,3.75-9.2,8.37-9.2s8.38,4.13,8.38,9.2v8.59A.76.76,0,0,1,19.63,21.27Z"/><path d="M16,10.07a.76.76,0,0,1-.45-.15,5.63,5.63,0,0,0-6.85,0,.75.75,0,0,1-1-.1.76.76,0,0,1,.1-1.06,7.19,7.19,0,0,1,8.7,0,.75.75,0,0,1,.15,1A.74.74,0,0,1,16,10.07Z"/></g></svg>