<svg id="Layer_1" data-name="Layer 1" xmlns="http://www.w3.org/2000/svg" xmlns:xlink="http://www.w3.org/1999/xlink" viewBox="0 0 24 24"><defs><style>.cls-1{fill:none;}.cls-2{clip-path:url(#clip-path);}</style><clipPath id="clip-path"><rect class="cls-1" width="24" height="24"/></clipPath></defs><title>flag-alt2</title><g class="cls-2"><path d="M5.17,21.81a.75.75,0,0,1-.75-.75V2.94a.75.75,0,0,1,.75-.75H18.83a.74.74,0,0,1,.53,1.27l-4,4.13,4,4a.75.75,0,0,1-.53,1.28h0L5.92,12.75v8.31A.74.74,0,0,1,5.17,21.81Zm.75-10.56,11,.08-3.2-3.2a.76.76,0,0,1,0-1.06L17,3.69H5.92Z"/></g></svg>