<svg id="Layer_1" data-name="Layer 1" xmlns="http://www.w3.org/2000/svg" xmlns:xlink="http://www.w3.org/1999/xlink" viewBox="0 0 24 24"><defs><style>.cls-1{fill:none;}.cls-2{clip-path:url(#clip-path);}</style><clipPath id="clip-path"><rect class="cls-1" y="-0.03" width="24" height="24"/></clipPath></defs><title>flag-alt</title><g class="cls-2"><path d="M17.56,16.08H6.44A4.08,4.08,0,0,1,2.36,12V5.33A4.08,4.08,0,0,1,6.44,1.25H17.56a4.08,4.08,0,0,1,4.08,4.08V12A4.08,4.08,0,0,1,17.56,16.08ZM6.44,2.75A2.59,2.59,0,0,0,3.86,5.33V12a2.59,2.59,0,0,0,2.58,2.58H17.56A2.59,2.59,0,0,0,20.14,12V5.33a2.59,2.59,0,0,0-2.58-2.58Z"/><path d="M3.11,22.75A.76.76,0,0,1,2.36,22V8.67a.75.75,0,0,1,1.5,0V22A.75.75,0,0,1,3.11,22.75Z"/></g></svg>