<svg id="Layer_1" data-name="Layer 1" xmlns="http://www.w3.org/2000/svg" xmlns:xlink="http://www.w3.org/1999/xlink" viewBox="0 0 24 24"><defs><style>.cls-1{fill:none;}.cls-2{clip-path:url(#clip-path);}</style><clipPath id="clip-path"><rect class="cls-1" y="-0.03" width="24" height="24"/></clipPath></defs><title>flag</title><g class="cls-2"><path d="M20.5,22.75H3.5a.75.75,0,0,1,0-1.5h17a.75.75,0,0,1,0,1.5Z"/><path d="M6.5,22.75A.76.76,0,0,1,5.75,22V2a.74.74,0,0,1,.36-.64.73.73,0,0,1,.73,0l12,6a.75.75,0,0,1,0,1.34L7.25,14.46V22A.76.76,0,0,1,6.5,22.75ZM7.25,3.21v9.58L16.82,8Z"/></g></svg>