<svg id="Layer_1" data-name="Layer 1" xmlns="http://www.w3.org/2000/svg" xmlns:xlink="http://www.w3.org/1999/xlink" viewBox="0 0 24 24"><defs><style>.cls-1{fill:none;}.cls-2{clip-path:url(#clip-path);}</style><clipPath id="clip-path"><rect class="cls-1" width="24" height="24"/></clipPath></defs><title>fullscreen</title><g class="cls-2"><path d="M9.35,19.82H4.93a.75.75,0,0,1-.53-1.28L17.26,5.68H14.65a.75.75,0,1,1,0-1.5h4.42a.75.75,0,0,1,.53,1.28L6.74,18.32H9.35a.75.75,0,1,1,0,1.5Z"/><path d="M19.07,10.1a.76.76,0,0,1-.75-.75V4.93a.75.75,0,0,1,1.5,0V9.35A.75.75,0,0,1,19.07,10.1Z"/><path d="M4.93,19.82a.74.74,0,0,1-.75-.75V14.65a.75.75,0,1,1,1.5,0v4.42A.75.75,0,0,1,4.93,19.82Z"/><path d="M19.07,19.82a.73.73,0,0,1-.53-.22L5.68,6.74V9.35a.75.75,0,0,1-1.5,0V4.93A.75.75,0,0,1,5.46,4.4L18.32,17.26V14.65a.75.75,0,1,1,1.5,0v4.42a.73.73,0,0,1-.46.69A.72.72,0,0,1,19.07,19.82Z"/><path d="M19.07,19.82H14.65a.75.75,0,1,1,0-1.5h4.42a.75.75,0,0,1,0,1.5Z"/><path d="M9.35,5.68H4.93a.75.75,0,0,1,0-1.5H9.35a.75.75,0,0,1,0,1.5Z"/></g></svg>