<svg id="Layer_1" data-name="Layer 1" xmlns="http://www.w3.org/2000/svg" xmlns:xlink="http://www.w3.org/1999/xlink" viewBox="0 0 24 24"><defs><style>.cls-1{fill:none;}.cls-2{clip-path:url(#clip-path);}</style><clipPath id="clip-path"><rect class="cls-1" y="0.06" width="24" height="24"/></clipPath></defs><title>gallery</title><g class="cls-2"><path d="M17.5,21.25H6.5A3.75,3.75,0,0,1,2.75,17.5V6.5A3.75,3.75,0,0,1,6.5,2.75h11A3.75,3.75,0,0,1,21.25,6.5v11A3.75,3.75,0,0,1,17.5,21.25Zm-11-17A2.25,2.25,0,0,0,4.25,6.5v11A2.25,2.25,0,0,0,6.5,19.75h11a2.25,2.25,0,0,0,2.25-2.25V6.5A2.25,2.25,0,0,0,17.5,4.25Z"/><path d="M3.5,17.06a.76.76,0,0,1-.58-.27.75.75,0,0,1,.1-1l4.7-3.9a3.75,3.75,0,0,1,5.27.48l1.12,1.34a2.25,2.25,0,0,0,3.21.25L20,11.56a.75.75,0,0,1,1,1.13L18.31,15A3.74,3.74,0,0,1,13,14.62l-1.12-1.34A2.25,2.25,0,0,0,8.68,13L4,16.89A.72.72,0,0,1,3.5,17.06Z"/></g></svg>