<svg id="Layer_1" data-name="Layer 1" xmlns="http://www.w3.org/2000/svg" xmlns:xlink="http://www.w3.org/1999/xlink" viewBox="0 0 24 24"><defs><style>.cls-1{fill:none;}.cls-2{clip-path:url(#clip-path);}</style><clipPath id="clip-path"><rect class="cls-1" y="-0.06" width="24" height="24"/></clipPath></defs><title>geek-sad</title><g class="cls-2"><path d="M12,22.56A10.56,10.56,0,1,1,22.56,12,10.58,10.58,0,0,1,12,22.56ZM12,2.94A9.06,9.06,0,1,0,21.06,12,9.06,9.06,0,0,0,12,2.94Z"/><path d="M8.11,16.2a3,3,0,1,1,3-3A3,3,0,0,1,8.11,16.2Zm0-4.5a1.5,1.5,0,1,0,1.5,1.5A1.51,1.51,0,0,0,8.11,11.7Z"/><path d="M15.89,16.2a3,3,0,1,1,3-3A3,3,0,0,1,15.89,16.2Zm0-4.5a1.5,1.5,0,1,0,1.5,1.5A1.5,1.5,0,0,0,15.89,11.7Z"/><path d="M2.42,10.61a.75.75,0,0,1-.15-1.49C2.38,9.1,13.1,6.78,16,2.87A.75.75,0,0,1,17,2.71a.76.76,0,0,1,.16,1C14,8.13,3,10.49,2.58,10.59Z"/><path d="M19,9a20.54,20.54,0,0,1-7.34-1.61.75.75,0,0,1-.37-1,.74.74,0,0,1,1-.38S17,8,20.84,7.29a.74.74,0,0,1,.87.6.75.75,0,0,1-.6.88A11.1,11.1,0,0,1,19,9Z"/><path d="M13.64,14H10.36a.75.75,0,0,1,0-1.5h3.28a.75.75,0,0,1,0,1.5Z"/><path d="M5.86,14H2.27a.75.75,0,1,1,0-1.5H5.86a.75.75,0,0,1,0,1.5Z"/><path d="M21.74,14h-3.6a.75.75,0,0,1,0-1.5h3.6a.75.75,0,0,1,0,1.5Z"/><path d="M14.12,19.36a.76.76,0,0,1-.35-.09h0a4.36,4.36,0,0,0-3.89,0A.75.75,0,1,1,9.11,18a5.79,5.79,0,0,1,5.37,0,.75.75,0,0,1-.36,1.41Z"/></g></svg>