<svg id="Layer_1" data-name="Layer 1" xmlns="http://www.w3.org/2000/svg" xmlns:xlink="http://www.w3.org/1999/xlink" viewBox="0 0 24 24"><defs><style>.cls-1{fill:none;}.cls-2{clip-path:url(#clip-path);}</style><clipPath id="clip-path"><rect class="cls-1" y="0.02" width="24" height="24"/></clipPath></defs><title>gift</title><g class="cls-2"><path d="M16.43,21.91H7.57a3.39,3.39,0,0,1-3.39-3.39V9.67a3.4,3.4,0,0,1,3.39-3.4h8.86a3.4,3.4,0,0,1,3.39,3.4v8.85A3.39,3.39,0,0,1,16.43,21.91ZM7.57,7.77a1.9,1.9,0,0,0-1.89,1.9v8.85a1.89,1.89,0,0,0,1.89,1.89h8.86a1.89,1.89,0,0,0,1.89-1.89V9.67a1.9,1.9,0,0,0-1.89-1.9Z"/><path d="M12,21.91a.75.75,0,0,1-.75-.75V7a.75.75,0,0,1,1.5,0V21.16A.75.75,0,0,1,12,21.91Z"/><path d="M19.07,14.84H4.93a.75.75,0,0,1,0-1.5H19.07a.75.75,0,0,1,0,1.5Z"/><path d="M12,7.77H9.91a2.84,2.84,0,1,1,2.84-2.84V7A.75.75,0,0,1,12,7.77ZM9.91,3.59a1.34,1.34,0,1,0,0,2.68h1.34V4.93A1.34,1.34,0,0,0,9.91,3.59Z"/><path d="M14.09,7.77H12A.75.75,0,0,1,11.25,7V4.93a2.85,2.85,0,1,1,2.84,2.84Zm-1.34-1.5h1.34a1.34,1.34,0,1,0-1.34-1.34Z"/></g></svg>