<svg id="Layer_1" data-name="Layer 1" xmlns="http://www.w3.org/2000/svg" xmlns:xlink="http://www.w3.org/1999/xlink" viewBox="0 0 24 24"><defs><style>.cls-1{fill:none;}.cls-2{clip-path:url(#clip-path);}</style><clipPath id="clip-path"><rect class="cls-1" x="0.15" y="-0.06" width="24" height="24"/></clipPath></defs><title>github</title><g class="cls-2"><path d="M15.52,20.91h-7a6.79,6.79,0,0,1,0-13.58h7a6.79,6.79,0,0,1,0,13.58Zm-7-12.08a5.29,5.29,0,0,0,0,10.58h7a5.29,5.29,0,0,0,0-10.58Z"/><path d="M8.48,8.83A.79.79,0,0,1,8,8.61L3.71,4.37A.75.75,0,0,1,4.77,3.31L9,7.55A.75.75,0,0,1,9,8.61.79.79,0,0,1,8.48,8.83Z"/><path d="M8.17,15.93a.75.75,0,0,1-.75-.75V13.06a.75.75,0,0,1,1.5,0v2.12A.76.76,0,0,1,8.17,15.93Z"/><path d="M16.24,15.93a.76.76,0,0,1-.75-.75V13.06a.75.75,0,0,1,1.5,0v2.12A.76.76,0,0,1,16.24,15.93Z"/><path d="M16.24,8.83a.79.79,0,0,1-.53-.22.75.75,0,0,1,0-1.06L20,3.31a.75.75,0,0,1,1.06,0,.75.75,0,0,1,0,1.06L16.77,8.61A.79.79,0,0,1,16.24,8.83Z"/></g></svg>