<svg id="Layer_1" data-name="Layer 1" xmlns="http://www.w3.org/2000/svg" xmlns:xlink="http://www.w3.org/1999/xlink" viewBox="0 0 24 24"><defs><style>.cls-1{fill:none;}.cls-2{clip-path:url(#clip-path);}</style><clipPath id="clip-path"><rect class="cls-1" width="24" height="24"/></clipPath></defs><title>graph</title><g class="cls-2"><path d="M18.59,22.34H5.41a3.75,3.75,0,0,1-3.75-3.75V5.41A3.75,3.75,0,0,1,5.41,1.66H18.59a3.75,3.75,0,0,1,3.75,3.75V18.59A3.75,3.75,0,0,1,18.59,22.34ZM5.41,3.16A2.25,2.25,0,0,0,3.16,5.41V18.59a2.25,2.25,0,0,0,2.25,2.25H18.59a2.25,2.25,0,0,0,2.25-2.25V5.41a2.25,2.25,0,0,0-2.25-2.25Z"/><path d="M16,10.83a2.92,2.92,0,1,1,2.92-2.91A2.92,2.92,0,0,1,16,10.83ZM16,6.5a1.42,1.42,0,1,0,1.42,1.42A1.43,1.43,0,0,0,16,6.5Z"/><path d="M2.94,21.05A.71.71,0,0,1,2.66,21a.73.73,0,0,1-.41-1L7.31,7.64A.74.74,0,0,1,8,7.17a.75.75,0,0,1,.7.45l3.12,7,2.68-5.1a.75.75,0,1,1,1.32.7l-3.4,6.47a.72.72,0,0,1-.68.4.76.76,0,0,1-.67-.45L8,9.83,3.63,20.58A.74.74,0,0,1,2.94,21.05Z"/></g></svg>