<svg id="Layer_1" data-name="Layer 1" xmlns="http://www.w3.org/2000/svg" xmlns:xlink="http://www.w3.org/1999/xlink" viewBox="0 0 24 24"><defs><style>.cls-1{fill:none;}.cls-2{clip-path:url(#clip-path);}</style><clipPath id="clip-path"><rect class="cls-1" x="-0.15" y="0.06" width="24" height="24"/></clipPath></defs><title>headphones</title><g class="cls-2"><path d="M7,21.75A2.75,2.75,0,0,1,4.25,19V15a2.75,2.75,0,0,1,5.5,0v4A2.75,2.75,0,0,1,7,21.75Zm0-8A1.25,1.25,0,0,0,5.75,15v4a1.25,1.25,0,0,0,2.5,0V15A1.25,1.25,0,0,0,7,13.75Z"/><path d="M17,21.75A2.75,2.75,0,0,1,14.25,19V15a2.75,2.75,0,0,1,5.5,0v4A2.75,2.75,0,0,1,17,21.75Zm0-8A1.25,1.25,0,0,0,15.75,15v4a1.25,1.25,0,0,0,2.5,0V15A1.25,1.25,0,0,0,17,13.75Z"/><path d="M22,17.75a.76.76,0,0,1-.75-.75V13a9.25,9.25,0,0,0-18.5,0v4a.75.75,0,0,1-1.5,0V13a10.75,10.75,0,0,1,21.5,0v4A.76.76,0,0,1,22,17.75Z"/></g></svg>