<svg id="Layer_1" data-name="Layer 1" xmlns="http://www.w3.org/2000/svg" xmlns:xlink="http://www.w3.org/1999/xlink" viewBox="0 0 24 24"><defs><style>.cls-1{fill:none;}.cls-2{clip-path:url(#clip-path);}</style><clipPath id="clip-path"><rect class="cls-1" y="0.06" width="24" height="24"/></clipPath></defs><title>heartbeat</title><g class="cls-2"><path d="M18.38,22.13H5.63a3.76,3.76,0,0,1-3.75-3.75V5.63A3.75,3.75,0,0,1,5.63,1.88H18.38a3.76,3.76,0,0,1,3.75,3.75V18.38A3.76,3.76,0,0,1,18.38,22.13ZM5.63,3.38A2.24,2.24,0,0,0,3.38,5.63V18.38a2.25,2.25,0,0,0,2.25,2.25H18.38a2.25,2.25,0,0,0,2.25-2.25V5.63a2.25,2.25,0,0,0-2.25-2.25Z"/><path d="M13.34,18.44h0a.76.76,0,0,1-.7-.58L10.47,9,9,12.31a.74.74,0,0,1-.69.46H6a.75.75,0,1,1,0-1.5H7.86l2.11-5a.77.77,0,0,1,.75-.46.75.75,0,0,1,.67.58L13.46,15l1.06-3.19a.73.73,0,0,1,.74-.51l2.78.11a.75.75,0,0,1,.72.77.76.76,0,0,1-.78.72l-2.22-.08-1.71,5.13A.75.75,0,0,1,13.34,18.44Z"/></g></svg>