<svg id="Layer_1" data-name="Layer 1" xmlns="http://www.w3.org/2000/svg" xmlns:xlink="http://www.w3.org/1999/xlink" viewBox="0 0 24 24"><defs><style>.cls-1{fill:none;}.cls-2{clip-path:url(#clip-path);}</style><clipPath id="clip-path"><rect class="cls-1" y="-0.06" width="24" height="24"/></clipPath></defs><title>hex</title><g class="cls-2"><path d="M12,22.16a3.74,3.74,0,0,1-1.87-.5L4.57,18.45A3.75,3.75,0,0,1,2.7,15.21V8.79A3.75,3.75,0,0,1,4.57,5.55l5.56-3.21a3.75,3.75,0,0,1,3.75,0l5.55,3.21A3.75,3.75,0,0,1,21.3,8.79v6.42a3.75,3.75,0,0,1-1.87,3.24l-5.55,3.21A3.81,3.81,0,0,1,12,22.16ZM12,3.34a2.21,2.21,0,0,0-1.12.3L5.32,6.84A2.28,2.28,0,0,0,4.2,8.79v6.42a2.28,2.28,0,0,0,1.12,1.95l5.56,3.2a2.26,2.26,0,0,0,2.25,0l5.55-3.2a2.28,2.28,0,0,0,1.12-1.95V8.79a2.28,2.28,0,0,0-1.12-1.95l-5.55-3.2A2.28,2.28,0,0,0,12,3.34Z"/></g></svg>