<svg id="Layer_1" data-name="Layer 1" xmlns="http://www.w3.org/2000/svg" xmlns:xlink="http://www.w3.org/1999/xlink" viewBox="0 0 24 24"><defs><style>.cls-1{fill:none;}.cls-2{clip-path:url(#clip-path);}</style><clipPath id="clip-path"><rect class="cls-1" y="0.14" width="24" height="24"/></clipPath></defs><title>home-chimney</title><g class="cls-2"><path d="M20.08,12.89a.73.73,0,0,1-.53-.22L12,5.08l-7.5,7.5a.75.75,0,1,1-1.06-1.06l8-8a.75.75,0,0,1,1.06,0l8.13,8.13a.75.75,0,0,1,0,1.06A.74.74,0,0,1,20.08,12.89Z"/><path d="M12,20.74H5.42A.76.76,0,0,1,4.67,20V10.55a.75.75,0,0,1,1.5,0v8.69H12a.75.75,0,0,1,0,1.5Z"/><path d="M18.57,20.74H12a.75.75,0,0,1,0-1.5h5.82v-8.6a.75.75,0,0,1,1.5,0V20A.75.75,0,0,1,18.57,20.74Z"/><path d="M7.17,9.54a.75.75,0,0,1-.75-.75V4a.75.75,0,0,1,1.5,0V8.79A.74.74,0,0,1,7.17,9.54Z"/></g></svg>