<svg id="Layer_1" data-name="Layer 1" xmlns="http://www.w3.org/2000/svg" xmlns:xlink="http://www.w3.org/1999/xlink" viewBox="0 0 24 24"><defs><style>.cls-1{fill:none;}.cls-2{clip-path:url(#clip-path);}</style><clipPath id="clip-path"><rect class="cls-1" y="0.14" width="24" height="24"/></clipPath></defs><title>home-door</title><g class="cls-2"><path d="M20.08,12.89a.77.77,0,0,1-.53-.22L12,5.07l-7.5,7.5a.74.74,0,0,1-1.06,0,.75.75,0,0,1,0-1.06l8-8a.75.75,0,0,1,1.06,0l8.13,8.13a.75.75,0,0,1,0,1.06A.79.79,0,0,1,20.08,12.89Z"/><path d="M12,20.73H5.42A.75.75,0,0,1,4.67,20V10.54a.75.75,0,0,1,1.5,0v8.69H12a.75.75,0,0,1,0,1.5Z"/><path d="M18.57,20.73H12a.75.75,0,0,1,0-1.5h5.82v-8.6a.75.75,0,0,1,1.5,0V20A.74.74,0,0,1,18.57,20.73Z"/><path d="M14.86,20.74a.76.76,0,0,1-.75-.75V15.47a2.14,2.14,0,1,0-4.28,0V20a.75.75,0,0,1-1.5,0V15.47a3.64,3.64,0,1,1,7.28,0V20A.75.75,0,0,1,14.86,20.74Z"/></g></svg>