<svg id="Layer_1" data-name="Layer 1" xmlns="http://www.w3.org/2000/svg" xmlns:xlink="http://www.w3.org/1999/xlink" viewBox="0 0 24 24"><defs><style>.cls-1{fill:none;}.cls-2{clip-path:url(#clip-path);}</style><clipPath id="clip-path"><rect class="cls-1" width="24" height="24"/></clipPath></defs><title>key-return</title><g class="cls-2"><path d="M16.91,19H7.1a3.75,3.75,0,0,1-3.75-3.75V5.44A3.75,3.75,0,0,1,7.1,1.69h9.81a3.75,3.75,0,0,1,3.75,3.75v9.81A3.75,3.75,0,0,1,16.91,19ZM7.1,3.19A2.25,2.25,0,0,0,4.85,5.44v9.81A2.25,2.25,0,0,0,7.1,17.5h9.81a2.25,2.25,0,0,0,2.25-2.25V5.44a2.25,2.25,0,0,0-2.25-2.25Z"/><path d="M16.9,22.31H7.09a3.76,3.76,0,0,1-3.75-3.75V8.75a.75.75,0,0,1,1.5,0v9.81a2.25,2.25,0,0,0,2.25,2.25H16.9a2.25,2.25,0,0,0,2.25-2.25V8.75a.75.75,0,0,1,1.5,0v9.81A3.75,3.75,0,0,1,16.9,22.31Z"/><path d="M14.7,13.43h-6A.75.75,0,0,1,8.05,13a.72.72,0,0,1,.16-.81l2.22-2.22a.74.74,0,0,1,1.06,0,.75.75,0,0,1,0,1.06l-.94.94H14V6.53a.75.75,0,0,1,1.5,0v6.15A.76.76,0,0,1,14.7,13.43Z"/><path d="M11,15.65a.77.77,0,0,1-.53-.22L8.21,13.21a.75.75,0,0,1,0-1.06.74.74,0,0,1,1.06,0l2.22,2.22a.75.75,0,0,1,0,1.06A.79.79,0,0,1,11,15.65Z"/></g></svg>