<svg id="Layer_1" data-name="Layer 1" xmlns="http://www.w3.org/2000/svg" xmlns:xlink="http://www.w3.org/1999/xlink" viewBox="0 0 24 24"><defs><style>.cls-1{fill:none;}.cls-2{clip-path:url(#clip-path);}</style><clipPath id="clip-path"><rect class="cls-1" y="0.02" width="24" height="24"/></clipPath></defs><title>ladder</title><g class="cls-2"><path d="M16,20.73l-.19,0a.76.76,0,0,1-.54-.92l4-15.95a.75.75,0,1,1,1.45.37l-4,16A.75.75,0,0,1,16,20.73Z"/><path d="M4,20.73l-.18,0a.75.75,0,0,1-.54-.92l4-15.95a.75.75,0,0,1,.91-.55.76.76,0,0,1,.54.92l-4,16A.76.76,0,0,1,4,20.73Z"/><path d="M19,7.77H7.24a.75.75,0,0,1,0-1.5H19a.75.75,0,0,1,0,1.5Z"/><path d="M18,12.77H6a.75.75,0,1,1,0-1.5H18a.75.75,0,0,1,0,1.5Z"/><path d="M16.79,17.65H5a.75.75,0,0,1,0-1.5h11.8a.75.75,0,0,1,0,1.5Z"/></g></svg>