<svg id="Layer_1" data-name="Layer 1" xmlns="http://www.w3.org/2000/svg" xmlns:xlink="http://www.w3.org/1999/xlink" viewBox="0 0 24 24"><defs><style>.cls-1{fill:none;}.cls-2{clip-path:url(#clip-path);}</style><clipPath id="clip-path"><rect class="cls-1" width="24" height="24"/></clipPath></defs><title>laptop-plus</title><g class="cls-2"><path d="M19.23,17.18H4.77A.76.76,0,0,1,4,16.43V6.87A1.75,1.75,0,0,1,5.78,5.12H12a.75.75,0,0,1,0,1.5H5.78a.26.26,0,0,0-.26.25v8.81h13V11.15a.75.75,0,0,1,1.5,0v5.28A.76.76,0,0,1,19.23,17.18Z"/><path d="M20.75,20.84H3.25a.76.76,0,0,1-.75-.75V16.43a.76.76,0,0,1,.75-.75h17.5a.76.76,0,0,1,.75.75v3.66A.76.76,0,0,1,20.75,20.84ZM4,19.34H20V17.18H4Z"/><path d="M19.63,7H14.88a.75.75,0,0,1,0-1.5h4.75a.75.75,0,0,1,0,1.5Z"/><path d="M17.26,9.41a.74.74,0,0,1-.75-.75V3.91a.75.75,0,0,1,1.5,0V8.66A.75.75,0,0,1,17.26,9.41Z"/></g></svg>