<svg id="Layer_1" data-name="Layer 1" xmlns="http://www.w3.org/2000/svg" xmlns:xlink="http://www.w3.org/1999/xlink" viewBox="0 0 24 24"><defs><style>.cls-1{fill:none;}.cls-2{clip-path:url(#clip-path);}</style><clipPath id="clip-path"><rect class="cls-1" width="24" height="24"/></clipPath></defs><title>laptop-cross</title><g class="cls-2"><path d="M19.23,16.83H4.77A.75.75,0,0,1,4,16.08V6.52A1.76,1.76,0,0,1,5.78,4.77H12a.75.75,0,0,1,0,1.5H5.78a.26.26,0,0,0-.26.25v8.81h13V10.8a.75.75,0,0,1,1.5,0v5.28A.75.75,0,0,1,19.23,16.83Z"/><path d="M20.75,20.49H3.25a.76.76,0,0,1-.75-.75V16.08a.76.76,0,0,1,.75-.75h17.5a.76.76,0,0,1,.75.75v3.66A.76.76,0,0,1,20.75,20.49ZM4,19H20V16.83H4Z"/><path d="M18.94,8.37a.71.71,0,0,1-.53-.22L15.05,4.79a.74.74,0,0,1,0-1.06.75.75,0,0,1,1.06,0l3.36,3.36a.75.75,0,0,1,0,1.06A.74.74,0,0,1,18.94,8.37Z"/><path d="M15.58,8.37a.73.73,0,0,1-.53-.22.74.74,0,0,1,0-1.06l3.36-3.36a.75.75,0,0,1,1.06,1.06L16.11,8.15A.74.74,0,0,1,15.58,8.37Z"/></g></svg>