<svg id="Layer_1" data-name="Layer 1" xmlns="http://www.w3.org/2000/svg" xmlns:xlink="http://www.w3.org/1999/xlink" viewBox="0 0 24 24"><defs><style>.cls-1{fill:none;}.cls-2{clip-path:url(#clip-path);}</style><clipPath id="clip-path"><rect class="cls-1" width="24" height="24"/></clipPath></defs><title>laptop-dot</title><g class="cls-2"><path d="M19.23,16.2H4.77A.75.75,0,0,1,4,15.45V5.89A1.76,1.76,0,0,1,5.78,4.14H18.22A1.76,1.76,0,0,1,20,5.89v9.56A.75.75,0,0,1,19.23,16.2ZM5.52,14.7h13V5.89a.26.26,0,0,0-.26-.25H5.78a.26.26,0,0,0-.26.25Z"/><path d="M20.75,19.86H3.25a.76.76,0,0,1-.75-.75V15.45a.76.76,0,0,1,.75-.75h17.5a.76.76,0,0,1,.75.75v3.66A.76.76,0,0,1,20.75,19.86ZM4,18.36H20V16.2H4Z"/><path d="M12,13.23a3.06,3.06,0,1,1,3.06-3.06A3.06,3.06,0,0,1,12,13.23Zm0-4.62a1.56,1.56,0,1,0,1.56,1.56A1.56,1.56,0,0,0,12,8.61Z"/></g></svg>