<svg id="Layer_1" data-name="Layer 1" xmlns="http://www.w3.org/2000/svg" xmlns:xlink="http://www.w3.org/1999/xlink" viewBox="0 0 24 24"><defs><style>.cls-1{fill:none;}.cls-2{clip-path:url(#clip-path);}</style><clipPath id="clip-path"><rect class="cls-1" width="24" height="24"/></clipPath></defs><title>laptop-external</title><g class="cls-2"><path d="M19.23,17H4.77A.76.76,0,0,1,4,16.22V6.65A1.76,1.76,0,0,1,5.78,4.9H12a.75.75,0,0,1,0,1.5H5.78a.26.26,0,0,0-.26.25v8.82h13V10.93a.75.75,0,0,1,1.5,0v5.29A.76.76,0,0,1,19.23,17Z"/><path d="M20.75,20.62H3.25a.75.75,0,0,1-.75-.75V16.22a.75.75,0,0,1,.75-.75h17.5a.75.75,0,0,1,.75.75v3.65A.75.75,0,0,1,20.75,20.62ZM4,19.12H20V17H4Z"/><path d="M14,10.15a.71.71,0,0,1-.53-.22.74.74,0,0,1,0-1.06L18.7,3.6a.72.72,0,0,1,.81-.16.75.75,0,0,1,.47.69V7.94a.75.75,0,1,1-1.5,0v-2l-4,4A.74.74,0,0,1,14,10.15Z"/><path d="M19.23,4.88H15.41a.75.75,0,0,1,0-1.5h3.82a.75.75,0,0,1,0,1.5Z"/></g></svg>