<svg id="Layer_1" data-name="Layer 1" xmlns="http://www.w3.org/2000/svg" xmlns:xlink="http://www.w3.org/1999/xlink" viewBox="0 0 24 24"><defs><style>.cls-1{fill:none;}.cls-2{clip-path:url(#clip-path);}</style><clipPath id="clip-path"><rect class="cls-1" width="24" height="24"/></clipPath></defs><title>laptop-import-45</title><g class="cls-2"><path d="M19.23,16.2H4.77A.75.75,0,0,1,4,15.45V5.89A1.76,1.76,0,0,1,5.78,4.14H12a.75.75,0,0,1,0,1.5H5.78a.26.26,0,0,0-.26.25V14.7h13V10.17a.75.75,0,1,1,1.5,0v5.28A.75.75,0,0,1,19.23,16.2Z"/><path d="M20.75,19.86H3.25a.76.76,0,0,1-.75-.75V15.45a.76.76,0,0,1,.75-.75h17.5a.76.76,0,0,1,.75.75v3.66A.76.76,0,0,1,20.75,19.86ZM4,18.36H20V16.2H4Z"/><path d="M12.08,12.88a.75.75,0,0,1-.29-.06.74.74,0,0,1-.46-.69V8.32a.75.75,0,0,1,1.5,0v2l4-4a.75.75,0,1,1,1.06,1.06l-5.27,5.27A.75.75,0,0,1,12.08,12.88Z"/><path d="M15.89,12.88H12.08a.75.75,0,0,1,0-1.5h3.81a.75.75,0,0,1,0,1.5Z"/></g></svg>