<svg id="Layer_1" data-name="Layer 1" xmlns="http://www.w3.org/2000/svg" xmlns:xlink="http://www.w3.org/1999/xlink" viewBox="0 0 24 24"><defs><style>.cls-1{fill:none;}.cls-2{clip-path:url(#clip-path);}</style><clipPath id="clip-path"><rect class="cls-1" y="0.06" width="24" height="24"/></clipPath></defs><title>laptop-alt</title><g class="cls-2"><path d="M19.5,16.5H4.5a.76.76,0,0,1-.75-.75v-10A.76.76,0,0,1,4.5,5h15a.76.76,0,0,1,.75.75v10A.76.76,0,0,1,19.5,16.5ZM5.25,15h13.5V6.5H5.25Z"/><path d="M22,19H2a.75.75,0,0,1-.53-1.28L4,15.22A.75.75,0,1,1,5,16.28L3.81,17.5H20.19L19,16.28A.75.75,0,1,1,20,15.22l2.5,2.5A.75.75,0,0,1,22,19Z"/></g></svg>