<svg id="Layer_1" data-name="Layer 1" xmlns="http://www.w3.org/2000/svg" xmlns:xlink="http://www.w3.org/1999/xlink" viewBox="0 0 24 24"><defs><style>.cls-1{fill:none;}.cls-2{clip-path:url(#clip-path);}</style><clipPath id="clip-path"><rect class="cls-1" y="-0.01" width="24" height="24"/></clipPath></defs><title>laptop-code</title><g class="cls-2"><path d="M19.23,16.2H4.77A.75.75,0,0,1,4,15.45V5.89A1.76,1.76,0,0,1,5.77,4.14H18.23A1.76,1.76,0,0,1,20,5.89v9.56A.75.75,0,0,1,19.23,16.2ZM5.52,14.7h13V5.89a.25.25,0,0,0-.25-.25H5.77a.25.25,0,0,0-.25.25Z"/><path d="M20.75,19.86H3.25a.76.76,0,0,1-.75-.75V15.45a.76.76,0,0,1,.75-.75h17.5a.76.76,0,0,1,.75.75v3.66A.76.76,0,0,1,20.75,19.86ZM4,18.36H20V16.2H4Z"/><path d="M14.55,13a.74.74,0,0,1-.53-.22.75.75,0,0,1,0-1.06l1.46-1.46L13.86,8.63a.75.75,0,0,1,1.06-1.06l2.15,2.15a.75.75,0,0,1,0,1.06l-2,2A.74.74,0,0,1,14.55,13Z"/><path d="M9.45,13a.74.74,0,0,1-.53-.22l-2-2a.75.75,0,0,1,0-1.06L9.08,7.57a.75.75,0,0,1,1.06,1.06L8.52,10.25,10,11.71a.75.75,0,0,1,0,1.06A.74.74,0,0,1,9.45,13Z"/></g></svg>