<svg id="Layer_1" data-name="Layer 1" xmlns="http://www.w3.org/2000/svg" xmlns:xlink="http://www.w3.org/1999/xlink" viewBox="0 0 24 24"><defs><style>.cls-1{fill:none;}.cls-2{clip-path:url(#clip-path);}</style><clipPath id="clip-path"><rect class="cls-1" y="0.02" width="24" height="24"/></clipPath></defs><title>layers</title><g class="cls-2"><path d="M12,14.6a.73.73,0,0,1-.38-.11l-9.9-5.9a.74.74,0,0,1,0-1.28l9.9-5.9a.7.7,0,0,1,.76,0l9.9,5.9a.74.74,0,0,1,0,1.28l-9.9,5.9A.73.73,0,0,1,12,14.6ZM3.57,8,12,13l8.43-5L12,2.92Z"/><path d="M12,18.7a.7.7,0,0,1-.39-.11l-10-6a.75.75,0,0,1,.78-1.28L12,17.08l9.61-5.77a.75.75,0,0,1,.78,1.28l-10,6A.7.7,0,0,1,12,18.7Z"/><path d="M12,22.7a.7.7,0,0,1-.39-.11l-10-6a.75.75,0,0,1,.78-1.28L12,21.08l9.61-5.77a.75.75,0,1,1,.78,1.28l-10,6A.7.7,0,0,1,12,22.7Z"/></g></svg>