<svg id="Layer_1" data-name="Layer 1" xmlns="http://www.w3.org/2000/svg" xmlns:xlink="http://www.w3.org/1999/xlink" viewBox="0 0 24 24"><defs><style>.cls-1{fill:none;}.cls-2{clip-path:url(#clip-path);}</style><clipPath id="clip-path"><rect class="cls-1" width="24" height="24"/></clipPath></defs><title>layout</title><g class="cls-2"><path d="M18.59,22.34H5.41a3.75,3.75,0,0,1-3.75-3.75V5.41A3.75,3.75,0,0,1,5.41,1.66H18.59a3.75,3.75,0,0,1,3.75,3.75V18.59A3.75,3.75,0,0,1,18.59,22.34ZM5.41,3.16A2.25,2.25,0,0,0,3.16,5.41V18.59a2.25,2.25,0,0,0,2.25,2.25H18.59a2.25,2.25,0,0,0,2.25-2.25V5.41a2.25,2.25,0,0,0-2.25-2.25Z"/><path d="M21.59,12.84H2.41A.75.75,0,0,1,2,11.46l9.69-6.21a.74.74,0,0,1,.81,0L22,11.47a.74.74,0,0,1-.41,1.37ZM5,11.34H19.08l-7-4.56Z"/><path d="M18.29,17.59H5.9a.75.75,0,0,1,0-1.5H18.29a.75.75,0,0,1,0,1.5Z"/></g></svg>