<svg id="Layer_1" data-name="Layer 1" xmlns="http://www.w3.org/2000/svg" xmlns:xlink="http://www.w3.org/1999/xlink" viewBox="0 0 24 24"><defs><style>.cls-1{fill:none;}.cls-2{clip-path:url(#clip-path);}</style><clipPath id="clip-path"><rect class="cls-1" width="24" height="24"/></clipPath></defs><title>layout5</title><g class="cls-2"><path d="M18.82,22.57H5.18a3.75,3.75,0,0,1-3.75-3.75V5.18A3.75,3.75,0,0,1,5.18,1.43H18.82a3.75,3.75,0,0,1,3.75,3.75V18.82A3.75,3.75,0,0,1,18.82,22.57ZM5.18,2.93A2.25,2.25,0,0,0,2.93,5.18V18.82a2.25,2.25,0,0,0,2.25,2.25H18.82a2.25,2.25,0,0,0,2.25-2.25V5.18a2.25,2.25,0,0,0-2.25-2.25Z"/><path d="M21.82,8.87H2.18a.75.75,0,0,1,0-1.5H21.82a.75.75,0,1,1,0,1.5Z"/><path d="M8,22.57a.76.76,0,0,1-.75-.75V8.12a.75.75,0,1,1,1.5,0v13.7A.76.76,0,0,1,8,22.57Z"/></g></svg>