<svg id="Layer_1" data-name="Layer 1" xmlns="http://www.w3.org/2000/svg" xmlns:xlink="http://www.w3.org/1999/xlink" viewBox="0 0 24 24"><defs><style>.cls-1{fill:none;}.cls-2{clip-path:url(#clip-path);}</style><clipPath id="clip-path"><rect class="cls-1" width="24" height="24"/></clipPath></defs><title>layout2</title><g class="cls-2"><path d="M6.83,19.08a.76.76,0,1,1,.76-.75A.76.76,0,0,1,6.83,19.08Z"/><path d="M11.75,19.09a.76.76,0,1,1,.75-.76A.76.76,0,0,1,11.75,19.09Z"/><circle cx="16.67" cy="18.34" r="0.75"/><path d="M18.59,22.34H5.41a3.75,3.75,0,0,1-3.75-3.75V5.41A3.75,3.75,0,0,1,5.41,1.66H18.59a3.75,3.75,0,0,1,3.75,3.75V18.59A3.75,3.75,0,0,1,18.59,22.34ZM5.41,3.16A2.25,2.25,0,0,0,3.16,5.41V18.59a2.25,2.25,0,0,0,2.25,2.25H18.59a2.25,2.25,0,0,0,2.25-2.25V5.41a2.25,2.25,0,0,0-2.25-2.25Z"/><path d="M21.59,15.92H2.41a.75.75,0,0,1-.52-1.29l9.69-9.29a.75.75,0,0,1,1,0l9.5,9.28a.75.75,0,0,1-.53,1.29ZM4.27,14.42H19.75L12.09,6.93Z"/></g></svg>