<svg id="Layer_1" data-name="Layer 1" xmlns="http://www.w3.org/2000/svg" xmlns:xlink="http://www.w3.org/1999/xlink" viewBox="0 0 24 24"><defs><style>.cls-1{fill:none;}.cls-2{clip-path:url(#clip-path);}</style><clipPath id="clip-path"><rect class="cls-1" width="24" height="24"/></clipPath></defs><title>link</title><g class="cls-2"><path d="M7.76,21A4.71,4.71,0,0,1,4.4,19.6a4.76,4.76,0,0,1,0-6.72l1.41-1.41a.75.75,0,0,1,1.06,0,.74.74,0,0,1,0,1.06L5.46,13.94a3.25,3.25,0,0,0,4.6,4.6l2.82-2.83a3.22,3.22,0,0,0,0-4.59.75.75,0,0,1,0-1.06.74.74,0,0,1,1.06,0,4.72,4.72,0,0,1,0,6.71L11.12,19.6A4.74,4.74,0,0,1,7.76,21Z"/><path d="M10.59,14.16a.71.71,0,0,1-.53-.22,4.72,4.72,0,0,1,0-6.71L12.88,4.4a4.75,4.75,0,1,1,6.72,6.72l-1.41,1.41a.75.75,0,0,1-1.06,0,.74.74,0,0,1,0-1.06l1.41-1.41a3.25,3.25,0,0,0-4.6-4.6L11.12,8.29a3.22,3.22,0,0,0,0,4.59.75.75,0,0,1,0,1.06A.74.74,0,0,1,10.59,14.16Z"/></g></svg>