<svg id="Layer_1" data-name="Layer 1" xmlns="http://www.w3.org/2000/svg" xmlns:xlink="http://www.w3.org/1999/xlink" viewBox="0 0 24 24"><defs><style>.cls-1{fill:none;}.cls-2{clip-path:url(#clip-path);}</style><clipPath id="clip-path"><rect class="cls-1" width="24" height="24"/></clipPath></defs><title>link-external</title><g class="cls-2"><path d="M12,12.55a.74.74,0,0,1-.53-.22.75.75,0,0,1,0-1.06L18.7,4a.75.75,0,0,1,1.06,1.06l-7.23,7.26A.73.73,0,0,1,12,12.55Z"/><path d="M20.24,11.12a.76.76,0,0,1-.75-.75V4.29H13.39a.75.75,0,0,1,0-1.5h6.84a.75.75,0,0,1,.75.74v6.84a.75.75,0,0,1-.75.75Z"/><path d="M15.35,21.21h-10A3.75,3.75,0,0,1,1.6,17.46v-10A3.76,3.76,0,0,1,5.35,3.71h3a.75.75,0,0,1,0,1.5h-3A2.25,2.25,0,0,0,3.1,7.46v10a2.25,2.25,0,0,0,2.25,2.25h10a2.25,2.25,0,0,0,2.25-2.25v-2a.75.75,0,0,1,1.5,0v2A3.76,3.76,0,0,1,15.35,21.21Z"/></g></svg>