<svg id="Layer_1" data-name="Layer 1" xmlns="http://www.w3.org/2000/svg" xmlns:xlink="http://www.w3.org/1999/xlink" viewBox="0 0 24 24"><defs><style>.cls-1{fill:none;}.cls-2{clip-path:url(#clip-path);}</style><clipPath id="clip-path"><rect class="cls-1" y="-0.03" width="24" height="24"/></clipPath></defs><title>location-marker</title><g class="cls-2"><path d="M11.79,11.7A3.91,3.91,0,1,1,15.7,7.79,3.91,3.91,0,0,1,11.79,11.7Zm0-6.32A2.41,2.41,0,1,0,14.2,7.79,2.41,2.41,0,0,0,11.79,5.38Z"/><path d="M18.25,9.82h-.12A.75.75,0,0,1,17.5,9l0-.17a2.36,2.36,0,0,1,0-.28,1.76,1.76,0,0,0,0-.33l0-.45a5.63,5.63,0,0,0-11.26,0,2.23,2.23,0,0,1,0,.37,1.37,1.37,0,0,0,0,.33c0,.12,0,.21,0,.31L6.5,9A.75.75,0,0,1,5,9.19L5,9a1.23,1.23,0,0,0,0-.19,2.58,2.58,0,0,1-.06-.6c0-.19,0-.32,0-.33a7.13,7.13,0,1,1,14.25-.06c0,.07,0,.2,0,.43a3,3,0,0,1-.06.59A.63.63,0,0,0,19,9l0,.22A.75.75,0,0,1,18.25,9.82Z"/><path d="M12,23.33a.74.74,0,0,1-.53-.22C5.36,17,4.9,8.19,4.88,7.82A.75.75,0,0,1,5.59,7a.76.76,0,0,1,.79.71c0,.09.46,8.61,6.15,14.3a.75.75,0,0,1,0,1.06A.74.74,0,0,1,12,23.33Z"/><path d="M12,23.33a.74.74,0,0,1-.53-.22.75.75,0,0,1,0-1.06c5.7-5.7,6.15-14.21,6.15-14.3a.75.75,0,0,1,1.5.07c0,.37-.48,9.18-6.59,15.29A.74.74,0,0,1,12,23.33Z"/></g></svg>