<svg id="Layer_1" data-name="Layer 1" xmlns="http://www.w3.org/2000/svg" xmlns:xlink="http://www.w3.org/1999/xlink" viewBox="0 0 24 24"><defs><style>.cls-1{fill:none;}.cls-2{clip-path:url(#clip-path);}</style><clipPath id="clip-path"><rect class="cls-1" x="-0.15" y="0.06" width="24" height="24"/></clipPath></defs><title>lock-circle</title><g class="cls-2"><path d="M12,21.44a7,7,0,1,1,7-7A7,7,0,0,1,12,21.44ZM12,9a5.46,5.46,0,1,0,5.46,5.46A5.47,5.47,0,0,0,12,9Z"/><path d="M15.93,10.44l-.16,0a.75.75,0,0,1-.57-.9A3,3,0,0,0,15.25,9V7.31A3.23,3.23,0,0,0,12,4.06,3.25,3.25,0,0,0,8.75,7.31V9a3,3,0,0,0,.05.56.75.75,0,0,1-.57.9.76.76,0,0,1-.89-.57A4.13,4.13,0,0,1,7.25,9V7.31a4.75,4.75,0,1,1,9.5,0V9a4.13,4.13,0,0,1-.09.89A.76.76,0,0,1,15.93,10.44Z"/><path d="M12,18.31a.75.75,0,0,1-.75-.75V14.94a.75.75,0,1,1,1.5,0v2.62A.75.75,0,0,1,12,18.31Z"/></g></svg>