<svg id="Layer_1" data-name="Layer 1" xmlns="http://www.w3.org/2000/svg" xmlns:xlink="http://www.w3.org/1999/xlink" viewBox="0 0 24 24"><defs><style>.cls-1{fill:none;}.cls-2{clip-path:url(#clip-path);}</style><clipPath id="clip-path"><rect class="cls-1" x="0.1" y="0.01" width="24" height="24"/></clipPath></defs><title>menu-vertical</title><g class="cls-2"><path d="M12,6.72A2.75,2.75,0,1,1,14.75,4,2.75,2.75,0,0,1,12,6.72Zm0-4A1.25,1.25,0,1,0,13.25,4,1.25,1.25,0,0,0,12,2.72Z"/><path d="M12,14.75A2.75,2.75,0,1,1,14.75,12,2.75,2.75,0,0,1,12,14.75Zm0-4A1.25,1.25,0,1,0,13.25,12,1.25,1.25,0,0,0,12,10.75Z"/><path d="M12,22.78A2.75,2.75,0,1,1,14.75,20,2.75,2.75,0,0,1,12,22.78Zm0-4A1.25,1.25,0,1,0,13.25,20,1.25,1.25,0,0,0,12,18.78Z"/></g></svg>