<svg id="Layer_1" data-name="Layer 1" xmlns="http://www.w3.org/2000/svg" xmlns:xlink="http://www.w3.org/1999/xlink" viewBox="0 0 24 24"><defs><style>.cls-1{fill:none;}.cls-2{clip-path:url(#clip-path);}</style><clipPath id="clip-path"><rect class="cls-1" y="0.06" width="24" height="24"/></clipPath></defs><title>mic</title><g class="cls-2"><path d="M12,17.28A5.26,5.26,0,0,1,6.75,12V6.15a5.25,5.25,0,0,1,10.5,0V12A5.26,5.26,0,0,1,12,17.28ZM12,2.41A3.75,3.75,0,0,0,8.25,6.15V12a3.75,3.75,0,1,0,7.5,0V6.15A3.75,3.75,0,0,0,12,2.41Z"/><path d="M16.5,23.09h-9a.75.75,0,0,1,0-1.5h3.75V16.53a.75.75,0,0,1,1.5,0v5.06H16.5a.75.75,0,0,1,0,1.5Z"/><path d="M16.5,8.1H13.37a.75.75,0,0,1,0-1.5H16.5a.75.75,0,0,1,0,1.5Z"/><path d="M16.5,12.07H13.37a.75.75,0,1,1,0-1.5H16.5a.75.75,0,0,1,0,1.5Z"/></g></svg>