<svg id="Layer_1" data-name="Layer 1" xmlns="http://www.w3.org/2000/svg" xmlns:xlink="http://www.w3.org/1999/xlink" viewBox="0 0 24 24"><defs><style>.cls-1{fill:none;}.cls-2{clip-path:url(#clip-path);}</style><clipPath id="clip-path"><rect class="cls-1" y="-0.03" width="24" height="24"/></clipPath></defs><title>mobile</title><g class="cls-2"><path d="M15,22.75H9A3.75,3.75,0,0,1,5.25,19V5A3.75,3.75,0,0,1,9,1.25h6A3.75,3.75,0,0,1,18.75,5V19A3.75,3.75,0,0,1,15,22.75Zm-6-20A2.25,2.25,0,0,0,6.75,5V19A2.25,2.25,0,0,0,9,21.25h6A2.25,2.25,0,0,0,17.25,19V5A2.25,2.25,0,0,0,15,2.75Z"/><path d="M12,19.75a.72.72,0,0,1-.29-.06.78.78,0,0,1-.24-.16.63.63,0,0,1-.16-.24.73.73,0,0,1,0-.58.74.74,0,0,1,.4-.4.73.73,0,0,1,.58,0,.78.78,0,0,1,.24.16.75.75,0,0,1,0,1.06.78.78,0,0,1-.24.16A.72.72,0,0,1,12,19.75Z"/></g></svg>