<svg id="Layer_1" data-name="Layer 1" xmlns="http://www.w3.org/2000/svg" xmlns:xlink="http://www.w3.org/1999/xlink" viewBox="0 0 24 24"><defs><style>.cls-1{fill:none;}.cls-2{clip-path:url(#clip-path);}</style><clipPath id="clip-path"><rect class="cls-1" y="0.08" width="24" height="24"/></clipPath></defs><title>mobile-alt</title><g class="cls-2"><path d="M15,22.75H9A3.75,3.75,0,0,1,5.25,19V5A3.75,3.75,0,0,1,9,1.25h6A3.75,3.75,0,0,1,18.75,5V19A3.75,3.75,0,0,1,15,22.75Zm-6-20A2.25,2.25,0,0,0,6.75,5V19A2.25,2.25,0,0,0,9,21.25h6A2.25,2.25,0,0,0,17.25,19V5A2.25,2.25,0,0,0,15,2.75Z"/><path d="M13,19.75H11a.75.75,0,0,1,0-1.5h2a.75.75,0,0,1,0,1.5Z"/></g></svg>