<svg id="Layer_1" data-name="Layer 1" xmlns="http://www.w3.org/2000/svg" xmlns:xlink="http://www.w3.org/1999/xlink" viewBox="0 0 24 24"><defs><style>.cls-1{fill:none;}.cls-2{clip-path:url(#clip-path);}</style><clipPath id="clip-path"><rect class="cls-1" x="0.15" y="-0.06" width="24" height="24"/></clipPath></defs><title>monitor-code</title><g class="cls-2"><path d="M18.62,18.35H5.38a4.13,4.13,0,0,1-4.13-4.12V5.77A4.13,4.13,0,0,1,5.38,1.65H18.62a4.13,4.13,0,0,1,4.13,4.12v8.46A4.13,4.13,0,0,1,18.62,18.35ZM5.38,3.15A2.63,2.63,0,0,0,2.75,5.77v8.46a2.63,2.63,0,0,0,2.63,2.62H18.62a2.63,2.63,0,0,0,2.63-2.62V5.77a2.63,2.63,0,0,0-2.63-2.62Z"/><path d="M12,22.35a.75.75,0,0,1-.75-.75v-4a.75.75,0,0,1,1.5,0v4A.75.75,0,0,1,12,22.35Z"/><path d="M18,22.35H6a.75.75,0,0,1,0-1.5H18a.75.75,0,0,1,0,1.5Z"/><path d="M8.63,13.48a.74.74,0,0,1-.53-.22L5.48,10.64a.74.74,0,0,1,0-1.06L8.31,6.74A.75.75,0,1,1,9.38,7.8L7.07,10.11,9.16,12.2a.74.74,0,0,1,0,1.06A.73.73,0,0,1,8.63,13.48Z"/><path d="M15.37,13.48a.73.73,0,0,1-.53-.22.74.74,0,0,1,0-1.06l2.09-2.09L14.63,7.8a.75.75,0,1,1,1.06-1.06l2.83,2.84a.74.74,0,0,1,0,1.06L15.9,13.26A.74.74,0,0,1,15.37,13.48Z"/></g></svg>