<svg id="Layer_1" data-name="Layer 1" xmlns="http://www.w3.org/2000/svg" xmlns:xlink="http://www.w3.org/1999/xlink" viewBox="0 0 24 24"><defs><style>.cls-1{fill:none;}.cls-2{clip-path:url(#clip-path);}</style><clipPath id="clip-path"><rect class="cls-1" y="-0.06" width="24" height="24"/></clipPath></defs><title>monitor-terminal</title><g class="cls-2"><path d="M18.62,18.35H5.38a4.13,4.13,0,0,1-4.13-4.12V5.77A4.13,4.13,0,0,1,5.38,1.65H18.62a4.13,4.13,0,0,1,4.13,4.12v8.46A4.13,4.13,0,0,1,18.62,18.35ZM5.38,3.15A2.63,2.63,0,0,0,2.75,5.77v8.46a2.63,2.63,0,0,0,2.63,2.62H18.62a2.63,2.63,0,0,0,2.63-2.62V5.77a2.63,2.63,0,0,0-2.63-2.62Z"/><path d="M12,22.35a.75.75,0,0,1-.75-.75v-4a.75.75,0,0,1,1.5,0v4A.75.75,0,0,1,12,22.35Z"/><path d="M18,22.35H6a.75.75,0,0,1,0-1.5H18a.75.75,0,0,1,0,1.5Z"/><path d="M7,13.5a.74.74,0,0,1-.53-.22.75.75,0,0,1,0-1.06l2.1-2.09L6.29,7.82a.75.75,0,0,1,0-1.06.74.74,0,0,1,1.06,0L10.19,9.6a.75.75,0,0,1,0,1.06L7.56,13.28A.71.71,0,0,1,7,13.5Z"/><path d="M17.2,13.5h0l-6.07,0a.74.74,0,0,1-.74-.75.75.75,0,0,1,.75-.75h0l6.06,0a.75.75,0,0,1,0,1.5Z"/></g></svg>