<svg id="Layer_1" data-name="Layer 1" xmlns="http://www.w3.org/2000/svg" xmlns:xlink="http://www.w3.org/1999/xlink" viewBox="0 0 24 24"><defs><style>.cls-1{fill:none;}.cls-2{clip-path:url(#clip-path);}</style><clipPath id="clip-path"><rect class="cls-1" width="24" height="24"/></clipPath></defs><title>mouse</title><g class="cls-2"><path d="M12,21.83a6.59,6.59,0,0,1-6.58-6.58V8.75a6.58,6.58,0,1,1,13.16,0v6.5A6.59,6.59,0,0,1,12,21.83ZM12,3.67A5.09,5.09,0,0,0,6.92,8.75v6.5a5.08,5.08,0,1,0,10.16,0V8.75A5.09,5.09,0,0,0,12,3.67Z"/><path d="M12,13.44a2,2,0,0,1-2-2V8.58a2,2,0,1,1,4,0v2.84A2,2,0,0,1,12,13.44Zm0-5.38a.53.53,0,0,0-.52.52v2.84a.52.52,0,1,0,1,0V8.58A.53.53,0,0,0,12,8.06Z"/></g></svg>