<svg id="Layer_1" data-name="Layer 1" xmlns="http://www.w3.org/2000/svg" xmlns:xlink="http://www.w3.org/1999/xlink" viewBox="0 0 24 24"><defs><style>.cls-1{fill:none;}.cls-2{clip-path:url(#clip-path);}</style><clipPath id="clip-path"><rect class="cls-1" width="24" height="24"/></clipPath></defs><title>mouse-45</title><g class="cls-2"><path d="M9.7,20.87A6.58,6.58,0,0,1,5.05,9.64L9.64,5.05A6.58,6.58,0,0,1,19,14.36L14.36,19A6.53,6.53,0,0,1,9.7,20.87ZM14.3,4.62a5.09,5.09,0,0,0-3.6,1.49L6.11,10.7a5.08,5.08,0,0,0,7.19,7.19l4.59-4.59A5.09,5.09,0,0,0,14.3,4.62Z"/><path d="M12.84,11.91a.74.74,0,0,1-.53-.22.75.75,0,0,1,0-1.06l1.94-1.94a.75.75,0,1,1,1.06,1.06l-1.94,1.94A.74.74,0,0,1,12.84,11.91Z"/></g></svg>