<svg id="Layer_1" data-name="Layer 1" xmlns="http://www.w3.org/2000/svg" xmlns:xlink="http://www.w3.org/1999/xlink" viewBox="0 0 24 24"><defs><style>.cls-1{fill:none;}.cls-2{clip-path:url(#clip-path);}</style><clipPath id="clip-path"><rect class="cls-1" width="24" height="24"/></clipPath></defs><title>move</title><g class="cls-2"><path d="M12,22.75a.75.75,0,0,1-.29-.06.74.74,0,0,1-.46-.69V3.81L9.41,5.66A.76.76,0,0,1,8.34,4.59l3.13-3.12A.75.75,0,0,1,12.75,2V20.19l1.84-1.85a.76.76,0,0,1,1.07,1.07l-3.13,3.12A.77.77,0,0,1,12,22.75Z"/><path d="M15.13,5.88a.79.79,0,0,1-.54-.22L11.47,2.53a.75.75,0,0,1,1.06-1.06l3.13,3.12a.77.77,0,0,1,0,1.07A.79.79,0,0,1,15.13,5.88Z"/><path d="M12,22.75a.74.74,0,0,1-.53-.22L8.34,19.41a.76.76,0,0,1,1.07-1.07l3.12,3.13a.75.75,0,0,1,0,1.06A.74.74,0,0,1,12,22.75Z"/><path d="M5.13,15.88a.79.79,0,0,1-.54-.22L1.47,12.53a.75.75,0,0,1-.16-.82A.74.74,0,0,1,2,11.25H20.19L18.34,9.41a.76.76,0,0,1,1.07-1.07l3.12,3.13a.75.75,0,0,1,.16.82.74.74,0,0,1-.69.46H3.81l1.85,1.84a.77.77,0,0,1,0,1.07A.79.79,0,0,1,5.13,15.88Z"/><path d="M18.88,15.88a.79.79,0,0,1-.54-.22.77.77,0,0,1,0-1.07l3.13-3.12a.75.75,0,0,1,1.06,1.06l-3.12,3.13A.79.79,0,0,1,18.88,15.88Z"/><path d="M2,12.75a.74.74,0,0,1-.53-.22.75.75,0,0,1,0-1.06L4.59,8.34A.76.76,0,0,1,5.66,9.41L2.53,12.53A.74.74,0,0,1,2,12.75Z"/></g></svg>