<svg id="Layer_1" data-name="Layer 1" xmlns="http://www.w3.org/2000/svg" xmlns:xlink="http://www.w3.org/1999/xlink" viewBox="0 0 24 24"><defs><style>.cls-1{fill:none;}.cls-2{clip-path:url(#clip-path);}</style><clipPath id="clip-path"><rect class="cls-1" width="24" height="24"/></clipPath></defs><title>mug-code</title><g class="cls-2"><path d="M6.91,14.42a.74.74,0,0,1-.53-.22L4.93,12.75a.75.75,0,0,1,0-1.06L6.5,10.12a.75.75,0,1,1,1.06,1.06l-1,1,.92.92a.74.74,0,0,1,0,1.06A.71.71,0,0,1,6.91,14.42Z"/><path d="M10.64,14.42a.71.71,0,0,1-.53-.22.74.74,0,0,1,0-1.06l.92-.92-1-1a.75.75,0,1,1,1.06-1.06l1.57,1.57a.75.75,0,0,1,0,1.06L11.17,14.2A.74.74,0,0,1,10.64,14.42Z"/><path d="M12,21.49H5.45a4,4,0,0,1-4-4V6.54a4,4,0,0,1,4-4H12a4,4,0,0,1,4,4V17.46A4,4,0,0,1,12,21.49ZM5.45,4A2.53,2.53,0,0,0,2.92,6.54V17.46A2.53,2.53,0,0,0,5.45,20H12a2.54,2.54,0,0,0,2.53-2.53V6.54A2.54,2.54,0,0,0,12,4Z"/><path d="M17.46,17.12H15.28a.75.75,0,1,1,0-1.5h2.18a3.62,3.62,0,0,0,0-7.24H15.28a.75.75,0,1,1,0-1.5h2.18a5.12,5.12,0,0,1,0,10.24Z"/></g></svg>