<svg id="Layer_1" data-name="Layer 1" xmlns="http://www.w3.org/2000/svg" xmlns:xlink="http://www.w3.org/1999/xlink" viewBox="0 0 24 24"><defs><style>.cls-1{fill:none;}.cls-2{clip-path:url(#clip-path);}</style><clipPath id="clip-path"><rect class="cls-1" width="24" height="24"/></clipPath></defs><title>plug</title><g class="cls-2"><path d="M18.28,13.78h-4a4.76,4.76,0,0,1,0-9.51h4A.75.75,0,0,1,19,5v8A.75.75,0,0,1,18.28,13.78Zm-4-8a3.26,3.26,0,0,0,0,6.51h3.25V5.77Z"/><path d="M21.22,8H18.28a.75.75,0,0,1,0-1.5h2.94a.75.75,0,0,1,0,1.5Z"/><path d="M21.22,11.51H18.28a.75.75,0,0,1,0-1.5h2.94a.75.75,0,0,1,0,1.5Z"/><path d="M18.28,19.73H8.9c-1.1,0-3.68.06-5.37-1.61A5.55,5.55,0,0,1,2,14,5.62,5.62,0,0,1,3.67,9.68a5.92,5.92,0,0,1,4.14-1.4h2.47a.75.75,0,0,1,0,1.5H7.76a4.49,4.49,0,0,0-3.08,1A4.21,4.21,0,0,0,3.53,14a4.14,4.14,0,0,0,1.05,3c1.25,1.23,3.38,1.2,4.3,1.18h9.41Z"/></g></svg>