<svg id="Layer_1" data-name="Layer 1" xmlns="http://www.w3.org/2000/svg" xmlns:xlink="http://www.w3.org/1999/xlink" viewBox="0 0 24 24"><defs><style>.cls-1{fill:none;}.cls-2{clip-path:url(#clip-path);}</style><clipPath id="clip-path"><rect class="cls-1" width="24" height="24"/></clipPath></defs><title>power</title><g class="cls-2"><path d="M12,22.06A8.75,8.75,0,0,1,7.71,5.69a.74.74,0,0,1,1,.28.75.75,0,0,1-.29,1,7.25,7.25,0,1,0,10.81,6.32,7.21,7.21,0,0,0-3.5-6.21.74.74,0,0,1-.26-1,.75.75,0,0,1,1-.26A8.75,8.75,0,0,1,12,22.06Z"/><path d="M12,9.69a.76.76,0,0,1-.75-.75V2.69a.75.75,0,1,1,1.5,0V8.94A.76.76,0,0,1,12,9.69Z"/></g></svg>