<svg id="Layer_1" data-name="Layer 1" xmlns="http://www.w3.org/2000/svg" xmlns:xlink="http://www.w3.org/1999/xlink" viewBox="0 0 24 24"><defs><style>.cls-1{fill:none;}.cls-2{clip-path:url(#clip-path);}</style><clipPath id="clip-path"><rect class="cls-1" y="-0.06" width="24" height="24"/></clipPath></defs><title>printer</title><g class="cls-2"><path d="M17,17.75H7A3.75,3.75,0,0,1,3.25,14V12A3.75,3.75,0,0,1,7,8.25H17A3.75,3.75,0,0,1,20.75,12v2A3.75,3.75,0,0,1,17,17.75Zm-10-8A2.25,2.25,0,0,0,4.75,12v2A2.25,2.25,0,0,0,7,16.25H17A2.25,2.25,0,0,0,19.25,14V12A2.25,2.25,0,0,0,17,9.75Z"/><path d="M15.9,20.75H8.1A.76.76,0,0,1,7.35,20V17a.75.75,0,0,1,1.5,0v2.25h6.3V17a.75.75,0,0,1,1.5,0v3A.76.76,0,0,1,15.9,20.75Z"/><path d="M15.9,9.75A.75.75,0,0,1,15.15,9V5a.25.25,0,0,0-.25-.25H9.1A.25.25,0,0,0,8.85,5V9a.75.75,0,0,1-1.5,0V5A1.76,1.76,0,0,1,9.1,3.25h5.8A1.76,1.76,0,0,1,16.65,5V9A.76.76,0,0,1,15.9,9.75Z"/><path d="M12,13.75H8a.75.75,0,0,1,0-1.5h4a.75.75,0,0,1,0,1.5Z"/><path d="M16,13.75a.72.72,0,0,1-.29-.06.74.74,0,0,1-.4-.4.72.72,0,0,1-.06-.29.75.75,0,0,1,.22-.53.77.77,0,0,1,1.06,0,.75.75,0,0,1,.22.53.72.72,0,0,1-.06.29.63.63,0,0,1-.16.24A.75.75,0,0,1,16,13.75Z"/></g></svg>