<svg id="Layer_1" data-name="Layer 1" xmlns="http://www.w3.org/2000/svg" xmlns:xlink="http://www.w3.org/1999/xlink" viewBox="0 0 24 24"><defs><style>.cls-1{fill:none;}.cls-2{clip-path:url(#clip-path);}</style><clipPath id="clip-path"><rect class="cls-1" y="-0.06" width="24" height="24"/></clipPath></defs><title>projector</title><g class="cls-2"><path d="M19.76,16.25H4.24a3,3,0,0,1-3-3V7.74a3,3,0,0,1,3-3H19.76a3,3,0,0,1,3,3v5.52A3,3,0,0,1,19.76,16.25ZM4.24,6.25A1.49,1.49,0,0,0,2.75,7.74v5.52a1.49,1.49,0,0,0,1.49,1.49H19.76a1.49,1.49,0,0,0,1.49-1.49V7.74a1.49,1.49,0,0,0-1.49-1.49Z"/><path d="M17,13.25a2.75,2.75,0,1,1,2.75-2.75A2.75,2.75,0,0,1,17,13.25Zm0-4a1.25,1.25,0,1,0,1.25,1.25A1.25,1.25,0,0,0,17,9.25Z"/><path d="M12,11.25H5a.75.75,0,0,1,0-1.5h7a.75.75,0,0,1,0,1.5Z"/><path d="M6.28,19.25a.76.76,0,0,1-.75-.75v-3a.75.75,0,0,1,1.5,0v3A.75.75,0,0,1,6.28,19.25Z"/><path d="M17.72,19.25A.75.75,0,0,1,17,18.5v-3a.75.75,0,0,1,1.5,0v3A.76.76,0,0,1,17.72,19.25Z"/></g></svg>