<svg id="Layer_1" data-name="Layer 1" xmlns="http://www.w3.org/2000/svg" xmlns:xlink="http://www.w3.org/1999/xlink" viewBox="0 0 24 24"><defs><style>.cls-1{fill:none;}.cls-2{clip-path:url(#clip-path);}</style><clipPath id="clip-path"><rect class="cls-1" width="24" height="24"/></clipPath></defs><title>qireshark</title><g class="cls-2"><path d="M4.89,17a.74.74,0,0,1-.75-.75C4.14,3.63,18.72,1.82,18.87,1.8a.75.75,0,0,1,.66.26.77.77,0,0,1,.14.7c-2.48,8.09-.07,13.11-.05,13.16a.74.74,0,0,1-.33,1,.75.75,0,0,1-1-.33c-.1-.21-2.48-5.09-.37-13.11C14.66,4.13,5.64,6.81,5.64,16.25A.75.75,0,0,1,4.89,17Z"/><path d="M7.19,22.07a.76.76,0,0,1-.75-.75,1.66,1.66,0,1,0-3.31,0,.75.75,0,0,1-1.5,0,3.16,3.16,0,1,1,6.31,0A.76.76,0,0,1,7.19,22.07Z"/><path d="M12,22.21a.76.76,0,0,1-.75-.75,1.66,1.66,0,1,0-3.31,0,.75.75,0,0,1-1.5,0,3.16,3.16,0,1,1,6.31,0A.76.76,0,0,1,12,22.21Z"/><path d="M16.81,22.21a.76.76,0,0,1-.75-.75,1.66,1.66,0,1,0-3.31,0,.75.75,0,0,1-1.5,0,3.16,3.16,0,1,1,6.31,0A.76.76,0,0,1,16.81,22.21Z"/><path d="M21.62,22.21a.76.76,0,0,1-.75-.75,1.66,1.66,0,1,0-3.31,0,.75.75,0,0,1-1.5,0,3.16,3.16,0,1,1,6.31,0A.76.76,0,0,1,21.62,22.21Z"/></g></svg>