<svg id="Layer_1" data-name="Layer 1" xmlns="http://www.w3.org/2000/svg" xmlns:xlink="http://www.w3.org/1999/xlink" viewBox="0 0 24 24"><defs><style>.cls-1{fill:none;}.cls-2{clip-path:url(#clip-path);}</style><clipPath id="clip-path"><rect class="cls-1" x="-0.04" width="24" height="24"/></clipPath></defs><title>qr-alt</title><g class="cls-2"><path d="M9.84,11.17H7.13a1.4,1.4,0,0,1-1.4-1.39V7.07a1.4,1.4,0,0,1,1.4-1.4H9.84a1.4,1.4,0,0,1,1.39,1.4V9.78A1.39,1.39,0,0,1,9.84,11.17ZM7.23,9.67h2.5V7.17H7.23Z"/><path d="M16.88,11.17H14.16a1.39,1.39,0,0,1-1.39-1.39V7.07a1.4,1.4,0,0,1,1.39-1.4h2.72a1.4,1.4,0,0,1,1.39,1.4V9.78A1.39,1.39,0,0,1,16.88,11.17Zm-2.61-1.5h2.5V7.17h-2.5Z"/><path d="M9.84,18.33H7.13a1.4,1.4,0,0,1-1.4-1.4V14.22a1.4,1.4,0,0,1,1.4-1.39H9.84a1.39,1.39,0,0,1,1.39,1.39v2.71A1.4,1.4,0,0,1,9.84,18.33Zm-2.61-1.5h2.5v-2.5H7.23Z"/><path d="M16.88,18.44H14.16a1.39,1.39,0,0,1-1.39-1.39V14.33a1.39,1.39,0,0,1,1.39-1.39h2.72a1.4,1.4,0,0,1,1.39,1.39v2.72A1.39,1.39,0,0,1,16.88,18.44Zm-2.61-1.5h2.5v-2.5h-2.5Z"/><path d="M3,8.25a.76.76,0,0,1-.75-.75V3A.76.76,0,0,1,3,2.25H7.5a.75.75,0,0,1,0,1.5H3.75V7.5A.76.76,0,0,1,3,8.25Z"/><path d="M21,8.25a.76.76,0,0,1-.75-.75V3.75H16.5a.75.75,0,0,1,0-1.5H21a.76.76,0,0,1,.75.75V7.5A.76.76,0,0,1,21,8.25Z"/><path d="M21,21.75H16.5a.75.75,0,0,1,0-1.5h3.75V16.5a.75.75,0,0,1,1.5,0V21A.76.76,0,0,1,21,21.75Z"/><path d="M7.5,21.75H3A.76.76,0,0,1,2.25,21V16.5a.75.75,0,0,1,1.5,0v3.75H7.5a.75.75,0,0,1,0,1.5Z"/></g></svg>