<svg id="Layer_1" data-name="Layer 1" xmlns="http://www.w3.org/2000/svg" xmlns:xlink="http://www.w3.org/1999/xlink" viewBox="0 0 24 24"><defs><style>.cls-1{fill:none;}.cls-2{clip-path:url(#clip-path);}</style><clipPath id="clip-path"><rect class="cls-1" x="-0.15" y="0.06" width="24" height="24"/></clipPath></defs><title>qr</title><g class="cls-2"><path d="M15.83,18.2H8.71a2.43,2.43,0,0,1-2.43-2.43V8.65A2.43,2.43,0,0,1,8.71,6.22h7.12a2.43,2.43,0,0,1,2.43,2.43v7.12A2.43,2.43,0,0,1,15.83,18.2ZM8.71,7.72a.93.93,0,0,0-.93.93v7.12a.93.93,0,0,0,.93.93h7.12a.93.93,0,0,0,.93-.93V8.65a.93.93,0,0,0-.93-.93Z"/><path d="M3,8.25a.76.76,0,0,1-.75-.75V3A.76.76,0,0,1,3,2.25H7.5a.75.75,0,0,1,0,1.5H3.75V7.5A.76.76,0,0,1,3,8.25Z"/><path d="M21,8.25a.76.76,0,0,1-.75-.75V3.75H16.5a.75.75,0,0,1,0-1.5H21a.76.76,0,0,1,.75.75V7.5A.76.76,0,0,1,21,8.25Z"/><path d="M21,21.75H16.5a.75.75,0,0,1,0-1.5h3.75V16.5a.75.75,0,0,1,1.5,0V21A.76.76,0,0,1,21,21.75Z"/><path d="M7.5,21.75H3A.76.76,0,0,1,2.25,21V16.5a.75.75,0,0,1,1.5,0v3.75H7.5a.75.75,0,0,1,0,1.5Z"/></g></svg>