<svg id="Layer_1" data-name="Layer 1" xmlns="http://www.w3.org/2000/svg" xmlns:xlink="http://www.w3.org/1999/xlink" viewBox="0 0 24 24"><defs><style>.cls-1{fill:none;}.cls-2{clip-path:url(#clip-path);}</style><clipPath id="clip-path"><rect class="cls-1" width="24" height="24"/></clipPath></defs><title>refresh</title><g class="cls-2"><path d="M14.21,21.18a.74.74,0,0,1-.53-.22l-2.21-2.21a.72.72,0,0,1-.16-.81.75.75,0,0,1,.69-.47,6.71,6.71,0,0,0,6.83-6.58A6.71,6.71,0,0,0,12,4.32a6.71,6.71,0,0,0-6.83,6.57.75.75,0,0,1-1.5,0A8.21,8.21,0,0,1,12,2.82a8.21,8.21,0,0,1,8.33,8.07,8.15,8.15,0,0,1-6.68,7.92l1.09,1.09a.75.75,0,0,1,0,1.06A.74.74,0,0,1,14.21,21.18Z"/><path d="M12,19a.74.74,0,0,1-.64-1.13L13,15.14a.74.74,0,0,1,1-.26.76.76,0,0,1,.26,1l-1.62,2.7A.75.75,0,0,1,12,19Z"/></g></svg>