<svg id="Layer_1" data-name="Layer 1" xmlns="http://www.w3.org/2000/svg" xmlns:xlink="http://www.w3.org/1999/xlink" viewBox="0 0 24 24"><defs><style>.cls-1{fill:none;}.cls-2{clip-path:url(#clip-path);}</style><clipPath id="clip-path"><rect class="cls-1" width="24" height="24"/></clipPath></defs><title>router-alt</title><g class="cls-2"><path d="M20,19.48H4a1.75,1.75,0,0,1-1.75-1.75v-4A1.76,1.76,0,0,1,4,12H20a1.76,1.76,0,0,1,1.75,1.75v4A1.75,1.75,0,0,1,20,19.48Zm-16-6a.25.25,0,0,0-.25.25v4A.25.25,0,0,0,4,18H20a.25.25,0,0,0,.25-.25v-4a.25.25,0,0,0-.25-.25Z"/><path d="M9,16.48H7A.75.75,0,0,1,7,15H9a.75.75,0,0,1,0,1.5Z"/><path d="M8.25,12.75a.75.75,0,0,1-.62-.33L3.13,5.68a.75.75,0,1,1,1.24-.83l4.5,6.73a.75.75,0,0,1-.2,1A.74.74,0,0,1,8.25,12.75Z"/><path d="M15.75,12.75a.74.74,0,0,1-.42-.13.75.75,0,0,1-.2-1l4.5-6.73a.75.75,0,1,1,1.24.83l-4.5,6.74A.75.75,0,0,1,15.75,12.75Z"/></g></svg>