<svg id="Layer_1" data-name="Layer 1" xmlns="http://www.w3.org/2000/svg" xmlns:xlink="http://www.w3.org/1999/xlink" viewBox="0 0 24 24"><defs><style>.cls-1{fill:none;}.cls-2{clip-path:url(#clip-path);}</style><clipPath id="clip-path"><rect class="cls-1" width="24" height="24"/></clipPath></defs><title>router</title><g class="cls-2"><path d="M19.5,20.48H3.5a1.75,1.75,0,0,1-1.75-1.75v-4A1.76,1.76,0,0,1,3.5,13h16a1.76,1.76,0,0,1,1.75,1.75v4A1.75,1.75,0,0,1,19.5,20.48Zm-16-6a.25.25,0,0,0-.25.25v4A.25.25,0,0,0,3.5,19h16a.25.25,0,0,0,.25-.25v-4a.25.25,0,0,0-.25-.25Z"/><path d="M8.5,17.48h-2a.75.75,0,0,1,0-1.5h2a.75.75,0,0,1,0,1.5Z"/><path d="M15.72,14.48h0a.74.74,0,0,1-.74-.76l0-3a.75.75,0,0,1,.75-.74h0a.75.75,0,0,1,.74.77l0,3A.74.74,0,0,1,15.72,14.48Z"/><path d="M18.24,9.48a.81.81,0,0,1-.42-.12c-2.45-1.64-4-.11-4.05-.1a.74.74,0,0,1-1.06,0,.75.75,0,0,1,0-1.06c.84-.84,3.17-1.94,5.95-.09a.75.75,0,0,1,.2,1A.73.73,0,0,1,18.24,9.48Z"/><path d="M21.5,7.06a.81.81,0,0,1-.42-.12c-6.29-4.2-10.4-.26-10.57-.09A.75.75,0,0,1,9.45,5.78c.05,0,5.13-5,12.47-.09a.75.75,0,0,1,.2,1A.73.73,0,0,1,21.5,7.06Z"/></g></svg>