<svg id="Layer_1" data-name="Layer 1" xmlns="http://www.w3.org/2000/svg" xmlns:xlink="http://www.w3.org/1999/xlink" viewBox="0 0 24 24"><defs><style>.cls-1{fill:none;}.cls-2{clip-path:url(#clip-path);}</style><clipPath id="clip-path"><rect class="cls-1" width="24" height="24"/></clipPath></defs><title>save</title><g class="cls-2"><path d="M15,12.75H5.5A.76.76,0,0,1,4.75,12V7a.76.76,0,0,1,.75-.75H15a.76.76,0,0,1,.75.75v5A.76.76,0,0,1,15,12.75Zm-8.75-1.5h8V7.75h-8Z"/><path d="M12,19.75A2.75,2.75,0,1,1,14.75,17,2.75,2.75,0,0,1,12,19.75Zm0-4A1.25,1.25,0,1,0,13.25,17,1.25,1.25,0,0,0,12,15.75Z"/><path d="M18.15,22.25H5.85a4.11,4.11,0,0,1-4.1-4.1V5.85a4.11,4.11,0,0,1,4.1-4.1h9.44a.73.73,0,0,1,.52.21L22,7.88a.73.73,0,0,1,.23.54v9.73A4.11,4.11,0,0,1,18.15,22.25Zm-12.3-19a2.61,2.61,0,0,0-2.6,2.6v12.3a2.61,2.61,0,0,0,2.6,2.6h12.3a2.61,2.61,0,0,0,2.6-2.6V8.74L15,3.25Z"/></g></svg>