<svg id="Layer_1" data-name="Layer 1" xmlns="http://www.w3.org/2000/svg" xmlns:xlink="http://www.w3.org/1999/xlink" viewBox="0 0 24 24"><defs><style>.cls-1{fill:none;}.cls-2{clip-path:url(#clip-path);}</style><clipPath id="clip-path"><rect class="cls-1" width="24" height="24"/></clipPath></defs><title>scanner</title><g class="cls-2"><path d="M19,21.13H5a3.76,3.76,0,0,1-3.75-3.75v-1A3.75,3.75,0,0,1,5,12.63H19a3.75,3.75,0,0,1,3.75,3.75v1A3.76,3.76,0,0,1,19,21.13Zm-14-7a2.25,2.25,0,0,0-2.25,2.25v1A2.25,2.25,0,0,0,5,19.63H19a2.25,2.25,0,0,0,2.25-2.25v-1A2.25,2.25,0,0,0,19,14.13Z"/><path d="M21,11.38a.66.66,0,0,1-.27-.06l-18-7a.75.75,0,1,1,.54-1.39l18,7a.75.75,0,0,1,.43,1A.77.77,0,0,1,21,11.38Z"/><path d="M12,17.63H6a.75.75,0,0,1,0-1.5h6a.75.75,0,0,1,0,1.5Z"/></g></svg>