<svg id="Layer_1" data-name="Layer 1" xmlns="http://www.w3.org/2000/svg" xmlns:xlink="http://www.w3.org/1999/xlink" viewBox="0 0 24 24"><defs><style>.cls-1{fill:none;}.cls-2{clip-path:url(#clip-path);}</style><clipPath id="clip-path"><rect class="cls-1" y="-0.11" width="24" height="24"/></clipPath></defs><title>scroll-vertical</title><g class="cls-2"><path d="M14.91,6.21A.71.71,0,0,1,14.38,6L12,3.58,9.62,5.93A.75.75,0,1,1,8.56,4.87L11.44,2A.75.75,0,0,1,12.5,2l2.94,2.94a.75.75,0,0,1,0,1.06A.74.74,0,0,1,14.91,6.21Z"/><path d="M12,22.23A.74.74,0,0,1,11.5,22L8.56,19.07A.75.75,0,1,1,9.62,18L12,20.42l2.35-2.35a.75.75,0,0,1,1.06,1.06L12.56,22A.74.74,0,0,1,12,22.23Z"/><path d="M12,15.66A3.66,3.66,0,1,1,15.66,12,3.66,3.66,0,0,1,12,15.66Zm0-5.82A2.16,2.16,0,1,0,14.16,12,2.16,2.16,0,0,0,12,9.84Z"/></g></svg>