<svg id="Layer_1" data-name="Layer 1" xmlns="http://www.w3.org/2000/svg" xmlns:xlink="http://www.w3.org/1999/xlink" viewBox="0 0 24 24"><defs><style>.cls-1{fill:none;}.cls-2{clip-path:url(#clip-path);}</style><clipPath id="clip-path"><rect class="cls-1" y="-0.06" width="24" height="24"/></clipPath></defs><title>search-code</title><g class="cls-2"><path d="M11,19.75A8.75,8.75,0,1,1,19.75,11,8.75,8.75,0,0,1,11,19.75Zm0-16A7.25,7.25,0,1,0,18.25,11,7.26,7.26,0,0,0,11,3.75Z"/><path d="M21,21.75a.74.74,0,0,1-.53-.22l-4.34-4.34a.75.75,0,0,1,1.06-1.06l4.34,4.34a.75.75,0,0,1,0,1.06A.74.74,0,0,1,21,21.75Z"/><path d="M8.54,13.74A.74.74,0,0,1,8,13.52L6.09,11.61a.75.75,0,0,1,0-1.06L8.17,8.48a.74.74,0,0,1,1.06,0,.75.75,0,0,1,0,1.06L7.69,11.08l1.38,1.38a.74.74,0,0,1,0,1.06A.73.73,0,0,1,8.54,13.74Z"/><path d="M13.46,13.74a.73.73,0,0,1-.53-.22.74.74,0,0,1,0-1.06l1.38-1.38L12.77,9.54a.75.75,0,0,1,0-1.06.74.74,0,0,1,1.06,0l2.08,2.07a.75.75,0,0,1,0,1.06L14,13.52A.74.74,0,0,1,13.46,13.74Z"/></g></svg>