<svg id="Layer_1" data-name="Layer 1" xmlns="http://www.w3.org/2000/svg" xmlns:xlink="http://www.w3.org/1999/xlink" viewBox="0 0 24 24"><defs><style>.cls-1{fill:none;}.cls-2{clip-path:url(#clip-path);}</style><clipPath id="clip-path"><rect class="cls-1" y="-0.06" width="24" height="24"/></clipPath></defs><title>search-cross</title><g class="cls-2"><path d="M8.88,13.87a.74.74,0,0,1-.53-.22.75.75,0,0,1,0-1.06l4.24-4.24a.75.75,0,1,1,1.06,1.06L9.41,13.65A.74.74,0,0,1,8.88,13.87Z"/><path d="M13.12,13.87a.74.74,0,0,1-.53-.22L8.35,9.41A.75.75,0,1,1,9.41,8.35l4.24,4.24a.75.75,0,0,1,0,1.06A.74.74,0,0,1,13.12,13.87Z"/><path d="M11,19.75A8.75,8.75,0,1,1,19.75,11,8.75,8.75,0,0,1,11,19.75Zm0-16A7.25,7.25,0,1,0,18.25,11,7.26,7.26,0,0,0,11,3.75Z"/><path d="M21,21.75a.74.74,0,0,1-.53-.22l-4.34-4.34a.75.75,0,0,1,1.06-1.06l4.34,4.34a.75.75,0,0,1,0,1.06A.74.74,0,0,1,21,21.75Z"/></g></svg>