<svg id="Layer_1" data-name="Layer 1" xmlns="http://www.w3.org/2000/svg" xmlns:xlink="http://www.w3.org/1999/xlink" viewBox="0 0 24 24"><defs><style>.cls-1{fill:none;}.cls-2{clip-path:url(#clip-path);}</style><clipPath id="clip-path"><rect class="cls-1" width="24" height="24"/></clipPath></defs><title>server-double</title><g class="cls-2"><path d="M18.27,12.75H5.73A3.75,3.75,0,0,1,2,9V7A3.75,3.75,0,0,1,5.73,3.25H18.27A3.75,3.75,0,0,1,22,7V9A3.75,3.75,0,0,1,18.27,12.75Zm-12.54-8A2.25,2.25,0,0,0,3.48,7V9a2.25,2.25,0,0,0,2.25,2.25H18.27A2.25,2.25,0,0,0,20.52,9V7a2.25,2.25,0,0,0-2.25-2.25Z"/><path d="M6.15,8.8A.76.76,0,1,1,6.9,8,.76.76,0,0,1,6.15,8.8Z"/><path d="M9.4,8.8a.76.76,0,1,1,.75-.75A.76.76,0,0,1,9.4,8.8Z"/><path d="M18.23,8.8h-4a.75.75,0,1,1,0-1.5h4a.75.75,0,0,1,0,1.5Z"/><path d="M18.27,20.75H5.73A3.75,3.75,0,0,1,2,17V15a3.75,3.75,0,0,1,3.75-3.75H18.27A3.75,3.75,0,0,1,22,15v2A3.75,3.75,0,0,1,18.27,20.75Zm-12.54-8A2.25,2.25,0,0,0,3.48,15v2a2.25,2.25,0,0,0,2.25,2.25H18.27A2.25,2.25,0,0,0,20.52,17V15a2.25,2.25,0,0,0-2.25-2.25Z"/><path d="M6.15,16.8A.76.76,0,1,1,6.9,16,.76.76,0,0,1,6.15,16.8Z"/><path d="M9.4,16.8a.76.76,0,1,1,.75-.75A.76.76,0,0,1,9.4,16.8Z"/><path d="M18.23,16.8h-4a.75.75,0,0,1,0-1.5h4a.75.75,0,0,1,0,1.5Z"/></g></svg>