<svg id="Layer_1" data-name="Layer 1" xmlns="http://www.w3.org/2000/svg" xmlns:xlink="http://www.w3.org/1999/xlink" viewBox="0 0 24 24"><defs><style>.cls-1{fill:none;}.cls-2{clip-path:url(#clip-path);}</style><clipPath id="clip-path"><rect class="cls-1" y="0.02" width="24" height="24"/></clipPath></defs><title>server-alt2</title><g class="cls-2"><circle cx="6.64" cy="8.5" r="0.75"/><path d="M9.89,9.26a.76.76,0,1,1,.75-.75A.76.76,0,0,1,9.89,9.26Z"/><path d="M17.64,9.25h-4a.75.75,0,0,1,0-1.5h4a.75.75,0,0,1,0,1.5Z"/><path d="M16.7,22H7.3A5.32,5.32,0,0,1,2,16.7V7.3A5.32,5.32,0,0,1,7.3,2h9.4A5.32,5.32,0,0,1,22,7.3v9.4A5.32,5.32,0,0,1,16.7,22ZM7.3,3.48A3.82,3.82,0,0,0,3.48,7.3v9.4A3.82,3.82,0,0,0,7.3,20.52h9.4a3.82,3.82,0,0,0,3.82-3.82V7.3A3.82,3.82,0,0,0,16.7,3.48Z"/><circle cx="6.64" cy="15.5" r="0.75"/><path d="M9.89,16.26a.76.76,0,1,1,.75-.75A.76.76,0,0,1,9.89,16.26Z"/><path d="M17.64,16.25h-4a.75.75,0,0,1,0-1.5h4a.75.75,0,0,1,0,1.5Z"/><path d="M21,12.75H2.73a.75.75,0,0,1,0-1.5H21a.75.75,0,1,1,0,1.5Z"/></g></svg>