<svg id="Layer_1" data-name="Layer 1" xmlns="http://www.w3.org/2000/svg" xmlns:xlink="http://www.w3.org/1999/xlink" viewBox="0 0 24 24"><defs><style>.cls-1{fill:none;}.cls-2{clip-path:url(#clip-path);}</style><clipPath id="clip-path"><rect class="cls-1" width="24" height="24"/></clipPath></defs><title>server-single</title><g class="cls-2"><path d="M18.27,16.75H5.73A3.75,3.75,0,0,1,2,13V11A3.75,3.75,0,0,1,5.73,7.25H18.27A3.75,3.75,0,0,1,22,11v2A3.75,3.75,0,0,1,18.27,16.75Zm-12.54-8A2.25,2.25,0,0,0,3.48,11v2a2.25,2.25,0,0,0,2.25,2.25H18.27A2.25,2.25,0,0,0,20.52,13V11a2.25,2.25,0,0,0-2.25-2.25Z"/><path d="M6.15,12.8A.76.76,0,1,1,6.9,12,.76.76,0,0,1,6.15,12.8Z"/><path d="M9.4,12.8a.76.76,0,1,1,.75-.75A.76.76,0,0,1,9.4,12.8Z"/><path d="M18.23,12.8h-4a.75.75,0,0,1,0-1.5h4a.75.75,0,0,1,0,1.5Z"/></g></svg>