<svg id="Layer_1" data-name="Layer 1" xmlns="http://www.w3.org/2000/svg" xmlns:xlink="http://www.w3.org/1999/xlink" viewBox="0 0 24 24"><defs><style>.cls-1{fill:none;}.cls-2{clip-path:url(#clip-path);}</style><clipPath id="clip-path"><rect class="cls-1" y="0.06" width="24" height="24"/></clipPath></defs><title>settings</title><g class="cls-2"><path d="M12,22.66a2.71,2.71,0,0,1-2.09-1l-.88-1A1.24,1.24,0,0,0,8,20.23l-1.35.12a2.75,2.75,0,0,1-2.17-.79,2.78,2.78,0,0,1-.8-2.17L3.79,16a1.27,1.27,0,0,0-.44-1l-1-.87a2.74,2.74,0,0,1,0-4.19l1-.88A1.24,1.24,0,0,0,3.77,8L3.65,6.65a2.79,2.79,0,0,1,.79-2.17,2.74,2.74,0,0,1,2.17-.8L8,3.79a1.23,1.23,0,0,0,1-.44l.87-1a2.74,2.74,0,0,1,2.09-1h0a2.71,2.71,0,0,1,2.09,1h0l.88,1A1.26,1.26,0,0,0,16,3.77l1.35-.12a2.75,2.75,0,0,1,3,3L20.21,8a1.27,1.27,0,0,0,.44,1l1,.87a2.74,2.74,0,0,1,0,4.19l-1,.88A1.24,1.24,0,0,0,20.23,16l.12,1.35a2.79,2.79,0,0,1-.79,2.17,2.74,2.74,0,0,1-2.17.8L16,20.21a1.27,1.27,0,0,0-1,.44l-.87,1a2.74,2.74,0,0,1-2.09,1ZM8.1,18.73a2.75,2.75,0,0,1,2.09,1l.88,1a1.24,1.24,0,0,0,.95.44h0a1.2,1.2,0,0,0,1-.45l.87-1a2.74,2.74,0,0,1,2.32-1l1.35.1a1.21,1.21,0,0,0,1-.36,1.25,1.25,0,0,0,.36-1l-.11-1.34a2.73,2.73,0,0,1,1-2.32l1-.88a1.24,1.24,0,0,0,.44-.95,1.2,1.2,0,0,0-.45-1l-1-.87a2.75,2.75,0,0,1-1-2.32l.1-1.35a1.24,1.24,0,0,0-1.35-1.34l-1.34.11a2.72,2.72,0,0,1-2.32-1l-.88-1A1.24,1.24,0,0,0,12,2.84h0a1.2,1.2,0,0,0-1,.45l-.87,1a2.78,2.78,0,0,1-2.32,1l-1.35-.1a1.21,1.21,0,0,0-1,.36,1.25,1.25,0,0,0-.36,1l.11,1.34a2.73,2.73,0,0,1-1,2.32l-1,.88a1.24,1.24,0,0,0-.44.95,1.2,1.2,0,0,0,.45,1l1,.87a2.75,2.75,0,0,1,1,2.32l-.1,1.35a1.24,1.24,0,0,0,1.35,1.34l1.34-.11Z"/><path d="M12,15.75a3.75,3.75,0,0,1,0-7.5h0a3.75,3.75,0,0,1,0,7.5Zm0-6h0a2.25,2.25,0,0,0,0,4.5h0a2.25,2.25,0,0,0,0-4.5Z"/></g></svg>