<svg id="Layer_1" data-name="Layer 1" xmlns="http://www.w3.org/2000/svg" xmlns:xlink="http://www.w3.org/1999/xlink" viewBox="0 0 24 24"><defs><style>.cls-1{fill:none;}.cls-2{clip-path:url(#clip-path);}</style><clipPath id="clip-path"><rect class="cls-1" y="-0.06" width="24" height="24"/></clipPath></defs><title>shield-plus</title><g class="cls-2"><path d="M17.58,22a.76.76,0,0,1-.75-.75V13.61a.75.75,0,0,1,1.5,0V21.2A.75.75,0,0,1,17.58,22Z"/><path d="M21.38,18.15h-7.6a.75.75,0,0,1,0-1.5h7.6a.75.75,0,1,1,0,1.5Z"/><path d="M11.53,21.36c-9.55,0-9.66-9.51-9.66-9.61V2.8a.76.76,0,0,1,.75-.75H20.43a.75.75,0,0,1,.75.75v8.91a.75.75,0,0,1-1.5,0V3.55H3.37v8.2c0,.33.12,8.11,8.16,8.11a.75.75,0,1,1,0,1.5Z"/></g></svg>