<svg id="Layer_1" data-name="Layer 1" xmlns="http://www.w3.org/2000/svg" xmlns:xlink="http://www.w3.org/1999/xlink" viewBox="0 0 24 24"><defs><style>.cls-1{fill:none;}.cls-2{clip-path:url(#clip-path);}</style><clipPath id="clip-path"><rect class="cls-1" y="-0.12" width="24" height="24"/></clipPath></defs><title>shield-alt</title><g class="cls-2"><path d="M12,21.66c-9.55,0-9.66-9.52-9.66-9.61v-9a.76.76,0,0,1,.75-.75H20.91a.76.76,0,0,1,.75.75v9C21.66,12.14,21.55,21.66,12,21.66ZM3.84,3.84v8.21c0,.33.13,8.11,8.16,8.11s8.16-7.78,8.16-8.12V3.84Z"/><path d="M12,21.66a.76.76,0,0,1-.75-.75V3.09a.75.75,0,0,1,1.5,0V20.91A.76.76,0,0,1,12,21.66Z"/></g></svg>