<svg id="Layer_1" data-name="Layer 1" xmlns="http://www.w3.org/2000/svg" xmlns:xlink="http://www.w3.org/1999/xlink" viewBox="0 0 24 24"><defs><style>.cls-1{fill:none;}.cls-2{clip-path:url(#clip-path);}</style><clipPath id="clip-path"><rect class="cls-1" width="24" height="24"/></clipPath></defs><title>shield-code</title><g class="cls-2"><path d="M10.88,21.66c-9.55,0-9.66-9.52-9.66-9.61v-9A.76.76,0,0,1,2,2.34H19.78a.75.75,0,0,1,.75.75V12A.75.75,0,0,1,19,12V3.84H2.72v8.21c0,.33.12,8.11,8.16,8.11a.75.75,0,0,1,0,1.5Z"/><path d="M13,19.55a.74.74,0,0,1-.53-.22l-1.62-1.62a.75.75,0,0,1,0-1.06l1.75-1.75a.75.75,0,0,1,1.06,0,.74.74,0,0,1,0,1.06l-1.22,1.22,1.09,1.09a.74.74,0,0,1,0,1.06A.73.73,0,0,1,13,19.55Z"/><path d="M20.41,19.55a.74.74,0,0,1-.53-.22.75.75,0,0,1,0-1.06L21,17.18,19.75,16a.75.75,0,0,1,1.06-1.06l1.75,1.75a.75.75,0,0,1,0,1.06l-1.62,1.62A.74.74,0,0,1,20.41,19.55Z"/><path d="M15.76,20.38a.8.8,0,0,1-.26-.05.74.74,0,0,1-.44-1l1.87-5a.74.74,0,0,1,1-.44.74.74,0,0,1,.44,1l-1.87,5A.74.74,0,0,1,15.76,20.38Z"/></g></svg>