<svg id="Layer_1" data-name="Layer 1" xmlns="http://www.w3.org/2000/svg" xmlns:xlink="http://www.w3.org/1999/xlink" viewBox="0 0 24 24"><defs><style>.cls-1{fill:none;}.cls-2{clip-path:url(#clip-path);}</style><clipPath id="clip-path"><rect class="cls-1" width="24" height="24"/></clipPath></defs><title>shield-cross</title><g class="cls-2"><path d="M20.63,21a.71.71,0,0,1-.53-.22L15,15.66a.77.77,0,0,1,0-1.07.75.75,0,0,1,1.06,0l5.15,5.15a.75.75,0,0,1,0,1.06A.74.74,0,0,1,20.63,21Z"/><path d="M15.48,21A.74.74,0,0,1,15,20.8a.75.75,0,0,1,0-1.06l5.15-5.15a.75.75,0,0,1,1.06,0,.77.77,0,0,1,0,1.07L16,20.8A.74.74,0,0,1,15.48,21Z"/><path d="M12,21.66c-9.55,0-9.66-9.52-9.66-9.61v-9a.76.76,0,0,1,.75-.75H20.91a.76.76,0,0,1,.75.75V12a.75.75,0,0,1-1.5,0V3.84H3.84v8.21c0,.33.13,8.11,8.16,8.11a.75.75,0,0,1,0,1.5Z"/></g></svg>