<svg id="Layer_1" data-name="Layer 1" xmlns="http://www.w3.org/2000/svg" xmlns:xlink="http://www.w3.org/1999/xlink" viewBox="0 0 24 24"><defs><style>.cls-1{fill:none;}.cls-2{clip-path:url(#clip-path);}</style><clipPath id="clip-path"><rect class="cls-1" width="24" height="24"/></clipPath></defs><title>shield-tick</title><g class="cls-2"><path d="M16.11,21a.73.73,0,0,1-.53-.22l-1.94-1.94a.74.74,0,0,1,0-1.06.75.75,0,0,1,1.06,0l1.41,1.41,4.52-4.52a.75.75,0,0,1,1.06,1.06l-5.05,5.05A.74.74,0,0,1,16.11,21Z"/><path d="M11.74,21.66c-9.54,0-9.65-9.52-9.65-9.61v-9a.75.75,0,0,1,.75-.75H20.65a.76.76,0,0,1,.75.75V12a.75.75,0,0,1-1.5,0V3.84H3.59v8.21c0,.33.12,8.11,8.15,8.11a.75.75,0,0,1,0,1.5Z"/></g></svg>