<svg id="Layer_1" data-name="Layer 1" xmlns="http://www.w3.org/2000/svg" xmlns:xlink="http://www.w3.org/1999/xlink" viewBox="0 0 24 24"><defs><style>.cls-1{fill:none;}.cls-2{clip-path:url(#clip-path);}</style><clipPath id="clip-path"><rect class="cls-1" y="-0.09" width="24" height="24"/></clipPath></defs><title>signin</title><g class="cls-2"><path d="M8.15,20.75A3.74,3.74,0,0,1,4.4,17l0-10A3.76,3.76,0,0,1,8.11,3.25h2.51a.75.75,0,0,1,0,1.5H8.12A2.27,2.27,0,0,0,5.87,7l0,10a2.24,2.24,0,0,0,2.25,2.24h2.5a.75.75,0,0,1,0,1.5H8.15Z"/><path d="M8.63,12.75a.75.75,0,0,1,0-1.5l9,0h0a.75.75,0,0,1,0,1.5l-9,0Z"/><path d="M14.65,17a.71.71,0,0,1-.53-.22.75.75,0,0,1,0-1.06L17.82,12l-3.73-3.7a.77.77,0,0,1,0-1.07.75.75,0,0,1,1.06,0l4.26,4.24a.73.73,0,0,1,.22.52.79.79,0,0,1-.22.54l-4.23,4.25A.74.74,0,0,1,14.65,17Z"/></g></svg>