<svg id="Layer_1" data-name="Layer 1" xmlns="http://www.w3.org/2000/svg" xmlns:xlink="http://www.w3.org/1999/xlink" viewBox="0 0 24 24"><defs><style>.cls-1{fill:none;}.cls-2{clip-path:url(#clip-path);}</style><clipPath id="clip-path"><rect class="cls-1" x="-0.15" y="0.03" width="24" height="24"/></clipPath></defs><title>signout</title><g class="cls-2"><path d="M8.15,20.75A3.74,3.74,0,0,1,4.4,17l0-10A3.76,3.76,0,0,1,8.11,3.25h2.51a.75.75,0,0,1,0,1.5H8.12A2.27,2.27,0,0,0,5.87,7l0,10a2.24,2.24,0,0,0,2.25,2.24h2.5a.75.75,0,0,1,0,1.5H8.15Z"/><path d="M9.88,12.74A.74.74,0,0,1,9.13,12a.76.76,0,0,1,.75-.76l9,0h0a.75.75,0,0,1,0,1.5l-9,0Z"/><path d="M12.89,17a.73.73,0,0,1-.53-.22L8.11,12.53a.75.75,0,0,1,0-1.06l4.24-4.26A.75.75,0,1,1,13.4,8.27L9.7,12l3.72,3.71a.75.75,0,0,1,0,1.06A.74.74,0,0,1,12.89,17Z"/></g></svg>