<svg id="Layer_1" data-name="Layer 1" xmlns="http://www.w3.org/2000/svg" xmlns:xlink="http://www.w3.org/1999/xlink" viewBox="0 0 24 24"><defs><style>.cls-1{fill:none;}.cls-2{clip-path:url(#clip-path);}</style><clipPath id="clip-path"><rect class="cls-1" x="0.15" y="-0.03" width="24" height="24"/></clipPath></defs><title>sim</title><g class="cls-2"><path d="M17,22.75H7A3.75,3.75,0,0,1,3.25,19V10.71A3.78,3.78,0,0,1,3.65,9L6.5,3.32A3.72,3.72,0,0,1,9.85,1.25H17A3.75,3.75,0,0,1,20.75,5V19A3.75,3.75,0,0,1,17,22.75Zm-7.15-20A2.25,2.25,0,0,0,7.84,4L5,9.7a2.21,2.21,0,0,0-.24,1V19A2.25,2.25,0,0,0,7,21.25H17A2.25,2.25,0,0,0,19.25,19V5A2.25,2.25,0,0,0,17,2.75Z"/><path d="M15.5,11.75a.76.76,0,0,1-.75-.75V6a.75.75,0,0,1,1.5,0v5A.76.76,0,0,1,15.5,11.75Z"/><path d="M10.5,11.75A.76.76,0,0,1,9.75,11V6a.75.75,0,0,1,1.5,0v5A.76.76,0,0,1,10.5,11.75Z"/></g></svg>