<svg id="Layer_1" data-name="Layer 1" xmlns="http://www.w3.org/2000/svg" xmlns:xlink="http://www.w3.org/1999/xlink" viewBox="0 0 24 24"><defs><style>.cls-1{fill:none;}.cls-2{clip-path:url(#clip-path);}</style><clipPath id="clip-path"><rect class="cls-1" x="-0.15" y="0.06" width="24" height="24"/></clipPath></defs><title>sissiors</title><g class="cls-2"><path d="M18,22.75A3.75,3.75,0,1,1,21.75,19,3.75,3.75,0,0,1,18,22.75Zm0-6A2.25,2.25,0,1,0,20.25,19,2.25,2.25,0,0,0,18,16.75Z"/><path d="M6,22.75A3.75,3.75,0,1,1,9.75,19,3.75,3.75,0,0,1,6,22.75Zm0-6A2.25,2.25,0,1,0,8.25,19,2.25,2.25,0,0,0,6,16.75Z"/><path d="M16.34,17.25a.75.75,0,0,1-.61-.31L5.39,2.44a.75.75,0,0,1,1.22-.88L17,16.07a.74.74,0,0,1-.18,1A.69.69,0,0,1,16.34,17.25Z"/><path d="M7.66,17.25a.69.69,0,0,1-.43-.14.74.74,0,0,1-.18-1L17.39,1.56a.75.75,0,1,1,1.22.88L8.27,16.94A.75.75,0,0,1,7.66,17.25Z"/></g></svg>