<svg id="Layer_1" data-name="Layer 1" xmlns="http://www.w3.org/2000/svg" xmlns:xlink="http://www.w3.org/1999/xlink" viewBox="0 0 24 24"><defs><style>.cls-1{fill:none;}.cls-2{clip-path:url(#clip-path);}</style><clipPath id="clip-path"><rect class="cls-1" width="24" height="24"/></clipPath></defs><title>slider-horizontal</title><g class="cls-2"><path d="M19,9.81a3.46,3.46,0,1,1,3.46-3.46A3.46,3.46,0,0,1,19,9.81ZM19,4.4a2,2,0,1,0,2,1.95A2,2,0,0,0,19,4.4Z"/><path d="M19,21.1a.74.74,0,0,1-.75-.75V9.06a.75.75,0,0,1,1.5,0V20.35A.75.75,0,0,1,19,21.1Z"/><path d="M5,9.81A3.46,3.46,0,1,1,8.46,6.35,3.47,3.47,0,0,1,5,9.81ZM5,4.4A2,2,0,1,0,7,6.35,2,2,0,0,0,5,4.4Z"/><path d="M5,21.1a.75.75,0,0,1-.75-.75V9.06a.75.75,0,0,1,1.5,0V20.35A.74.74,0,0,1,5,21.1Z"/><path d="M12,21.1a3.46,3.46,0,1,1,3.46-3.45A3.46,3.46,0,0,1,12,21.1Zm0-5.41a2,2,0,1,0,2,2A2,2,0,0,0,12,15.69Z"/><path d="M12,15.69a.76.76,0,0,1-.75-.75V3.65a.75.75,0,0,1,1.5,0V14.94A.76.76,0,0,1,12,15.69Z"/></g></svg>