<svg id="Layer_1" data-name="Layer 1" xmlns="http://www.w3.org/2000/svg" xmlns:xlink="http://www.w3.org/1999/xlink" viewBox="0 0 24 24"><defs><style>.cls-1{fill:none;}.cls-2{clip-path:url(#clip-path);}</style><clipPath id="clip-path"><rect class="cls-1" width="24" height="24"/></clipPath></defs><title>slider-vertical</title><g class="cls-2"><path d="M6.35,8.46A3.46,3.46,0,1,1,9.81,5,3.46,3.46,0,0,1,6.35,8.46ZM6.35,3a2,2,0,1,0,2,2A2,2,0,0,0,6.35,3Z"/><path d="M20.35,5.75H9.06a.75.75,0,0,1,0-1.5H20.35a.75.75,0,0,1,0,1.5Z"/><path d="M6.35,22.46A3.46,3.46,0,1,1,9.81,19,3.47,3.47,0,0,1,6.35,22.46Zm0-5.42a2,2,0,1,0,2,2A2,2,0,0,0,6.35,17Z"/><path d="M20.35,19.75H9.06a.75.75,0,0,1,0-1.5H20.35a.75.75,0,0,1,0,1.5Z"/><path d="M17.65,15.46A3.46,3.46,0,1,1,21.1,12,3.46,3.46,0,0,1,17.65,15.46Zm0-5.42a2,2,0,1,0,2,2A2,2,0,0,0,17.65,10Z"/><path d="M14.94,12.75H3.65a.75.75,0,0,1,0-1.5H14.94a.75.75,0,0,1,0,1.5Z"/></g></svg>