<svg id="Layer_1" data-name="Layer 1" xmlns="http://www.w3.org/2000/svg" xmlns:xlink="http://www.w3.org/1999/xlink" viewBox="0 0 24 24"><defs><style>.cls-1{fill:none;}.cls-2{clip-path:url(#clip-path);}</style><clipPath id="clip-path"><rect class="cls-1" width="24" height="24"/></clipPath></defs><title>smartwatch-play</title><g class="cls-2"><path d="M17,20.17H7A3.21,3.21,0,0,1,3.83,17V7A3.21,3.21,0,0,1,7,3.83H17A3.21,3.21,0,0,1,20.17,7V17A3.21,3.21,0,0,1,17,20.17ZM7,5.33A1.71,1.71,0,0,0,5.33,7V17A1.71,1.71,0,0,0,7,18.67H17a1.71,1.71,0,0,0,1.7-1.7V7A1.71,1.71,0,0,0,17,5.33Z"/><path d="M15.88,5.33a.75.75,0,0,1-.75-.75v-1a1.36,1.36,0,0,0-1.36-1.36H10.24A1.36,1.36,0,0,0,8.88,3.57v1a.75.75,0,0,1-1.5,0v-1A2.86,2.86,0,0,1,10.24.71h3.53a2.87,2.87,0,0,1,2.86,2.86v1A.76.76,0,0,1,15.88,5.33Z"/><path d="M13.77,23.29H10.24a2.86,2.86,0,0,1-2.86-2.86v-1a.75.75,0,0,1,1.5,0v1a1.36,1.36,0,0,0,1.36,1.36h3.53a1.36,1.36,0,0,0,1.36-1.36v-1a.75.75,0,1,1,1.5,0v1A2.87,2.87,0,0,1,13.77,23.29Z"/><path d="M10.5,16.18a1.19,1.19,0,0,1-.51-.12,1.13,1.13,0,0,1-.62-1V9A1.13,1.13,0,0,1,11.18,8l4.07,3.05a1.16,1.16,0,0,1,.45.91,1.14,1.14,0,0,1-.46.91L11.18,16A1.13,1.13,0,0,1,10.5,16.18Zm.37-6.49v4.62L14,12Z"/></g></svg>