<svg id="Layer_1" data-name="Layer 1" xmlns="http://www.w3.org/2000/svg" xmlns:xlink="http://www.w3.org/1999/xlink" viewBox="0 0 24 24"><defs><style>.cls-1{fill:none;}.cls-2{clip-path:url(#clip-path);}</style><clipPath id="clip-path"><rect class="cls-1" width="24" height="24"/></clipPath></defs><title>smartwatch-bell</title><g class="cls-2"><path d="M17,20.17H7A3.21,3.21,0,0,1,3.83,17V7A3.21,3.21,0,0,1,7,3.83H17A3.21,3.21,0,0,1,20.17,7V17A3.21,3.21,0,0,1,17,20.17ZM7,5.33A1.71,1.71,0,0,0,5.33,7V17A1.71,1.71,0,0,0,7,18.67H17a1.71,1.71,0,0,0,1.7-1.7V7A1.71,1.71,0,0,0,17,5.33Z"/><path d="M15.88,5.33a.75.75,0,0,1-.75-.75v-1a1.36,1.36,0,0,0-1.36-1.36H10.24A1.36,1.36,0,0,0,8.88,3.57v1a.75.75,0,0,1-1.5,0v-1A2.86,2.86,0,0,1,10.24.71h3.53a2.87,2.87,0,0,1,2.86,2.86v1A.76.76,0,0,1,15.88,5.33Z"/><path d="M13.77,23.29H10.24a2.86,2.86,0,0,1-2.86-2.86v-1a.75.75,0,0,1,1.5,0v1a1.36,1.36,0,0,0,1.36,1.36h3.53a1.36,1.36,0,0,0,1.36-1.36v-1a.75.75,0,1,1,1.5,0v1A2.87,2.87,0,0,1,13.77,23.29Z"/><path d="M9.16,15.18a.76.76,0,0,1-.75-.66c0-.16,0-.32,0-.49V12.44A3.84,3.84,0,0,1,12.13,8.5a3.58,3.58,0,0,1,2.65,1.17,4,4,0,0,1,1.09,2.77V14a3.87,3.87,0,0,1,0,.48.76.76,0,0,1-.83.66.74.74,0,0,1-.66-.82c0-.11,0-.21,0-.32V12.44a2.5,2.5,0,0,0-.68-1.74,2.14,2.14,0,0,0-1.56-.7,2.34,2.34,0,0,0-2.24,2.44V14c0,.11,0,.21,0,.31a.74.74,0,0,1-.65.83Z"/><path d="M15.09,15.18H9.16a.75.75,0,0,1,0-1.5h5.93a.75.75,0,0,1,0,1.5Z"/><path d="M12.13,10a.75.75,0,0,1-.75-.75v-.8a.75.75,0,0,1,1.5,0v.8A.76.76,0,0,1,12.13,10Z"/><path d="M12.13,16.3a1.87,1.87,0,0,1-1.87-1.87.75.75,0,0,1,1.5,0,.37.37,0,0,0,.37.37.38.38,0,0,0,.37-.37.75.75,0,0,1,1.5,0A1.87,1.87,0,0,1,12.13,16.3Z"/></g></svg>