<svg id="Layer_1" data-name="Layer 1" xmlns="http://www.w3.org/2000/svg" xmlns:xlink="http://www.w3.org/1999/xlink" viewBox="0 0 24 24"><defs><style>.cls-1{fill:none;}.cls-2{clip-path:url(#clip-path);}</style><clipPath id="clip-path"><rect class="cls-1" width="24" height="24"/></clipPath></defs><title>sqaure-vice-versa</title><g class="cls-2"><path d="M18.7,22.75H5.3a4.06,4.06,0,0,1-4-4.05V5.3a4.06,4.06,0,0,1,4.05-4H18.7A4.06,4.06,0,0,1,22.75,5.3V18.7A4.06,4.06,0,0,1,18.7,22.75ZM5.3,2.75A2.56,2.56,0,0,0,2.75,5.3V18.7A2.56,2.56,0,0,0,5.3,21.25H18.7a2.56,2.56,0,0,0,2.55-2.55V5.3A2.56,2.56,0,0,0,18.7,2.75Z"/><path d="M16,16.75a.74.74,0,0,1-.53-.22L13,14.05A.75.75,0,1,1,14.09,13l1.2,1.2V8.69a.75.75,0,0,1,1.5,0V16a.73.73,0,0,1-.46.69A.72.72,0,0,1,16,16.75Z"/><path d="M16,16.75a.74.74,0,0,1-.53-.22.75.75,0,0,1,0-1.06L18,13a.75.75,0,0,1,1.06,0,.74.74,0,0,1,0,1.06l-2.48,2.48A.71.71,0,0,1,16,16.75Z"/><path d="M8,16.08a.74.74,0,0,1-.75-.75V9.81L6,11A.75.75,0,0,1,5,11,.74.74,0,0,1,5,10L7.43,7.47a.72.72,0,0,1,.81-.16A.74.74,0,0,1,8.71,8v7.33A.75.75,0,0,1,8,16.08Z"/><path d="M10.44,11.23A.75.75,0,0,1,9.91,11L7.43,8.53A.75.75,0,0,1,8.49,7.47L11,10A.75.75,0,0,1,11,11,.79.79,0,0,1,10.44,11.23Z"/></g></svg>