<svg id="Layer_1" data-name="Layer 1" xmlns="http://www.w3.org/2000/svg" xmlns:xlink="http://www.w3.org/1999/xlink" viewBox="0 0 24 24"><defs><style>.cls-1{fill:none;}.cls-2{clip-path:url(#clip-path);}</style><clipPath id="clip-path"><rect class="cls-1" width="24" height="24"/></clipPath></defs><title>square-right</title><g class="cls-2"><path d="M18.7,22.75H5.3a4.06,4.06,0,0,1-4-4.05V5.3a4.06,4.06,0,0,1,4.05-4H18.7A4.06,4.06,0,0,1,22.75,5.3V18.7A4.06,4.06,0,0,1,18.7,22.75ZM5.3,2.75A2.56,2.56,0,0,0,2.75,5.3V18.7A2.56,2.56,0,0,0,5.3,21.25H18.7a2.56,2.56,0,0,0,2.55-2.55V5.3A2.56,2.56,0,0,0,18.7,2.75Z"/><path d="M12,18.21a.74.74,0,0,1-.53-.22.75.75,0,0,1,0-1.06L15.36,13H6.83a.75.75,0,1,1,0-1.5H17.17a.76.76,0,0,1,.69.47.74.74,0,0,1-.16.81L12.53,18A.74.74,0,0,1,12,18.21Z"/><path d="M17.17,13a.71.71,0,0,1-.53-.22L11.47,7.66a.75.75,0,0,1,0-1.06.74.74,0,0,1,1.06,0l5.17,5.16a.75.75,0,0,1,0,1.06A.74.74,0,0,1,17.17,13Z"/></g></svg>