<svg id="Layer_1" data-name="Layer 1" xmlns="http://www.w3.org/2000/svg" xmlns:xlink="http://www.w3.org/1999/xlink" viewBox="0 0 24 24"><defs><style>.cls-1{fill:none;}.cls-2{clip-path:url(#clip-path);}</style><clipPath id="clip-path"><rect class="cls-1" y="-0.13" width="24" height="24"/></clipPath></defs><title>square-45</title><g class="cls-2"><path d="M18.7,22.75H5.3a4.06,4.06,0,0,1-4-4.05V5.3a4.06,4.06,0,0,1,4.05-4H18.7A4.06,4.06,0,0,1,22.75,5.3V18.7A4.06,4.06,0,0,1,18.7,22.75ZM5.3,2.75A2.56,2.56,0,0,0,2.75,5.3V18.7A2.56,2.56,0,0,0,5.3,21.25H18.7a2.56,2.56,0,0,0,2.55-2.55V5.3A2.56,2.56,0,0,0,18.7,2.75Z"/><path d="M15.65,16.7a.79.79,0,0,1-.53-.22L7.82,9.17a.75.75,0,0,1,.53-1.28h7.3a.75.75,0,0,1,0,1.5H10.16l6,6a.74.74,0,0,1,0,1.06A.75.75,0,0,1,15.65,16.7Z"/><path d="M8.35,16.7A.75.75,0,0,1,7.6,16V8.64a.75.75,0,0,1,1.5,0V16A.76.76,0,0,1,8.35,16.7Z"/></g></svg>