<svg id="Layer_1" data-name="Layer 1" xmlns="http://www.w3.org/2000/svg" xmlns:xlink="http://www.w3.org/1999/xlink" viewBox="0 0 24 24"><defs><style>.cls-1{fill:none;}.cls-2{clip-path:url(#clip-path);}</style><clipPath id="clip-path"><rect class="cls-1" width="24" height="24"/></clipPath></defs><title>square-plus</title><g class="cls-2"><path d="M16.06,13.2a.76.76,0,0,1-.75-.75V3.57a.75.75,0,0,1,1.5,0v8.88A.75.75,0,0,1,16.06,13.2Z"/><path d="M20.5,8.76H11.62a.75.75,0,0,1,0-1.5H20.5a.75.75,0,0,1,0,1.5Z"/><path d="M16.5,21.18H6.5a3.75,3.75,0,0,1-3.75-3.75v-10A3.76,3.76,0,0,1,6.5,3.68h3a.75.75,0,1,1,0,1.5h-3A2.25,2.25,0,0,0,4.25,7.43v10A2.25,2.25,0,0,0,6.5,19.68h10a2.25,2.25,0,0,0,2.25-2.25v-2a.75.75,0,0,1,1.5,0v2A3.75,3.75,0,0,1,16.5,21.18Z"/></g></svg>