<svg id="Layer_1" data-name="Layer 1" xmlns="http://www.w3.org/2000/svg" xmlns:xlink="http://www.w3.org/1999/xlink" viewBox="0 0 24 24"><defs><style>.cls-1{fill:none;}.cls-2{clip-path:url(#clip-path);}</style><clipPath id="clip-path"><rect class="cls-1" width="24" height="24"/></clipPath></defs><title>square-frame</title><g class="cls-2"><path d="M13.9,7.56a.71.71,0,0,1-.53-.22L12,6,10.63,7.3A.75.75,0,0,1,9.57,6.24l1.88-1.88a.77.77,0,0,1,1.06,0l1.92,1.92a.75.75,0,0,1,0,1.06A.74.74,0,0,1,13.9,7.56Z"/><path d="M12,19.64a.74.74,0,0,1-.53-.22L9.57,17.51a.75.75,0,0,1,0-1.06.74.74,0,0,1,1.06,0L12,17.83l1.35-1.34a.74.74,0,0,1,1.06,0,.75.75,0,0,1,0,1.06l-1.88,1.87A.74.74,0,0,1,12,19.64Z"/><path d="M18.7,22.75H5.3a4.06,4.06,0,0,1-4-4.05V5.3a4.06,4.06,0,0,1,4.05-4H18.7A4.06,4.06,0,0,1,22.75,5.3V18.7A4.06,4.06,0,0,1,18.7,22.75ZM5.3,2.75A2.56,2.56,0,0,0,2.75,5.3V18.7A2.56,2.56,0,0,0,5.3,21.25H18.7a2.56,2.56,0,0,0,2.55-2.55V5.3A2.56,2.56,0,0,0,18.7,2.75Z"/><path d="M17.08,14.54a.74.74,0,0,1-.53-.22.75.75,0,0,1,0-1.06l1.39-1.39-1.35-1.34a.75.75,0,0,1,0-1.06.74.74,0,0,1,1.06,0l1.88,1.87a.75.75,0,0,1,0,1.06l-1.92,1.92A.71.71,0,0,1,17.08,14.54Z"/><path d="M6.88,14.54a.73.73,0,0,1-.53-.22L4.47,12.44a.75.75,0,0,1,0-1.06L6.39,9.47a.74.74,0,0,1,1.06,0,.75.75,0,0,1,0,1.06L6.06,11.91l1.35,1.35a.75.75,0,0,1,0,1.06A.74.74,0,0,1,6.88,14.54Z"/></g></svg>