<svg id="Layer_1" data-name="Layer 1" xmlns="http://www.w3.org/2000/svg" xmlns:xlink="http://www.w3.org/1999/xlink" viewBox="0 0 24 24"><defs><style>.cls-1{fill:none;}.cls-2{clip-path:url(#clip-path);}</style><clipPath id="clip-path"><rect class="cls-1" width="24" height="24"/></clipPath></defs><title>square-vice-versa-alt</title><g class="cls-2"><path d="M18.7,22.75H5.3a4.06,4.06,0,0,1-4-4.05V5.3a4.06,4.06,0,0,1,4.05-4H18.7A4.06,4.06,0,0,1,22.75,5.3V18.7A4.06,4.06,0,0,1,18.7,22.75ZM5.3,2.75A2.56,2.56,0,0,0,2.75,5.3V18.7A2.56,2.56,0,0,0,5.3,21.25H18.7a2.56,2.56,0,0,0,2.55-2.55V5.3A2.56,2.56,0,0,0,18.7,2.75Z"/><path d="M13.52,11.19A.79.79,0,0,1,13,11a.75.75,0,0,1,0-1.06l1.2-1.2H8.69a.75.75,0,0,1,0-1.5H16a.73.73,0,0,1,.69.46.74.74,0,0,1-.16.82L14.05,11A.75.75,0,0,1,13.52,11.19Z"/><path d="M16,8.71a.79.79,0,0,1-.53-.22L13,6A.75.75,0,0,1,13,5a.74.74,0,0,1,1.06,0l2.48,2.48a.75.75,0,0,1,0,1.06A.77.77,0,0,1,16,8.71Z"/><path d="M10.48,19.27a.71.71,0,0,1-.53-.22L7.47,16.57a.74.74,0,0,1-.17-.81.76.76,0,0,1,.7-.47h7.33a.75.75,0,1,1,0,1.5H9.81L11,18a.75.75,0,0,1,0,1.06A.74.74,0,0,1,10.48,19.27Z"/><path d="M8,16.79a.73.73,0,0,1-.53-.22.74.74,0,0,1,0-1.06L10,13A.75.75,0,1,1,11,14.09L8.53,16.57A.74.74,0,0,1,8,16.79Z"/></g></svg>