<svg id="Layer_1" data-name="Layer 1" xmlns="http://www.w3.org/2000/svg" xmlns:xlink="http://www.w3.org/1999/xlink" viewBox="0 0 24 24"><defs><style>.cls-1{fill:none;}.cls-2{clip-path:url(#clip-path);}</style><clipPath id="clip-path"><rect class="cls-1" width="24" height="24"/></clipPath></defs><title>square-sc-horizontal</title><g class="cls-2"><path d="M18.7,22.75H5.3a4.06,4.06,0,0,1-4-4.05V5.3a4.06,4.06,0,0,1,4.05-4H18.7A4.06,4.06,0,0,1,22.75,5.3V18.7A4.06,4.06,0,0,1,18.7,22.75ZM5.3,2.75A2.56,2.56,0,0,0,2.75,5.3V18.7A2.56,2.56,0,0,0,5.3,21.25H18.7a2.56,2.56,0,0,0,2.55-2.55V5.3A2.56,2.56,0,0,0,18.7,2.75Z"/><path d="M14.54,15.55a.74.74,0,0,1-.53-.22.75.75,0,0,1,0-1.06l2.41-2.41L14.07,9.52a.75.75,0,0,1,0-1.06.74.74,0,0,1,1.06,0L18,11.33a.75.75,0,0,1,0,1.06l-2.94,2.94A.73.73,0,0,1,14.54,15.55Z"/><path d="M9.4,15.55a.71.71,0,0,1-.53-.22L6,12.45a.75.75,0,0,1,0-1.06L8.93,8.46a.74.74,0,0,1,1.06,0,.75.75,0,0,1,0,1.06l-2.41,2.4,2.35,2.35a.75.75,0,0,1,0,1.06A.74.74,0,0,1,9.4,15.55Z"/></g></svg>