<svg id="Layer_1" data-name="Layer 1" xmlns="http://www.w3.org/2000/svg" xmlns:xlink="http://www.w3.org/1999/xlink" viewBox="0 0 24 24"><defs><style>.cls-1{fill:none;}.cls-2{clip-path:url(#clip-path);}</style><clipPath id="clip-path"><rect class="cls-1" width="24" height="24"/></clipPath></defs><title>square-cross</title><g class="cls-2"><path d="M13.42,11.46a.74.74,0,0,1-.53-.22.75.75,0,0,1,0-1.06L19.17,3.9A.75.75,0,1,1,20.23,5L14,11.24A.71.71,0,0,1,13.42,11.46Z"/><path d="M19.7,11.46a.74.74,0,0,1-.53-.22L12.89,5A.75.75,0,1,1,14,3.9l6.28,6.28a.75.75,0,0,1,0,1.06A.74.74,0,0,1,19.7,11.46Z"/><path d="M17,20.75H7A3.75,3.75,0,0,1,3.25,17V7A3.75,3.75,0,0,1,7,3.25h3a.75.75,0,0,1,0,1.5H7A2.25,2.25,0,0,0,4.75,7V17A2.25,2.25,0,0,0,7,19.25H17A2.25,2.25,0,0,0,19.25,17V15a.75.75,0,0,1,1.5,0v2A3.75,3.75,0,0,1,17,20.75Z"/></g></svg>