<svg id="Layer_1" data-name="Layer 1" xmlns="http://www.w3.org/2000/svg" xmlns:xlink="http://www.w3.org/1999/xlink" viewBox="0 0 24 24"><defs><style>.cls-1{fill:none;}.cls-2{clip-path:url(#clip-path);}</style><clipPath id="clip-path"><rect class="cls-1" width="24" height="24"/></clipPath></defs><title>square-sc-vertical</title><g class="cls-2"><path d="M18.7,22.75H5.3a4.06,4.06,0,0,1-4-4.05V5.3a4.06,4.06,0,0,1,4.05-4H18.7A4.06,4.06,0,0,1,22.75,5.3V18.7A4.06,4.06,0,0,1,18.7,22.75ZM5.3,2.75A2.56,2.56,0,0,0,2.75,5.3V18.7A2.56,2.56,0,0,0,5.3,21.25H18.7a2.56,2.56,0,0,0,2.55-2.55V5.3A2.56,2.56,0,0,0,18.7,2.75Z"/><path d="M14.91,10.1a.71.71,0,0,1-.53-.22L12,7.47,9.62,9.82A.75.75,0,0,1,8.56,8.76l2.88-2.88a.75.75,0,0,1,1.06,0l2.94,2.94a.75.75,0,0,1,0,1.06A.74.74,0,0,1,14.91,10.1Z"/><path d="M12,18.12a.74.74,0,0,1-.53-.22L8.56,15A.75.75,0,1,1,9.62,13.9L12,16.31,14.38,14a.74.74,0,0,1,1.06,0,.75.75,0,0,1,0,1.06L12.56,17.9A.74.74,0,0,1,12,18.12Z"/></g></svg>