<svg id="Layer_1" data-name="Layer 1" xmlns="http://www.w3.org/2000/svg" xmlns:xlink="http://www.w3.org/1999/xlink" viewBox="0 0 24 24"><defs><style>.cls-1{fill:none;}.cls-2{clip-path:url(#clip-path);}</style><clipPath id="clip-path"><rect class="cls-1" width="24" height="24"/></clipPath></defs><title>star</title><g class="cls-2"><path d="M17.31,22.33a2.16,2.16,0,0,1-1.26-.42l-3.67-2.67a.66.66,0,0,0-.76,0L8,21.91a2.15,2.15,0,0,1-3.31-2.4L6.05,15.2a.67.67,0,0,0-.24-.73L2.14,11.8A2.14,2.14,0,0,1,3.4,7.92H7.94a.65.65,0,0,0,.62-.45L10,3.15a2.15,2.15,0,0,1,4.08,0h0l1.4,4.32a.65.65,0,0,0,.62.45H20.6a2.14,2.14,0,0,1,1.26,3.88l-3.67,2.67a.66.66,0,0,0-.24.72l1.41,4.32a2.13,2.13,0,0,1-.78,2.4A2.17,2.17,0,0,1,17.31,22.33ZM12,17.62a2.18,2.18,0,0,1,1.26.41l3.67,2.67a.66.66,0,0,0,.77,0,.62.62,0,0,0,.23-.72l-1.4-4.32a2.13,2.13,0,0,1,.78-2.4L21,10.59a.64.64,0,0,0,.24-.72.63.63,0,0,0-.62-.45H16.06a2.15,2.15,0,0,1-2-1.48l-1.4-4.32a.65.65,0,0,0-1.24,0L10,7.93a2.15,2.15,0,0,1-2,1.49H3.4a.63.63,0,0,0-.62.45.64.64,0,0,0,.24.72l3.67,2.67a2.13,2.13,0,0,1,.78,2.4L6.07,20a.62.62,0,0,0,.23.72.66.66,0,0,0,.77,0L10.74,18A2.18,2.18,0,0,1,12,17.62Z"/></g></svg>