<svg id="Layer_1" data-name="Layer 1" xmlns="http://www.w3.org/2000/svg" xmlns:xlink="http://www.w3.org/1999/xlink" viewBox="0 0 24 24"><defs><style>.cls-1{fill:none;}.cls-2{clip-path:url(#clip-path);}</style><clipPath id="clip-path"><rect class="cls-1" x="-0.15" y="0.06" width="24" height="24"/></clipPath></defs><title>stats-alt</title><g class="cls-2"><path d="M22,22.75H2A.76.76,0,0,1,1.25,22V2a.75.75,0,0,1,1.5,0V21.25H22a.75.75,0,0,1,0,1.5Z"/><path d="M6.38,17.13a.79.79,0,0,1-.54-.22.77.77,0,0,1,0-1.07l4.38-4.37a.75.75,0,0,1,1.06,0l2.6,2.59,6.34-6.34a.75.75,0,0,1,1.06,1.06l-6.87,6.88a.77.77,0,0,1-1.07,0l-2.59-2.6L6.91,16.91A.79.79,0,0,1,6.38,17.13Z"/></g></svg>