<svg id="Layer_1" data-name="Layer 1" xmlns="http://www.w3.org/2000/svg" xmlns:xlink="http://www.w3.org/1999/xlink" viewBox="0 0 24 24"><defs><style>.cls-1{fill:none;}.cls-2{clip-path:url(#clip-path);}</style><clipPath id="clip-path"><rect class="cls-1" x="-0.15" y="0.03" width="24" height="24"/></clipPath></defs><title>stats</title><g class="cls-2"><path d="M22,22.75H2A.76.76,0,0,1,1.25,22V2a.75.75,0,0,1,1.5,0V21.25H22a.75.75,0,0,1,0,1.5Z"/><path d="M7,19a.76.76,0,0,1-.75-.75V12a.75.75,0,0,1,1.5,0v6.25A.76.76,0,0,1,7,19Z"/><path d="M12,19a.76.76,0,0,1-.75-.75V4.5a.75.75,0,0,1,1.5,0V18.25A.76.76,0,0,1,12,19Z"/><path d="M17,19a.76.76,0,0,1-.75-.75v-10a.75.75,0,0,1,1.5,0v10A.76.76,0,0,1,17,19Z"/></g></svg>