<svg id="Layer_1" data-name="Layer 1" xmlns="http://www.w3.org/2000/svg" xmlns:xlink="http://www.w3.org/1999/xlink" viewBox="0 0 24 24"><defs><style>.cls-1{fill:none;}.cls-2{clip-path:url(#clip-path);}</style><clipPath id="clip-path"><rect class="cls-1" width="24" height="24"/></clipPath></defs><title>stats-alt_1</title><g class="cls-2"><path d="M18.7,22.75H5.3a4.06,4.06,0,0,1-4-4.05V5.3a4.06,4.06,0,0,1,4.05-4H18.7A4.06,4.06,0,0,1,22.75,5.3V18.7A4.06,4.06,0,0,1,18.7,22.75ZM5.3,2.75A2.56,2.56,0,0,0,2.75,5.3V18.7A2.56,2.56,0,0,0,5.3,21.25H18.7a2.56,2.56,0,0,0,2.55-2.55V5.3A2.56,2.56,0,0,0,18.7,2.75Z"/><path d="M7.52,22.75A.75.75,0,0,1,6.77,22V13.79a.75.75,0,0,1,1.5,0V22A.76.76,0,0,1,7.52,22.75Z"/><path d="M16.49,22.75a.75.75,0,0,1-.75-.75V10.92a.75.75,0,1,1,1.5,0V22A.76.76,0,0,1,16.49,22.75Z"/><path d="M12,22.75a.76.76,0,0,1-.75-.75V6.92a.75.75,0,0,1,1.5,0V22A.76.76,0,0,1,12,22.75Z"/></g></svg>