<svg id="Layer_1" data-name="Layer 1" xmlns="http://www.w3.org/2000/svg" xmlns:xlink="http://www.w3.org/1999/xlink" viewBox="0 0 24 24"><defs><style>.cls-1{fill:none;}.cls-2{clip-path:url(#clip-path);}</style><clipPath id="clip-path"><rect class="cls-1" y="0.02" width="24" height="24"/></clipPath></defs><title>stats-alt-opposite</title><g class="cls-2"><path d="M18.7,22.75H5.3a4.06,4.06,0,0,1-4-4.05V5.3a4.06,4.06,0,0,1,4.05-4H18.7A4.06,4.06,0,0,1,22.75,5.3V18.7A4.06,4.06,0,0,1,18.7,22.75ZM5.3,2.75A2.56,2.56,0,0,0,2.75,5.3V18.7A2.56,2.56,0,0,0,5.3,21.25H18.7a2.56,2.56,0,0,0,2.55-2.55V5.3A2.56,2.56,0,0,0,18.7,2.75Z"/><path d="M16.49,11a.74.74,0,0,1-.75-.75V2a.75.75,0,0,1,1.5,0v8.21A.75.75,0,0,1,16.49,11Z"/><path d="M7.52,13.83a.74.74,0,0,1-.75-.75V2a.75.75,0,0,1,1.5,0V13.08A.75.75,0,0,1,7.52,13.83Z"/><path d="M12,17.83a.75.75,0,0,1-.75-.75V2a.75.75,0,0,1,1.5,0V17.08A.75.75,0,0,1,12,17.83Z"/></g></svg>