<svg id="Layer_1" data-name="Layer 1" xmlns="http://www.w3.org/2000/svg" xmlns:xlink="http://www.w3.org/1999/xlink" viewBox="0 0 24 24"><defs><style>.cls-1{fill:none;}.cls-2{clip-path:url(#clip-path);}</style><clipPath id="clip-path"><rect class="cls-1" width="24" height="24"/></clipPath></defs><title>tag-import</title><g class="cls-2"><path d="M19.77,17.07a.74.74,0,0,1-.53-.22.75.75,0,0,1,0-1.06,1.67,1.67,0,0,0,0-2.34L9.4,3.62H4.28V8.74L10.56,15A.75.75,0,0,1,9.5,16.09L3,9.58a.75.75,0,0,1-.22-.53V2.87a.74.74,0,0,1,.75-.75H9.71a.75.75,0,0,1,.53.22L20.3,12.39a3.16,3.16,0,0,1,0,4.46A.74.74,0,0,1,19.77,17.07Z"/><path d="M7.53,7.62a.75.75,0,0,1-.75-.75.72.72,0,0,1,.06-.29.75.75,0,0,1,1.38,0,.72.72,0,0,1,.06.29.75.75,0,0,1-.75.75Z"/><path d="M14.9,21.18a.75.75,0,0,1-.75-.75V15.35a.76.76,0,0,1,.75-.75h0a.76.76,0,0,1,.75.75v5.08a.75.75,0,0,1-.74.75Z"/><path d="M14.91,21.88a.75.75,0,0,1-.53-.22L12,19.27a.75.75,0,0,1,0-1.06.75.75,0,0,1,1.06,0l1.87,1.86,1.86-1.87a.75.75,0,0,1,1.06,0,.75.75,0,0,1,0,1.06l-2.39,2.4a.75.75,0,0,1-.53.22Z"/></g></svg>