<svg id="Layer_1" data-name="Layer 1" xmlns="http://www.w3.org/2000/svg" xmlns:xlink="http://www.w3.org/1999/xlink" viewBox="0 0 24 24"><defs><style>.cls-1{fill:none;}.cls-2{clip-path:url(#clip-path);}</style><clipPath id="clip-path"><rect class="cls-1" width="24" height="24"/></clipPath></defs><title>tag-export</title><g class="cls-2"><path d="M19.77,17.17a.79.79,0,0,1-.53-.22.77.77,0,0,1,0-1.07,1.67,1.67,0,0,0,0-2.34L9.4,3.71H4.28V8.83l6.28,6.29A.75.75,0,0,1,9.5,16.18L3,9.68a.77.77,0,0,1-.22-.53V3a.74.74,0,0,1,.75-.75H9.71a.75.75,0,0,1,.53.22L20.3,12.48a3.17,3.17,0,0,1,0,4.47A.79.79,0,0,1,19.77,17.17Z"/><path d="M7.53,7.71A.75.75,0,0,1,7,7.49a.6.6,0,0,1-.16-.25A.67.67,0,0,1,6.78,7a.72.72,0,0,1,.06-.29A.78.78,0,0,1,7,6.43a.63.63,0,0,1,.24-.16.73.73,0,0,1,.58,0,.63.63,0,0,1,.24.16.78.78,0,0,1,.16.24A.72.72,0,0,1,8.28,7a.67.67,0,0,1-.06.28.6.6,0,0,1-.16.25.78.78,0,0,1-.24.16A.72.72,0,0,1,7.53,7.71Z"/><path d="M14.55,21.79A.75.75,0,0,1,13.8,21V16a.75.75,0,0,1,.75-.75h0a.76.76,0,0,1,.75.75V21a.75.75,0,0,1-.75.75Z"/><path d="M12.15,18.41a.73.73,0,0,1-.53-.22.74.74,0,0,1,0-1.06L14,14.73a.77.77,0,0,1,1.07,0l2.4,2.39a.75.75,0,0,1-1.06,1.06l-1.87-1.86-1.86,1.87A.74.74,0,0,1,12.15,18.41Z"/></g></svg>