<svg id="Layer_1" data-name="Layer 1" xmlns="http://www.w3.org/2000/svg" xmlns:xlink="http://www.w3.org/1999/xlink" viewBox="0 0 24 24"><defs><style>.cls-1{fill:none;}.cls-2{clip-path:url(#clip-path);}</style><clipPath id="clip-path"><rect class="cls-1" width="24" height="24"/></clipPath></defs><title>tag-plus</title><g class="cls-2"><path d="M14.54,21.9a.76.76,0,0,1-.75-.75v-6a.75.75,0,1,1,1.5,0v6A.75.75,0,0,1,14.54,21.9Z"/><path d="M17.54,18.9h-6a.75.75,0,0,1,0-1.5h6a.75.75,0,0,1,0,1.5Z"/><path d="M19.77,17.06a.74.74,0,0,1-.53-.22.75.75,0,0,1,0-1.06,1.67,1.67,0,0,0,0-2.34L9.4,3.6H4.28V8.73L10.56,15A.75.75,0,1,1,9.5,16.08L3,9.57A.75.75,0,0,1,2.78,9V2.85a.75.75,0,0,1,.75-.75H9.71a.75.75,0,0,1,.53.22L20.3,12.38a3.16,3.16,0,0,1,0,4.46A.74.74,0,0,1,19.77,17.06Z"/><path d="M7.53,7.61A.75.75,0,0,1,7,7.39a.82.82,0,0,1-.16-.25.72.72,0,0,1-.06-.29.71.71,0,0,1,.06-.28A.82.82,0,0,1,7,6.32a.78.78,0,0,1,.24-.16.83.83,0,0,1,.58,0,.78.78,0,0,1,.24.16.67.67,0,0,1,.16.25.71.71,0,0,1,.06.28.72.72,0,0,1-.06.29.82.82,0,0,1-.16.25A.75.75,0,0,1,7.53,7.61Z"/></g></svg>