<svg id="Layer_1" data-name="Layer 1" xmlns="http://www.w3.org/2000/svg" xmlns:xlink="http://www.w3.org/1999/xlink" viewBox="0 0 24 24"><defs><style>.cls-1{fill:none;}.cls-2{clip-path:url(#clip-path);}</style><clipPath id="clip-path"><rect class="cls-1" width="24" height="24"/></clipPath></defs><title>tag-cross</title><g class="cls-2"><path d="M12.77,21.46a.79.79,0,0,1-.53-.22.75.75,0,0,1,0-1.06l4.25-4.25A.75.75,0,0,1,17.55,17L13.3,21.24A.75.75,0,0,1,12.77,21.46Z"/><path d="M17,21.46a.75.75,0,0,1-.53-.22L12.24,17a.75.75,0,0,1,1.06-1.06l4.25,4.25a.75.75,0,0,1,0,1.06A.79.79,0,0,1,17,21.46Z"/><path d="M19.77,17.5a.74.74,0,0,1-.53-.22.75.75,0,0,1,0-1.06,1.67,1.67,0,0,0,0-2.34L9.4,4H4.28V9.17l6.28,6.29A.75.75,0,1,1,9.5,16.52L3,10a.75.75,0,0,1-.22-.53V3.29a.75.75,0,0,1,.75-.75H9.71a.75.75,0,0,1,.53.22L20.3,12.82a3.16,3.16,0,0,1,0,4.46A.74.74,0,0,1,19.77,17.5Z"/><path d="M7.53,8a.75.75,0,0,1-.75-.75A.77.77,0,0,1,7,6.76a.78.78,0,0,1,.24-.16.79.79,0,0,1,.82.16.77.77,0,0,1,.22.53.75.75,0,0,1-.22.53A.81.81,0,0,1,7.82,8,1,1,0,0,1,7.53,8Z"/></g></svg>