<svg id="Layer_1" data-name="Layer 1" xmlns="http://www.w3.org/2000/svg" xmlns:xlink="http://www.w3.org/1999/xlink" viewBox="0 0 24 24"><defs><style>.cls-1{fill:none;}.cls-2{clip-path:url(#clip-path);}</style><clipPath id="clip-path"><rect class="cls-1" width="24" height="24"/></clipPath></defs><title>tag</title><g class="cls-2"><path d="M15.28,21.22a3.16,3.16,0,0,1-2.23-.92L3,10.24a.75.75,0,0,1-.22-.53V3.53a.74.74,0,0,1,.75-.75H9.71a.75.75,0,0,1,.53.22L20.3,13.05a3.16,3.16,0,0,1,.92,2.23,3.13,3.13,0,0,1-.92,2.23L17.51,20.3A3.13,3.13,0,0,1,15.28,21.22ZM4.28,9.4l9.83,9.84a1.7,1.7,0,0,0,2.34,0l2.79-2.79a1.67,1.67,0,0,0,0-2.34L9.4,4.28H4.28Z"/><path d="M7.53,8.28A.75.75,0,0,1,7,8.06a.74.74,0,0,1-.23-.53.77.77,0,0,1,1-.7A.85.85,0,0,1,8.06,7a.67.67,0,0,1,.16.24.72.72,0,0,1,.06.29.75.75,0,0,1-.75.75Z"/></g></svg>