<svg id="Layer_1" data-name="Layer 1" xmlns="http://www.w3.org/2000/svg" xmlns:xlink="http://www.w3.org/1999/xlink" viewBox="0 0 24 24"><defs><style>.cls-1{fill:none;}.cls-2{clip-path:url(#clip-path);}</style><clipPath id="clip-path"><rect class="cls-1" x="0.08" y="0.02" width="24" height="24"/></clipPath></defs><title>terminal</title><g class="cls-2"><path d="M2.82,19.09a.74.74,0,0,1-.53-.22.75.75,0,0,1,0-1.06L8.1,12,2.28,6.19a.75.75,0,0,1,0-1.06.74.74,0,0,1,1.06,0l6.35,6.35a.75.75,0,0,1,0,1.06L3.35,18.87A.71.71,0,0,1,2.82,19.09Z"/><path d="M21.19,18.63H12.08a.75.75,0,0,1,0-1.5h9.11a.75.75,0,0,1,0,1.5Z"/></g></svg>