<svg id="Layer_1" data-name="Layer 1" xmlns="http://www.w3.org/2000/svg" xmlns:xlink="http://www.w3.org/1999/xlink" viewBox="0 0 24 24"><defs><style>.cls-1{fill:none;}.cls-2{clip-path:url(#clip-path);}</style><clipPath id="clip-path"><rect class="cls-1" width="24" height="24"/></clipPath></defs><title>ticket</title><g class="cls-2"><path d="M22,17H2a.74.74,0,0,1-.75-.75V13.89a.75.75,0,0,1,1.5,0v1.58H21.23V13.89a.75.75,0,0,1,1.5,0v2.33A.74.74,0,0,1,22,17Z"/><path d="M22,10.86a.75.75,0,0,1-.75-.75V8.53H2.77v1.58a.75.75,0,0,1-1.5,0V7.78A.74.74,0,0,1,2,7H22a.74.74,0,0,1,.75.75v2.33A.74.74,0,0,1,22,10.86Z"/><path d="M2,14.64a.75.75,0,1,1,0-1.5A1.14,1.14,0,0,0,3.15,12,1.12,1.12,0,0,0,2,10.86a.75.75,0,1,1,0-1.5,2.64,2.64,0,0,1,0,5.28Z"/><path d="M22,14.64a2.64,2.64,0,0,1,0-5.28.75.75,0,1,1,0,1.5,1.14,1.14,0,0,0,0,2.28.75.75,0,1,1,0,1.5Z"/></g></svg>