<svg id="Layer_1" data-name="Layer 1" xmlns="http://www.w3.org/2000/svg" xmlns:xlink="http://www.w3.org/1999/xlink" viewBox="0 0 24 24"><defs><style>.cls-1{fill:none;}.cls-2{clip-path:url(#clip-path);}</style><clipPath id="clip-path"><rect class="cls-1" width="24" height="24"/></clipPath></defs><title>toggle</title><g class="cls-2"><path d="M7.66,14.52A2.52,2.52,0,1,1,10.18,12,2.52,2.52,0,0,1,7.66,14.52Zm0-3.54a1,1,0,1,0,1,1A1,1,0,0,0,7.66,11Z"/><path d="M16.21,18.25H7.79a6.25,6.25,0,0,1,0-12.5h8.42a6.25,6.25,0,0,1,0,12.5Zm-8.42-11a4.75,4.75,0,0,0,0,9.5h8.42a4.75,4.75,0,0,0,0-9.5Z"/></g></svg>