<svg id="Layer_1" data-name="Layer 1" xmlns="http://www.w3.org/2000/svg" xmlns:xlink="http://www.w3.org/1999/xlink" viewBox="0 0 24 24"><defs><style>.cls-1{fill:none;}.cls-2{clip-path:url(#clip-path);}</style><clipPath id="clip-path"><rect class="cls-1" y="-0.06" width="24" height="24"/></clipPath></defs><title>trash</title><g class="cls-2"><path d="M16.5,22.25h-9a.75.75,0,0,1-.75-.68l-1.5-16A.71.71,0,0,1,5.45,5,.73.73,0,0,1,6,4.75H18a.73.73,0,0,1,.55.25.71.71,0,0,1,.2.57l-1.5,16A.75.75,0,0,1,16.5,22.25Zm-8.32-1.5h7.64l1.36-14.5H6.82Z"/><path d="M19,6.25H5a.75.75,0,0,1,0-1.5H19a.75.75,0,0,1,0,1.5Z"/><path d="M14.5,3.25h-5a.75.75,0,0,1,0-1.5h5a.75.75,0,0,1,0,1.5Z"/></g></svg>