<svg id="Layer_1" data-name="Layer 1" xmlns="http://www.w3.org/2000/svg" xmlns:xlink="http://www.w3.org/1999/xlink" viewBox="0 0 24 24"><defs><style>.cls-1{fill:none;}.cls-2{clip-path:url(#clip-path);}</style><clipPath id="clip-path"><rect class="cls-1" y="-0.01" width="24" height="24"/></clipPath></defs><title>tree</title><g class="cls-2"><path d="M8.63,10.29H4.4A1.75,1.75,0,0,1,2.65,8.54V4.31A1.75,1.75,0,0,1,4.4,2.56H8.63a1.75,1.75,0,0,1,1.75,1.75V8.54A1.75,1.75,0,0,1,8.63,10.29ZM4.4,4.06a.25.25,0,0,0-.25.25V8.54a.25.25,0,0,0,.25.25H8.63a.25.25,0,0,0,.25-.25V4.31a.25.25,0,0,0-.25-.25Z"/><path d="M19.6,10.29H15.37a1.75,1.75,0,0,1-1.75-1.75V4.31a1.75,1.75,0,0,1,1.75-1.75H19.6a1.75,1.75,0,0,1,1.75,1.75V8.54A1.75,1.75,0,0,1,19.6,10.29ZM15.37,4.06a.25.25,0,0,0-.25.25V8.54a.25.25,0,0,0,.25.25H19.6a.25.25,0,0,0,.25-.25V4.31a.25.25,0,0,0-.25-.25Z"/><path d="M8.63,21.44H4.4a1.75,1.75,0,0,1-1.75-1.75V15.46A1.75,1.75,0,0,1,4.4,13.71H8.63a1.75,1.75,0,0,1,1.75,1.75v4.23A1.75,1.75,0,0,1,8.63,21.44ZM4.4,15.21a.25.25,0,0,0-.25.25v4.23a.25.25,0,0,0,.25.25H8.63a.25.25,0,0,0,.25-.25V15.46a.25.25,0,0,0-.25-.25Z"/><path d="M6.52,15.21a.75.75,0,0,1-.75-.75V9.54a.75.75,0,0,1,1.5,0v4.92A.76.76,0,0,1,6.52,15.21Z"/><path d="M14.37,7.17H9.63a.75.75,0,0,1,0-1.5h4.74a.75.75,0,0,1,0,1.5Z"/></g></svg>