<svg id="Layer_1" data-name="Layer 1" xmlns="http://www.w3.org/2000/svg" xmlns:xlink="http://www.w3.org/1999/xlink" viewBox="0 0 24 24"><defs><style>.cls-1{fill:none;}.cls-2{clip-path:url(#clip-path);}</style><clipPath id="clip-path"><rect class="cls-1" width="24" height="24"/></clipPath></defs><title>tree-alt</title><g class="cls-2"><path d="M9.76,11H5.53A1.75,1.75,0,0,1,3.78,9.29V5.06A1.75,1.75,0,0,1,5.53,3.31H9.76a1.75,1.75,0,0,1,1.75,1.75V9.29A1.75,1.75,0,0,1,9.76,11ZM5.53,4.81a.25.25,0,0,0-.25.25V9.29a.25.25,0,0,0,.25.25H9.76A.25.25,0,0,0,10,9.29V5.06a.25.25,0,0,0-.25-.25Z"/><path d="M18.47,9.8h-2a1.75,1.75,0,0,1-1.75-1.75v-2A1.75,1.75,0,0,1,16.5,4.32h2a1.75,1.75,0,0,1,1.75,1.75v2A1.75,1.75,0,0,1,18.47,9.8Zm-2-4a.25.25,0,0,0-.25.25v2a.25.25,0,0,0,.25.25h2a.25.25,0,0,0,.25-.25v-2a.25.25,0,0,0-.25-.25Z"/><path d="M8.86,20.69H6.13a1.75,1.75,0,0,1-1.75-1.75V16.21a1.76,1.76,0,0,1,1.75-1.75H8.86a1.75,1.75,0,0,1,1.75,1.75v2.73A1.75,1.75,0,0,1,8.86,20.69ZM6.13,16a.25.25,0,0,0-.25.25v2.73a.25.25,0,0,0,.25.25H8.86a.25.25,0,0,0,.25-.25V16.21A.25.25,0,0,0,8.86,16Z"/><path d="M7.65,16a.75.75,0,0,1-.75-.75V10.29a.75.75,0,0,1,1.5,0v4.92A.76.76,0,0,1,7.65,16Z"/><path d="M15.5,7.93H10.76a.75.75,0,1,1,0-1.5H15.5a.75.75,0,0,1,0,1.5Z"/></g></svg>