<svg id="Layer_1" data-name="Layer 1" xmlns="http://www.w3.org/2000/svg" xmlns:xlink="http://www.w3.org/1999/xlink" viewBox="0 0 24 24"><defs><style>.cls-1{fill:none;}.cls-2{clip-path:url(#clip-path);}</style><clipPath id="clip-path"><rect class="cls-1" width="24" height="24"/></clipPath></defs><title>twitter</title><g class="cls-2"><path d="M16,11.08a.76.76,0,1,1,.76-.76A.76.76,0,0,1,16,11.08Z"/><path d="M13.42,20.5H5.67a.76.76,0,0,1-.75-.75V14.47a.75.75,0,0,1,1.5,0V19h7A7,7,0,1,0,6.84,9.61.75.75,0,0,1,5.43,9.1,8.5,8.5,0,0,1,19.43,6a8.5,8.5,0,0,1-6,14.51Z"/><path d="M9,16c-1.72,0-6.92-1.41-6.92-4S7.28,8,9,8a4,4,0,0,1,0,8ZM9,9.52C7.13,9.52,3.58,11,3.58,12S7.13,14.48,9,14.48a2.48,2.48,0,0,0,0-5Z"/></g></svg>