<svg id="Layer_1" data-name="Layer 1" xmlns="http://www.w3.org/2000/svg" xmlns:xlink="http://www.w3.org/1999/xlink" viewBox="0 0 24 24"><defs><style>.cls-1{fill:none;}.cls-2{clip-path:url(#clip-path);}</style><clipPath id="clip-path"><rect class="cls-1" width="24" height="24"/></clipPath></defs><title>unlock-alt</title><g class="cls-2"><path d="M20.6,22.57H7.1a2.33,2.33,0,0,1-2.33-2.33V14.57A2.33,2.33,0,0,1,7.1,12.24H20.6a2.34,2.34,0,0,1,2.33,2.33v5.67A2.33,2.33,0,0,1,20.6,22.57ZM7.1,13.74a.83.83,0,0,0-.83.83v5.67a.83.83,0,0,0,.83.83H20.6a.83.83,0,0,0,.83-.83V14.57a.83.83,0,0,0-.83-.83Z"/><path d="M9.88,13.74A.75.75,0,0,1,9.13,13V6.21a3.28,3.28,0,1,0-6.56,0,.75.75,0,0,1-1.5,0,4.74,4.74,0,0,1,1.4-3.37A4.7,4.7,0,0,1,5.85,1.43a4.79,4.79,0,0,1,4.78,4.78V13A.76.76,0,0,1,9.88,13.74Z"/></g></svg>