<svg id="Layer_1" data-name="Layer 1" xmlns="http://www.w3.org/2000/svg" xmlns:xlink="http://www.w3.org/1999/xlink" viewBox="0 0 24 24"><defs><style>.cls-1{fill:none;}.cls-2{clip-path:url(#clip-path);}</style><clipPath id="clip-path"><rect class="cls-1" width="24" height="24"/></clipPath></defs><title>unlock</title><g class="cls-2"><path d="M18.75,22.57H5.25a2.33,2.33,0,0,1-2.33-2.33V14.57a2.33,2.33,0,0,1,2.33-2.33h13.5a2.33,2.33,0,0,1,2.33,2.33v5.67A2.33,2.33,0,0,1,18.75,22.57ZM5.25,13.74a.83.83,0,0,0-.83.83v5.67a.83.83,0,0,0,.83.83h13.5a.83.83,0,0,0,.83-.83V14.57a.83.83,0,0,0-.83-.83Z"/><path d="M8,13.74A.76.76,0,0,1,7.22,13V6.21A4.78,4.78,0,0,1,12,1.43a4.8,4.8,0,0,1,4.78,4.78.75.75,0,0,1-1.5,0A3.29,3.29,0,0,0,12,2.93,3.28,3.28,0,0,0,8.72,6.21V13A.76.76,0,0,1,8,13.74Z"/></g></svg>