<svg id="Layer_1" data-name="Layer 1" xmlns="http://www.w3.org/2000/svg" xmlns:xlink="http://www.w3.org/1999/xlink" viewBox="0 0 24 24"><defs><style>.cls-1{fill:none;}.cls-2{clip-path:url(#clip-path);}</style><clipPath id="clip-path"><rect class="cls-1" x="0.15" y="-0.06" width="24" height="24"/></clipPath></defs><title>USB</title><g class="cls-2"><path d="M15.48,22.75h-7a2.27,2.27,0,0,1-2.27-2.27V8A.76.76,0,0,1,7,7.25H17a.76.76,0,0,1,.75.75V20.48A2.27,2.27,0,0,1,15.48,22.75Zm-7.73-14V20.48a.78.78,0,0,0,.77.77h7a.78.78,0,0,0,.77-.77V8.75Z"/><path d="M15.25,7.75A.76.76,0,0,1,14.5,7V2.75h-5V7A.75.75,0,0,1,8,7V2a.76.76,0,0,1,.75-.75h6.5A.76.76,0,0,1,16,2V7A.76.76,0,0,1,15.25,7.75Z"/></g></svg>