<svg id="Layer_1" data-name="Layer 1" xmlns="http://www.w3.org/2000/svg" xmlns:xlink="http://www.w3.org/1999/xlink" viewBox="0 0 24 24"><defs><style>.cls-1{fill:none;}.cls-2{clip-path:url(#clip-path);}</style><clipPath id="clip-path"><rect class="cls-1" y="-0.03" width="24" height="24"/></clipPath></defs><title>user-external</title><g class="cls-2"><path d="M14.53,22.22A.74.74,0,0,1,14,22a.75.75,0,0,1,0-1.06l4.73-4.75a.75.75,0,1,1,1.07,1L15.06,22A.73.73,0,0,1,14.53,22.22Z"/><path d="M19.93,21.28a.74.74,0,0,1-.75-.75V16.81H15.44a.75.75,0,1,1,0-1.5h4.48a.62.62,0,0,1,.53.22.75.75,0,0,1,.22.53v4.47a.76.76,0,0,1-.75.75Z"/><path d="M13.07,13.28a5.75,5.75,0,1,1,5.75-5.75A5.76,5.76,0,0,1,13.07,13.28Zm0-10a4.25,4.25,0,1,0,4.25,4.25A4.26,4.26,0,0,0,13.07,3.28Z"/><path d="M4.07,21.28a.76.76,0,0,1-.75-.75,8.77,8.77,0,0,1,8.75-8.75h2a.75.75,0,0,1,0,1.5h-2a7.26,7.26,0,0,0-7.25,7.25A.75.75,0,0,1,4.07,21.28Z"/></g></svg>