<svg id="Layer_1" data-name="Layer 1" xmlns="http://www.w3.org/2000/svg" xmlns:xlink="http://www.w3.org/1999/xlink" viewBox="0 0 24 24"><defs><style>.cls-1{fill:none;}.cls-2{clip-path:url(#clip-path);}</style><clipPath id="clip-path"><rect class="cls-1" y="-0.08" width="24" height="24"/></clipPath></defs><title>user-tick</title><g class="cls-2"><path d="M11.5,13.25A5.75,5.75,0,1,1,17.25,7.5,5.76,5.76,0,0,1,11.5,13.25Zm0-10A4.25,4.25,0,1,0,15.75,7.5,4.26,4.26,0,0,0,11.5,3.25Z"/><path d="M2.5,21.25a.76.76,0,0,1-.75-.75,8.76,8.76,0,0,1,8.75-8.75h2a.75.75,0,0,1,0,1.5h-2A7.26,7.26,0,0,0,3.25,20.5.76.76,0,0,1,2.5,21.25Z"/><path d="M14.5,22.25A.75.75,0,0,1,14,22l-4-4A.75.75,0,0,1,11,17l3.43,3.43L20.94,13a.74.74,0,1,1,1.12,1l-7,8a.73.73,0,0,1-.53.26Z"/></g></svg>