<svg id="Layer_1" data-name="Layer 1" xmlns="http://www.w3.org/2000/svg" xmlns:xlink="http://www.w3.org/1999/xlink" viewBox="0 0 24 24"><defs><style>.cls-1{fill:none;}.cls-2{clip-path:url(#clip-path);}</style><clipPath id="clip-path"><rect class="cls-1" y="-0.08" width="24" height="24"/></clipPath></defs><title>user-terminal</title><g class="cls-2"><path d="M11.05,22.46a.74.74,0,0,1-.53-.22.75.75,0,0,1,0-1.06l1.81-1.8-2-2a.75.75,0,0,1,0-1.06.77.77,0,0,1,1.07,0l2.52,2.52a.76.76,0,0,1,0,1.07l-2.34,2.33A.71.71,0,0,1,11.05,22.46Z"/><path d="M12.17,13a5.75,5.75,0,1,1,5.75-5.75A5.76,5.76,0,0,1,12.17,13Zm0-10a4.25,4.25,0,1,0,4.25,4.25A4.26,4.26,0,0,0,12.17,3Z"/><path d="M3.17,21a.75.75,0,0,1-.75-.75,8.75,8.75,0,0,1,8.75-8.75h2a.75.75,0,1,1,0,1.5h-2a7.26,7.26,0,0,0-7.25,7.25A.76.76,0,0,1,3.17,21Z"/><path d="M20.83,20H16.77a.75.75,0,1,1,0-1.5h4.06a.75.75,0,0,1,0,1.5Z"/></g></svg>