<svg id="Layer_1" data-name="Layer 1" xmlns="http://www.w3.org/2000/svg" xmlns:xlink="http://www.w3.org/1999/xlink" viewBox="0 0 24 24"><defs><style>.cls-1{fill:none;}.cls-2{clip-path:url(#clip-path);}</style><clipPath id="clip-path"><rect class="cls-1" y="-0.03" width="24" height="24"/></clipPath></defs><title>user-plus</title><g class="cls-2"><path d="M12.25,12.25A5.75,5.75,0,1,1,18,6.5,5.76,5.76,0,0,1,12.25,12.25Zm0-10A4.25,4.25,0,1,0,16.5,6.5,4.26,4.26,0,0,0,12.25,2.25Z"/><path d="M3.25,20.25a.76.76,0,0,1-.75-.75,8.76,8.76,0,0,1,8.75-8.75h2a.75.75,0,0,1,0,1.5h-2A7.26,7.26,0,0,0,4,19.5.76.76,0,0,1,3.25,20.25Z"/><path d="M16.75,23.25A.76.76,0,0,1,16,22.5v-8a.75.75,0,0,1,1.5,0v8A.76.76,0,0,1,16.75,23.25Z"/><path d="M20.75,19.25h-8a.75.75,0,0,1,0-1.5h8a.75.75,0,0,1,0,1.5Z"/></g></svg>