<svg id="Layer_1" data-name="Layer 1" xmlns="http://www.w3.org/2000/svg" xmlns:xlink="http://www.w3.org/1999/xlink" viewBox="0 0 24 24"><defs><style>.cls-1{fill:none;}.cls-2{clip-path:url(#clip-path);}</style><clipPath id="clip-path"><rect class="cls-1" y="-0.03" width="24" height="24"/></clipPath></defs><title>user</title><g class="cls-2"><path d="M12,13.75A5.75,5.75,0,1,1,17.75,8,5.76,5.76,0,0,1,12,13.75Zm0-10A4.25,4.25,0,1,0,16.25,8,4.26,4.26,0,0,0,12,3.75Z"/><path d="M21,21.75a.76.76,0,0,1-.75-.75A7.26,7.26,0,0,0,13,13.75H11A7.26,7.26,0,0,0,3.75,21a.75.75,0,0,1-1.5,0A8.77,8.77,0,0,1,11,12.25h2A8.77,8.77,0,0,1,21.75,21,.76.76,0,0,1,21,21.75Z"/></g></svg>