<svg id="Layer_1" data-name="Layer 1" xmlns="http://www.w3.org/2000/svg" xmlns:xlink="http://www.w3.org/1999/xlink" viewBox="0 0 24 24"><defs><style>.cls-1{fill:none;}.cls-2{clip-path:url(#clip-path);}</style><clipPath id="clip-path"><rect class="cls-1" y="0.03" width="24" height="24"/></clipPath></defs><title>user-cross</title><g class="cls-2"><path d="M12.84,12.84a5.75,5.75,0,1,1,5.75-5.75A5.76,5.76,0,0,1,12.84,12.84Zm0-10a4.25,4.25,0,1,0,4.25,4.25A4.25,4.25,0,0,0,12.84,2.84Z"/><path d="M3.84,20.84a.75.75,0,0,1-.75-.75,8.75,8.75,0,0,1,8.75-8.75h2a.75.75,0,0,1,0,1.5h-2a7.26,7.26,0,0,0-7.25,7.25A.76.76,0,0,1,3.84,20.84Z"/><path d="M14.51,22.66a.73.73,0,0,1-.53-.22.74.74,0,0,1,0-1.06l5.65-5.65a.75.75,0,1,1,1.06,1.06L15,22.44A.74.74,0,0,1,14.51,22.66Z"/><path d="M20.16,22.66a.74.74,0,0,1-.53-.22L14,16.79A.75.75,0,1,1,15,15.73l5.65,5.65a.74.74,0,0,1,0,1.06A.71.71,0,0,1,20.16,22.66Z"/></g></svg>