<svg id="Layer_1" data-name="Layer 1" xmlns="http://www.w3.org/2000/svg" xmlns:xlink="http://www.w3.org/1999/xlink" viewBox="0 0 24 24"><defs><style>.cls-1{fill:none;}.cls-2{clip-path:url(#clip-path);}</style><clipPath id="clip-path"><rect class="cls-1" y="-0.03" width="24" height="24"/></clipPath></defs><title>user-export</title><g class="cls-2"><path d="M17,22.78a.75.75,0,0,1-.75-.75l0-6.71a.74.74,0,0,1,.75-.75h0a.75.75,0,0,1,.75.75l0,6.7a.76.76,0,0,1-.75.76Z"/><path d="M13.83,18.31a.74.74,0,0,1-.53-.22.75.75,0,0,1,0-1.06l3.16-3.17a.75.75,0,0,1,1.06,0L20.69,17a.75.75,0,0,1,0,1.06.75.75,0,0,1-1.06,0L17,15.45l-2.63,2.64A.73.73,0,0,1,13.83,18.31Z"/><path d="M12.84,12.72A5.75,5.75,0,1,1,18.59,7,5.75,5.75,0,0,1,12.84,12.72Zm0-10A4.25,4.25,0,1,0,17.09,7,4.26,4.26,0,0,0,12.84,2.72Z"/><path d="M3.84,20.72A.75.75,0,0,1,3.09,20a8.77,8.77,0,0,1,8.75-8.75h2a.75.75,0,0,1,0,1.5h-2A7.27,7.27,0,0,0,4.59,20,.74.74,0,0,1,3.84,20.72Z"/></g></svg>