<svg id="Layer_1" data-name="Layer 1" xmlns="http://www.w3.org/2000/svg" xmlns:xlink="http://www.w3.org/1999/xlink" viewBox="0 0 24 24"><defs><style>.cls-1{fill:none;}.cls-2{clip-path:url(#clip-path);}</style><clipPath id="clip-path"><rect class="cls-1" width="24" height="24"/></clipPath></defs><title>volume</title><g class="cls-2"><path d="M19,21a.76.76,0,0,1-.38-.11L9.46,15.5H5a.76.76,0,0,1-.75-.75V9.25A.76.76,0,0,1,5,8.5H9.46l9.16-5.38a.75.75,0,0,1,.75,0,.76.76,0,0,1,.38.65V20.24a.76.76,0,0,1-.38.65A.79.79,0,0,1,19,21ZM5.75,14H9.67a.75.75,0,0,1,.38.1l8.2,4.82V5.08L10.05,9.9a.75.75,0,0,1-.38.1H5.75Z"/></g></svg>