<svg id="Layer_1" data-name="Layer 1" xmlns="http://www.w3.org/2000/svg" xmlns:xlink="http://www.w3.org/1999/xlink" viewBox="0 0 24 24"><defs><style>.cls-1{fill:none;}.cls-2{clip-path:url(#clip-path);}</style><clipPath id="clip-path"><rect class="cls-1" y="-0.06" width="24" height="24"/></clipPath></defs><title>volume-slash</title><g class="cls-2"><path d="M16.5,21a.76.76,0,0,1-.38-.11L7,15.5H2.5a.76.76,0,0,1-.75-.75V9.25A.76.76,0,0,1,2.5,8.5H7l9.16-5.38a.75.75,0,0,1,.75,0,.76.76,0,0,1,.38.65V20.24a.76.76,0,0,1-.38.65A.79.79,0,0,1,16.5,21ZM3.25,14H7.17a.75.75,0,0,1,.38.1l8.2,4.82V5.08L7.55,9.9a.75.75,0,0,1-.38.1H3.25Z"/><path d="M21.5,21.75a.74.74,0,0,1-.53-.22L3,3.53A.75.75,0,0,1,4,2.47l18,18a.75.75,0,0,1,0,1.06A.74.74,0,0,1,21.5,21.75Z"/></g></svg>