<svg id="Layer_1" data-name="Layer 1" xmlns="http://www.w3.org/2000/svg" xmlns:xlink="http://www.w3.org/1999/xlink" viewBox="0 0 24 24"><defs><style>.cls-1{fill:none;}.cls-2{clip-path:url(#clip-path);}</style><clipPath id="clip-path"><rect class="cls-1" y="-0.06" width="24" height="24"/></clipPath></defs><title>webpage-alt6</title><g class="cls-2"><path d="M17.14,23.1H6.86a3.63,3.63,0,0,1-3.63-3.62v-15A3.63,3.63,0,0,1,6.86.9H17.14a3.63,3.63,0,0,1,3.63,3.62v15A3.63,3.63,0,0,1,17.14,23.1ZM6.86,2.4A2.13,2.13,0,0,0,4.73,4.52v15A2.13,2.13,0,0,0,6.86,21.6H17.14a2.13,2.13,0,0,0,2.13-2.12v-15A2.13,2.13,0,0,0,17.14,2.4Z"/><path d="M14.18,10.88H10.1A2.75,2.75,0,0,1,7.35,8.13V7.52A2.75,2.75,0,0,1,10.1,4.77h4.08a2.75,2.75,0,0,1,2.75,2.75v.61A2.75,2.75,0,0,1,14.18,10.88ZM10.1,6.27A1.25,1.25,0,0,0,8.85,7.52v.61A1.26,1.26,0,0,0,10.1,9.38h4.08a1.26,1.26,0,0,0,1.25-1.25V7.52a1.25,1.25,0,0,0-1.25-1.25Z"/><path d="M16.17,18.58H8.09a.75.75,0,0,1,0-1.5h8.08a.75.75,0,0,1,0,1.5Z"/><path d="M16.07,14.5H8A.75.75,0,0,1,8,13h8.08a.75.75,0,0,1,0,1.5Z"/></g></svg>