<svg id="Layer_1" data-name="Layer 1" xmlns="http://www.w3.org/2000/svg" xmlns:xlink="http://www.w3.org/1999/xlink" viewBox="0 0 24 24"><defs><style>.cls-1{fill:none;}.cls-2{clip-path:url(#clip-path);}</style><clipPath id="clip-path"><rect class="cls-1" width="24" height="24"/></clipPath></defs><title>webpage-alt</title><g class="cls-2"><path d="M14,14H10a2.75,2.75,0,0,1-2.75-2.75V6.52A2.75,2.75,0,0,1,10,3.77H14a2.75,2.75,0,0,1,2.75,2.75v4.71A2.75,2.75,0,0,1,14,14ZM10,5.27A1.25,1.25,0,0,0,8.71,6.52v4.71A1.25,1.25,0,0,0,10,12.48H14a1.25,1.25,0,0,0,1.25-1.25V6.52A1.25,1.25,0,0,0,14,5.27Z"/><path d="M16,17.07H7.92a.75.75,0,0,1,0-1.5H16a.75.75,0,0,1,0,1.5Z"/><path d="M16,20.15H8a.75.75,0,0,1,0-1.5H16a.75.75,0,0,1,0,1.5Z"/><path d="M17.14,23.1H6.86a3.63,3.63,0,0,1-3.63-3.62v-15A3.63,3.63,0,0,1,6.86.9H17.14a3.63,3.63,0,0,1,3.63,3.62v15A3.63,3.63,0,0,1,17.14,23.1ZM6.86,2.4A2.13,2.13,0,0,0,4.73,4.52v15A2.13,2.13,0,0,0,6.86,21.6H17.14a2.13,2.13,0,0,0,2.13-2.12v-15A2.13,2.13,0,0,0,17.14,2.4Z"/></g></svg>