<svg id="Layer_1" data-name="Layer 1" xmlns="http://www.w3.org/2000/svg" xmlns:xlink="http://www.w3.org/1999/xlink" viewBox="0 0 24 24"><defs><style>.cls-1{fill:none;}.cls-2{clip-path:url(#clip-path);}</style><clipPath id="clip-path"><rect class="cls-1" y="0.06" width="24" height="24"/></clipPath></defs><title>webpage-alt4</title><g class="cls-2"><path d="M15.66,23.11H5.38a3.64,3.64,0,0,1-3.63-3.63v-15A3.64,3.64,0,0,1,5.38.89H15.66a3.64,3.64,0,0,1,3.63,3.63.75.75,0,0,1-1.5,0,2.13,2.13,0,0,0-2.13-2.13H5.38A2.14,2.14,0,0,0,3.25,4.52v15a2.14,2.14,0,0,0,2.13,2.13H15.66a2.13,2.13,0,0,0,2.13-2.13V14.22a.75.75,0,1,1,1.5,0v5.26A3.64,3.64,0,0,1,15.66,23.11Z"/><path d="M18.4,15H8.76a3.84,3.84,0,0,1-3.84-3.84V8.62A3.85,3.85,0,0,1,8.76,4.77H18.4a3.86,3.86,0,0,1,3.85,3.85v2.52A3.85,3.85,0,0,1,18.4,15ZM8.76,6.27A2.35,2.35,0,0,0,6.42,8.62v2.52a2.34,2.34,0,0,0,2.34,2.34H18.4a2.35,2.35,0,0,0,2.35-2.34V8.62A2.35,2.35,0,0,0,18.4,6.27Z"/><path d="M14.67,19.07H6.58a.75.75,0,1,1,0-1.5h8.09a.75.75,0,1,1,0,1.5Z"/></g></svg>