<svg id="Layer_1" data-name="Layer 1" xmlns="http://www.w3.org/2000/svg" xmlns:xlink="http://www.w3.org/1999/xlink" viewBox="0 0 24 24"><defs><style>.cls-1{fill:none;}.cls-2{clip-path:url(#clip-path);}</style><clipPath id="clip-path"><rect class="cls-1" width="24" height="24"/></clipPath></defs><title>webpage</title><g class="cls-2"><path d="M15.66,23.1H5.38a3.63,3.63,0,0,1-3.63-3.62v-15A3.63,3.63,0,0,1,5.38.9H15.66a3.63,3.63,0,0,1,3.63,3.62.75.75,0,0,1-1.5,0A2.12,2.12,0,0,0,15.66,2.4H5.38A2.13,2.13,0,0,0,3.25,4.52v15A2.13,2.13,0,0,0,5.38,21.6H15.66a2.12,2.12,0,0,0,2.13-2.12V13.23a.75.75,0,0,1,1.5,0v6.25A3.63,3.63,0,0,1,15.66,23.1Z"/><path d="M18.4,14H8.76a3.84,3.84,0,0,1-3.84-3.84V7.62A3.85,3.85,0,0,1,8.76,3.77H18.4a3.86,3.86,0,0,1,3.85,3.85v2.52A3.85,3.85,0,0,1,18.4,14ZM8.76,5.27A2.35,2.35,0,0,0,6.42,7.62v2.52a2.34,2.34,0,0,0,2.34,2.34H18.4a2.35,2.35,0,0,0,2.35-2.34V7.62A2.35,2.35,0,0,0,18.4,5.27Z"/><path d="M14.66,17.07H6.58a.75.75,0,1,1,0-1.5h8.08a.75.75,0,0,1,0,1.5Z"/><path d="M14.71,20.15H6.62a.75.75,0,0,1,0-1.5h8.09a.75.75,0,0,1,0,1.5Z"/></g></svg>