<svg id="Layer_1" data-name="Layer 1" xmlns="http://www.w3.org/2000/svg" xmlns:xlink="http://www.w3.org/1999/xlink" viewBox="0 0 24 24"><defs><style>.cls-1{fill:none;}.cls-2{clip-path:url(#clip-path);}</style><clipPath id="clip-path"><rect class="cls-1" y="-0.06" width="24" height="24"/></clipPath></defs><title>window-code</title><g class="cls-2"><path d="M19.08,20.63H4.92a3.76,3.76,0,0,1-3.75-3.75V7.13A3.75,3.75,0,0,1,4.92,3.38H19.08a3.75,3.75,0,0,1,3.75,3.75v9.75A3.76,3.76,0,0,1,19.08,20.63ZM4.92,4.88A2.25,2.25,0,0,0,2.67,7.13v9.75a2.25,2.25,0,0,0,2.25,2.25H19.08a2.25,2.25,0,0,0,2.25-2.25V7.13a2.25,2.25,0,0,0-2.25-2.25Z"/><path d="M5.6,8.52a1,1,0,1,1,1-1A1,1,0,0,1,5.6,8.52ZM5.6,7a.46.46,0,0,0-.46.46A.47.47,0,1,0,5.6,7Z"/><path d="M9.48,8.52a1,1,0,1,1,1-1A1,1,0,0,1,9.48,8.52Zm0-1.5A.45.45,0,0,0,9,7.48a.46.46,0,0,0,.46.46.47.47,0,0,0,.46-.46A.46.46,0,0,0,9.48,7Z"/><path d="M13.35,8.52a1,1,0,1,1,1-1A1,1,0,0,1,13.35,8.52Zm0-1.5a.46.46,0,0,0-.46.46A.47.47,0,1,0,13.35,7Z"/><path d="M14.75,16.44a.74.74,0,0,1-.53-.22.75.75,0,0,1,0-1.06l1.46-1.46-1.62-1.62A.75.75,0,0,1,15.12,11l2.15,2.15a.75.75,0,0,1,0,1.06l-2,2A.71.71,0,0,1,14.75,16.44Z"/><path d="M9.65,16.44a.74.74,0,0,1-.53-.22l-2-2a.75.75,0,0,1,0-1.06L9.28,11a.75.75,0,0,1,1.06,0,.74.74,0,0,1,0,1.06L8.72,13.7l1.46,1.46a.74.74,0,0,1,0,1.06A.71.71,0,0,1,9.65,16.44Z"/></g></svg>