<svg id="Layer_1" data-name="Layer 1" xmlns="http://www.w3.org/2000/svg" xmlns:xlink="http://www.w3.org/1999/xlink" viewBox="0 0 24 24"><defs><style>.cls-1{fill:none;}.cls-2{clip-path:url(#clip-path);}</style><clipPath id="clip-path"><rect class="cls-1" x="0.15" y="-0.06" width="24" height="24"/></clipPath></defs><title>apps</title><g class="cls-2"><path d="M9.15,11h-5A1.68,1.68,0,0,1,2.47,9.33v-5A1.69,1.69,0,0,1,4.15,2.65h5a1.69,1.69,0,0,1,1.68,1.68v5A1.68,1.68,0,0,1,9.15,11Zm-5-7.36a.69.69,0,0,0-.68.68v5a.68.68,0,0,0,.68.68h5a.68.68,0,0,0,.68-.68v-5a.69.69,0,0,0-.68-.68Z"/><path d="M19.85,11h-5a1.68,1.68,0,0,1-1.68-1.68v-5a1.69,1.69,0,0,1,1.68-1.68h5a1.69,1.69,0,0,1,1.68,1.68v5A1.68,1.68,0,0,1,19.85,11Zm-5-7.36a.69.69,0,0,0-.68.68v5a.68.68,0,0,0,.68.68h5a.68.68,0,0,0,.68-.68v-5a.69.69,0,0,0-.68-.68Z"/><path d="M9.15,21.35h-5a1.69,1.69,0,0,1-1.68-1.68v-5A1.68,1.68,0,0,1,4.15,13h5a1.68,1.68,0,0,1,1.68,1.68v5A1.69,1.69,0,0,1,9.15,21.35ZM4.15,14a.68.68,0,0,0-.68.68v5a.69.69,0,0,0,.68.68h5a.69.69,0,0,0,.68-.68v-5A.68.68,0,0,0,9.15,14Z"/><path d="M19.85,21.35h-5a1.69,1.69,0,0,1-1.68-1.68v-5A1.68,1.68,0,0,1,14.85,13h5a1.68,1.68,0,0,1,1.68,1.68v5A1.69,1.69,0,0,1,19.85,21.35Zm-5-7.36a.68.68,0,0,0-.68.68v5a.69.69,0,0,0,.68.68h5a.69.69,0,0,0,.68-.68v-5a.68.68,0,0,0-.68-.68Z"/></g></svg>