<svg id="Layer_1" data-name="Layer 1" xmlns="http://www.w3.org/2000/svg" xmlns:xlink="http://www.w3.org/1999/xlink" viewBox="0 0 24 24"><defs><style>.cls-1{fill:none;}.cls-2{clip-path:url(#clip-path);}</style><clipPath id="clip-path"><rect class="cls-1" y="-0.08" width="24" height="24"/></clipPath></defs><title>archive-open</title><g class="cls-2"><path d="M16,21.5H8A3.5,3.5,0,0,1,4.5,18V12A3.5,3.5,0,0,1,8,8.5h8A3.5,3.5,0,0,1,19.5,12v6A3.5,3.5,0,0,1,16,21.5ZM8,9.5A2.5,2.5,0,0,0,5.5,12v6A2.5,2.5,0,0,0,8,20.5h8A2.5,2.5,0,0,0,18.5,18V12A2.5,2.5,0,0,0,16,9.5Z"/><path d="M6,6.5a.51.51,0,0,1-.49-.38.5.5,0,0,1,.37-.6l12-3a.5.5,0,0,1,.61.36.5.5,0,0,1-.37.6l-12,3A.25.25,0,0,1,6,6.5Z"/><path d="M13,12.5H11a.5.5,0,0,1,0-1h2a.5.5,0,0,1,0,1Z"/></g></svg>