<svg id="Layer_1" data-name="Layer 1" xmlns="http://www.w3.org/2000/svg" xmlns:xlink="http://www.w3.org/1999/xlink" viewBox="0 0 24 24"><defs><style>.cls-1{fill:none;}.cls-2{clip-path:url(#clip-path);}</style><clipPath id="clip-path"><rect class="cls-1" x="0.15" y="-0.08" width="24" height="24"/></clipPath></defs><title>archive</title><g class="cls-2"><path d="M16,20H8a3.5,3.5,0,0,1-3.5-3.5v-6A3.5,3.5,0,0,1,8,7h8a3.5,3.5,0,0,1,3.5,3.5v6A3.5,3.5,0,0,1,16,20ZM8,8a2.5,2.5,0,0,0-2.5,2.5v6A2.5,2.5,0,0,0,8,19h8a2.5,2.5,0,0,0,2.5-2.5v-6A2.5,2.5,0,0,0,16,8Z"/><path d="M18,5H6A.5.5,0,0,1,6,4H18a.5.5,0,0,1,0,1Z"/><path d="M13,11H11a.5.5,0,0,1,0-1h2a.5.5,0,0,1,0,1Z"/></g></svg>