<svg id="Layer_1" data-name="Layer 1" xmlns="http://www.w3.org/2000/svg" xmlns:xlink="http://www.w3.org/1999/xlink" viewBox="0 0 24 24"><defs><style>.cls-1{fill:none;}.cls-2{clip-path:url(#clip-path);}</style><clipPath id="clip-path"><rect class="cls-1" width="24" height="24"/></clipPath></defs><title>arrow-double-right</title><g class="cls-2"><path d="M3.51,21.5a1.51,1.51,0,0,1-.68-.16A1.49,1.49,0,0,1,2,20V4a1.51,1.51,0,0,1,.84-1.35,1.47,1.47,0,0,1,1.56.16L9.14,6.35a.51.51,0,0,1,.1.7.5.5,0,0,1-.7.1L3.8,3.6A.5.5,0,0,0,3,4V20a.5.5,0,0,0,.8.4l4.74-3.55a.5.5,0,1,1,.6.8L4.4,21.2A1.47,1.47,0,0,1,3.51,21.5Z"/><path d="M9.84,21.5a1.51,1.51,0,0,1-.68-.16A1.48,1.48,0,0,1,8.34,20V4a1.47,1.47,0,0,1,.83-1.34,1.49,1.49,0,0,1,1.57.14l10.66,8a1.5,1.5,0,0,1,0,2.4l-10.66,8A1.52,1.52,0,0,1,9.84,21.5Zm0-18a.59.59,0,0,0-.23,0A.5.5,0,0,0,9.34,4V20a.5.5,0,0,0,.27.45.49.49,0,0,0,.53-.05l10.66-8A.48.48,0,0,0,21,12a.49.49,0,0,0-.2-.4l-10.66-8A.49.49,0,0,0,9.84,3.5Z"/></g></svg>