<svg id="Layer_1" data-name="Layer 1" xmlns="http://www.w3.org/2000/svg" xmlns:xlink="http://www.w3.org/1999/xlink" viewBox="0 0 24 24"><defs><style>.cls-1{fill:none;}.cls-2{clip-path:url(#clip-path);}</style><clipPath id="clip-path"><rect class="cls-1" width="24" height="24"/></clipPath></defs><title>arrow-curve</title><g class="cls-2"><path d="M5.19,22.22a.41.41,0,0,1-.19,0,.5.5,0,0,1-.31-.46V10.78c0-5.86,6-6,6.05-6h9.79L18.37,2.63a.5.5,0,0,1,0-.7.5.5,0,0,1,.71,0l3,3a.51.51,0,0,1,.1.55.48.48,0,0,1-.46.31h-11c-.2,0-5,.12-5,5v9.73l2.06-2.06a.5.5,0,0,1,.71,0,.48.48,0,0,1,0,.7L5.54,22.07A.49.49,0,0,1,5.19,22.22Z"/><path d="M18.81,8.71a.5.5,0,0,1-.35-.15.5.5,0,0,1,0-.71l2.92-2.92a.5.5,0,0,1,.71.71L19.17,8.56A.51.51,0,0,1,18.81,8.71Z"/><path d="M5.19,22.22a.51.51,0,0,1-.36-.15L1.91,19.15a.5.5,0,0,1,0-.7.5.5,0,0,1,.71,0l2.92,2.92a.5.5,0,0,1-.35.85Z"/></g></svg>