<svg id="Layer_1" data-name="Layer 1" xmlns="http://www.w3.org/2000/svg" xmlns:xlink="http://www.w3.org/1999/xlink" viewBox="0 0 24 24"><defs><style>.cls-1{fill:none;}.cls-2{clip-path:url(#clip-path);}</style><clipPath id="clip-path"><rect class="cls-1" width="24" height="24"/></clipPath></defs><title>arrow-block-down</title><g class="cls-2"><path d="M12,21.49a.51.51,0,0,1-.36-.15l-8-8A.5.5,0,0,1,4,12.51H7.55V3a.5.5,0,0,1,.5-.5h8a.5.5,0,0,1,.5.5v9.5l3.44,0h0a.51.51,0,0,1,.36.86l-8,8A.5.5,0,0,1,12,21.49Zm-6.78-8L12,20.28l6.79-6.79-2.73,0a.55.55,0,0,1-.35-.14.51.51,0,0,1-.15-.36V3.51h-7V13a.5.5,0,0,1-.5.5Z"/></g></svg>