<svg id="Layer_1" data-name="Layer 1" xmlns="http://www.w3.org/2000/svg" xmlns:xlink="http://www.w3.org/1999/xlink" viewBox="0 0 24 24"><defs><style>.cls-1{fill:none;}.cls-2{clip-path:url(#clip-path);}</style><clipPath id="clip-path"><rect class="cls-1" width="24" height="24"/></clipPath></defs><title>arrow-double-down</title><g class="cls-2"><path d="M17.25,9.34a.47.47,0,0,1-.3-.1.5.5,0,0,1-.1-.7L20.4,3.8A.5.5,0,0,0,20,3H4a.5.5,0,0,0-.4.8L7.15,8.54a.5.5,0,1,1-.8.6L2.8,4.4A1.5,1.5,0,0,1,4,2H20a1.51,1.51,0,0,1,1.35.84,1.47,1.47,0,0,1-.16,1.56L17.65,9.14A.51.51,0,0,1,17.25,9.34Z"/><path d="M12,22a1.49,1.49,0,0,1-1.2-.6l-8-10.66a1.49,1.49,0,0,1-.14-1.57A1.47,1.47,0,0,1,4,8.34H20a1.5,1.5,0,0,1,1.2,2.4l-8,10.66A1.49,1.49,0,0,1,12,22ZM4,9.34a.5.5,0,0,0-.45.27.51.51,0,0,0,.05.53l8,10.66a.51.51,0,0,0,.8,0l8-10.66a.51.51,0,0,0,.05-.53A.5.5,0,0,0,20,9.34Z"/></g></svg>