<svg id="Layer_1" data-name="Layer 1" xmlns="http://www.w3.org/2000/svg" xmlns:xlink="http://www.w3.org/1999/xlink" viewBox="0 0 24 24"><defs><style>.cls-1{fill:none;}.cls-2{clip-path:url(#clip-path);}</style><clipPath id="clip-path"><rect class="cls-1" width="24" height="24"/></clipPath></defs><title>arrow-left</title><g class="cls-2"><path d="M17.33,21.5a1.5,1.5,0,0,1-.9-.3l-10.66-8a1.5,1.5,0,0,1,0-2.4l10.66-8A1.49,1.49,0,0,1,18,2.66,1.47,1.47,0,0,1,18.83,4V20A1.47,1.47,0,0,1,18,21.34,1.44,1.44,0,0,1,17.33,21.5Zm0-18a.49.49,0,0,0-.3.1l-10.66,8a.5.5,0,0,0,0,.8L17,20.4a.51.51,0,0,0,.53.05.5.5,0,0,0,.27-.45V4a.5.5,0,0,0-.27-.45A.59.59,0,0,0,17.33,3.5Z"/></g></svg>