<svg id="Layer_1" data-name="Layer 1" xmlns="http://www.w3.org/2000/svg" xmlns:xlink="http://www.w3.org/1999/xlink" viewBox="0 0 24 24"><defs><style>.cls-1{fill:none;}.cls-2{clip-path:url(#clip-path);}</style><clipPath id="clip-path"><rect class="cls-1" width="24" height="24"/></clipPath></defs><title>arrow-double-up</title><g class="cls-2"><path d="M20,22H4a1.51,1.51,0,0,1-1.35-.84,1.47,1.47,0,0,1,.16-1.56l3.54-4.74a.51.51,0,0,1,.7-.1.5.5,0,0,1,.1.7L3.6,20.2A.5.5,0,0,0,4,21H20a.5.5,0,0,0,.4-.8l-3.55-4.74a.5.5,0,1,1,.8-.6L21.2,19.6A1.5,1.5,0,0,1,20,22Z"/><path d="M20,15.66H4a1.47,1.47,0,0,1-1.34-.83,1.49,1.49,0,0,1,.14-1.57l8-10.66A1.49,1.49,0,0,1,12,2h0a1.49,1.49,0,0,1,1.2.6l8,10.66a1.49,1.49,0,0,1,.14,1.57A1.47,1.47,0,0,1,20,15.66ZM12,3a.49.49,0,0,0-.4.2l-8,10.66a.53.53,0,0,0-.05.53.5.5,0,0,0,.45.27H20a.5.5,0,0,0,.45-.27.51.51,0,0,0-.05-.53L12.4,3.2A.48.48,0,0,0,12,3Z"/></g></svg>