<svg id="Layer_1" data-name="Layer 1" xmlns="http://www.w3.org/2000/svg" xmlns:xlink="http://www.w3.org/1999/xlink" viewBox="0 0 24 24"><defs><style>.cls-1{fill:none;}.cls-2{clip-path:url(#clip-path);}</style><clipPath id="clip-path"><rect class="cls-1" y="-0.04" width="24" height="24"/></clipPath></defs><title>arrow-dot-left</title><g class="cls-2"><path d="M4.18,12.51a.5.5,0,0,1-.5-.5.5.5,0,0,1,.5-.5l12.81,0h0a.51.51,0,0,1,.5.5.5.5,0,0,1-.5.5l-12.82,0Z"/><path d="M7.55,17.25a.47.47,0,0,1-.35-.14L2.43,12.37a.51.51,0,0,1,0-.71L7.17,6.89a.51.51,0,0,1,.71,0,.5.5,0,0,1,0,.71L3.49,12,7.9,16.4a.5.5,0,0,1,0,.71A.5.5,0,0,1,7.55,17.25Z"/><path d="M19.11,14.57A2.61,2.61,0,1,1,21.72,12,2.61,2.61,0,0,1,19.11,14.57Zm0-4.22A1.61,1.61,0,1,0,20.72,12,1.61,1.61,0,0,0,19.11,10.35Z"/></g></svg>