<svg id="Layer_1" data-name="Layer 1" xmlns="http://www.w3.org/2000/svg" xmlns:xlink="http://www.w3.org/1999/xlink" viewBox="0 0 24 24"><defs><style>.cls-1{fill:none;}.cls-2{clip-path:url(#clip-path);}</style><clipPath id="clip-path"><rect class="cls-1" width="24" height="24"/></clipPath></defs><title>arrow-dot-up</title><g class="cls-2"><path d="M12,17.5a.5.5,0,0,1-.5-.5l0-12.82a.5.5,0,0,1,.5-.5h0a.5.5,0,0,1,.5.5l0,12.82a.51.51,0,0,1-.5.5Z"/><path d="M7.24,8.05a.54.54,0,0,1-.35-.14.51.51,0,0,1,0-.71l4.74-4.77a.51.51,0,0,1,.71,0l4.77,4.74a.51.51,0,0,1,0,.71.5.5,0,0,1-.71,0L12,3.49,7.6,7.9A.51.51,0,0,1,7.24,8.05Z"/><path d="M12,21.71a2.61,2.61,0,1,1,2.61-2.6A2.61,2.61,0,0,1,12,21.71Zm0-4.21a1.61,1.61,0,1,0,1.61,1.61A1.61,1.61,0,0,0,12,17.5Z"/></g></svg>