<svg id="Layer_1" data-name="Layer 1" xmlns="http://www.w3.org/2000/svg" xmlns:xlink="http://www.w3.org/1999/xlink" viewBox="0 0 24 24"><defs><style>.cls-1{fill:none;}.cls-2{clip-path:url(#clip-path);}</style><clipPath id="clip-path"><rect class="cls-1" width="24" height="24"/></clipPath></defs><title>arrow-right-double</title><g class="cls-2"><path d="M16,16.46a.47.47,0,0,1-.35-.15.5.5,0,0,1,0-.71l3.1-3.1H8.1a.5.5,0,0,1,0-1H19.94a.5.5,0,0,1,.46.31.49.49,0,0,1-.11.54l-4,4A.47.47,0,0,1,16,16.46Z"/><path d="M19.94,12.5a.51.51,0,0,1-.36-.15L15.63,8.4a.5.5,0,0,1,0-.71.48.48,0,0,1,.7,0l4,4a.5.5,0,0,1-.35.85Z"/><path d="M8.1,16.46a.51.51,0,0,1-.5-.5V8a.51.51,0,0,1,.5-.5.5.5,0,0,1,.5.5V16A.5.5,0,0,1,8.1,16.46Z"/><path d="M4.06,16.46a.51.51,0,0,1-.5-.5V8a.51.51,0,0,1,.5-.5.5.5,0,0,1,.5.5V16A.5.5,0,0,1,4.06,16.46Z"/></g></svg>