<svg id="Layer_1" data-name="Layer 1" xmlns="http://www.w3.org/2000/svg" xmlns:xlink="http://www.w3.org/1999/xlink" viewBox="0 0 24 24"><defs><style>.cls-1{fill:none;}.cls-2{clip-path:url(#clip-path);}</style><clipPath id="clip-path"><rect class="cls-1" width="24" height="24"/></clipPath></defs><title>arrow-45</title><g class="cls-2"><path d="M5.57,19a.47.47,0,0,1-.35-.14.5.5,0,0,1,0-.71L17.05,6.21a.5.5,0,0,1,.7,0,.5.5,0,0,1,0,.71L5.92,18.81A.5.5,0,0,1,5.57,19Z"/><path d="M18.43,13a.5.5,0,0,1-.5-.5l0-6.44H11.47a.5.5,0,0,1-.5-.5.5.5,0,0,1,.5-.5h6.94a.54.54,0,0,1,.36.14.52.52,0,0,1,.14.35l0,7a.5.5,0,0,1-.5.5Z"/></g></svg>