<svg id="Layer_1" data-name="Layer 1" xmlns="http://www.w3.org/2000/svg" xmlns:xlink="http://www.w3.org/1999/xlink" viewBox="0 0 24 24"><defs><style>.cls-1{fill:none;}.cls-2{clip-path:url(#clip-path);}</style><clipPath id="clip-path"><rect class="cls-1" y="-0.04" width="24" height="24"/></clipPath></defs><title>arrow-up</title><g class="cls-2"><path d="M20,18.83H4A1.47,1.47,0,0,1,2.66,18a1.49,1.49,0,0,1,.14-1.57l8-10.66a1.54,1.54,0,0,1,2.4,0l8,10.66A1.49,1.49,0,0,1,21.34,18,1.47,1.47,0,0,1,20,18.83ZM12,6.17a.48.48,0,0,0-.4.2L3.6,17a.51.51,0,0,0-.05.53.5.5,0,0,0,.45.27H20a.5.5,0,0,0,.45-.27A.51.51,0,0,0,20.4,17l-8-10.66A.48.48,0,0,0,12,6.17Z"/></g></svg>