<svg id="Layer_1" data-name="Layer 1" xmlns="http://www.w3.org/2000/svg" xmlns:xlink="http://www.w3.org/1999/xlink" viewBox="0 0 24 24"><defs><style>.cls-1{fill:none;}.cls-2{clip-path:url(#clip-path);}</style><clipPath id="clip-path"><rect class="cls-1" width="24" height="24"/></clipPath></defs><title>arrow-left-double</title><g class="cls-2"><path d="M15.9,12.5H4.06a.5.5,0,0,1-.46-.31.49.49,0,0,1,.11-.54l4-4a.48.48,0,0,1,.7,0,.5.5,0,0,1,0,.71l-3.1,3.1H15.9a.5.5,0,0,1,0,1Z"/><path d="M8,16.46a.49.49,0,0,1-.35-.15l-4-4a.48.48,0,0,1,0-.7.5.5,0,0,1,.71,0L8.37,15.6a.5.5,0,0,1,0,.71A.47.47,0,0,1,8,16.46Z"/><path d="M15.9,16.46a.5.5,0,0,1-.5-.5V8a.5.5,0,0,1,.5-.5.51.51,0,0,1,.5.5V16A.51.51,0,0,1,15.9,16.46Z"/><path d="M19.94,16.46a.5.5,0,0,1-.5-.5V8a.5.5,0,0,1,.5-.5.51.51,0,0,1,.5.5V16A.51.51,0,0,1,19.94,16.46Z"/></g></svg>