<svg id="Layer_1" data-name="Layer 1" xmlns="http://www.w3.org/2000/svg" xmlns:xlink="http://www.w3.org/1999/xlink" viewBox="0 0 24 24"><defs><style>.cls-1{fill:none;}.cls-2{clip-path:url(#clip-path);}</style><clipPath id="clip-path"><rect class="cls-1" width="24" height="24"/></clipPath></defs><title>arrow-double</title><g class="cls-2"><path d="M3.09,12.54a.51.51,0,0,1-.5-.5.5.5,0,0,1,.5-.5l16.77,0h0a.5.5,0,0,1,.5.5.5.5,0,0,1-.5.5l-16.77,0Z"/><path d="M16.41,17.41a.54.54,0,0,1-.36-.14.51.51,0,0,1,0-.71L20.6,12,16,7.45a.5.5,0,0,1,0-.71.5.5,0,0,1,.7,0l4.92,4.9a.47.47,0,0,1,.15.35.5.5,0,0,1-.14.35l-4.9,4.92A.5.5,0,0,1,16.41,17.41Z"/><path d="M7.62,17.41a.47.47,0,0,1-.35-.15l-4.92-4.9A.47.47,0,0,1,2.2,12a.5.5,0,0,1,.14-.35l4.9-4.92a.5.5,0,0,1,.71,0,.51.51,0,0,1,0,.71L3.4,12,8,16.55a.5.5,0,0,1,0,.71A.47.47,0,0,1,7.62,17.41Z"/></g></svg>