<svg id="Layer_1" data-name="Layer 1" xmlns="http://www.w3.org/2000/svg" xmlns:xlink="http://www.w3.org/1999/xlink" viewBox="0 0 24 24"><defs><style>.cls-1{fill:none;}.cls-2{clip-path:url(#clip-path);}</style><clipPath id="clip-path"><rect class="cls-1" width="24" height="24"/></clipPath></defs><title>arrow-block-left</title><g class="cls-2"><path d="M11,20.49a.54.54,0,0,1-.36-.14l-8-8a.5.5,0,0,1,0-.71l8-8a.5.5,0,0,1,.85.36V7.55H21a.5.5,0,0,1,.5.5v8a.5.5,0,0,1-.5.5h-9.5l0,3.44a.49.49,0,0,1-.31.46A.43.43,0,0,1,11,20.49ZM3.72,12l6.79,6.79,0-2.73a.51.51,0,0,1,.5-.5h9.5v-7H11a.5.5,0,0,1-.5-.5V5.21Z"/></g></svg>