<svg id="Layer_1" data-name="Layer 1" xmlns="http://www.w3.org/2000/svg" xmlns:xlink="http://www.w3.org/1999/xlink" viewBox="0 0 24 24"><defs><style>.cls-1{fill:none;}.cls-2{clip-path:url(#clip-path);}</style><clipPath id="clip-path"><rect class="cls-1" width="24" height="24"/></clipPath></defs><title>arrow-down</title><g class="cls-2"><path d="M12,18.83a1.46,1.46,0,0,1-1.2-.6L2.8,7.57A1.49,1.49,0,0,1,2.66,6,1.47,1.47,0,0,1,4,5.17H20A1.47,1.47,0,0,1,21.34,6a1.49,1.49,0,0,1-.14,1.57l-8,10.66A1.46,1.46,0,0,1,12,18.83ZM4,6.17a.5.5,0,0,0-.45.27A.51.51,0,0,0,3.6,7l8,10.66a.51.51,0,0,0,.8,0L20.4,7a.51.51,0,0,0,.05-.53A.5.5,0,0,0,20,6.17Z"/></g></svg>