<svg id="Layer_1" data-name="Layer 1" xmlns="http://www.w3.org/2000/svg" xmlns:xlink="http://www.w3.org/1999/xlink" viewBox="0 0 24 24"><defs><style>.cls-1{fill:none;}.cls-2{clip-path:url(#clip-path);}</style><clipPath id="clip-path"><rect class="cls-1" width="24" height="24"/></clipPath></defs><title>arrow-double-slash</title><g class="cls-2"><path d="M3.09,12.83a.5.5,0,0,1-.5-.5.51.51,0,0,1,.5-.5l16.77,0h0a.5.5,0,0,1,0,1l-16.77,0Z"/><path d="M16.41,17.71a.51.51,0,0,1-.36-.15.51.51,0,0,1,0-.71l4.55-4.56L16,7.74A.48.48,0,0,1,16,7a.49.49,0,0,1,.7,0l4.92,4.9a.5.5,0,0,1,0,.71l-4.9,4.92A.5.5,0,0,1,16.41,17.71Z"/><path d="M7.62,17.7a.47.47,0,0,1-.35-.15L2.35,12.66a.49.49,0,0,1-.15-.36A.5.5,0,0,1,2.34,12L7.24,7A.5.5,0,0,1,8,7a.5.5,0,0,1,0,.7L3.4,12.3,8,16.84a.5.5,0,0,1,0,.71A.47.47,0,0,1,7.62,17.7Z"/><path d="M12,19.44a.5.5,0,0,1-.5-.5V5.06a.5.5,0,1,1,1,0V18.94A.5.5,0,0,1,12,19.44Z"/></g></svg>