<svg id="Layer_1" data-name="Layer 1" xmlns="http://www.w3.org/2000/svg" xmlns:xlink="http://www.w3.org/1999/xlink" viewBox="0 0 24 24"><defs><style>.cls-1{fill:none;}.cls-2{clip-path:url(#clip-path);}</style><clipPath id="clip-path"><rect class="cls-1" width="24" height="24"/></clipPath></defs><title>arrow-double-vertical</title><g class="cls-2"><path d="M12,21.41a.5.5,0,0,1-.5-.5l0-16.77a.5.5,0,0,1,.5-.5h0a.5.5,0,0,1,.5.49l0,16.77a.5.5,0,0,1-.5.51Z"/><path d="M7.09,8.12a.5.5,0,0,1-.35-.85l4.9-4.92a.49.49,0,0,1,.7,0l4.92,4.9a.5.5,0,0,1,0,.71.51.51,0,0,1-.71,0L12,3.4,7.45,8A.51.51,0,0,1,7.09,8.12Z"/><path d="M12,21.8a.5.5,0,0,1-.35-.14l-4.92-4.9a.5.5,0,0,1,0-.71.51.51,0,0,1,.71,0L12,20.6,16.55,16a.5.5,0,0,1,.71,0,.5.5,0,0,1,0,.7l-4.9,4.92a.47.47,0,0,1-.35.15Z"/></g></svg>