<svg id="Layer_1" data-name="Layer 1" xmlns="http://www.w3.org/2000/svg" xmlns:xlink="http://www.w3.org/1999/xlink" viewBox="0 0 24 24"><defs><style>.cls-1{fill:none;}.cls-2{clip-path:url(#clip-path);}</style><clipPath id="clip-path"><rect class="cls-1" width="24" height="24"/></clipPath></defs><title>arrow-doble-slash-vertical</title><g class="cls-2"><path d="M12,21.41a.51.51,0,0,1-.5-.5l0-16.77a.5.5,0,0,1,.5-.5h0a.5.5,0,0,1,.5.49l0,16.77a.5.5,0,0,1-.5.51Z"/><path d="M7.08,8.12A.47.47,0,0,1,6.73,8a.49.49,0,0,1,0-.7l4.9-4.92A.47.47,0,0,1,12,2.2h0a.52.52,0,0,1,.36.14l4.92,4.9a.5.5,0,1,1-.71.71L12,3.4,7.43,8A.49.49,0,0,1,7.08,8.12Z"/><path d="M12,21.8a.5.5,0,0,1-.35-.14l-4.92-4.9a.5.5,0,0,1,0-.71.5.5,0,0,1,.7,0L12,20.6,16.53,16a.5.5,0,0,1,.71,0,.48.48,0,0,1,0,.7l-4.89,4.92a.49.49,0,0,1-.36.15Z"/><path d="M18.94,12.5H5.06a.5.5,0,1,1,0-1H18.94a.5.5,0,0,1,0,1Z"/></g></svg>