<svg id="Layer_1" data-name="Layer 1" xmlns="http://www.w3.org/2000/svg" xmlns:xlink="http://www.w3.org/1999/xlink" viewBox="0 0 24 24"><defs><style>.cls-1{fill:none;}.cls-2{clip-path:url(#clip-path);}</style><clipPath id="clip-path"><rect class="cls-1" width="24" height="24"/></clipPath></defs><title>arrow-block-up</title><g class="cls-2"><path d="M16,21.49H8a.5.5,0,0,1-.5-.5v-9.5L4,11.52H4a.51.51,0,0,1-.36-.86l8-8a.5.5,0,0,1,.71,0l8,8a.5.5,0,0,1-.36.85H16.45V21A.5.5,0,0,1,16,21.49Zm-7.5-1h7V11a.5.5,0,0,1,.5-.5h2.83L12,3.72,5.22,10.51l2.73,0a.38.38,0,0,1,.35.14.51.51,0,0,1,.15.36Z"/></g></svg>