<svg id="Layer_1" data-name="Layer 1" xmlns="http://www.w3.org/2000/svg" xmlns:xlink="http://www.w3.org/1999/xlink" viewBox="0 0 24 24"><defs><style>.cls-1{fill:none;}.cls-2{clip-path:url(#clip-path);}</style><clipPath id="clip-path"><rect class="cls-1" width="24" height="24"/></clipPath></defs><title>arrow-down-double</title><g class="cls-2"><path d="M12,20.44a.47.47,0,0,1-.35-.15l-4-4a.48.48,0,0,1,0-.7.5.5,0,0,1,.71,0l3.1,3.1V8.1a.5.5,0,0,1,1,0V19.94a.5.5,0,0,1-.31.46A.43.43,0,0,1,12,20.44Z"/><path d="M12,20.44a.47.47,0,0,1-.35-.15.5.5,0,0,1,0-.71l4-3.95a.49.49,0,0,1,.7.7l-4,4A.47.47,0,0,1,12,20.44Z"/><path d="M16,8.6H8a.5.5,0,0,1-.5-.5A.51.51,0,0,1,8,7.6H16a.5.5,0,0,1,.5.5A.5.5,0,0,1,16,8.6Z"/><path d="M16,4.56H8a.5.5,0,0,1-.5-.5.51.51,0,0,1,.5-.5H16a.5.5,0,0,1,.5.5A.5.5,0,0,1,16,4.56Z"/></g></svg>