<svg id="Layer_1" data-name="Layer 1" xmlns="http://www.w3.org/2000/svg" xmlns:xlink="http://www.w3.org/1999/xlink" viewBox="0 0 24 24"><defs><style>.cls-1{fill:none;}.cls-2{clip-path:url(#clip-path);}</style><clipPath id="clip-path"><rect class="cls-1" y="0.02" width="24" height="24"/></clipPath></defs><title>arrow-down-double-alt</title><g class="cls-2"><path d="M12,13.33a.5.5,0,0,1-.35-.14L8.37,9.91a.5.5,0,0,1,0-.71.51.51,0,0,1,.71,0l2.42,2.43V3.17a.5.5,0,0,1,1,0v9.66a.5.5,0,0,1-.31.47A.63.63,0,0,1,12,13.33Z"/><path d="M12,13.33a.5.5,0,0,1-.35-.85L14.92,9.2a.51.51,0,0,1,.71,0,.5.5,0,0,1,0,.71l-3.28,3.28A.5.5,0,0,1,12,13.33Z"/><path d="M18.94,16.55H5.06a.5.5,0,1,1,0-1H18.94a.5.5,0,0,1,0,1Z"/><path d="M18.94,21.33H5.06a.5.5,0,0,1-.5-.5.51.51,0,0,1,.5-.5H18.94a.51.51,0,0,1,.5.5A.5.5,0,0,1,18.94,21.33Z"/></g></svg>