<svg id="Layer_1" data-name="Layer 1" xmlns="http://www.w3.org/2000/svg" xmlns:xlink="http://www.w3.org/1999/xlink" viewBox="0 0 24 24"><defs><style>.cls-1{fill:none;}.cls-2{clip-path:url(#clip-path);}</style><clipPath id="clip-path"><rect class="cls-1" y="-0.04" width="24" height="24"/></clipPath></defs><title>arrow-dot-right</title><g class="cls-2"><path d="M7,12.53a.51.51,0,0,1-.5-.5.5.5,0,0,1,.5-.5l12.82,0h0a.5.5,0,0,1,.5.5.5.5,0,0,1-.5.5L7,12.53Z"/><path d="M16.47,17.25a.47.47,0,0,1-.35-.14.5.5,0,0,1,0-.71L20.51,12,16.1,7.6a.5.5,0,0,1,0-.71.51.51,0,0,1,.71,0l4.77,4.74a.51.51,0,0,1,0,.71l-4.74,4.77A.5.5,0,0,1,16.47,17.25Z"/><path d="M4.89,14.65A2.61,2.61,0,1,1,7.5,12,2.62,2.62,0,0,1,4.89,14.65Zm0-4.22A1.61,1.61,0,1,0,6.5,12,1.62,1.62,0,0,0,4.89,10.43Z"/></g></svg>