<svg id="Layer_1" data-name="Layer 1" xmlns="http://www.w3.org/2000/svg" xmlns:xlink="http://www.w3.org/1999/xlink" viewBox="0 0 24 24"><defs><style>.cls-1{fill:none;}.cls-2{clip-path:url(#clip-path);}</style><clipPath id="clip-path"><rect class="cls-1" width="24" height="24"/></clipPath></defs><title>arrow-double-left</title><g class="cls-2"><path d="M20.5,21.5a1.43,1.43,0,0,1-.9-.31l-4.74-3.54a.51.51,0,0,1-.1-.7.5.5,0,0,1,.7-.1L20.2,20.4A.5.5,0,0,0,21,20V4a.5.5,0,0,0-.8-.4L15.46,7.15a.5.5,0,0,1-.6-.8L19.6,2.8A1.5,1.5,0,0,1,22,4V20a1.49,1.49,0,0,1-1.5,1.5Z"/><path d="M14.16,21.5a1.52,1.52,0,0,1-.9-.3L2.6,13.2a1.5,1.5,0,0,1,0-2.4l10.66-8a1.5,1.5,0,0,1,1.58-.14A1.48,1.48,0,0,1,15.66,4V20a1.48,1.48,0,0,1-.83,1.34A1.44,1.44,0,0,1,14.16,21.5Zm0-18a.49.49,0,0,0-.3.1L3.2,11.6a.5.5,0,0,0,0,.8l10.66,8a.51.51,0,0,0,.53.05.5.5,0,0,0,.27-.45V4a.5.5,0,0,0-.27-.45A.59.59,0,0,0,14.16,3.5Z"/></g></svg>