<svg id="Layer_1" data-name="Layer 1" xmlns="http://www.w3.org/2000/svg" xmlns:xlink="http://www.w3.org/1999/xlink" viewBox="0 0 24 24"><defs><style>.cls-1{fill:none;}.cls-2{clip-path:url(#clip-path);}</style><clipPath id="clip-path"><rect class="cls-1" width="24" height="24"/></clipPath></defs><title>arrow-dot-down</title><g class="cls-2"><path d="M12,20.32a.5.5,0,0,1-.5-.5L11.47,7a.51.51,0,0,1,.5-.5h0a.5.5,0,0,1,.5.5l0,12.82a.5.5,0,0,1-.5.5Z"/><path d="M12,21.71a.47.47,0,0,1-.35-.14L6.89,16.83a.51.51,0,0,1,0-.71.5.5,0,0,1,.71,0L12,20.51,16.4,16.1a.5.5,0,0,1,.71,0,.51.51,0,0,1,0,.71l-4.74,4.77A.5.5,0,0,1,12,21.71Z"/><path d="M12,7.5a2.61,2.61,0,1,1,2.61-2.61A2.61,2.61,0,0,1,12,7.5Zm0-4.21a1.61,1.61,0,1,0,1.61,1.6A1.61,1.61,0,0,0,12,3.29Z"/></g></svg>