<svg id="Layer_1" data-name="Layer 1" xmlns="http://www.w3.org/2000/svg" xmlns:xlink="http://www.w3.org/1999/xlink" viewBox="0 0 24 24"><defs><style>.cls-1{fill:none;}.cls-2{clip-path:url(#clip-path);}</style><clipPath id="clip-path"><rect class="cls-1" width="24" height="24"/></clipPath></defs><title>arrow-up-double-alt</title><g class="cls-2"><path d="M12,21.33a.5.5,0,0,1-.5-.5V11.17a.5.5,0,0,1,.31-.47.51.51,0,0,1,.54.11l3.28,3.28a.5.5,0,0,1,0,.71.51.51,0,0,1-.71,0L12.5,12.37v8.46A.5.5,0,0,1,12,21.33Z"/><path d="M8.72,14.94a.47.47,0,0,1-.35-.14.5.5,0,0,1,0-.71l3.28-3.28a.5.5,0,0,1,.7,0,.5.5,0,0,1,0,.71L9.08,14.8A.5.5,0,0,1,8.72,14.94Z"/><path d="M18.94,8.45H5.06a.5.5,0,0,1,0-1H18.94a.5.5,0,0,1,0,1Z"/><path d="M18.94,3.67H5.06a.51.51,0,0,1-.5-.5.5.5,0,0,1,.5-.5H18.94a.5.5,0,0,1,.5.5A.51.51,0,0,1,18.94,3.67Z"/></g></svg>