<svg id="Layer_1" data-name="Layer 1" xmlns="http://www.w3.org/2000/svg" xmlns:xlink="http://www.w3.org/1999/xlink" viewBox="0 0 24 24"><defs><style>.cls-1{fill:none;}.cls-2{clip-path:url(#clip-path);}</style><clipPath id="clip-path"><rect class="cls-1" width="24" height="24"/></clipPath></defs><title>Artboard 37</title><g class="cls-2"><path d="M12,20.39H4.05a1.92,1.92,0,0,1-1.92-1.93V3.85a.5.5,0,0,1,.5-.5H8.42c5.85,0,12.9,3.94,13.2,4.11a.48.48,0,0,1,.26.43v4a.5.5,0,0,1-.5.5.5.5,0,0,1-.5-.5V8.19c-1.32-.7-7.47-3.84-12.46-3.84H3.13V18.46a.92.92,0,0,0,.92.93h8a.5.5,0,0,1,.5.5A.5.5,0,0,1,12,20.39Z"/><path d="M21.38,8.39H2.63a.5.5,0,0,1-.5-.5.5.5,0,0,1,.5-.5H21.38a.51.51,0,0,1,.5.5A.5.5,0,0,1,21.38,8.39Z"/><path d="M20.88,20.65a.5.5,0,0,1-.35-.15l-5.39-5.39a.5.5,0,0,1,0-.71.51.51,0,0,1,.71,0l5.39,5.4a.5.5,0,0,1,0,.7A.51.51,0,0,1,20.88,20.65Z"/><path d="M15.49,20.65a.5.5,0,0,1-.35-.85l5.39-5.4a.5.5,0,0,1,.71.71L15.85,20.5A.51.51,0,0,1,15.49,20.65Z"/></g></svg>