<svg id="Layer_1" data-name="Layer 1" xmlns="http://www.w3.org/2000/svg" xmlns:xlink="http://www.w3.org/1999/xlink" viewBox="0 0 24 24"><defs><style>.cls-1{fill:none;}.cls-2{clip-path:url(#clip-path);}</style><clipPath id="clip-path"><rect class="cls-1" width="24" height="24"/></clipPath></defs><title>Artboard 98</title><g class="cls-2"><path d="M18.19,22.66a.5.5,0,0,1-.5-.5V14.91a.5.5,0,0,1,.5-.5.5.5,0,0,1,.5.5v7.25A.51.51,0,0,1,18.19,22.66Z"/><path d="M21.81,19H14.56a.5.5,0,0,1,0-1h7.25a.5.5,0,1,1,0,1Z"/><path d="M12.72,22.34H5.19a3.5,3.5,0,0,1-3.5-3.5V10.55A3.51,3.51,0,0,1,2.06,9L4.91,3.28A3.48,3.48,0,0,1,8,1.34h7.15a3.5,3.5,0,0,1,3.5,3.5v6a.5.5,0,0,1-.5.5.5.5,0,0,1-.5-.5v-6a2.5,2.5,0,0,0-2.5-2.5H8A2.47,2.47,0,0,0,5.81,3.73L3,9.43a2.59,2.59,0,0,0-.26,1.12v8.29a2.5,2.5,0,0,0,2.5,2.5h7.53a.5.5,0,0,1,.5.5A.5.5,0,0,1,12.72,22.34Z"/><path d="M13.69,11.34a.5.5,0,0,1-.5-.5v-5a.5.5,0,0,1,.5-.5.51.51,0,0,1,.5.5v5A.5.5,0,0,1,13.69,11.34Z"/><path d="M8.69,11.34a.5.5,0,0,1-.5-.5v-5a.5.5,0,0,1,.5-.5.51.51,0,0,1,.5.5v5A.5.5,0,0,1,8.69,11.34Z"/></g></svg>