<svg id="Layer_1" data-name="Layer 1" xmlns="http://www.w3.org/2000/svg" xmlns:xlink="http://www.w3.org/1999/xlink" viewBox="0 0 24 24"><defs><style>.cls-1{fill:none;}.cls-2{clip-path:url(#clip-path);}</style><clipPath id="clip-path"><rect class="cls-1" width="24" height="24"/></clipPath></defs><title>Artboard 38</title><g class="cls-2"><circle cx="12" cy="16.75" r="0.5"/><path d="M20.38,20.4H3.62a1.14,1.14,0,0,1-1-1.71L11,4.17h0a1.18,1.18,0,0,1,2,0l8.38,14.52a1.13,1.13,0,0,1-1,1.71ZM11.87,4.67,3.49,19.19a.14.14,0,0,0,.13.21H20.38a.14.14,0,0,0,.13-.21L12.13,4.67c-.08-.13-.18-.13-.26,0Z"/><path d="M12,14.37a.5.5,0,0,1-.5-.5V9.66a.5.5,0,0,1,1,0v4.21A.5.5,0,0,1,12,14.37Z"/></g></svg>