<svg id="Layer_1" data-name="Layer 1" xmlns="http://www.w3.org/2000/svg" xmlns:xlink="http://www.w3.org/1999/xlink" viewBox="0 0 24 24"><defs><style>.cls-1{fill:none;}.cls-2{clip-path:url(#clip-path);}</style><clipPath id="clip-path"><rect class="cls-1" width="24" height="24"/></clipPath></defs><title>Artboard 97</title><g class="cls-2"><path d="M12,22.35a3,3,0,0,1-2.1-.87h0L2.52,14.1a3,3,0,0,1,0-4.2L9.9,2.52a3,3,0,0,1,4.2,0L21.48,9.9a3,3,0,0,1,0,4.2L14.1,21.48A3,3,0,0,1,12,22.35Zm0-19.7a1.94,1.94,0,0,0-1.39.57L3.22,10.61a2,2,0,0,0,0,2.78l7.39,7.39h0a2,2,0,0,0,2.78,0l7.39-7.39a2,2,0,0,0,0-2.78L13.39,3.22A1.94,1.94,0,0,0,12,2.65Z"/><path d="M12,15a.5.5,0,0,1-.5-.5v-8a.5.5,0,0,1,1,0v8A.5.5,0,0,1,12,15Z"/><path d="M12,18a.47.47,0,0,1-.35-.15.36.36,0,0,1-.11-.16.47.47,0,0,1,0-.38.53.53,0,0,1,.27-.27.5.5,0,0,1,.38,0,.53.53,0,0,1,.27.27.47.47,0,0,1,0,.38.36.36,0,0,1-.11.16A.47.47,0,0,1,12,18Z"/></g></svg>