<svg id="Layer_1" data-name="Layer 1" xmlns="http://www.w3.org/2000/svg" xmlns:xlink="http://www.w3.org/1999/xlink" viewBox="0 0 24 24"><defs><style>.cls-1{fill:none;}.cls-2{clip-path:url(#clip-path);}</style><clipPath id="clip-path"><rect class="cls-1" x="-0.01" width="24" height="24"/></clipPath></defs><title>Artboard 39</title><g class="cls-2"><circle cx="12" cy="15.54" r="0.5"/><path d="M12,13.16a.5.5,0,0,1-.5-.5V8.46A.5.5,0,0,1,12,8a.5.5,0,0,1,.5.5v4.2A.5.5,0,0,1,12,13.16Z"/><path d="M15.76,21.58H8.24a.52.52,0,0,1-.36-.14L2.56,16.12a.52.52,0,0,1-.14-.36V8.24a.52.52,0,0,1,.14-.36L7.88,2.56a.52.52,0,0,1,.36-.14h7.52a.52.52,0,0,1,.36.14l5.32,5.32a.52.52,0,0,1,.14.36v7.52a.52.52,0,0,1-.14.36l-5.32,5.32A.52.52,0,0,1,15.76,21.58Zm-7.32-1h7.12l5-5V8.44l-5-5H8.44l-5,5v7.12Z"/></g></svg>