<svg id="Layer_1" data-name="Layer 1" xmlns="http://www.w3.org/2000/svg" xmlns:xlink="http://www.w3.org/1999/xlink" viewBox="0 0 24 24"><defs><style>.cls-1{fill:none;}.cls-2{clip-path:url(#clip-path);}</style><clipPath id="clip-path"><rect class="cls-1" width="24" height="24"/></clipPath></defs><title>Artboard 99</title><g class="cls-2"><path d="M16.16,22.5a.51.51,0,0,1-.36-.15.5.5,0,0,1,0-.7l5.13-5.13a.48.48,0,0,1,.7,0,.5.5,0,0,1,0,.71l-5.12,5.12A.5.5,0,0,1,16.16,22.5Z"/><path d="M21.28,22.5a.49.49,0,0,1-.35-.15L15.8,17.23a.51.51,0,0,1,0-.71.5.5,0,0,1,.71,0l5.12,5.13a.48.48,0,0,1,0,.7A.47.47,0,0,1,21.28,22.5Z"/><path d="M9.22,22.5H5.72A3.5,3.5,0,0,1,2.22,19V10.71a3.58,3.58,0,0,1,.37-1.57L5.44,3.43A3.49,3.49,0,0,1,8.57,1.5h7.15A3.5,3.5,0,0,1,19.22,5v6a.5.5,0,0,1-1,0V5a2.5,2.5,0,0,0-2.5-2.5H8.57A2.48,2.48,0,0,0,6.34,3.88L3.48,9.59a2.56,2.56,0,0,0-.26,1.12V19a2.5,2.5,0,0,0,2.5,2.5h3.5a.5.5,0,0,1,0,1Z"/><path d="M14.22,11.5a.5.5,0,0,1-.5-.5V6a.5.5,0,1,1,1,0v5A.5.5,0,0,1,14.22,11.5Z"/><path d="M9.22,11.5a.5.5,0,0,1-.5-.5V6a.5.5,0,0,1,1,0v5A.5.5,0,0,1,9.22,11.5Z"/></g></svg>