<svg id="Layer_1" data-name="Layer 1" xmlns="http://www.w3.org/2000/svg" xmlns:xlink="http://www.w3.org/1999/xlink" viewBox="0 0 24 24"><defs><style>.cls-1{fill:none;}.cls-2{clip-path:url(#clip-path);}</style><clipPath id="clip-path"><rect class="cls-1" width="24" height="24"/></clipPath></defs><title>Artboard 40</title><g class="cls-2"><circle cx="12" cy="15.54" r="0.5"/><path d="M12,13.16a.5.5,0,0,1-.5-.5V8.46a.5.5,0,1,1,1,0v4.2A.5.5,0,0,1,12,13.16Z"/><path d="M12,21.52A9.52,9.52,0,1,1,21.52,12,9.53,9.53,0,0,1,12,21.52Zm0-18A8.52,8.52,0,1,0,20.52,12,8.53,8.53,0,0,0,12,3.48Z"/></g></svg>