<svg id="Layer_1" data-name="Layer 1" xmlns="http://www.w3.org/2000/svg" xmlns:xlink="http://www.w3.org/1999/xlink" viewBox="0 0 24 24"><defs><style>.cls-1{fill:none;}.cls-2{clip-path:url(#clip-path);}</style><clipPath id="clip-path"><rect class="cls-1" x="-0.15" y="0.06" width="24" height="24"/></clipPath></defs><title>attachment</title><g class="cls-2"><path d="M12,22.5a6.07,6.07,0,0,1-4.78-1.92C5,18.08,5.48,14.11,5.5,13.94V6c0-1.56.73-4.5,3.5-4.5S12.5,4.44,12.5,6v8a.5.5,0,0,1-1,0V6c0-.14,0-3.5-2.5-3.5S6.5,5.86,6.5,6v8c0,.1-.43,3.76,1.47,5.92a5.11,5.11,0,0,0,4,1.58,5.11,5.11,0,0,0,4-1.58c1.9-2.16,1.48-5.82,1.47-5.86V2a.5.5,0,0,1,1,0V14c0,.11.49,4.08-1.72,6.58A6.07,6.07,0,0,1,12,22.5Z"/></g></svg>