<svg id="Layer_1" data-name="Layer 1" xmlns="http://www.w3.org/2000/svg" xmlns:xlink="http://www.w3.org/1999/xlink" viewBox="0 0 24 24"><defs><style>.cls-1{fill:none;}.cls-2{clip-path:url(#clip-path);}</style><clipPath id="clip-path"><rect class="cls-1" y="0.02" width="24" height="24"/></clipPath></defs><title>b</title><g class="cls-2"><path d="M12,21.75a5.2,5.2,0,1,1,5.2-5.2A5.2,5.2,0,0,1,12,21.75Zm0-9.39a4.2,4.2,0,1,0,4.2,4.19A4.2,4.2,0,0,0,12,12.36Z"/><path d="M7.3,17.05a.5.5,0,0,1-.5-.5V2.75a.5.5,0,0,1,.5-.5.5.5,0,0,1,.5.5v13.8A.5.5,0,0,1,7.3,17.05Z"/></g></svg>