<svg id="Layer_1" data-name="Layer 1" xmlns="http://www.w3.org/2000/svg" xmlns:xlink="http://www.w3.org/1999/xlink" viewBox="0 0 24 24"><defs><style>.cls-1{fill:none;}.cls-2{clip-path:url(#clip-path);}</style><clipPath id="clip-path"><rect class="cls-1" y="-0.11" width="24" height="24"/></clipPath></defs><title>back-alt</title><g class="cls-2"><path d="M7.57,20.12A.5.5,0,0,1,7.22,20L2.05,14.81a.53.53,0,0,1-.11-.55A.5.5,0,0,1,2.4,14H16.61A4.26,4.26,0,0,0,21.1,9.36c0-4.41-4.31-4.48-4.49-4.48a.51.51,0,0,1-.5-.5.5.5,0,0,1,.5-.5c.06,0,5.49.06,5.49,5.48A5.27,5.27,0,0,1,16.61,15h-13l4.32,4.32a.5.5,0,0,1,0,.7A.51.51,0,0,1,7.57,20.12Z"/><path d="M2.4,15a.54.54,0,0,1-.35-.14.51.51,0,0,1,0-.71L7.17,9a.5.5,0,0,1,.7,0,.5.5,0,0,1,0,.71L2.76,14.81A.54.54,0,0,1,2.4,15Z"/></g></svg>