<svg id="Layer_1" data-name="Layer 1" xmlns="http://www.w3.org/2000/svg" xmlns:xlink="http://www.w3.org/1999/xlink" viewBox="0 0 24 24"><defs><style>.cls-1{fill:none;}.cls-2{clip-path:url(#clip-path);}</style><clipPath id="clip-path"><rect class="cls-1" y="-0.13" width="24" height="24"/></clipPath></defs><title>back</title><g class="cls-2"><path d="M7.39,20.12c-.06,0-5.49-.06-5.49-5.48A5.27,5.27,0,0,1,7.39,9.05h13L16.07,4.73a.5.5,0,0,1,0-.7.5.5,0,0,1,.71,0L22,9.19a.53.53,0,0,1,.11.55.5.5,0,0,1-.46.31H7.39A4.26,4.26,0,0,0,2.9,14.64c0,4.41,4.31,4.48,4.49,4.48a.51.51,0,0,1,.5.5A.5.5,0,0,1,7.39,20.12Z"/><path d="M16.48,15.16a.46.46,0,0,1-.35-.14.5.5,0,0,1,0-.71l5.11-5.12A.5.5,0,0,1,22,9.9L16.83,15A.46.46,0,0,1,16.48,15.16Z"/></g></svg>