<svg id="Layer_1" data-name="Layer 1" xmlns="http://www.w3.org/2000/svg" xmlns:xlink="http://www.w3.org/1999/xlink" viewBox="0 0 24 24"><defs><style>.cls-1{fill:none;}.cls-2{clip-path:url(#clip-path);}</style><clipPath id="clip-path"><rect class="cls-1" y="0.06" width="24" height="24"/></clipPath></defs><title>battery</title><g class="cls-2"><path d="M16.21,18H7.79a6,6,0,0,1,0-12h8.42a6,6,0,0,1,0,12ZM7.79,7a5,5,0,0,0,0,10h8.42a5,5,0,0,0,0-10Z"/><path d="M6.69,14.08a.5.5,0,0,1-.5-.5V10.42a.5.5,0,0,1,.5-.5.51.51,0,0,1,.5.5v3.16A.51.51,0,0,1,6.69,14.08Z"/><path d="M10,14.08a.5.5,0,0,1-.5-.5V10.42a.5.5,0,0,1,1,0v3.16A.5.5,0,0,1,10,14.08Z"/></g></svg>