<svg id="Layer_1" data-name="Layer 1" xmlns="http://www.w3.org/2000/svg" xmlns:xlink="http://www.w3.org/1999/xlink" viewBox="0 0 24 24"><defs><style>.cls-1{fill:none;}.cls-2{clip-path:url(#clip-path);}</style><clipPath id="clip-path"><rect class="cls-1" x="0.15" y="-0.06" width="24" height="24"/></clipPath></defs><title>bell</title><g class="cls-2"><path d="M19.94,19h-.06a.51.51,0,0,1-.44-.56,8.31,8.31,0,0,0,.06-1V13.17a8.33,8.33,0,0,0-2.21-5.69A7.23,7.23,0,0,0,12,5.13a7.79,7.79,0,0,0-7.5,8v4.26a8.31,8.31,0,0,0,.06,1,.51.51,0,0,1-.44.56.52.52,0,0,1-.56-.44,10.42,10.42,0,0,1-.06-1.13V13.17a8.79,8.79,0,0,1,8.5-9A8.18,8.18,0,0,1,18,6.8a9.23,9.23,0,0,1,2.49,6.37v4.26a10.42,10.42,0,0,1-.06,1.13A.51.51,0,0,1,19.94,19Z"/><path d="M19.94,19H4.06a.5.5,0,1,1,0-1H19.94a.5.5,0,0,1,0,1Z"/><path d="M12,5.13a.5.5,0,0,1-.5-.5V2.5a.5.5,0,0,1,1,0V4.63A.5.5,0,0,1,12,5.13Z"/><path d="M12,22a3.5,3.5,0,0,1-3.5-3.5.5.5,0,0,1,1,0,2.5,2.5,0,0,0,5,0,.5.5,0,0,1,1,0A3.5,3.5,0,0,1,12,22Z"/></g></svg>