<svg id="Layer_1" data-name="Layer 1" xmlns="http://www.w3.org/2000/svg" xmlns:xlink="http://www.w3.org/1999/xlink" viewBox="0 0 24 24"><defs><style>.cls-1{fill:none;}.cls-2{clip-path:url(#clip-path);}</style><clipPath id="clip-path"><rect class="cls-1" x="-0.15" y="0.08" width="24" height="24"/></clipPath></defs><title>bookmark</title><g class="cls-2"><path d="M20,22.5a.47.47,0,0,1-.35-.15L12,14.71,4.35,22.35a.48.48,0,0,1-.54.11A.5.5,0,0,1,3.5,22V5.09A3.59,3.59,0,0,1,7.09,1.5h9.82A3.59,3.59,0,0,1,20.5,5.09V22a.5.5,0,0,1-.31.46A.43.43,0,0,1,20,22.5Zm-8-9a.47.47,0,0,1,.35.15l7.15,7.14V5.09A2.59,2.59,0,0,0,16.91,2.5H7.09A2.59,2.59,0,0,0,4.5,5.09v15.7l7.15-7.14A.47.47,0,0,1,12,13.5Z"/></g></svg>