<svg id="Layer_1" data-name="Layer 1" xmlns="http://www.w3.org/2000/svg" xmlns:xlink="http://www.w3.org/1999/xlink" viewBox="0 0 24 24"><defs><style>.cls-1{fill:none;}.cls-2{clip-path:url(#clip-path);}</style><clipPath id="clip-path"><rect class="cls-1" y="-0.06" width="24" height="24"/></clipPath></defs><title>box-question</title><g class="cls-2"><path d="M12.29,16.43a.51.51,0,1,1,.5-.51A.51.51,0,0,1,12.29,16.43Z"/><path d="M12.28,13.94a.5.5,0,0,1-.5-.5.51.51,0,0,1,.5-.5,2.08,2.08,0,1,0,0-4.15,3,3,0,0,0-2.1.56,2.41,2.41,0,0,0-.68,1.88.51.51,0,0,1-.5.5.5.5,0,0,1-.5-.5,3.33,3.33,0,0,1,1-2.64,4,4,0,0,1,2.81-.8h0a3.08,3.08,0,0,1-.07,6.15Z"/><path d="M17.25,22.5H6.75A3.75,3.75,0,0,1,3,18.75V5.25A3.75,3.75,0,0,1,6.75,1.5h10.5A3.75,3.75,0,0,1,21,5.25v13.5A3.75,3.75,0,0,1,17.25,22.5ZM6.75,2.5A2.76,2.76,0,0,0,4,5.25v13.5A2.76,2.76,0,0,0,6.75,21.5h10.5A2.76,2.76,0,0,0,20,18.75V5.25A2.76,2.76,0,0,0,17.25,2.5Z"/></g></svg>