<svg id="Layer_1" data-name="Layer 1" xmlns="http://www.w3.org/2000/svg" xmlns:xlink="http://www.w3.org/1999/xlink" viewBox="0 0 24 24"><defs><style>.cls-1{fill:none;}.cls-2{clip-path:url(#clip-path);}</style><clipPath id="clip-path"><rect class="cls-1" x="-0.15" y="0.06" width="24" height="24"/></clipPath></defs><title>box-code</title><g class="cls-2"><path d="M8.46,14.26a.5.5,0,0,1-.35-.14L6.29,12.3a.51.51,0,0,1,0-.71l2-2a.5.5,0,1,1,.71.71L7.35,12l1.46,1.46a.5.5,0,0,1-.35.85Z"/><path d="M15.54,14.26a.5.5,0,0,1-.35-.85L16.65,12,15,10.34a.5.5,0,1,1,.71-.71l2,2a.51.51,0,0,1,0,.71l-1.82,1.82A.5.5,0,0,1,15.54,14.26Z"/><path d="M11,15.19a.47.47,0,0,1-.17,0,.5.5,0,0,1-.3-.64l2.1-5.64a.5.5,0,0,1,.64-.29.5.5,0,0,1,.3.64l-2.1,5.64A.49.49,0,0,1,11,15.19Z"/><path d="M17.25,22.5H6.75A3.75,3.75,0,0,1,3,18.75V5.25A3.75,3.75,0,0,1,6.75,1.5h10.5A3.75,3.75,0,0,1,21,5.25v13.5A3.75,3.75,0,0,1,17.25,22.5ZM6.75,2.5A2.76,2.76,0,0,0,4,5.25v13.5A2.76,2.76,0,0,0,6.75,21.5h10.5A2.76,2.76,0,0,0,20,18.75V5.25A2.76,2.76,0,0,0,17.25,2.5Z"/></g></svg>