<svg id="Layer_1" data-name="Layer 1" xmlns="http://www.w3.org/2000/svg" xmlns:xlink="http://www.w3.org/1999/xlink" viewBox="0 0 24 24"><defs><style>.cls-1{fill:none;}.cls-2{clip-path:url(#clip-path);}</style><clipPath id="clip-path"><rect class="cls-1" width="24" height="24"/></clipPath></defs><title>boxes</title><g class="cls-2"><path d="M14.4,10.83H9.6A1.68,1.68,0,0,1,7.92,9.15V4.35A1.68,1.68,0,0,1,9.6,2.67h4.8a1.68,1.68,0,0,1,1.68,1.68v4.8A1.68,1.68,0,0,1,14.4,10.83ZM9.6,3.67a.67.67,0,0,0-.68.68v4.8a.67.67,0,0,0,.68.68h4.8a.67.67,0,0,0,.68-.68V4.35a.67.67,0,0,0-.68-.68Z"/><path d="M9,21.33H4.16a1.68,1.68,0,0,1-1.68-1.68v-4.8a1.68,1.68,0,0,1,1.68-1.68H9a1.68,1.68,0,0,1,1.68,1.68v4.8A1.68,1.68,0,0,1,9,21.33Zm-4.8-7.16a.67.67,0,0,0-.68.68v4.8a.67.67,0,0,0,.68.68H9a.67.67,0,0,0,.68-.68v-4.8A.67.67,0,0,0,9,14.17Z"/><path d="M19.84,21.33H15a1.68,1.68,0,0,1-1.68-1.68v-4.8A1.68,1.68,0,0,1,15,13.17h4.8a1.69,1.69,0,0,1,1.69,1.68v4.8A1.69,1.69,0,0,1,19.84,21.33ZM15,14.17a.67.67,0,0,0-.68.68v4.8a.67.67,0,0,0,.68.68h4.8a.68.68,0,0,0,.69-.68v-4.8a.68.68,0,0,0-.69-.68Z"/></g></svg>