<svg id="Layer_1" data-name="Layer 1" xmlns="http://www.w3.org/2000/svg" xmlns:xlink="http://www.w3.org/1999/xlink" viewBox="0 0 24 24"><defs><style>.cls-1{fill:none;}.cls-2{clip-path:url(#clip-path);}</style><clipPath id="clip-path"><rect class="cls-1" y="-0.01" width="24" height="24"/></clipPath></defs><title>braces-alt</title><g class="cls-2"><path d="M8.16,12.5a.5.5,0,1,1,.51-.5A.5.5,0,0,1,8.16,12.5Z"/><circle cx="12" cy="12" r="0.5"/><path d="M16,12.52a.51.51,0,1,1,.5-.51A.5.5,0,0,1,16,12.52Z"/><path d="M1.65,12.5a.5.5,0,0,1-.49-.37.5.5,0,0,1,.36-.61S4.16,10.8,4.16,9V4.5A2.27,2.27,0,0,1,6.49,2.17a.5.5,0,0,1,.5.5.51.51,0,0,1-.5.5A1.28,1.28,0,0,0,5.16,4.5V9c0,2.58-3.25,3.46-3.39,3.49Z"/><path d="M6.49,21.83H6.36c-.14,0-3.39-.92-3.39-3.5V13.83A1.27,1.27,0,0,0,1.65,12.5a.5.5,0,0,1,0-1A2.26,2.26,0,0,1,4,13.82v4.5c0,1.82,2.62,2.52,2.64,2.53a.5.5,0,0,1-.12,1Z"/><path d="M22.35,12.5l-.12,0c-.14,0-3.39-.91-3.39-3.49V4.5a1.27,1.27,0,0,0-1.33-1.33.51.51,0,0,1-.5-.5.5.5,0,0,1,.5-.5,2.26,2.26,0,0,1,2.33,2.32V9c0,1.82,2.62,2.52,2.64,2.53a.5.5,0,0,1,.36.61A.5.5,0,0,1,22.35,12.5Z"/><path d="M17.51,21.83a.49.49,0,0,1-.48-.37.5.5,0,0,1,.36-.61S20,20.13,20,18.32V13.83a2.26,2.26,0,0,1,2.32-2.33.5.5,0,0,1,0,1A1.28,1.28,0,0,0,21,13.84v4.48c0,2.58-3.25,3.46-3.39,3.5Z"/></g></svg>