<svg id="Layer_1" data-name="Layer 1" xmlns="http://www.w3.org/2000/svg" xmlns:xlink="http://www.w3.org/1999/xlink" viewBox="0 0 24 24"><defs><style>.cls-1{fill:none;}.cls-2{clip-path:url(#clip-path);}</style><clipPath id="clip-path"><rect class="cls-1" width="24" height="24"/></clipPath></defs><title>branches</title><g class="cls-2"><path d="M5.16,15.66A3.66,3.66,0,1,1,8.82,12,3.66,3.66,0,0,1,5.16,15.66Zm0-6.32A2.66,2.66,0,1,0,7.82,12,2.66,2.66,0,0,0,5.16,9.34Z"/><path d="M18.84,9.34A3.66,3.66,0,1,1,22.5,5.68,3.67,3.67,0,0,1,18.84,9.34Zm0-6.31A2.66,2.66,0,1,0,21.5,5.68,2.66,2.66,0,0,0,18.84,3Z"/><path d="M18.84,22a3.66,3.66,0,1,1,3.66-3.65A3.67,3.67,0,0,1,18.84,22Zm0-6.31a2.66,2.66,0,1,0,2.66,2.66A2.67,2.67,0,0,0,18.84,15.66Z"/><path d="M16.23,17A.5.5,0,0,1,16,17L8.07,12.43A.48.48,0,0,1,7.82,12a.47.47,0,0,1,.27-.43l8.18-4.22a.5.5,0,0,1,.67.22.49.49,0,0,1-.21.67L9.36,12l7.12,4.08a.5.5,0,0,1-.25.93Z"/></g></svg>