<svg id="Layer_1" data-name="Layer 1" xmlns="http://www.w3.org/2000/svg" xmlns:xlink="http://www.w3.org/1999/xlink" viewBox="0 0 24 24"><defs><style>.cls-1{fill:none;}.cls-2{clip-path:url(#clip-path);}</style><clipPath id="clip-path"><rect class="cls-1" width="24" height="24"/></clipPath></defs><title>bt-box</title><g class="cls-2"><path d="M18.7,22.5H5.3a3.81,3.81,0,0,1-3.8-3.8V5.3A3.81,3.81,0,0,1,5.3,1.5H18.7a3.81,3.81,0,0,1,3.8,3.8V18.7A3.81,3.81,0,0,1,18.7,22.5ZM5.3,2.5A2.81,2.81,0,0,0,2.5,5.3V18.7a2.81,2.81,0,0,0,2.8,2.8H18.7a2.81,2.81,0,0,0,2.8-2.8V5.3a2.81,2.81,0,0,0-2.8-2.8Z"/><path d="M11.91,18.83a.41.41,0,0,1-.19,0,.48.48,0,0,1-.31-.46V13.26L9.17,15.5a.5.5,0,0,1-.71-.71L11.27,12,8.48,9.2a.5.5,0,0,1,.71-.71l2.22,2.22v-5a.48.48,0,0,1,.31-.46.49.49,0,0,1,.54.1L15.45,8.5a.51.51,0,0,1,.15.36.47.47,0,0,1-.15.35L12.68,12l2.79,2.79a.5.5,0,0,1,0,.71l-3.21,3.21A.5.5,0,0,1,11.91,18.83Zm.5-5.71v4l2-2Zm0-6.25v4l2-2Z"/></g></svg>