<svg id="Layer_1" data-name="Layer 1" xmlns="http://www.w3.org/2000/svg" xmlns:xlink="http://www.w3.org/1999/xlink" viewBox="0 0 24 24"><defs><style>.cls-1{fill:none;}.cls-2{clip-path:url(#clip-path);}</style><clipPath id="clip-path"><rect class="cls-1" width="24" height="24"/></clipPath></defs><title>bt</title><g class="cls-2"><path d="M11.91,21.8a.43.43,0,0,1-.19,0,.51.51,0,0,1-.31-.46v-8L7.73,17A.5.5,0,1,1,7,16.26L11.3,12,7.05,7.72a.5.5,0,0,1,0-.71.48.48,0,0,1,.7,0l3.66,3.66v-8a.51.51,0,0,1,.31-.46.51.51,0,0,1,.55.11L17,7a.5.5,0,0,1,0,.71L12.72,12,17,16.24a.5.5,0,0,1,0,.7l-4.71,4.71A.51.51,0,0,1,11.91,21.8Zm.5-8.71v7l3.51-3.5Zm0-9.18v7l3.48-3.48Z"/></g></svg>