<svg id="Layer_1" data-name="Layer 1" xmlns="http://www.w3.org/2000/svg" xmlns:xlink="http://www.w3.org/1999/xlink" viewBox="0 0 24 24"><defs><style>.cls-1{fill:none;}.cls-2{clip-path:url(#clip-path);}</style><clipPath id="clip-path"><rect class="cls-1" x="-0.15" y="0.06" width="24" height="24"/></clipPath></defs><title>bug</title><g class="cls-2"><path d="M6.77,11.46a.45.45,0,0,1-.25-.07L3.64,9.7A.5.5,0,0,1,3.47,9a.49.49,0,0,1,.68-.18L7,10.53a.5.5,0,0,1-.26.93Z"/><path d="M17.23,11.46a.5.5,0,0,1-.26-.93l2.88-1.69a.49.49,0,0,1,.68.18.5.5,0,0,1-.17.68l-2.88,1.69A.45.45,0,0,1,17.23,11.46Z"/><path d="M20.39,20.64a.47.47,0,0,1-.25-.07l-2.87-1.69a.5.5,0,1,1,.5-.86l2.88,1.69a.51.51,0,0,1,.18.69A.52.52,0,0,1,20.39,20.64Z"/><path d="M4.19,20.64a.5.5,0,0,1-.26-.93L6.81,18a.49.49,0,0,1,.68.18.5.5,0,0,1-.17.68L4.44,20.57A.47.47,0,0,1,4.19,20.64Z"/><path d="M12,21.19a6.71,6.71,0,1,1,6.71-6.7A6.72,6.72,0,0,1,12,21.19ZM12,8.78a5.71,5.71,0,1,0,5.71,5.71A5.71,5.71,0,0,0,12,8.78Z"/><path d="M5.79,15H2.58a.51.51,0,0,1-.5-.5.5.5,0,0,1,.5-.5H5.79a.5.5,0,0,1,.5.5A.5.5,0,0,1,5.79,15Z"/><path d="M21.42,15H18.21a.5.5,0,0,1-.5-.5.5.5,0,0,1,.5-.5h3.21a.5.5,0,0,1,.5.5A.51.51,0,0,1,21.42,15Z"/><path d="M15.93,10.19l-.11,0a.49.49,0,0,1-.38-.59A2.9,2.9,0,0,0,15.5,9V7.31a3.5,3.5,0,0,0-7,0V9a2.9,2.9,0,0,0,.06.62.49.49,0,0,1-.38.59.5.5,0,0,1-.6-.38A4.1,4.1,0,0,1,7.5,9V7.31a4.5,4.5,0,1,1,9,0V9a4.1,4.1,0,0,1-.08.83A.5.5,0,0,1,15.93,10.19Z"/></g></svg>