<svg id="Layer_1" data-name="Layer 1" xmlns="http://www.w3.org/2000/svg" xmlns:xlink="http://www.w3.org/1999/xlink" viewBox="0 0 24 24"><defs><style>.cls-1{fill:none;}.cls-2{clip-path:url(#clip-path);}</style><clipPath id="clip-path"><rect class="cls-1" width="24" height="24"/></clipPath></defs><title>busy</title><g class="cls-2"><path d="M16.5,21.5A.5.5,0,0,1,16,21V16.5a4,4,0,0,0-8,0V21a.5.5,0,0,1-1,0V16.5a5,5,0,0,1,10,0V21A.5.5,0,0,1,16.5,21.5Z"/><path d="M17.63,21.5H6.38a.5.5,0,1,1,0-1H17.63a.5.5,0,0,1,0,1Z"/><path d="M12,12.5a5,5,0,0,1-5-5V3A.5.5,0,0,1,8,3V7.5a4,4,0,0,0,8,0V3a.5.5,0,0,1,1,0V7.5A5,5,0,0,1,12,12.5Z"/><path d="M17.63,3.5H6.38a.5.5,0,1,1,0-1H17.63a.5.5,0,0,1,0,1Z"/></g></svg>