<svg id="Layer_1" data-name="Layer 1" xmlns="http://www.w3.org/2000/svg" xmlns:xlink="http://www.w3.org/1999/xlink" viewBox="0 0 24 24"><defs><style>.cls-1{fill:none;}.cls-2{clip-path:url(#clip-path);}</style><clipPath id="clip-path"><rect class="cls-1" x="0.15" y="-0.09" width="24" height="24"/></clipPath></defs><title>calendar-plus</title><g class="cls-2"><path d="M18,22.42a.5.5,0,0,1-.5-.5v-6a.51.51,0,0,1,.5-.5.5.5,0,0,1,.5.5v6A.5.5,0,0,1,18,22.42Z"/><path d="M21,19.42H15a.5.5,0,0,1-.5-.5.51.51,0,0,1,.5-.5h6a.5.5,0,0,1,.5.5A.5.5,0,0,1,21,19.42Z"/><path d="M6,21.1a3.47,3.47,0,0,1-2.47-1,3.52,3.52,0,0,1-1-2.47l0-9A3.51,3.51,0,0,1,6,5.1H7a.5.5,0,0,1,0,1H6a2.51,2.51,0,0,0-2.5,2.51l0,9a2.52,2.52,0,0,0,.74,1.76A2.48,2.48,0,0,0,6,20.1H6l6.23,0h0a.5.5,0,0,1,.5.5.5.5,0,0,1-.5.5L6,21.1Z"/><path d="M21,15.43a.5.5,0,0,1-.5-.5l0-6.37a2.48,2.48,0,0,0-.73-1.76A2.62,2.62,0,0,0,18,6.07H17a.5.5,0,0,1,0-1h1a3.5,3.5,0,0,1,3.5,3.49l0,6.37a.5.5,0,0,1-.5.5Z"/><path d="M10,6.09a.51.51,0,0,1-.5-.5.5.5,0,0,1,.5-.5h4a.5.5,0,0,1,.5.5.49.49,0,0,1-.49.5H10Z"/><path d="M8.48,7.59A2,2,0,0,1,7.07,7,2.07,2.07,0,0,1,6.48,5.6v-2a2,2,0,0,1,.58-1.42,2,2,0,0,1,1.42-.59h0a2,2,0,0,1,1.41.59,2,2,0,0,1,.59,1.41v2a2,2,0,0,1-2,2Zm0-5h0a1,1,0,0,0-1,1v2a1,1,0,0,0,.3.7,1,1,0,0,0,.7.29h0a1,1,0,0,0,1-1v-2a1,1,0,0,0-1-1Z"/><path d="M15.48,7.58A2,2,0,0,1,14.07,7a2.08,2.08,0,0,1-.59-1.42v-2a2,2,0,0,1,2-2h0a2,2,0,0,1,2,2v2A1.94,1.94,0,0,1,16.9,7a2,2,0,0,1-1.41.59h0Zm0-5h0a1,1,0,0,0-1,1v2a1,1,0,0,0,.3.71,1,1,0,0,0,.7.29h0a1,1,0,0,0,.7-.3,1,1,0,0,0,.29-.71v-2a1,1,0,0,0-.3-.7A1,1,0,0,0,15.48,2.58Z"/><path d="M3,11.11a.5.5,0,0,1-.5-.5.5.5,0,0,1,.5-.5l18,0h0a.51.51,0,0,1,.5.5.5.5,0,0,1-.5.5l-18,0Z"/></g></svg>