<svg id="Layer_1" data-name="Layer 1" xmlns="http://www.w3.org/2000/svg" xmlns:xlink="http://www.w3.org/1999/xlink" viewBox="0 0 24 24"><defs><style>.cls-1{fill:none;}.cls-2{clip-path:url(#clip-path);}</style><clipPath id="clip-path"><rect class="cls-1" y="-0.09" width="24" height="24"/></clipPath></defs><title>calendar-tick</title><g class="cls-2"><path d="M17,22.61a.51.51,0,0,1-.36-.15.51.51,0,0,1,0-.71l4.63-4.63a.51.51,0,0,1,.71,0,.5.5,0,0,1,0,.71l-4.63,4.63A.49.49,0,0,1,17,22.61Z"/><path d="M17,22.61a.51.51,0,0,1-.36-.15l-1.87-1.87a.5.5,0,0,1,.71-.71l1.87,1.87a.5.5,0,0,1,0,.71A.49.49,0,0,1,17,22.61Z"/><path d="M5.39,20.92a3.52,3.52,0,0,1-3.5-3.5l0-9a3.5,3.5,0,0,1,3.49-3.5h1a.5.5,0,0,1,.5.5.49.49,0,0,1-.49.5h-1a2.49,2.49,0,0,0-2.5,2.5l0,9a2.51,2.51,0,0,0,2.5,2.5h0l6.23,0h0a.5.5,0,0,1,.5.5.5.5,0,0,1-.5.5l-6.23,0Z"/><path d="M20.39,15.25a.5.5,0,0,1-.5-.5l0-6.37a2.48,2.48,0,0,0-2.5-2.49h-1a.51.51,0,0,1-.5-.5.5.5,0,0,1,.5-.5h1a3.48,3.48,0,0,1,3.5,3.49l0,6.37a.5.5,0,0,1-.5.5Z"/><path d="M9.36,5.91a.51.51,0,0,1-.5-.5.5.5,0,0,1,.5-.5h4a.49.49,0,0,1,.5.49.5.5,0,0,1-.49.51h-4Z"/><path d="M7.86,7.41a2,2,0,0,1-1.41-.58,2.08,2.08,0,0,1-.59-1.42v-2a2,2,0,0,1,2-2h0a2,2,0,0,1,2,2v2a1.94,1.94,0,0,1-.58,1.42,2,2,0,0,1-1.41.59Zm0-5h0a1,1,0,0,0-1,1v2a1,1,0,0,0,1,1h0a1,1,0,0,0,.7-.3.94.94,0,0,0,.29-.7v-2A1,1,0,0,0,7.86,2.41Z"/><path d="M14.86,7.39a2,2,0,0,1-1.41-.58,2.07,2.07,0,0,1-.59-1.41v-2a2,2,0,0,1,2-2h0a2,2,0,0,1,2,2v2a2,2,0,0,1-2,2Zm0-5h0a1,1,0,0,0-.71.3,1,1,0,0,0-.29.7v2a1,1,0,0,0,1,1h0a1,1,0,0,0,1-1v-2A1,1,0,0,0,14.86,2.39Z"/><path d="M2.38,10.92a.5.5,0,0,1-.5-.5.5.5,0,0,1,.5-.5l18,0h0a.5.5,0,0,1,.5.5.51.51,0,0,1-.5.5l-18,0Z"/></g></svg>