<svg id="Layer_1" data-name="Layer 1" xmlns="http://www.w3.org/2000/svg" xmlns:xlink="http://www.w3.org/1999/xlink" viewBox="0 0 24 24"><defs><style>.cls-1{fill:none;}.cls-2{clip-path:url(#clip-path);}</style><clipPath id="clip-path"><rect class="cls-1" y="0.03" width="24" height="24"/></clipPath></defs><title>calendar-cross</title><g class="cls-2"><path d="M15.87,22.48a.47.47,0,0,1-.35-.14.5.5,0,0,1,0-.71l4.24-4.24a.5.5,0,0,1,.71,0,.5.5,0,0,1,0,.7l-4.24,4.25A.5.5,0,0,1,15.87,22.48Z"/><path d="M20.12,22.48a.5.5,0,0,1-.36-.14l-4.24-4.25a.48.48,0,0,1,0-.7.5.5,0,0,1,.71,0l4.24,4.24a.51.51,0,0,1,0,.71A.49.49,0,0,1,20.12,22.48Z"/><path d="M6,21a3.47,3.47,0,0,1-2.47-1,3.52,3.52,0,0,1-1-2.47l0-9A3.5,3.5,0,0,1,6,5H7A.5.5,0,0,1,7,6H6a2.51,2.51,0,0,0-2.5,2.51l0,9a2.53,2.53,0,0,0,.74,1.76A2.48,2.48,0,0,0,6,20H6l6.23,0h0a.5.5,0,0,1,.5.5.5.5,0,0,1-.5.5L6,21Z"/><path d="M21,15.37a.5.5,0,0,1-.5-.5l0-6.37A2.5,2.5,0,0,0,18,6H17a.5.5,0,0,1,0-1h1a3.5,3.5,0,0,1,3.5,3.49l0,6.37a.5.5,0,0,1-.5.5Z"/><path d="M10,6a.51.51,0,0,1-.5-.5A.5.5,0,0,1,10,5h4a.5.5,0,0,1,0,1H10Z"/><path d="M8.48,7.53A2,2,0,0,1,7.07,7a2.07,2.07,0,0,1-.59-1.41v-2a2,2,0,0,1,.58-1.42,2,2,0,0,1,1.42-.59h0a2,2,0,0,1,1.41.59,2,2,0,0,1,.59,1.41v2a2,2,0,0,1-2,2Zm0-5h0a1,1,0,0,0-1,1v2a1,1,0,0,0,.3.7,1,1,0,0,0,.7.29h0a1,1,0,0,0,1-1v-2a1,1,0,0,0-1-1Z"/><path d="M15.48,7.52a2,2,0,0,1-1.41-.59,2.05,2.05,0,0,1-.59-1.41v-2a2,2,0,0,1,2-2h0a2,2,0,0,1,2,2v2a1.94,1.94,0,0,1-.58,1.42,2,2,0,0,1-1.41.59Zm0-5h0a1,1,0,0,0-1,1v2a1,1,0,0,0,1,1,.93.93,0,0,0,.71-.3,1,1,0,0,0,.29-.71v-2a1,1,0,0,0-.3-.7A1,1,0,0,0,15.48,2.52Z"/><path d="M3,11.05a.5.5,0,0,1-.5-.5.5.5,0,0,1,.5-.5L21,10h0a.5.5,0,0,1,0,1L3,11.05Z"/></g></svg>