<svg id="Layer_1" data-name="Layer 1" xmlns="http://www.w3.org/2000/svg" xmlns:xlink="http://www.w3.org/1999/xlink" viewBox="0 0 24 24"><defs><style>.cls-1{fill:none;}.cls-2{clip-path:url(#clip-path);}</style><clipPath id="clip-path"><rect class="cls-1" y="0.14" width="24" height="24"/></clipPath></defs><title>calendar-search</title><g class="cls-2"><path d="M15.59,19.42a2.9,2.9,0,1,1,2.89-2.9A2.9,2.9,0,0,1,15.59,19.42Zm0-4.8a1.9,1.9,0,1,0,1.89,1.9A1.9,1.9,0,0,0,15.59,14.62Z"/><path d="M20.78,22.21a.47.47,0,0,1-.35-.14l-3.5-3.5a.5.5,0,0,1,0-.71.51.51,0,0,1,.71,0l3.49,3.5a.5.5,0,0,1,0,.71A.46.46,0,0,1,20.78,22.21Z"/><path d="M6,21.31a3.47,3.47,0,0,1-2.47-1,3.52,3.52,0,0,1-1-2.47l0-9A3.51,3.51,0,0,1,6,5.31H7a.5.5,0,0,1,0,1H6a2.51,2.51,0,0,0-2.5,2.51l0,9a2.52,2.52,0,0,0,.74,1.76A2.48,2.48,0,0,0,6,20.31H6l6.23,0h0a.5.5,0,0,1,.5.5.5.5,0,0,1-.5.5L6,21.31Z"/><path d="M21,15.64a.5.5,0,0,1-.5-.5l0-6.37A2.49,2.49,0,0,0,18,6.28H17a.5.5,0,0,1,0-1h1a3.5,3.5,0,0,1,3.5,3.49l0,6.37a.5.5,0,0,1-.5.5Z"/><path d="M10,6.3a.5.5,0,0,1-.5-.5A.49.49,0,0,1,10,5.3h4a.51.51,0,0,1,.5.5.5.5,0,0,1-.5.5Z"/><path d="M8.49,7.8a2,2,0,0,1-2-2v-2a2,2,0,0,1,.58-1.42A2,2,0,0,1,8.48,1.8h0a2,2,0,0,1,1.41.59,2,2,0,0,1,.59,1.41v2a2,2,0,0,1-2,2Zm0-1v0a1,1,0,0,0,1-1v-2a1,1,0,0,0-1-1h0a1,1,0,0,0-1,1v2a1,1,0,0,0,1,1Z"/><path d="M15.48,7.79a2,2,0,0,1-2-2v-2a2,2,0,0,1,2-2h0a2,2,0,0,1,2,2v2A2,2,0,0,1,16.9,7.2a2,2,0,0,1-1.41.59h0Zm0-5h0a1,1,0,0,0-1,1v2a1,1,0,0,0,.29.71,1,1,0,0,0,.7.29h0a1,1,0,0,0,.7-.3,1,1,0,0,0,.3-.71v-2a1,1,0,0,0-.29-.7A1,1,0,0,0,15.48,2.79Z"/><path d="M3,11.32a.5.5,0,0,1-.5-.5.5.5,0,0,1,.5-.5l18-.05h0a.51.51,0,0,1,.5.5.5.5,0,0,1-.5.5L3,11.32Z"/></g></svg>