<svg id="Layer_1" data-name="Layer 1" xmlns="http://www.w3.org/2000/svg" xmlns:xlink="http://www.w3.org/1999/xlink" viewBox="0 0 24 24"><defs><style>.cls-1{fill:none;}.cls-2{clip-path:url(#clip-path);}</style><clipPath id="clip-path"><rect class="cls-1" width="24" height="24"/></clipPath></defs><title>CD</title><g class="cls-2"><path d="M12,22.5A10.5,10.5,0,1,1,22.5,12,10.51,10.51,0,0,1,12,22.5Zm0-20A9.5,9.5,0,1,0,21.5,12,9.51,9.51,0,0,0,12,2.5Z"/><path d="M12,15.5A3.5,3.5,0,1,1,15.5,12,3.5,3.5,0,0,1,12,15.5Zm0-6A2.5,2.5,0,1,0,14.5,12,2.5,2.5,0,0,0,12,9.5Z"/></g></svg>