<svg id="Layer_1" data-name="Layer 1" xmlns="http://www.w3.org/2000/svg" xmlns:xlink="http://www.w3.org/1999/xlink" viewBox="0 0 24 24"><defs><style>.cls-1{fill:none;}.cls-2{clip-path:url(#clip-path);}</style><clipPath id="clip-path"><rect class="cls-1" y="0.01" width="24" height="24"/></clipPath></defs><title>chat-question</title><g class="cls-2"><path d="M13.44,16.07a.51.51,0,1,1,.5-.51A.51.51,0,0,1,13.44,16.07Z"/><path d="M13.43,13.59a.51.51,0,0,1-.5-.5.5.5,0,0,1,.5-.5,2.08,2.08,0,0,0,0-4.16,3,3,0,0,0-2.1.56,2.43,2.43,0,0,0-.68,1.88.51.51,0,0,1-.5.5.5.5,0,0,1-.5-.5,3.3,3.3,0,0,1,1-2.63,3.89,3.89,0,0,1,2.82-.8h0a3.08,3.08,0,0,1-.07,6.15Z"/><path d="M13.08,20.24a8.49,8.49,0,0,1-3.91-.95.5.5,0,1,1,.46-.89,7.52,7.52,0,1,0-3-2.77.51.51,0,0,1-.17.69.5.5,0,0,1-.69-.17A8.5,8.5,0,0,1,18.86,5.51,8.5,8.5,0,0,1,14.64,20.1,8.3,8.3,0,0,1,13.08,20.24Z"/><path d="M5.32,20.76a1.18,1.18,0,0,1-1.06-1.65l1.52-3.42a.5.5,0,0,1,.92.41L5.17,19.52a.15.15,0,0,0,0,.18.17.17,0,0,0,.18.05l3.85-1.37a.5.5,0,0,1,.34.94L5.72,20.69A1.12,1.12,0,0,1,5.32,20.76Z"/></g></svg>