<svg id="Layer_1" data-name="Layer 1" xmlns="http://www.w3.org/2000/svg" xmlns:xlink="http://www.w3.org/1999/xlink" viewBox="0 0 24 24"><defs><style>.cls-1{fill:none;}.cls-2{clip-path:url(#clip-path);}</style><clipPath id="clip-path"><rect class="cls-1" x="-0.15" y="0.03" width="24" height="24"/></clipPath></defs><title>circle-bigcross</title><g class="cls-2"><path d="M12,21.52A9.52,9.52,0,1,1,21.52,12,9.53,9.53,0,0,1,12,21.52Zm0-18A8.52,8.52,0,1,0,20.52,12,8.53,8.53,0,0,0,12,3.48Z"/><path d="M18.38,18.88a.47.47,0,0,1-.35-.15L5.27,6a.5.5,0,0,1,0-.71.5.5,0,0,1,.7,0L18.73,18a.5.5,0,0,1,0,.71A.47.47,0,0,1,18.38,18.88Z"/><path d="M5.62,18.88a.47.47,0,0,1-.35-.15.5.5,0,0,1,0-.71L18,5.27a.5.5,0,0,1,.7,0,.5.5,0,0,1,0,.71L6,18.73A.47.47,0,0,1,5.62,18.88Z"/></g></svg>