<svg id="Layer_1" data-name="Layer 1" xmlns="http://www.w3.org/2000/svg" xmlns:xlink="http://www.w3.org/1999/xlink" viewBox="0 0 24 24"><defs><style>.cls-1{fill:none;}.cls-2{clip-path:url(#clip-path);}</style><clipPath id="clip-path"><rect class="cls-1" width="24" height="24"/></clipPath></defs><title>circle-lock</title><g class="cls-2"><path d="M11,21A9,9,0,0,1,3.7,6.79,8.94,8.94,0,0,1,16.2,4.72a.5.5,0,0,1,.11.69.5.5,0,0,1-.7.12A8,8,0,1,0,6.35,18.47a8,8,0,0,0,8.68.38.5.5,0,0,1,.68.18.51.51,0,0,1-.17.69A9,9,0,0,1,11,21Z"/><path d="M18.63,15.13A3.35,3.35,0,1,1,21,9.38h0A3.36,3.36,0,0,1,21,14.11a3.28,3.28,0,0,1-2.35,1Zm0-5.68a2.34,2.34,0,1,0,1.63.65A2.33,2.33,0,0,0,18.63,9.45Z"/><path d="M9.12,14a.51.51,0,0,1-.5-.49L8.6,12a.49.49,0,0,1,.49-.5l6.69-.12a.48.48,0,0,1,.51.49.51.51,0,0,1-.49.51l-6.19.11v1.06a.5.5,0,0,1-.49.51Z"/></g></svg>