<svg id="Layer_1" data-name="Layer 1" xmlns="http://www.w3.org/2000/svg" xmlns:xlink="http://www.w3.org/1999/xlink" viewBox="0 0 24 24"><defs><style>.cls-1{fill:none;}.cls-2{clip-path:url(#clip-path);}</style><clipPath id="clip-path"><rect class="cls-1" x="0.15" y="-0.06" width="24" height="24"/></clipPath></defs><title>circle-scroll</title><g class="cls-2"><path d="M12,21.52A9.52,9.52,0,1,1,21.52,12,9.53,9.53,0,0,1,12,21.52Zm0-18A8.52,8.52,0,1,0,20.52,12,8.53,8.53,0,0,0,12,3.48Z"/><path d="M11.91,17.66h0a.54.54,0,0,1-.36-.14L9.29,15.25a.5.5,0,0,1,.71-.71l1.91,1.92L14,14.36a.5.5,0,0,1,.71.71l-2.45,2.45A.5.5,0,0,1,11.91,17.66Z"/><path d="M14.36,9.78A.5.5,0,0,1,14,9.64l-2.09-2.1L10,9.46a.5.5,0,0,1-.71-.71l2.26-2.27a.53.53,0,0,1,.71,0l2.45,2.45a.51.51,0,0,1,0,.71A.49.49,0,0,1,14.36,9.78Z"/></g></svg>