<svg id="Layer_1" data-name="Layer 1" xmlns="http://www.w3.org/2000/svg" xmlns:xlink="http://www.w3.org/1999/xlink" viewBox="0 0 24 24"><defs><style>.cls-1{fill:none;}.cls-2{clip-path:url(#clip-path);}</style><clipPath id="clip-path"><rect class="cls-1" y="0.06" width="24" height="24"/></clipPath></defs><title>circle-code</title><g class="cls-2"><path d="M12,21.52A9.52,9.52,0,1,1,21.52,12,9.53,9.53,0,0,1,12,21.52Zm0-18A8.52,8.52,0,1,0,20.52,12,8.53,8.53,0,0,0,12,3.48Z"/><path d="M14.9,14.86a.51.51,0,0,1-.36-.15.51.51,0,0,1,0-.71l1.92-1.91L14.36,10a.5.5,0,0,1,.71-.71l2.45,2.45a.5.5,0,0,1,0,.7l-2.27,2.27A.49.49,0,0,1,14.9,14.86Z"/><path d="M9.1,14.86a.49.49,0,0,1-.35-.15L6.48,12.44a.5.5,0,0,1,0-.7L8.93,9.29a.5.5,0,0,1,.71.71l-2.1,2.09L9.46,14a.51.51,0,0,1,0,.71A.51.51,0,0,1,9.1,14.86Z"/></g></svg>