<svg id="Layer_1" data-name="Layer 1" xmlns="http://www.w3.org/2000/svg" xmlns:xlink="http://www.w3.org/1999/xlink" viewBox="0 0 24 24"><defs><style>.cls-1{fill:none;}.cls-2{clip-path:url(#clip-path);}</style><clipPath id="clip-path"><rect class="cls-1" width="24" height="24"/></clipPath></defs><title>circle-slash</title><g class="cls-2"><path d="M12,22.46A10.46,10.46,0,1,1,22.46,12,10.47,10.47,0,0,1,12,22.46ZM12,2.54A9.46,9.46,0,1,0,21.46,12,9.47,9.47,0,0,0,12,2.54Z"/><path d="M12,12.5a.47.47,0,0,1-.35-.15.48.48,0,0,1,0-.7l7-7a.5.5,0,1,1,.71.71l-7,7A.47.47,0,0,1,12,12.5Z"/></g></svg>