<svg id="Layer_1" data-name="Layer 1" xmlns="http://www.w3.org/2000/svg" xmlns:xlink="http://www.w3.org/1999/xlink" viewBox="0 0 24 24"><defs><style>.cls-1{fill:none;}.cls-2{clip-path:url(#clip-path);}</style><clipPath id="clip-path"><rect class="cls-1" width="24" height="24"/></clipPath></defs><title>circle-question</title><g class="cls-2"><path d="M12.42,16.93a.51.51,0,1,1,.5-.5A.51.51,0,0,1,12.42,16.93Z"/><path d="M12,21.52A9.52,9.52,0,1,1,21.52,12,9.53,9.53,0,0,1,12,21.52Zm0-18A8.52,8.52,0,1,0,20.52,12,8.53,8.53,0,0,0,12,3.48Z"/><path d="M12.41,14.06a.5.5,0,0,1-.5-.5.5.5,0,0,1,.5-.5,2.49,2.49,0,1,0,0-5,3.51,3.51,0,0,0-2.48.66A2.85,2.85,0,0,0,9.1,11a.5.5,0,0,1-.5.5.51.51,0,0,1-.5-.5A3.81,3.81,0,0,1,9.27,8a4.41,4.41,0,0,1,3.2-.91h0a3.49,3.49,0,0,1-.07,7Z"/></g></svg>