<svg id="Layer_1" data-name="Layer 1" xmlns="http://www.w3.org/2000/svg" xmlns:xlink="http://www.w3.org/1999/xlink" viewBox="0 0 24 24"><defs><style>.cls-1{fill:none;}.cls-2{clip-path:url(#clip-path);}</style><clipPath id="clip-path"><rect class="cls-1" y="0.02" width="24" height="24"/></clipPath></defs><title>circle-exclamation</title><g class="cls-2"><path d="M12,22.5A10.5,10.5,0,1,1,22.5,12,10.51,10.51,0,0,1,12,22.5Zm0-20A9.5,9.5,0,1,0,21.5,12,9.51,9.51,0,0,0,12,2.5Z"/><path d="M12,15.12a.5.5,0,0,1-.5-.5v-8a.5.5,0,0,1,1,0v8A.5.5,0,0,1,12,15.12Z"/><path d="M12,18.1a.45.45,0,0,1-.35-.15.36.36,0,0,1-.11-.16.47.47,0,0,1,0-.38.53.53,0,0,1,.27-.27.5.5,0,0,1,.38,0,.53.53,0,0,1,.27.27.43.43,0,0,1,0,.19.51.51,0,0,1-.5.5Z"/></g></svg>