<svg id="Layer_1" data-name="Layer 1" xmlns="http://www.w3.org/2000/svg" xmlns:xlink="http://www.w3.org/1999/xlink" viewBox="0 0 24 24"><defs><style>.cls-1{fill:none;}.cls-2{clip-path:url(#clip-path);}</style><clipPath id="clip-path"><rect class="cls-1" x="0.21" y="-0.21" width="24" height="24"/></clipPath></defs><title>circle-logout</title><g class="cls-2"><path d="M20.87,12.72h0l-8.26,0a.52.52,0,0,1-.5-.51.5.5,0,0,1,.5-.49h0l8.25,0a.5.5,0,0,1,.5.5A.51.51,0,0,1,20.87,12.72Z"/><path d="M15.36,16.59a.54.54,0,0,1-.36-.14l-3.88-3.91a.48.48,0,0,1,0-.7L15,8a.5.5,0,0,1,.71,0,.51.51,0,0,1,0,.71l-3.55,3.52,3.53,3.55a.51.51,0,0,1,0,.71A.54.54,0,0,1,15.36,16.59Z"/><path d="M11.59,21A9,9,0,0,1,4.31,6.79,8.93,8.93,0,0,1,16.8,4.72a.49.49,0,0,1,.12.69.5.5,0,0,1-.7.12A8,8,0,0,0,5.12,7.37,8,8,0,0,0,15.64,18.85a.5.5,0,0,1,.68.18.51.51,0,0,1-.18.69A8.93,8.93,0,0,1,11.59,21Z"/></g></svg>