<svg id="Layer_1" data-name="Layer 1" xmlns="http://www.w3.org/2000/svg" xmlns:xlink="http://www.w3.org/1999/xlink" viewBox="0 0 24 24"><defs><style>.cls-1{fill:none;}.cls-2{clip-path:url(#clip-path);}</style><clipPath id="clip-path"><rect class="cls-1" x="0.15" y="-0.06" width="24" height="24"/></clipPath></defs><title>cloud-plus_1</title><g class="cls-2"><path d="M7,17.46H5.5a4,4,0,0,1-4-4,4,4,0,0,1,4-4H7a.5.5,0,0,1,.5.5.5.5,0,0,1-.5.5H5.5a2.93,2.93,0,0,0-2.11.88,2.91,2.91,0,0,0-.89,2.12,3,3,0,0,0,3,3H7a.5.5,0,0,1,.5.5A.5.5,0,0,1,7,17.46Z"/><path d="M18.5,17.46H17a.5.5,0,0,1-.5-.5.5.5,0,0,1,.5-.5h1.5a3,3,0,0,0,2.11-.88,2.94,2.94,0,0,0,.89-2.12,3,3,0,0,0-3-3H17a.5.5,0,0,1-.5-.5.5.5,0,0,1,.5-.5h1.5a4,4,0,0,1,4,4,4,4,0,0,1-4,4Z"/><path d="M17,10.46a.5.5,0,0,1-.5-.5,4.5,4.5,0,1,0-9,0,.5.5,0,0,1-1,0,5.5,5.5,0,0,1,11,0A.5.5,0,0,1,17,10.46Z"/><path d="M12,19.54a.5.5,0,0,1-.5-.5V14.87a.5.5,0,1,1,1,0V19A.5.5,0,0,1,12,19.54Z"/><path d="M14.09,17.46H9.91a.51.51,0,0,1-.5-.5.5.5,0,0,1,.5-.5h4.18a.5.5,0,0,1,.5.5A.51.51,0,0,1,14.09,17.46Z"/></g></svg>