<svg id="Layer_1" data-name="Layer 1" xmlns="http://www.w3.org/2000/svg" xmlns:xlink="http://www.w3.org/1999/xlink" viewBox="0 0 24 24"><defs><style>.cls-1{fill:none;}.cls-2{clip-path:url(#clip-path);}</style><clipPath id="clip-path"><rect class="cls-1" y="-0.06" width="24" height="24"/></clipPath></defs><title>cloud-tick</title><g class="cls-2"><path d="M11.38,19.26h0a.49.49,0,0,1-.36-.15L9.73,17.82a.5.5,0,0,1,0-.71.51.51,0,0,1,.71,0l.94.94,3-3a.5.5,0,0,1,.71,0,.5.5,0,0,1,0,.7l-3.37,3.37A.47.47,0,0,1,11.38,19.26Z"/><path d="M7,17.74H5.5a4,4,0,0,1-4-4,3.92,3.92,0,0,1,1.18-2.82A3.92,3.92,0,0,1,5.5,9.74H7a.5.5,0,0,1,.5.5.5.5,0,0,1-.5.5H5.5a3,3,0,0,0-3,3,3,3,0,0,0,3,3H7a.5.5,0,0,1,.5.5A.5.5,0,0,1,7,17.74Z"/><path d="M18.5,17.74H17a.5.5,0,0,1-.5-.5.5.5,0,0,1,.5-.5h1.5a3,3,0,0,0,3-3,3,3,0,0,0-3-3H17a.5.5,0,0,1-.5-.5.5.5,0,0,1,.5-.5h1.5a4,4,0,0,1,4,4,4,4,0,0,1-4,4Z"/><path d="M17,10.74a.5.5,0,0,1-.5-.5,4.5,4.5,0,0,0-9,0,.5.5,0,1,1-1,0,5.5,5.5,0,0,1,11,0A.5.5,0,0,1,17,10.74Z"/></g></svg>