<svg id="Layer_1" data-name="Layer 1" xmlns="http://www.w3.org/2000/svg" xmlns:xlink="http://www.w3.org/1999/xlink" viewBox="0 0 24 24"><defs><style>.cls-1{fill:none;}.cls-2{clip-path:url(#clip-path);}</style><clipPath id="clip-path"><rect class="cls-1" width="24" height="24"/></clipPath></defs><title>cloud-plus</title><g class="cls-2"><path d="M7,17.44H5.5a4,4,0,0,1-4-4,4,4,0,0,1,4-4H7a.5.5,0,0,1,.5.5.5.5,0,0,1-.5.5H5.5a2.93,2.93,0,0,0-2.11.88,2.91,2.91,0,0,0-.89,2.12,3,3,0,0,0,3,3H7a.5.5,0,0,1,.5.5A.5.5,0,0,1,7,17.44Z"/><path d="M18.5,17.44H17a.5.5,0,0,1-.5-.5.5.5,0,0,1,.5-.5h1.5a3,3,0,0,0,2.11-.88,2.94,2.94,0,0,0,.89-2.12,3,3,0,0,0-3-3H17a.5.5,0,0,1-.5-.5.5.5,0,0,1,.5-.5h1.5a4,4,0,0,1,4,4,4,4,0,0,1-4,4Z"/><path d="M17,10.44a.5.5,0,0,1-.5-.5,4.5,4.5,0,0,0-9,0,.5.5,0,0,1-1,0,5.5,5.5,0,0,1,11,0A.5.5,0,0,1,17,10.44Z"/><path d="M12,19.56a.5.5,0,0,1-.5-.5V14.81a.5.5,0,0,1,1,0v4.25A.5.5,0,0,1,12,19.56Z"/><path d="M14.13,17.44H9.88a.5.5,0,0,1-.5-.5.5.5,0,0,1,.5-.5h4.25a.5.5,0,0,1,.5.5A.51.51,0,0,1,14.13,17.44Z"/></g></svg>