<svg id="Layer_1" data-name="Layer 1" xmlns="http://www.w3.org/2000/svg" xmlns:xlink="http://www.w3.org/1999/xlink" viewBox="0 0 24 24"><defs><style>.cls-1{fill:none;}.cls-2{clip-path:url(#clip-path);}</style><clipPath id="clip-path"><rect class="cls-1" y="0.06" width="24" height="24"/></clipPath></defs><title>cloud-import</title><g class="cls-2"><path d="M12,18.5a.47.47,0,0,1-.35-.15l-3-3a.49.49,0,0,1,.7-.7l2.15,2.14V12a.5.5,0,0,1,1,0v6a.5.5,0,0,1-.31.46A.43.43,0,0,1,12,18.5Z"/><path d="M12,18.5a.47.47,0,0,1-.35-.15.48.48,0,0,1,0-.7l3-3a.49.49,0,0,1,.7.7l-3,3A.47.47,0,0,1,12,18.5Z"/><path d="M7,18.5H5.5a4,4,0,0,1-4-4,4,4,0,0,1,4-4H7a.5.5,0,0,1,0,1H5.5a3,3,0,0,0-3,3,3,3,0,0,0,3,3H7a.5.5,0,0,1,0,1Z"/><path d="M18.5,18.5H17a.5.5,0,0,1,0-1h1.5a3,3,0,0,0,3-3,3,3,0,0,0-3-3H17a.5.5,0,0,1,0-1h1.5a4,4,0,0,1,4,4,4,4,0,0,1-4,4Z"/><path d="M17,11.5a.5.5,0,0,1-.5-.5,4.5,4.5,0,0,0-9,0,.5.5,0,0,1-1,0,5.5,5.5,0,0,1,11,0A.5.5,0,0,1,17,11.5Z"/></g></svg>