<svg id="Layer_1" data-name="Layer 1" xmlns="http://www.w3.org/2000/svg" xmlns:xlink="http://www.w3.org/1999/xlink" viewBox="0 0 24 24"><defs><style>.cls-1{fill:none;}.cls-2{clip-path:url(#clip-path);}</style><clipPath id="clip-path"><rect class="cls-1" y="0.06" width="24" height="24"/></clipPath></defs><title>code</title><g class="cls-2"><path d="M5.9,15.75a.47.47,0,0,1-.35-.15L2.42,12.48a.5.5,0,0,1-.14-.35.52.52,0,0,1,.14-.36L5.8,8.4a.5.5,0,0,1,.71,0,.5.5,0,0,1,0,.7l-3,3L6.25,14.9a.48.48,0,0,1,0,.7A.47.47,0,0,1,5.9,15.75Z"/><path d="M18.1,15.75a.47.47,0,0,1-.35-.15.48.48,0,0,1,0-.7l2.77-2.77-3-3a.5.5,0,0,1,0-.7.5.5,0,0,1,.71,0l3.38,3.37a.52.52,0,0,1,.14.36.5.5,0,0,1-.14.35L18.45,15.6A.47.47,0,0,1,18.1,15.75Z"/><path d="M10.2,17.35a.57.57,0,0,1-.18,0,.49.49,0,0,1-.29-.64L13.34,7a.5.5,0,1,1,.93.35L10.66,17A.48.48,0,0,1,10.2,17.35Z"/></g></svg>