<svg id="Layer_1" data-name="Layer 1" xmlns="http://www.w3.org/2000/svg" xmlns:xlink="http://www.w3.org/1999/xlink" viewBox="0 0 24 24"><defs><style>.cls-1{fill:none;}.cls-2{clip-path:url(#clip-path);}</style><clipPath id="clip-path"><rect class="cls-1" y="-0.06" width="24" height="24"/></clipPath></defs><title>code-merge</title><g class="cls-2"><path d="M7,22.2a3.63,3.63,0,1,1,3.62-3.62A3.63,3.63,0,0,1,7,22.2ZM7,16a2.63,2.63,0,1,0,2.62,2.63A2.63,2.63,0,0,0,7,16Z"/><path d="M7,9.05a3.63,3.63,0,1,1,3.62-3.63A3.64,3.64,0,0,1,7,9.05ZM7,2.8A2.63,2.63,0,1,0,9.63,5.42,2.62,2.62,0,0,0,7,2.8Z"/><path d="M17,9.05a3.63,3.63,0,1,1,3.63-3.63A3.63,3.63,0,0,1,17,9.05ZM17,2.8a2.63,2.63,0,1,0,2.63,2.62A2.62,2.62,0,0,0,17,2.8Z"/><path d="M7,16a.5.5,0,0,1-.5-.5V8.55a.5.5,0,0,1,1,0v6.9A.5.5,0,0,1,7,16Z"/><path d="M13,13.08H7a.5.5,0,0,1,0-1H13a3.45,3.45,0,0,0,3.54-3.53.5.5,0,0,1,1,0A4.38,4.38,0,0,1,13,13.08Z"/></g></svg>