<svg id="Layer_1" data-name="Layer 1" xmlns="http://www.w3.org/2000/svg" xmlns:xlink="http://www.w3.org/1999/xlink" viewBox="0 0 24 24"><defs><style>.cls-1{fill:none;}.cls-2{clip-path:url(#clip-path);}</style><clipPath id="clip-path"><rect class="cls-1" width="24" height="24"/></clipPath></defs><title>compass</title><g class="cls-2"><path d="M10.49,20.91h0A.49.49,0,0,1,10,20.6L3.13,3.78a.5.5,0,0,1,.65-.65L20.6,10a.49.49,0,0,1,.31.43.5.5,0,0,1-.26.47l-6.31,3.41-3.41,6.31A.51.51,0,0,1,10.49,20.91Zm-6-16.4,6,14.73,3-5.51a.64.64,0,0,1,.2-.2l5.51-3Z"/></g></svg>