<svg id="Layer_1" data-name="Layer 1" xmlns="http://www.w3.org/2000/svg" xmlns:xlink="http://www.w3.org/1999/xlink" viewBox="0 0 24 24"><defs><style>.cls-1{fill:none;}.cls-2{clip-path:url(#clip-path);}</style><clipPath id="clip-path"><rect class="cls-1" y="0.03" width="24" height="24"/></clipPath></defs><title>copy</title><g class="cls-2"><path d="M14.78,22.24H6.44a2.36,2.36,0,0,1-2.36-2.36V6.9A2.36,2.36,0,0,1,6.44,4.55h8.34A2.36,2.36,0,0,1,17.14,6.9v13A2.36,2.36,0,0,1,14.78,22.24ZM6.44,5.55A1.35,1.35,0,0,0,5.08,6.9v13a1.36,1.36,0,0,0,1.36,1.36h8.34a1.36,1.36,0,0,0,1.36-1.36V6.9a1.35,1.35,0,0,0-1.36-1.35Z"/><path d="M19.42,17.6a.5.5,0,0,1-.5-.5V6.65A3.9,3.9,0,0,0,15,2.76H9.22a.5.5,0,0,1-.5-.5.5.5,0,0,1,.5-.5H15a4.9,4.9,0,0,1,4.89,4.89V17.1A.5.5,0,0,1,19.42,17.6Z"/></g></svg>