<svg id="Layer_1" data-name="Layer 1" xmlns="http://www.w3.org/2000/svg" xmlns:xlink="http://www.w3.org/1999/xlink" viewBox="0 0 24 24"><defs><style>.cls-1{fill:none;}.cls-2{clip-path:url(#clip-path);}</style><clipPath id="clip-path"><rect class="cls-1" y="0.02" width="24" height="24"/></clipPath></defs><title>cube-skeleton</title><g class="cls-2"><path d="M12,11.91a.54.54,0,0,1-.25-.06L3.52,7.14a.49.49,0,0,1-.26-.43.51.51,0,0,1,.26-.44l8.23-4.7a.5.5,0,0,1,.5,0l8.23,4.7a.51.51,0,0,1,.26.44.49.49,0,0,1-.26.43l-8.23,4.71A.54.54,0,0,1,12,11.91ZM4.77,6.71,12,10.84l7.23-4.13L12,2.58Z"/><path d="M12,22.5a.45.45,0,0,1-.25-.07l-8.23-4.7a.51.51,0,0,1-.26-.44V6.71a.5.5,0,0,1,.5-.5.5.5,0,0,1,.5.5V17L12,21.42,19.74,17V6.71a.5.5,0,0,1,.5-.5.5.5,0,0,1,.5.5V17.29a.51.51,0,0,1-.26.44l-8.23,4.7A.45.45,0,0,1,12,22.5Z"/><path d="M12,22.5a.5.5,0,0,1-.5-.5V12.37l-7.21,5a.5.5,0,0,1-.58-.82l8-5.59a.51.51,0,0,1,.79.41V22A.5.5,0,0,1,12,22.5Z"/><path d="M20,17.5a.52.52,0,0,1-.29-.09l-8-5.59a.5.5,0,0,1,.58-.82l8,5.59a.51.51,0,0,1,.12.7A.49.49,0,0,1,20,17.5Z"/></g></svg>