<svg id="Layer_1" data-name="Layer 1" xmlns="http://www.w3.org/2000/svg" xmlns:xlink="http://www.w3.org/1999/xlink" viewBox="0 0 24 24"><defs><style>.cls-1{fill:none;}.cls-2{clip-path:url(#clip-path);}</style><clipPath id="clip-path"><rect class="cls-1" y="0.02" width="24" height="24"/></clipPath></defs><title>cube</title><g class="cls-2"><path d="M11.93,12.52a.46.46,0,0,1-.23,0L2.36,7.77a.49.49,0,0,1-.28-.44.51.51,0,0,1,.28-.45L11.7,2.19a.48.48,0,0,1,.45,0l9.49,4.7a.5.5,0,0,1,.28.45.51.51,0,0,1-.28.45l-9.49,4.69A.44.44,0,0,1,11.93,12.52ZM3.7,7.33l8.23,4.14,8.36-4.14L11.93,3.19Z"/><path d="M12,21.87a.54.54,0,0,1-.22-.05l-9.42-4.7a.5.5,0,0,1-.28-.45V7.33a.5.5,0,0,1,.5-.5.5.5,0,0,1,.5.5v9L12,20.81l8.92-4.4V7.33a.5.5,0,0,1,.5-.5.5.5,0,0,1,.5.5v9.39a.51.51,0,0,1-.28.45l-9.42,4.65A.54.54,0,0,1,12,21.87Z"/><path d="M12,21.87a.5.5,0,0,1-.5-.5L11.43,12a.5.5,0,0,1,.49-.51h0a.51.51,0,0,1,.5.5l.07,9.34a.5.5,0,0,1-.5.51Z"/></g></svg>