<svg id="Layer_1" data-name="Layer 1" xmlns="http://www.w3.org/2000/svg" xmlns:xlink="http://www.w3.org/1999/xlink" viewBox="0 0 24 24"><defs><style>.cls-1{fill:none;}.cls-2{clip-path:url(#clip-path);}</style><clipPath id="clip-path"><rect class="cls-1" y="-0.03" width="24" height="24"/></clipPath></defs><title>dashboard</title><g class="cls-2"><path d="M21.54,19l-.15,0a.51.51,0,0,1-.33-.63,9.5,9.5,0,1,0-18.12,0,.5.5,0,0,1-1,.3,10.5,10.5,0,1,1,20,0A.51.51,0,0,1,21.54,19Z"/><path d="M21.54,19H2.46a.5.5,0,0,1,0-1H21.54a.5.5,0,0,1,0,1Z"/><path d="M12,16a.47.47,0,0,1-.35-.15.48.48,0,0,1,0-.7l4-4a.49.49,0,0,1,.7.7l-4,4A.47.47,0,0,1,12,16Z"/></g></svg>