<svg id="Layer_1" data-name="Layer 1" xmlns="http://www.w3.org/2000/svg" xmlns:xlink="http://www.w3.org/1999/xlink" viewBox="0 0 24 24"><defs><style>.cls-1{fill:none;}.cls-2{clip-path:url(#clip-path);}</style><clipPath id="clip-path"><rect class="cls-1" y="0.02" width="24" height="24"/></clipPath></defs><title>data-stats</title><g class="cls-2"><path d="M9.16,18.58a.5.5,0,0,1-.35-.14l-3-2.91H3.1a.51.51,0,0,1-.5-.5.5.5,0,0,1,.5-.5H6a.5.5,0,0,1,.35.14l2.52,2.44L11.72,5.8a.5.5,0,0,1,1,0l2.8,8.38L18,11.67a.53.53,0,0,1,.36-.15H20.9a.51.51,0,0,1,.5.5.5.5,0,0,1-.5.5H18.51l-2.9,2.91a.5.5,0,0,1-.47.13.5.5,0,0,1-.36-.33L12.27,7.71,9.64,18.2a.49.49,0,0,1-.35.36Z"/></g></svg>