<svg id="Layer_1" data-name="Layer 1" xmlns="http://www.w3.org/2000/svg" xmlns:xlink="http://www.w3.org/1999/xlink" viewBox="0 0 24 24"><defs><style>.cls-1{fill:none;}.cls-2{clip-path:url(#clip-path);}</style><clipPath id="clip-path"><rect class="cls-1" x="-0.15" y="0.06" width="24" height="24"/></clipPath></defs><title>database</title><g class="cls-2"><path d="M12,11.89c-5.72,0-10.21-2.08-10.21-4.74S6.28,2.4,12,2.4,22.21,4.48,22.21,7.15,17.72,11.89,12,11.89ZM12,3.4c-5.51,0-9.21,1.94-9.21,3.75s3.7,3.74,9.21,3.74S21.21,9,21.21,7.15,17.51,3.4,12,3.4Z"/><path d="M12,16.75a16.27,16.27,0,0,1-8.22-1.9,3.55,3.55,0,0,1-2-2.85,3.54,3.54,0,0,1,2-2.85.5.5,0,1,1,.52.85c-1,.6-1.52,1.31-1.52,2s.54,1.4,1.52,2A15.22,15.22,0,0,0,12,15.75,15.15,15.15,0,0,0,19.68,14c1-.6,1.53-1.31,1.53-2s-.54-1.4-1.52-2a.5.5,0,1,1,.52-.85,3.54,3.54,0,0,1,2,2.85,3.54,3.54,0,0,1-2,2.85A16.2,16.2,0,0,1,12,16.75Z"/><path d="M12,21.6c-5.72,0-10.21-2.08-10.21-4.75a3.55,3.55,0,0,1,2-2.85.51.51,0,0,1,.69.17.49.49,0,0,1-.17.68c-1,.61-1.52,1.32-1.52,2,0,1.81,3.7,3.75,9.21,3.75s9.21-1.94,9.21-3.75c0-.68-.54-1.39-1.52-2a.49.49,0,0,1-.17-.68.51.51,0,0,1,.69-.17,3.55,3.55,0,0,1,2,2.85C22.21,19.52,17.72,21.6,12,21.6Z"/></g></svg>