<svg id="Layer_1" data-name="Layer 1" xmlns="http://www.w3.org/2000/svg" xmlns:xlink="http://www.w3.org/1999/xlink" viewBox="0 0 24 24"><defs><style>.cls-1{fill:none;}.cls-2{clip-path:url(#clip-path);}</style><clipPath id="clip-path"><rect class="cls-1" x="0.09" y="0.02" width="24" height="24"/></clipPath></defs><title>doc-plus</title><g class="cls-2"><path d="M11.69,20.5H3.74a1.93,1.93,0,0,1-1.93-1.93V4a.5.5,0,0,1,.5-.5H8.1C14,3.46,21,7.4,21.31,7.56a.52.52,0,0,1,.25.44v4a.5.5,0,0,1-.5.5.5.5,0,0,1-.5-.5V8.3C19.25,7.59,13.09,4.46,8.1,4.46H2.81V18.57a.93.93,0,0,0,.93.93h8a.5.5,0,0,1,0,1Z"/><path d="M21.06,8.5H2.31a.5.5,0,0,1,0-1H21.06a.5.5,0,0,1,0,1Z"/><path d="M21.69,18.06H14.06a.5.5,0,0,1-.5-.5.51.51,0,0,1,.5-.5h7.63a.51.51,0,0,1,.5.5A.5.5,0,0,1,21.69,18.06Z"/><path d="M17.88,21.88a.5.5,0,0,1-.5-.5V13.75a.5.5,0,0,1,.5-.5.5.5,0,0,1,.5.5v7.63A.51.51,0,0,1,17.88,21.88Z"/></g></svg>