<svg id="Layer_1" data-name="Layer 1" xmlns="http://www.w3.org/2000/svg" xmlns:xlink="http://www.w3.org/1999/xlink" viewBox="0 0 24 24"><defs><style>.cls-1{fill:none;}.cls-2{clip-path:url(#clip-path);}</style><clipPath id="clip-path"><rect class="cls-1" x="0.15" y="0.02" width="24" height="24"/></clipPath></defs><title>doc-export</title><g class="cls-2"><path d="M11.93,20.06H4a1.92,1.92,0,0,1-1.93-1.92V3.52a.5.5,0,0,1,.5-.5H8.35C14.21,3,21.26,7,21.55,7.13a.49.49,0,0,1,.26.43v4a.5.5,0,0,1-1,0V7.86C19.49,7.16,13.34,4,8.35,4H3.06V18.14a.93.93,0,0,0,.93.92h7.94a.5.5,0,0,1,.5.5A.5.5,0,0,1,11.93,20.06Z"/><path d="M21.31,8.06H2.56a.5.5,0,0,1-.5-.5.5.5,0,0,1,.5-.5H21.31a.5.5,0,0,1,.5.5A.5.5,0,0,1,21.31,8.06Z"/><path d="M18.29,21a.5.5,0,0,1-.5-.5l0-6.71a.51.51,0,0,1,.5-.5h0a.5.5,0,0,1,.5.5l0,6.71a.5.5,0,0,1-.5.5Z"/><path d="M15.12,16.51a.5.5,0,0,1-.36-.14.51.51,0,0,1,0-.71l3.16-3.17a.5.5,0,0,1,.7,0l3.17,3.15a.5.5,0,0,1,0,.71.48.48,0,0,1-.7,0l-2.82-2.8-2.8,2.82A.54.54,0,0,1,15.12,16.51Z"/></g></svg>