<svg id="Layer_1" data-name="Layer 1" xmlns="http://www.w3.org/2000/svg" xmlns:xlink="http://www.w3.org/1999/xlink" viewBox="0 0 24 24"><defs><style>.cls-1{fill:none;}.cls-2{clip-path:url(#clip-path);}</style><clipPath id="clip-path"><rect class="cls-1" y="-0.02" width="24" height="24"/></clipPath></defs><title>doc-tick</title><g class="cls-2"><path d="M17.34,19.81a.52.52,0,0,1-.35-.14L15.36,18a.5.5,0,0,1,0-.71.51.51,0,0,1,.71,0l1.27,1.28,3.89-3.89a.5.5,0,0,1,.71,0,.5.5,0,0,1,0,.7L17.7,19.67A.54.54,0,0,1,17.34,19.81Z"/><path d="M11.79,20.52H3.84a1.92,1.92,0,0,1-1.92-1.93V4a.5.5,0,0,1,.5-.5H8.21c5.85,0,12.9,3.94,13.2,4.11a.48.48,0,0,1,.26.43v4a.5.5,0,0,1-.5.5.5.5,0,0,1-.5-.5V8.32c-1.32-.7-7.47-3.84-12.46-3.84H2.92V18.59a.93.93,0,0,0,.92.93h8a.5.5,0,0,1,0,1Z"/><path d="M21.17,8.52H2.42a.5.5,0,0,1,0-1H21.17a.5.5,0,0,1,0,1Z"/></g></svg>