<svg id="Layer_1" data-name="Layer 1" xmlns="http://www.w3.org/2000/svg" xmlns:xlink="http://www.w3.org/1999/xlink" viewBox="0 0 24 24"><defs><style>.cls-1{fill:none;}.cls-2{clip-path:url(#clip-path);}</style><clipPath id="clip-path"><rect class="cls-1" y="0.02" width="24" height="24"/></clipPath></defs><title>doc-external</title><g class="cls-2"><path d="M12,20.52H4.05a1.92,1.92,0,0,1-1.92-1.93V4a.5.5,0,0,1,.5-.5H8.42c5.85,0,12.9,3.94,13.2,4.11a.48.48,0,0,1,.26.43v4a.5.5,0,0,1-.5.5.5.5,0,0,1-.5-.5V8.32c-1.32-.7-7.47-3.84-12.46-3.84H3.13V18.59a.93.93,0,0,0,.92.93h8a.5.5,0,0,1,0,1Z"/><path d="M21.38,8.52H2.63a.5.5,0,1,1,0-1H21.38a.5.5,0,0,1,0,1Z"/><path d="M20.39,19.66a.49.49,0,0,1-.35-.15l-4.76-4.73a.5.5,0,0,1,.71-.71l4.75,4.73a.5.5,0,0,1-.35.86Z"/><path d="M16.58,20.32a.5.5,0,0,1-.5-.5.5.5,0,0,1,.5-.5h4v-4a.5.5,0,0,1,.5-.5h0a.5.5,0,0,1,.5.5v4.47a.51.51,0,0,1-.5.5Z"/></g></svg>