<svg id="Layer_1" data-name="Layer 1" xmlns="http://www.w3.org/2000/svg" xmlns:xlink="http://www.w3.org/1999/xlink" viewBox="0 0 24 24"><defs><style>.cls-1{fill:none;}.cls-2{clip-path:url(#clip-path);}</style><clipPath id="clip-path"><rect class="cls-1" y="0.02" width="24" height="24"/></clipPath></defs><title>doc</title><g class="cls-2"><path d="M20,20.52H4.05a1.92,1.92,0,0,1-1.92-1.93V4a.5.5,0,0,1,.5-.5H8.42c5.85,0,12.9,3.94,13.2,4.11a.48.48,0,0,1,.26.43V18.59A1.93,1.93,0,0,1,20,20.52ZM3.13,4.48V18.59a.93.93,0,0,0,.92.93H20a.93.93,0,0,0,.93-.93V8.32c-1.32-.7-7.47-3.84-12.46-3.84Z"/><path d="M21.38,8.52H2.63a.5.5,0,1,1,0-1H21.38a.5.5,0,0,1,0,1Z"/></g></svg>