<svg id="Layer_1" data-name="Layer 1" xmlns="http://www.w3.org/2000/svg" xmlns:xlink="http://www.w3.org/1999/xlink" viewBox="0 0 24 24"><defs><style>.cls-1{fill:none;}.cls-2{clip-path:url(#clip-path);}</style><clipPath id="clip-path"><rect class="cls-1" y="0.06" width="24" height="24"/></clipPath></defs><title>dots2</title><g class="cls-2"><path d="M4,6.62a2.5,2.5,0,1,1,2.5-2.5A2.5,2.5,0,0,1,4,6.62Zm0-4a1.5,1.5,0,1,0,1.5,1.5A1.5,1.5,0,0,0,4,2.62Z"/><path d="M12,6.62a2.5,2.5,0,1,1,2.5-2.5A2.5,2.5,0,0,1,12,6.62Zm0-4a1.5,1.5,0,1,0,1.5,1.5A1.5,1.5,0,0,0,12,2.62Z"/><path d="M12,14.34a2.5,2.5,0,1,1,2.5-2.5A2.5,2.5,0,0,1,12,14.34Zm0-4a1.5,1.5,0,1,0,1.5,1.5A1.5,1.5,0,0,0,12,10.34Z"/><path d="M20,6.62a2.5,2.5,0,1,1,2.5-2.5A2.5,2.5,0,0,1,20,6.62Zm0-4a1.5,1.5,0,1,0,1.5,1.5A1.51,1.51,0,0,0,20,2.62Z"/><path d="M20,22.38a2.5,2.5,0,1,1,2.5-2.5A2.5,2.5,0,0,1,20,22.38Zm0-4a1.5,1.5,0,1,0,1.5,1.5A1.5,1.5,0,0,0,20,18.38Z"/><path d="M20,14.34a2.5,2.5,0,1,1,2.5-2.5A2.5,2.5,0,0,1,20,14.34Zm0-4a1.5,1.5,0,1,0,1.5,1.5A1.51,1.51,0,0,0,20,10.34Z"/></g></svg>