<svg id="Layer_1" data-name="Layer 1" xmlns="http://www.w3.org/2000/svg" xmlns:xlink="http://www.w3.org/1999/xlink" viewBox="0 0 24 24"><defs><style>.cls-1{fill:none;}.cls-2{clip-path:url(#clip-path);}</style><clipPath id="clip-path"><rect class="cls-1" x="0.08" y="-0.06" width="24" height="24"/></clipPath></defs><title>dots5</title><g class="cls-2"><path d="M19.88,10.53A2.5,2.5,0,1,1,22.38,8,2.51,2.51,0,0,1,19.88,10.53Zm0-4A1.5,1.5,0,1,0,21.38,8,1.5,1.5,0,0,0,19.88,6.53Z"/><path d="M19.88,18.56a2.5,2.5,0,1,1,2.5-2.5A2.5,2.5,0,0,1,19.88,18.56Zm0-4a1.5,1.5,0,1,0,1.5,1.5A1.5,1.5,0,0,0,19.88,14.56Z"/><path d="M12,10.44a2.5,2.5,0,1,1,2.5-2.5A2.5,2.5,0,0,1,12,10.44Zm0-4a1.5,1.5,0,1,0,1.5,1.5A1.5,1.5,0,0,0,12,6.44Z"/><path d="M12,18.47A2.5,2.5,0,1,1,14.5,16,2.5,2.5,0,0,1,12,18.47Zm0-4A1.5,1.5,0,1,0,13.5,16,1.5,1.5,0,0,0,12,14.47Z"/><path d="M4.12,10.53A2.5,2.5,0,1,1,6.62,8,2.51,2.51,0,0,1,4.12,10.53Zm0-4A1.5,1.5,0,1,0,5.62,8,1.5,1.5,0,0,0,4.12,6.53Z"/><path d="M4.12,18.56a2.5,2.5,0,1,1,2.5-2.5A2.5,2.5,0,0,1,4.12,18.56Zm0-4a1.5,1.5,0,1,0,1.5,1.5A1.5,1.5,0,0,0,4.12,14.56Z"/></g></svg>