<svg id="Layer_1" data-name="Layer 1" xmlns="http://www.w3.org/2000/svg" xmlns:xlink="http://www.w3.org/1999/xlink" viewBox="0 0 24 24"><defs><style>.cls-1{fill:none;}.cls-2{clip-path:url(#clip-path);}</style><clipPath id="clip-path"><rect class="cls-1" x="0.15" y="0.06" width="24" height="24"/></clipPath></defs><title>dots4</title><g class="cls-2"><path d="M4,6.62a2.5,2.5,0,1,1,2.5-2.5A2.5,2.5,0,0,1,4,6.62Zm0-4a1.5,1.5,0,1,0,1.5,1.5A1.5,1.5,0,0,0,4,2.62Z"/><path d="M12,6.62a2.5,2.5,0,1,1,2.5-2.5A2.5,2.5,0,0,1,12,6.62Zm0-4a1.5,1.5,0,1,0,1.5,1.5A1.5,1.5,0,0,0,12,2.62Z"/><path d="M20.08,6.62a2.5,2.5,0,1,1,2.5-2.5A2.5,2.5,0,0,1,20.08,6.62Zm0-4a1.5,1.5,0,1,0,1.5,1.5A1.5,1.5,0,0,0,20.08,2.62Z"/><path d="M3.92,14.5A2.5,2.5,0,1,1,6.42,12,2.51,2.51,0,0,1,3.92,14.5Zm0-4A1.5,1.5,0,1,0,5.42,12,1.5,1.5,0,0,0,3.92,10.5Z"/><path d="M12,14.5a2.5,2.5,0,1,1,2.5-2.5A2.5,2.5,0,0,1,12,14.5Zm0-4a1.5,1.5,0,1,0,1.5,1.5A1.5,1.5,0,0,0,12,10.5Z"/><path d="M20,14.5a2.5,2.5,0,1,1,2.5-2.5A2.5,2.5,0,0,1,20,14.5Zm0-4a1.5,1.5,0,1,0,1.5,1.5A1.5,1.5,0,0,0,20,10.5Z"/><path d="M12,22.38a2.5,2.5,0,1,1,2.5-2.5A2.5,2.5,0,0,1,12,22.38Zm0-4a1.5,1.5,0,1,0,1.5,1.5A1.5,1.5,0,0,0,12,18.38Z"/></g></svg>