<svg id="Layer_1" data-name="Layer 1" xmlns="http://www.w3.org/2000/svg" xmlns:xlink="http://www.w3.org/1999/xlink" viewBox="0 0 24 24"><defs><style>.cls-1{fill:none;}.cls-2{clip-path:url(#clip-path);}</style><clipPath id="clip-path"><rect class="cls-1" width="24" height="24"/></clipPath></defs><title>dots</title><g class="cls-2"><path d="M8,6.62a2.5,2.5,0,1,1,2.5-2.5A2.5,2.5,0,0,1,8,6.62Zm0-4a1.5,1.5,0,1,0,1.5,1.5A1.5,1.5,0,0,0,8,2.62Z"/><path d="M16.06,6.62a2.5,2.5,0,1,1,2.5-2.5A2.5,2.5,0,0,1,16.06,6.62Zm0-4a1.5,1.5,0,1,0,1.5,1.5A1.5,1.5,0,0,0,16.06,2.62Z"/><path d="M7.94,14.5a2.5,2.5,0,1,1,2.5-2.5A2.5,2.5,0,0,1,7.94,14.5Zm0-4A1.5,1.5,0,1,0,9.44,12,1.5,1.5,0,0,0,7.94,10.5Z"/><path d="M16,14.5a2.5,2.5,0,1,1,2.5-2.5A2.51,2.51,0,0,1,16,14.5Zm0-4a1.5,1.5,0,1,0,1.5,1.5A1.5,1.5,0,0,0,16,10.5Z"/><path d="M8,22.38a2.5,2.5,0,1,1,2.5-2.5A2.5,2.5,0,0,1,8,22.38Zm0-4a1.5,1.5,0,1,0,1.5,1.5A1.5,1.5,0,0,0,8,18.38Z"/><path d="M16.06,22.38a2.5,2.5,0,1,1,2.5-2.5A2.5,2.5,0,0,1,16.06,22.38Zm0-4a1.5,1.5,0,1,0,1.5,1.5A1.5,1.5,0,0,0,16.06,18.38Z"/></g></svg>