<svg id="Layer_1" data-name="Layer 1" xmlns="http://www.w3.org/2000/svg" xmlns:xlink="http://www.w3.org/1999/xlink" viewBox="0 0 24 24"><defs><style>.cls-1{fill:none;}.cls-2{clip-path:url(#clip-path);}</style><clipPath id="clip-path"><rect class="cls-1" width="24" height="24"/></clipPath></defs><title>edit</title><g class="cls-2"><path d="M15.35,22.16h-10a3.51,3.51,0,0,1-3.5-3.5v-10a3.5,3.5,0,0,1,3.5-3.5h3a.5.5,0,0,1,.5.5.51.51,0,0,1-.5.5h-3a2.5,2.5,0,0,0-2.5,2.5v10a2.51,2.51,0,0,0,2.5,2.5h10a2.51,2.51,0,0,0,2.5-2.5v-2a.5.5,0,0,1,.5-.5.5.5,0,0,1,.5.5v2A3.52,3.52,0,0,1,15.35,22.16Z"/><path d="M18.33,9a.5.5,0,0,1-.49-.49,2.45,2.45,0,0,0-.4-1.22,2.54,2.54,0,0,0-.73-.73,2.34,2.34,0,0,0-1.22-.39A.51.51,0,0,1,15,5.65a.5.5,0,0,1,.51-.48,3.54,3.54,0,0,1,1.72.54,3.29,3.29,0,0,1,1.05,1,3.51,3.51,0,0,1,.54,1.72.51.51,0,0,1-.48.52Z"/><path d="M13.17,14.16H10.35a.5.5,0,0,1-.5-.5V10.83a.52.52,0,0,1,.14-.36l5.66-5.66a.51.51,0,0,1,.71,0l1,1a.5.5,0,1,1-.71.71L16,5.87,10.85,11v2.13H13L18.13,8l-.62-.62a.5.5,0,0,1,.71-.71l1,1a.51.51,0,0,1,0,.71L13.53,14A.53.53,0,0,1,13.17,14.16Z"/><path d="M18.83,8.5a.53.53,0,0,1-.35-.15l-1-1a.5.5,0,0,1,.71-.71l.61.62L21,5.17,18.83,3.05,16.71,5.17l.62.61a.5.5,0,1,1-.71.71l-1-1a.53.53,0,0,1-.15-.35.51.51,0,0,1,.15-.36L18.48,2a.51.51,0,0,1,.71,0L22,4.81a.51.51,0,0,1,0,.71L19.19,8.35a.51.51,0,0,1-.35.15Z"/></g></svg>