<svg id="Layer_1" data-name="Layer 1" xmlns="http://www.w3.org/2000/svg" xmlns:xlink="http://www.w3.org/1999/xlink" viewBox="0 0 24 24"><defs><style>.cls-1{fill:none;}.cls-2{clip-path:url(#clip-path);}</style><clipPath id="clip-path"><rect class="cls-1" y="-0.06" width="24" height="24"/></clipPath></defs><title>envelope</title><g class="cls-2"><path d="M18,19.5H6A3.5,3.5,0,0,1,2.5,16V8A3.5,3.5,0,0,1,6,4.5H18A3.5,3.5,0,0,1,21.5,8v8A3.5,3.5,0,0,1,18,19.5ZM6,5.5A2.5,2.5,0,0,0,3.5,8v8A2.5,2.5,0,0,0,6,18.5H18A2.5,2.5,0,0,0,20.5,16V8A2.5,2.5,0,0,0,18,5.5Z"/><path d="M12,14.58l-.16,0-9-3.09a.5.5,0,0,1,.32-.94l8.84,3,8.85-2.87a.51.51,0,0,1,.63.32.5.5,0,0,1-.33.63l-9,2.92A.39.39,0,0,1,12,14.58Z"/></g></svg>