<svg id="Layer_1" data-name="Layer 1" xmlns="http://www.w3.org/2000/svg" xmlns:xlink="http://www.w3.org/1999/xlink" viewBox="0 0 24 24"><defs><style>.cls-1{fill:none;}.cls-2{clip-path:url(#clip-path);}</style><clipPath id="clip-path"><rect class="cls-1" y="0.06" width="24" height="24"/></clipPath></defs><title>eye-slash</title><g class="cls-2"><path d="M12.08,17C8.52,17,5,15.3,1.64,11.93a.47.47,0,0,1-.11-.54.49.49,0,0,1,.25-.26c.69-.81,4.26-4.67,9.51-5C15.07,6,18.8,7.66,22.36,11.23a.48.48,0,0,1,.11.54.55.55,0,0,1-.25.27c-.69.8-4.26,4.66-9.51,4.95ZM2.71,11.59C6,14.69,9.29,16.17,12.64,16c4.47-.24,7.72-3.41,8.65-4.42-3.24-3.1-6.58-4.57-9.94-4.4C6.88,7.42,3.63,10.58,2.71,11.59Z"/><path d="M16.82,15.94h-.1a.5.5,0,0,1-.39-.59,3.44,3.44,0,0,0,.06-.68,4.42,4.42,0,0,0-8.84,0,5.65,5.65,0,0,0,0,.59.5.5,0,0,1-.42.56.51.51,0,0,1-.57-.42,5.71,5.71,0,0,1,0-.73,5.42,5.42,0,0,1,10.84,0,4.71,4.71,0,0,1-.08.88A.5.5,0,0,1,16.82,15.94Z"/><path d="M17.18,19.74a.49.49,0,0,1-.35-.15L2.35,5.11a.48.48,0,0,1,0-.7.5.5,0,0,1,.71,0L17.54,18.89a.5.5,0,0,1,0,.7A.51.51,0,0,1,17.18,19.74Z"/></g></svg>