<svg id="Layer_1" data-name="Layer 1" xmlns="http://www.w3.org/2000/svg" xmlns:xlink="http://www.w3.org/1999/xlink" viewBox="0 0 24 24"><defs><style>.cls-1{fill:none;}.cls-2{clip-path:url(#clip-path);}</style><clipPath id="clip-path"><rect class="cls-1" y="-0.06" width="24" height="24"/></clipPath></defs><title>eye</title><g class="cls-2"><path d="M12.08,17.43c-3.56,0-7.08-1.71-10.44-5.08a.47.47,0,0,1-.11-.54.49.49,0,0,1,.25-.26c.69-.81,4.26-4.67,9.51-5,3.78-.2,7.51,1.49,11.07,5.06a.47.47,0,0,1,.11.54.49.49,0,0,1-.25.26c-.69.81-4.26,4.67-9.51,5ZM2.71,12c3.24,3.1,6.57,4.58,9.93,4.4,4.47-.24,7.72-3.41,8.65-4.42-3.24-3.1-6.58-4.59-9.93-4.4C6.89,7.83,3.64,11,2.71,12Z"/><path d="M16.82,16.36h-.1a.5.5,0,0,1-.39-.59,3.44,3.44,0,0,0,.06-.68,4.42,4.42,0,0,0-8.84,0,5.65,5.65,0,0,0,0,.59.5.5,0,0,1-.42.56.51.51,0,0,1-.57-.42,5.71,5.71,0,0,1,0-.73,5.42,5.42,0,0,1,10.84,0,4.79,4.79,0,0,1-.08.88A.5.5,0,0,1,16.82,16.36Z"/></g></svg>