<svg id="Layer_1" data-name="Layer 1" xmlns="http://www.w3.org/2000/svg" xmlns:xlink="http://www.w3.org/1999/xlink" viewBox="0 0 24 24"><defs><style>.cls-1{fill:none;}.cls-2{clip-path:url(#clip-path);}</style><clipPath id="clip-path"><rect class="cls-1" y="-0.06" width="24" height="24"/></clipPath></defs><title>file</title><g class="cls-2"><path d="M15.5,22h-7A3.5,3.5,0,0,1,5,18.5V5.5A3.5,3.5,0,0,1,8.5,2h5.91a.5.5,0,0,1,0,1H8.5A2.5,2.5,0,0,0,6,5.5v13A2.5,2.5,0,0,0,8.5,21h7A2.5,2.5,0,0,0,18,18.5V7.41a.5.5,0,0,1,1,0V18.5A3.5,3.5,0,0,1,15.5,22Z"/><path d="M17.59,9H14.41A1.51,1.51,0,0,1,13,7.41V3.59A1.51,1.51,0,0,1,14.41,2a.49.49,0,0,1,.38.18l4.09,4.91a.47.47,0,0,1,.12.32A1.51,1.51,0,0,1,17.59,9ZM14.23,3.07a.64.64,0,0,0-.23.52V7.41c0,.31.19.59.41.59h3.18c.18,0,.34-.19.39-.43Z"/></g></svg>