<svg id="Layer_1" data-name="Layer 1" xmlns="http://www.w3.org/2000/svg" xmlns:xlink="http://www.w3.org/1999/xlink" viewBox="0 0 24 24"><defs><style>.cls-1{fill:none;}.cls-2{clip-path:url(#clip-path);}</style><clipPath id="clip-path"><rect class="cls-1" width="24" height="24"/></clipPath></defs><title>file-tick</title><g class="cls-2"><path d="M15.57,22a.5.5,0,0,1-.35-.85l4.63-4.64a.5.5,0,0,1,.71.71l-4.63,4.63A.51.51,0,0,1,15.57,22Z"/><path d="M15.57,22a.49.49,0,0,1-.35-.15L13.35,20a.5.5,0,0,1,0-.71.5.5,0,0,1,.7,0l1.88,1.88a.5.5,0,0,1,0,.7A.51.51,0,0,1,15.57,22Z"/><path d="M10.55,22H6.8a3.5,3.5,0,0,1-3.5-3.5V5.5A3.5,3.5,0,0,1,6.8,2h5.91a.5.5,0,0,1,0,1H6.8A2.5,2.5,0,0,0,4.3,5.5v13A2.5,2.5,0,0,0,6.8,21h3.75a.5.5,0,0,1,0,1Z"/><path d="M16.8,14.42a.5.5,0,0,1-.5-.5V7.41a.5.5,0,0,1,.5-.5.5.5,0,0,1,.5.5v6.51A.51.51,0,0,1,16.8,14.42Z"/><path d="M15.89,9H12.7a1.51,1.51,0,0,1-1.4-1.59V3.59A1.51,1.51,0,0,1,12.7,2a.53.53,0,0,1,.39.18l4.09,4.91a.53.53,0,0,1,.12.32A1.51,1.51,0,0,1,15.89,9ZM12.52,3.07a.67.67,0,0,0-.22.52V7.41c0,.31.19.59.4.59h3.19c.18,0,.34-.19.39-.43Z"/></g></svg>