<svg id="Layer_1" data-name="Layer 1" xmlns="http://www.w3.org/2000/svg" xmlns:xlink="http://www.w3.org/1999/xlink" viewBox="0 0 24 24"><defs><style>.cls-1{fill:none;}.cls-2{clip-path:url(#clip-path);}</style><clipPath id="clip-path"><rect class="cls-1" y="0.06" width="24" height="24"/></clipPath></defs><title>file-plus</title><g class="cls-2"><path d="M17,22.83a.5.5,0,0,1-.5-.5v-6a.51.51,0,0,1,.5-.5.5.5,0,0,1,.5.5v6A.5.5,0,0,1,17,22.83Z"/><path d="M20,19.83H14a.5.5,0,0,1-.5-.5.51.51,0,0,1,.5-.5h6a.5.5,0,0,1,.5.5A.5.5,0,0,1,20,19.83Z"/><path d="M10.77,21.17H7a3.51,3.51,0,0,1-3.5-3.5v-13A3.5,3.5,0,0,1,7,1.17h5.91a.5.5,0,0,1,.5.5.51.51,0,0,1-.5.5H7a2.5,2.5,0,0,0-2.5,2.5v13A2.51,2.51,0,0,0,7,20.17h3.75a.5.5,0,0,1,.5.5A.51.51,0,0,1,10.77,21.17Z"/><path d="M17,13.58a.5.5,0,0,1-.5-.5V6.58a.5.5,0,0,1,.5-.5.5.5,0,0,1,.5.5v6.5A.5.5,0,0,1,17,13.58Z"/><path d="M16.11,8.17H12.92a1.51,1.51,0,0,1-1.4-1.59V2.75a1.5,1.5,0,0,1,1.4-1.58.52.52,0,0,1,.39.17L17.4,6.26a.47.47,0,0,1,.12.32A1.51,1.51,0,0,1,16.11,8.17ZM12.74,2.23a.67.67,0,0,0-.22.52V6.58c0,.31.19.59.4.59h3.19c.18,0,.34-.19.39-.43Z"/></g></svg>