<svg id="Layer_1" data-name="Layer 1" xmlns="http://www.w3.org/2000/svg" xmlns:xlink="http://www.w3.org/1999/xlink" viewBox="0 0 24 24"><defs><style>.cls-1{fill:none;}.cls-2{clip-path:url(#clip-path);}</style><clipPath id="clip-path"><rect class="cls-1" width="24" height="24"/></clipPath></defs><title>file-structure</title><g class="cls-2"><path d="M16.15,12.36H2.25a.5.5,0,0,1-.5-.5V7.22a.5.5,0,0,1,.5-.5h13.9a.5.5,0,0,1,.5.5v4.64A.5.5,0,0,1,16.15,12.36Zm-13.4-1h12.9V7.72H2.75Z"/><path d="M16.15,21.82H2.25a.5.5,0,0,1-.5-.5V16.68a.5.5,0,0,1,.5-.5h13.9a.5.5,0,0,1,.5.5v4.64A.5.5,0,0,1,16.15,21.82Zm-13.4-1h12.9V17.18H2.75Z"/><path d="M21.75,19.5h-5.6a.5.5,0,0,1,0-1h5.1V2.68a.5.5,0,1,1,1,0V19A.5.5,0,0,1,21.75,19.5Z"/><path d="M21.75,10h-5.6a.5.5,0,0,1-.5-.5.5.5,0,0,1,.5-.5h5.6a.5.5,0,0,1,.5.5A.5.5,0,0,1,21.75,10Z"/></g></svg>