<svg id="Layer_1" data-name="Layer 1" xmlns="http://www.w3.org/2000/svg" xmlns:xlink="http://www.w3.org/1999/xlink" viewBox="0 0 24 24"><defs><style>.cls-1{fill:none;}.cls-2{clip-path:url(#clip-path);}</style><clipPath id="clip-path"><rect class="cls-1" width="24" height="24"/></clipPath></defs><title>file-export</title><g class="cls-2"><path d="M17.31,22.77a.5.5,0,0,1-.5-.5V17.19a.5.5,0,0,1,.5-.5h0a.51.51,0,0,1,.5.5v5.08a.5.5,0,0,1-.5.5Z"/><path d="M14.91,19.39a.5.5,0,0,1-.36-.85l2.39-2.4a.5.5,0,0,1,.71,0l2.4,2.39a.48.48,0,0,1,0,.7.5.5,0,0,1-.71,0l-2-2-2,2A.49.49,0,0,1,14.91,19.39Z"/><path d="M11.05,21.23H7.3a3.5,3.5,0,0,1-3.5-3.5v-13a3.5,3.5,0,0,1,3.5-3.5h5.91a.5.5,0,0,1,.5.5.5.5,0,0,1-.5.5H7.3a2.5,2.5,0,0,0-2.5,2.5v13a2.5,2.5,0,0,0,2.5,2.5h3.75a.5.5,0,0,1,.5.5A.5.5,0,0,1,11.05,21.23Z"/><path d="M17.3,13.64a.5.5,0,0,1-.5-.5V6.64a.5.5,0,0,1,.5-.5.5.5,0,0,1,.5.5v6.5A.5.5,0,0,1,17.3,13.64Z"/><path d="M16.4,8.23H13.21A1.51,1.51,0,0,1,11.8,6.64V2.82a1.51,1.51,0,0,1,1.41-1.59.46.46,0,0,1,.38.18l4.1,4.91a.52.52,0,0,1,.11.32A1.51,1.51,0,0,1,16.4,8.23ZM13,2.29a.68.68,0,0,0-.23.53V6.64c0,.31.19.59.41.59H16.4c.17,0,.33-.19.39-.43Z"/></g></svg>