<svg id="Layer_1" data-name="Layer 1" xmlns="http://www.w3.org/2000/svg" xmlns:xlink="http://www.w3.org/1999/xlink" viewBox="0 0 24 24"><defs><style>.cls-1{fill:none;}.cls-2{clip-path:url(#clip-path);}</style><clipPath id="clip-path"><rect class="cls-1" y="-0.06" width="24" height="24"/></clipPath></defs><title>file-cross</title><g class="cls-2"><path d="M15.3,21.79a.52.52,0,0,1-.35-.14.5.5,0,0,1,0-.71l4.24-4.24a.5.5,0,0,1,.71,0,.5.5,0,0,1,0,.7l-4.24,4.25A.54.54,0,0,1,15.3,21.79Z"/><path d="M19.54,21.79a.54.54,0,0,1-.35-.14L15,17.4a.48.48,0,0,1,0-.7.5.5,0,0,1,.71,0l4.24,4.24a.51.51,0,0,1,0,.71A.54.54,0,0,1,19.54,21.79Z"/><path d="M11.21,22H7.46A3.5,3.5,0,0,1,4,18.5V5.5A3.5,3.5,0,0,1,7.46,2h5.91a.5.5,0,0,1,0,1H7.46A2.5,2.5,0,0,0,5,5.5v13A2.5,2.5,0,0,0,7.46,21h3.75a.5.5,0,0,1,0,1Z"/><path d="M17.46,14.42a.5.5,0,0,1-.5-.5V7.41a.5.5,0,0,1,.5-.5.5.5,0,0,1,.5.5v6.51A.51.51,0,0,1,17.46,14.42Z"/><path d="M16.55,9H13.36A1.51,1.51,0,0,1,12,7.41V3.59A1.51,1.51,0,0,1,13.36,2a.53.53,0,0,1,.39.18l4.09,4.91a.47.47,0,0,1,.12.32A1.51,1.51,0,0,1,16.55,9ZM13.18,3.07a.67.67,0,0,0-.22.52V7.41c0,.31.19.59.4.59h3.19c.18,0,.34-.19.39-.43Z"/></g></svg>