<svg id="Layer_1" data-name="Layer 1" xmlns="http://www.w3.org/2000/svg" xmlns:xlink="http://www.w3.org/1999/xlink" viewBox="0 0 24 24"><defs><style>.cls-1{fill:none;}.cls-2{clip-path:url(#clip-path);}</style><clipPath id="clip-path"><rect class="cls-1" x="0.15" y="-0.08" width="24" height="24"/></clipPath></defs><title>fingerprint</title><g class="cls-2"><path d="M12,21a.5.5,0,0,1-.5-.5v-4a.5.5,0,0,1,1,0v4A.5.5,0,0,1,12,21Z"/><path d="M16,21a.5.5,0,0,1-.5-.5v-4a3.48,3.48,0,0,0-7,0v4a.5.5,0,0,1-1,0v-4a4.48,4.48,0,0,1,9,0v4A.5.5,0,0,1,16,21Z"/><path d="M19.63,21a.5.5,0,0,1-.5-.5V11.93C19.13,7.55,15.93,4,12,4s-7.12,3.57-7.12,8v8.59a.51.51,0,0,1-.5.5.5.5,0,0,1-.5-.5V11.93C3.88,7,7.52,3,12,3s8.13,4,8.13,9v8.59A.51.51,0,0,1,19.63,21Z"/><path d="M16,9.82a.49.49,0,0,1-.3-.1,5.86,5.86,0,0,0-7.15,0,.5.5,0,0,1-.64-.78,6.92,6.92,0,0,1,8.39,0,.5.5,0,0,1-.3.9Z"/></g></svg>