<svg id="Layer_1" data-name="Layer 1" xmlns="http://www.w3.org/2000/svg" xmlns:xlink="http://www.w3.org/1999/xlink" viewBox="0 0 24 24"><defs><style>.cls-1{fill:none;}.cls-2{clip-path:url(#clip-path);}</style><clipPath id="clip-path"><rect class="cls-1" y="-0.03" width="24" height="24"/></clipPath></defs><title>flag</title><g class="cls-2"><path d="M20.5,22.5H3.5a.5.5,0,0,1,0-1h17a.5.5,0,0,1,0,1Z"/><path d="M6.5,22.5A.5.5,0,0,1,6,22V2a.52.52,0,0,1,.24-.43.51.51,0,0,1,.48,0l12,6a.5.5,0,0,1,0,.9L7,14.31V22A.5.5,0,0,1,6.5,22.5ZM7,2.81V13.19L17.38,8Z"/></g></svg>