<svg id="Layer_1" data-name="Layer 1" xmlns="http://www.w3.org/2000/svg" xmlns:xlink="http://www.w3.org/1999/xlink" viewBox="0 0 24 24"><defs><style>.cls-1{fill:none;}.cls-2{clip-path:url(#clip-path);}</style><clipPath id="clip-path"><rect class="cls-1" y="-0.03" width="24" height="24"/></clipPath></defs><title>flag-alt</title><g class="cls-2"><path d="M17.56,15.83H6.44A3.84,3.84,0,0,1,2.61,12V5.33A3.84,3.84,0,0,1,6.44,1.5H17.56a3.84,3.84,0,0,1,3.83,3.83V12A3.84,3.84,0,0,1,17.56,15.83ZM6.44,2.5A2.83,2.83,0,0,0,3.61,5.33V12a2.83,2.83,0,0,0,2.83,2.83H17.56A2.83,2.83,0,0,0,20.39,12V5.33A2.83,2.83,0,0,0,17.56,2.5Z"/><path d="M3.11,22.5a.5.5,0,0,1-.5-.5V8.67a.5.5,0,0,1,1,0V22A.5.5,0,0,1,3.11,22.5Z"/></g></svg>