<svg id="Layer_1" data-name="Layer 1" xmlns="http://www.w3.org/2000/svg" xmlns:xlink="http://www.w3.org/1999/xlink" viewBox="0 0 24 24"><defs><style>.cls-1{fill:none;}.cls-2{clip-path:url(#clip-path);}</style><clipPath id="clip-path"><rect class="cls-1" width="24" height="24"/></clipPath></defs><title>fullscreen</title><g class="cls-2"><path d="M9.35,19.57H4.93a.49.49,0,0,1-.46-.31.48.48,0,0,1,.11-.54L17.86,5.43H14.65a.5.5,0,1,1,0-1h4.42a.49.49,0,0,1,.46.31.48.48,0,0,1-.11.54L6.14,18.57H9.35a.5.5,0,1,1,0,1Z"/><path d="M19.07,9.85a.5.5,0,0,1-.5-.5V4.93a.5.5,0,0,1,1,0V9.35A.5.5,0,0,1,19.07,9.85Z"/><path d="M4.93,19.57a.5.5,0,0,1-.5-.5V14.65a.5.5,0,1,1,1,0v4.42A.5.5,0,0,1,4.93,19.57Z"/><path d="M19.07,19.57a.47.47,0,0,1-.35-.15L5.43,6.14V9.35a.5.5,0,0,1-1,0V4.93a.49.49,0,0,1,.31-.46.47.47,0,0,1,.54.11L18.57,17.86V14.65a.5.5,0,1,1,1,0v4.42a.49.49,0,0,1-.31.46A.41.41,0,0,1,19.07,19.57Z"/><path d="M19.07,19.57H14.65a.5.5,0,1,1,0-1h4.42a.5.5,0,0,1,0,1Z"/><path d="M9.35,5.43H4.93a.5.5,0,0,1,0-1H9.35a.5.5,0,0,1,0,1Z"/></g></svg>