<svg id="Layer_1" data-name="Layer 1" xmlns="http://www.w3.org/2000/svg" xmlns:xlink="http://www.w3.org/1999/xlink" viewBox="0 0 24 24"><defs><style>.cls-1{fill:none;}.cls-2{clip-path:url(#clip-path);}</style><clipPath id="clip-path"><rect class="cls-1" y="0.06" width="24" height="24"/></clipPath></defs><title>gallery</title><g class="cls-2"><path d="M17.5,21H6.5A3.5,3.5,0,0,1,3,17.5V6.5A3.5,3.5,0,0,1,6.5,3h11A3.5,3.5,0,0,1,21,6.5v11A3.5,3.5,0,0,1,17.5,21ZM6.5,4A2.5,2.5,0,0,0,4,6.5v11A2.5,2.5,0,0,0,6.5,20h11A2.5,2.5,0,0,0,20,17.5V6.5A2.5,2.5,0,0,0,17.5,4Z"/><path d="M3.5,16.81a.48.48,0,0,1-.38-.18.49.49,0,0,1,.06-.7L7.88,12a3.5,3.5,0,0,1,4.92.45l1.12,1.34a2.49,2.49,0,0,0,3.56.28l2.69-2.35a.51.51,0,0,1,.71.05.49.49,0,0,1-.05.7l-2.69,2.35a3.49,3.49,0,0,1-5-.39L12,13.12a2.49,2.49,0,0,0-3.51-.32l-4.7,3.9A.54.54,0,0,1,3.5,16.81Z"/></g></svg>