<svg id="Layer_1" data-name="Layer 1" xmlns="http://www.w3.org/2000/svg" xmlns:xlink="http://www.w3.org/1999/xlink" viewBox="0 0 24 24"><defs><style>.cls-1{fill:none;}.cls-2{clip-path:url(#clip-path);}</style><clipPath id="clip-path"><rect class="cls-1" y="-0.06" width="24" height="24"/></clipPath></defs><title>geek-sad</title><g class="cls-2"><path d="M12,22.31A10.31,10.31,0,1,1,22.31,12,10.32,10.32,0,0,1,12,22.31ZM12,2.69A9.31,9.31,0,1,0,21.31,12,9.33,9.33,0,0,0,12,2.69Z"/><path d="M8.11,16a2.75,2.75,0,1,1,2.75-2.75A2.75,2.75,0,0,1,8.11,16Zm0-4.5A1.75,1.75,0,1,0,9.86,13.2,1.76,1.76,0,0,0,8.11,11.45Z"/><path d="M15.89,16a2.75,2.75,0,1,1,2.75-2.75A2.75,2.75,0,0,1,15.89,16Zm0-4.5a1.75,1.75,0,1,0,1.75,1.75A1.75,1.75,0,0,0,15.89,11.45Z"/><path d="M2.42,10.36a.5.5,0,0,1-.49-.4.51.51,0,0,1,.39-.59C2.43,9.35,13.25,7,16.16,3a.5.5,0,0,1,.7-.11.51.51,0,0,1,.11.7C13.83,7.9,3,10.25,2.53,10.35Z"/><path d="M19,8.7A20.15,20.15,0,0,1,11.8,7.11a.5.5,0,0,1,.4-.92c.05,0,4.74,2.09,8.68,1.35a.51.51,0,0,1,.59.4.5.5,0,0,1-.4.58A10.75,10.75,0,0,1,19,8.7Z"/><path d="M13.64,13.7H10.36a.5.5,0,0,1-.5-.5.51.51,0,0,1,.5-.5h3.28a.51.51,0,0,1,.5.5A.5.5,0,0,1,13.64,13.7Z"/><path d="M5.86,13.7H2.27a.5.5,0,0,1-.5-.5.51.51,0,0,1,.5-.5H5.86a.5.5,0,0,1,.5.5A.5.5,0,0,1,5.86,13.7Z"/><path d="M21.74,13.7h-3.6a.5.5,0,0,1-.5-.5.5.5,0,0,1,.5-.5h3.6a.5.5,0,0,1,.5.5A.5.5,0,0,1,21.74,13.7Z"/><path d="M9.49,19.11a.5.5,0,0,1-.42-.24.49.49,0,0,1,.17-.69,5.53,5.53,0,0,1,5.12,0,.5.5,0,1,1-.47.88,4.61,4.61,0,0,0-4.14,0A.48.48,0,0,1,9.49,19.11Z"/></g></svg>