<svg id="Layer_1" data-name="Layer 1" xmlns="http://www.w3.org/2000/svg" xmlns:xlink="http://www.w3.org/1999/xlink" viewBox="0 0 24 24"><defs><style>.cls-1{fill:none;}.cls-2{clip-path:url(#clip-path);}</style><clipPath id="clip-path"><rect class="cls-1" y="0.02" width="24" height="24"/></clipPath></defs><title>gift</title><g class="cls-2"><path d="M16.43,21.66H7.57a3.15,3.15,0,0,1-3.14-3.14V9.67A3.15,3.15,0,0,1,7.57,6.52h8.86a3.15,3.15,0,0,1,3.14,3.15v8.85A3.15,3.15,0,0,1,16.43,21.66ZM7.57,7.52A2.15,2.15,0,0,0,5.43,9.67v8.85a2.14,2.14,0,0,0,2.14,2.14h8.86a2.14,2.14,0,0,0,2.14-2.14V9.67a2.15,2.15,0,0,0-2.14-2.15Z"/><path d="M12,21.66a.5.5,0,0,1-.5-.5V7a.5.5,0,0,1,1,0V21.16A.5.5,0,0,1,12,21.66Z"/><path d="M19.07,14.59H4.93a.5.5,0,0,1-.5-.5.5.5,0,0,1,.5-.5H19.07a.5.5,0,0,1,.5.5A.5.5,0,0,1,19.07,14.59Z"/><path d="M12,7.52H9.91A2.59,2.59,0,1,1,12.5,4.93V7A.5.5,0,0,1,12,7.52ZM9.91,3.34a1.59,1.59,0,1,0,0,3.18H11.5V4.93A1.59,1.59,0,0,0,9.91,3.34Z"/><path d="M14.09,7.52H12a.5.5,0,0,1-.5-.5V4.93a2.6,2.6,0,1,1,2.59,2.59Zm-1.59-1h1.59A1.59,1.59,0,1,0,12.5,4.93Z"/></g></svg>