<svg id="Layer_1" data-name="Layer 1" xmlns="http://www.w3.org/2000/svg" xmlns:xlink="http://www.w3.org/1999/xlink" viewBox="0 0 24 24"><defs><style>.cls-1{fill:none;}.cls-2{clip-path:url(#clip-path);}</style><clipPath id="clip-path"><rect class="cls-1" x="0.15" y="-0.06" width="24" height="24"/></clipPath></defs><title>github</title><g class="cls-2"><path d="M15.52,20.66h-7a6.54,6.54,0,0,1,0-13.08h7a6.54,6.54,0,0,1,0,13.08Zm-7-12.08a5.54,5.54,0,0,0,0,11.08h7a5.54,5.54,0,0,0,0-11.08Z"/><path d="M8.48,8.58a.47.47,0,0,1-.35-.15L3.89,4.19a.49.49,0,0,1,.7-.7L8.83,7.72a.5.5,0,0,1,0,.71A.47.47,0,0,1,8.48,8.58Z"/><path d="M8.17,15.68a.5.5,0,0,1-.5-.5V13.06a.5.5,0,0,1,.5-.5.5.5,0,0,1,.5.5v2.12A.5.5,0,0,1,8.17,15.68Z"/><path d="M16.24,15.68a.5.5,0,0,1-.5-.5V13.06a.5.5,0,0,1,1,0v2.12A.5.5,0,0,1,16.24,15.68Z"/><path d="M16.24,8.58a.47.47,0,0,1-.35-.15.5.5,0,0,1,0-.71l4.24-4.23a.49.49,0,0,1,.7.7L16.59,8.43A.47.47,0,0,1,16.24,8.58Z"/></g></svg>