<svg id="Layer_1" data-name="Layer 1" xmlns="http://www.w3.org/2000/svg" xmlns:xlink="http://www.w3.org/1999/xlink" viewBox="0 0 24 24"><defs><style>.cls-1{fill:none;}.cls-2{clip-path:url(#clip-path);}</style><clipPath id="clip-path"><rect class="cls-1" width="24" height="24"/></clipPath></defs><title>graph</title><g class="cls-2"><path d="M18.59,22.09H5.41a3.5,3.5,0,0,1-3.5-3.5V5.41a3.5,3.5,0,0,1,3.5-3.5H18.59a3.5,3.5,0,0,1,3.5,3.5V18.59A3.5,3.5,0,0,1,18.59,22.09ZM5.41,2.91a2.5,2.5,0,0,0-2.5,2.5V18.59a2.5,2.5,0,0,0,2.5,2.5H18.59a2.5,2.5,0,0,0,2.5-2.5V5.41a2.5,2.5,0,0,0-2.5-2.5Z"/><path d="M16,10.58a2.67,2.67,0,1,1,2.67-2.66A2.67,2.67,0,0,1,16,10.58Zm0-4.33a1.67,1.67,0,1,0,1.67,1.67A1.67,1.67,0,0,0,16,6.25Z"/><path d="M2.94,20.8a.43.43,0,0,1-.19,0,.49.49,0,0,1-.27-.65L7.54,7.73A.49.49,0,0,1,8,7.42a.51.51,0,0,1,.47.3l3.33,7.51,2.92-5.55a.5.5,0,0,1,.88.46l-3.4,6.47a.48.48,0,0,1-.46.27.5.5,0,0,1-.44-.3L8,9.2,3.4,20.49A.5.5,0,0,1,2.94,20.8Z"/></g></svg>