<svg id="Layer_1" data-name="Layer 1" xmlns="http://www.w3.org/2000/svg" xmlns:xlink="http://www.w3.org/1999/xlink" viewBox="0 0 24 24"><defs><style>.cls-1{fill:none;}.cls-2{clip-path:url(#clip-path);}</style><clipPath id="clip-path"><rect class="cls-1" width="24" height="24"/></clipPath></defs><title>hamburger</title><g class="cls-2"><path d="M16.13,4.72H3.63a.5.5,0,0,1-.5-.5.5.5,0,0,1,.5-.5h12.5a.5.5,0,0,1,.5.5A.5.5,0,0,1,16.13,4.72Z"/><path d="M16.13,20.28H3.63a.5.5,0,0,1-.5-.5.5.5,0,0,1,.5-.5h12.5a.5.5,0,0,1,.5.5A.5.5,0,0,1,16.13,20.28Z"/><path d="M20.37,12.5H7.87a.5.5,0,0,1,0-1h12.5a.5.5,0,1,1,0,1Z"/></g></svg>