<svg id="Layer_1" data-name="Layer 1" xmlns="http://www.w3.org/2000/svg" xmlns:xlink="http://www.w3.org/1999/xlink" viewBox="0 0 24 24"><defs><style>.cls-1{fill:none;}.cls-2{clip-path:url(#clip-path);}</style><clipPath id="clip-path"><rect class="cls-1" x="-0.15" y="0.06" width="24" height="24"/></clipPath></defs><title>headphones</title><g class="cls-2"><path d="M7,21.5A2.5,2.5,0,0,1,4.5,19V15a2.5,2.5,0,0,1,5,0v4A2.5,2.5,0,0,1,7,21.5Zm0-8A1.5,1.5,0,0,0,5.5,15v4a1.5,1.5,0,0,0,3,0V15A1.5,1.5,0,0,0,7,13.5Z"/><path d="M17,21.5A2.5,2.5,0,0,1,14.5,19V15a2.5,2.5,0,0,1,5,0v4A2.5,2.5,0,0,1,17,21.5Zm0-8A1.5,1.5,0,0,0,15.5,15v4a1.5,1.5,0,0,0,3,0V15A1.5,1.5,0,0,0,17,13.5Z"/><path d="M22,17.5a.5.5,0,0,1-.5-.5V13a9.5,9.5,0,0,0-19,0v4a.5.5,0,0,1-1,0V13a10.5,10.5,0,0,1,21,0v4A.5.5,0,0,1,22,17.5Z"/></g></svg>