<svg id="Layer_1" data-name="Layer 1" xmlns="http://www.w3.org/2000/svg" xmlns:xlink="http://www.w3.org/1999/xlink" viewBox="0 0 24 24"><defs><style>.cls-1{fill:none;}.cls-2{clip-path:url(#clip-path);}</style><clipPath id="clip-path"><rect class="cls-1" y="0.06" width="24" height="24"/></clipPath></defs><title>heartbeat</title><g class="cls-2"><path d="M18.38,21.88H5.63a3.51,3.51,0,0,1-3.5-3.5V5.63a3.5,3.5,0,0,1,3.5-3.5H18.38a3.51,3.51,0,0,1,3.5,3.5V18.38A3.52,3.52,0,0,1,18.38,21.88ZM5.63,3.13a2.5,2.5,0,0,0-2.5,2.5V18.38a2.51,2.51,0,0,0,2.5,2.5H18.38a2.51,2.51,0,0,0,2.5-2.5V5.63a2.51,2.51,0,0,0-2.5-2.5Z"/><path d="M13.34,18.19h0a.5.5,0,0,1-.47-.39L10.53,8.16,8.81,12.21a.5.5,0,0,1-.46.31H6a.5.5,0,1,1,0-1H8L10.2,6.37a.52.52,0,0,1,.5-.31.51.51,0,0,1,.45.39l2.27,9.42,1.33-4a.49.49,0,0,1,.5-.34l2.78.11a.5.5,0,0,1,.48.51.48.48,0,0,1-.52.48l-2.41-.09-1.77,5.32A.51.51,0,0,1,13.34,18.19Z"/></g></svg>