<svg id="Layer_1" data-name="Layer 1" xmlns="http://www.w3.org/2000/svg" xmlns:xlink="http://www.w3.org/1999/xlink" viewBox="0 0 24 24"><defs><style>.cls-1{fill:none;}.cls-2{clip-path:url(#clip-path);}</style><clipPath id="clip-path"><rect class="cls-1" width="24" height="24"/></clipPath></defs><title>help</title><g class="cls-2"><path d="M12,22.46A10.46,10.46,0,1,1,22.46,12,10.47,10.47,0,0,1,12,22.46ZM12,2.54A9.46,9.46,0,1,0,21.46,12,9.47,9.47,0,0,0,12,2.54Z"/><path d="M12,16.52A4.52,4.52,0,1,1,16.52,12,4.53,4.53,0,0,1,12,16.52Zm0-8A3.52,3.52,0,1,0,15.52,12,3.53,3.53,0,0,0,12,8.48Z"/><path d="M12,8.48a.5.5,0,0,1-.5-.5V2a.5.5,0,1,1,1,0V8A.5.5,0,0,1,12,8.48Z"/><path d="M12,22.46a.5.5,0,0,1-.5-.5V16a.5.5,0,0,1,1,0V22A.5.5,0,0,1,12,22.46Z"/><path d="M8,12.5H2a.5.5,0,1,1,0-1H8a.5.5,0,0,1,0,1Z"/><path d="M22,12.5H16a.5.5,0,0,1,0-1H22a.5.5,0,0,1,0,1Z"/></g></svg>