<svg id="Layer_1" data-name="Layer 1" xmlns="http://www.w3.org/2000/svg" xmlns:xlink="http://www.w3.org/1999/xlink" viewBox="0 0 24 24"><defs><style>.cls-1{fill:none;}.cls-2{clip-path:url(#clip-path);}</style><clipPath id="clip-path"><rect class="cls-1" width="24" height="24"/></clipPath></defs><title>hex-cross</title><g class="cls-2"><path d="M12,21.91a3.43,3.43,0,0,1-1.75-.47L4.7,18.24a3.52,3.52,0,0,1-1.75-3V8.79a3.52,3.52,0,0,1,1.75-3l5.55-3.2a3.48,3.48,0,0,1,3.5,0l5.55,3.2a3.52,3.52,0,0,1,1.75,3v6.42a3.52,3.52,0,0,1-1.75,3l-5.55,3.2A3.41,3.41,0,0,1,12,21.91ZM12,3.09a2.54,2.54,0,0,0-1.25.33L5.2,6.63A2.5,2.5,0,0,0,4,8.79v6.42A2.5,2.5,0,0,0,5.2,17.37l5.55,3.21a2.53,2.53,0,0,0,2.5,0l5.55-3.21a2.5,2.5,0,0,0,1.25-2.16V8.79A2.5,2.5,0,0,0,18.8,6.63L13.25,3.42A2.54,2.54,0,0,0,12,3.09Z"/><path d="M9.17,15.33a.49.49,0,0,1-.35-.15.5.5,0,0,1,0-.71l5.66-5.65a.48.48,0,0,1,.7,0,.5.5,0,0,1,0,.71L9.53,15.18A.51.51,0,0,1,9.17,15.33Z"/><path d="M14.83,15.33a.47.47,0,0,1-.35-.15L8.82,9.53a.5.5,0,0,1,.71-.71l5.65,5.65a.5.5,0,0,1,0,.71A.49.49,0,0,1,14.83,15.33Z"/></g></svg>