<svg id="Layer_1" data-name="Layer 1" xmlns="http://www.w3.org/2000/svg" xmlns:xlink="http://www.w3.org/1999/xlink" viewBox="0 0 24 24"><defs><style>.cls-1{fill:none;}.cls-2{clip-path:url(#clip-path);}</style><clipPath id="clip-path"><rect class="cls-1" width="24" height="24"/></clipPath></defs><title>hex-code</title><g class="cls-2"><path d="M9.54,14.49a.47.47,0,0,1-.35-.14L7.27,12.43a.51.51,0,0,1,0-.71L9.34,9.65a.51.51,0,0,1,.71,0,.5.5,0,0,1,0,.71L8.33,12.08,9.9,13.64a.51.51,0,0,1,0,.71A.5.5,0,0,1,9.54,14.49Z"/><path d="M14.46,14.49a.5.5,0,0,1-.36-.14.51.51,0,0,1,0-.71l1.57-1.56L14,10.36a.5.5,0,0,1,0-.71.51.51,0,0,1,.71,0l2.07,2.07a.51.51,0,0,1,0,.71l-1.92,1.92A.47.47,0,0,1,14.46,14.49Z"/><path d="M12,21.91a3.41,3.41,0,0,1-1.75-.47L4.7,18.24a3.52,3.52,0,0,1-1.75-3V8.79a3.52,3.52,0,0,1,1.75-3l5.55-3.2a3.48,3.48,0,0,1,3.5,0l5.55,3.2a3.52,3.52,0,0,1,1.75,3v6.42a3.52,3.52,0,0,1-1.75,3l-5.55,3.2A3.41,3.41,0,0,1,12,21.91ZM12,3.09a2.54,2.54,0,0,0-1.25.33L5.2,6.63A2.5,2.5,0,0,0,4,8.79v6.42A2.5,2.5,0,0,0,5.2,17.37l5.55,3.21a2.53,2.53,0,0,0,2.5,0l5.55-3.21a2.5,2.5,0,0,0,1.25-2.16V8.79A2.5,2.5,0,0,0,18.8,6.63L13.25,3.42A2.54,2.54,0,0,0,12,3.09Z"/></g></svg>