<svg id="Layer_1" data-name="Layer 1" xmlns="http://www.w3.org/2000/svg" xmlns:xlink="http://www.w3.org/1999/xlink" viewBox="0 0 24 24"><defs><style>.cls-1{fill:none;}.cls-2{clip-path:url(#clip-path);}</style><clipPath id="clip-path"><rect class="cls-1" y="0.14" width="24" height="24"/></clipPath></defs><title>home-chimney</title><g class="cls-2"><path d="M20.08,12.64a.51.51,0,0,1-.36-.15L12,4.72,4.28,12.4a.51.51,0,0,1-.71,0,.5.5,0,0,1,0-.71l8-8a.51.51,0,0,1,.71,0l8.12,8.13a.5.5,0,0,1-.35.85Z"/><path d="M12,20.49H5.42a.51.51,0,0,1-.5-.5V10.55a.5.5,0,0,1,.5-.5.5.5,0,0,1,.5.5v8.94H12a.5.5,0,0,1,.5.5A.5.5,0,0,1,12,20.49Z"/><path d="M18.57,20.49H12a.51.51,0,0,1-.5-.5.5.5,0,0,1,.5-.5h6.07V10.64a.5.5,0,0,1,.5-.5.5.5,0,0,1,.5.5V20A.5.5,0,0,1,18.57,20.49Z"/><path d="M7.17,9.29a.5.5,0,0,1-.5-.5V4a.51.51,0,0,1,.5-.5.5.5,0,0,1,.5.5V8.79A.5.5,0,0,1,7.17,9.29Z"/></g></svg>