<svg id="Layer_1" data-name="Layer 1" xmlns="http://www.w3.org/2000/svg" xmlns:xlink="http://www.w3.org/1999/xlink" viewBox="0 0 24 24"><defs><style>.cls-1{fill:none;}.cls-2{clip-path:url(#clip-path);}</style><clipPath id="clip-path"><rect class="cls-1" y="0.14" width="24" height="24"/></clipPath></defs><title>home-door</title><g class="cls-2"><path d="M20.08,12.64a.51.51,0,0,1-.36-.15L12,4.72,4.28,12.4a.51.51,0,0,1-.71,0,.5.5,0,0,1,0-.71l8-8a.5.5,0,0,1,.71,0l8.12,8.12a.5.5,0,0,1,0,.71A.49.49,0,0,1,20.08,12.64Z"/><path d="M12,20.48H5.42a.5.5,0,0,1-.5-.5V10.54a.51.51,0,0,1,.5-.5.5.5,0,0,1,.5.5v8.94H12a.5.5,0,0,1,.5.5A.5.5,0,0,1,12,20.48Z"/><path d="M18.57,20.48H12a.5.5,0,0,1-.5-.5.51.51,0,0,1,.5-.5h6.07V10.63a.51.51,0,0,1,.5-.5.5.5,0,0,1,.5.5V20A.5.5,0,0,1,18.57,20.48Z"/><path d="M14.86,20.49a.5.5,0,0,1-.5-.5V15.47A2.39,2.39,0,0,0,12,13.08a2.39,2.39,0,0,0-2.39,2.39V20a.5.5,0,0,1-1,0V15.47a3.39,3.39,0,0,1,6.78,0V20A.5.5,0,0,1,14.86,20.49Z"/></g></svg>