<svg id="Layer_1" data-name="Layer 1" xmlns="http://www.w3.org/2000/svg" xmlns:xlink="http://www.w3.org/1999/xlink" viewBox="0 0 24 24"><defs><style>.cls-1{fill:none;}.cls-2{clip-path:url(#clip-path);}</style><clipPath id="clip-path"><rect class="cls-1" width="24" height="24"/></clipPath></defs><title>key-return</title><g class="cls-2"><path d="M16.91,18.75H7.1a3.5,3.5,0,0,1-3.5-3.5V5.44a3.5,3.5,0,0,1,3.5-3.5h9.81a3.5,3.5,0,0,1,3.5,3.5v9.81A3.5,3.5,0,0,1,16.91,18.75ZM7.1,2.94a2.5,2.5,0,0,0-2.5,2.5v9.81a2.5,2.5,0,0,0,2.5,2.5h9.81a2.5,2.5,0,0,0,2.5-2.5V5.44a2.5,2.5,0,0,0-2.5-2.5Z"/><path d="M16.9,22.06H7.09a3.5,3.5,0,0,1-3.5-3.5V8.75a.51.51,0,0,1,.5-.5.5.5,0,0,1,.5.5v9.81a2.5,2.5,0,0,0,2.5,2.5H16.9a2.5,2.5,0,0,0,2.5-2.5V8.75a.51.51,0,0,1,.5-.5.5.5,0,0,1,.5.5v9.81A3.5,3.5,0,0,1,16.9,22.06Z"/><path d="M14.7,13.18h-6a.51.51,0,0,1-.46-.31.49.49,0,0,1,.11-.55l2.22-2.22a.5.5,0,0,1,.7,0,.5.5,0,0,1,0,.71L10,12.18H14.2V6.53a.5.5,0,0,1,.5-.5.51.51,0,0,1,.5.5v6.15A.51.51,0,0,1,14.7,13.18Z"/><path d="M11,15.4a.47.47,0,0,1-.35-.15L8.39,13a.5.5,0,0,1,0-.71.5.5,0,0,1,.7,0l2.22,2.22a.5.5,0,0,1,0,.71A.49.49,0,0,1,11,15.4Z"/></g></svg>