<svg id="Layer_1" data-name="Layer 1" xmlns="http://www.w3.org/2000/svg" xmlns:xlink="http://www.w3.org/1999/xlink" viewBox="0 0 24 24"><defs><style>.cls-1{fill:none;}.cls-2{clip-path:url(#clip-path);}</style><clipPath id="clip-path"><rect class="cls-1" x="0.15" y="-0.12" width="24" height="24"/></clipPath></defs><title>key</title><g class="cls-2"><path d="M7.29,21.52a5.86,5.86,0,1,1,5.86-5.85A5.86,5.86,0,0,1,7.29,21.52Zm0-10.71a4.86,4.86,0,1,0,4.86,4.86A4.86,4.86,0,0,0,7.29,10.81Z"/><path d="M11.08,12.38a.54.54,0,0,1-.36-.14.51.51,0,0,1,0-.71l8.91-8.9a.49.49,0,0,1,.7,0L22.42,4.7a.5.5,0,0,1,0,.7.5.5,0,0,1-.71,0L20,3.69l-8.55,8.55A.54.54,0,0,1,11.08,12.38Z"/><path d="M19,7.88a.52.52,0,0,1-.35-.14L17,6a.49.49,0,1,1,.7-.7L19.38,7a.51.51,0,0,1,0,.71A.54.54,0,0,1,19,7.88Z"/></g></svg>