<svg id="Layer_1" data-name="Layer 1" xmlns="http://www.w3.org/2000/svg" xmlns:xlink="http://www.w3.org/1999/xlink" viewBox="0 0 24 24"><defs><style>.cls-1{fill:none;}.cls-2{clip-path:url(#clip-path);}</style><clipPath id="clip-path"><rect class="cls-1" y="0.02" width="24" height="24"/></clipPath></defs><title>ladder</title><g class="cls-2"><path d="M16,20.48l-.13,0a.49.49,0,0,1-.36-.6l4-16a.5.5,0,0,1,.61-.36.49.49,0,0,1,.36.6l-4,16A.5.5,0,0,1,16,20.48Z"/><path d="M4,20.48l-.12,0a.49.49,0,0,1-.36-.6l4-16a.5.5,0,0,1,.61-.36.49.49,0,0,1,.36.6l-4,16A.5.5,0,0,1,4,20.48Z"/><path d="M19,7.52H7.24a.5.5,0,0,1,0-1H19a.5.5,0,0,1,0,1Z"/><path d="M18,12.52H6a.5.5,0,1,1,0-1H18a.5.5,0,0,1,0,1Z"/><path d="M16.79,17.4H5a.5.5,0,0,1,0-1h11.8a.5.5,0,0,1,0,1Z"/></g></svg>