<svg id="Layer_1" data-name="Layer 1" xmlns="http://www.w3.org/2000/svg" xmlns:xlink="http://www.w3.org/1999/xlink" viewBox="0 0 24 24"><defs><style>.cls-1{fill:none;}.cls-2{clip-path:url(#clip-path);}</style><clipPath id="clip-path"><rect class="cls-1" width="24" height="24"/></clipPath></defs><title>laptop-dot</title><g class="cls-2"><path d="M19.23,16H4.77a.5.5,0,0,1-.5-.5V5.89a1.51,1.51,0,0,1,1.51-1.5H18.22a1.51,1.51,0,0,1,1.51,1.5v9.56A.5.5,0,0,1,19.23,16Zm-14-1H18.73V5.89a.51.51,0,0,0-.51-.5H5.78a.51.51,0,0,0-.51.5Z"/><path d="M20.75,19.61H3.25a.5.5,0,0,1-.5-.5V15.45a.5.5,0,0,1,.5-.5h17.5a.5.5,0,0,1,.5.5v3.66A.5.5,0,0,1,20.75,19.61Zm-17-1h16.5V16H3.75Z"/><path d="M12,13a2.81,2.81,0,1,1,2.81-2.81A2.81,2.81,0,0,1,12,13Zm0-4.62a1.81,1.81,0,1,0,1.81,1.81A1.81,1.81,0,0,0,12,8.36Z"/></g></svg>