<svg id="Layer_1" data-name="Layer 1" xmlns="http://www.w3.org/2000/svg" xmlns:xlink="http://www.w3.org/1999/xlink" viewBox="0 0 24 24"><defs><style>.cls-1{fill:none;}.cls-2{clip-path:url(#clip-path);}</style><clipPath id="clip-path"><rect class="cls-1" y="0.06" width="24" height="24"/></clipPath></defs><title>laptop-alt</title><g class="cls-2"><path d="M19.5,16.25H4.5a.5.5,0,0,1-.5-.5v-10a.5.5,0,0,1,.5-.5h15a.5.5,0,0,1,.5.5v10A.5.5,0,0,1,19.5,16.25ZM5,15.25H19v-9H5Z"/><path d="M22,18.75H2a.5.5,0,0,1-.46-.31.47.47,0,0,1,.11-.54l2.5-2.5a.49.49,0,1,1,.7.7L3.21,17.75H20.79L19.15,16.1a.49.49,0,1,1,.7-.7l2.5,2.5a.47.47,0,0,1,.11.54A.5.5,0,0,1,22,18.75Z"/></g></svg>