<svg id="Layer_1" data-name="Layer 1" xmlns="http://www.w3.org/2000/svg" xmlns:xlink="http://www.w3.org/1999/xlink" viewBox="0 0 24 24"><defs><style>.cls-1{fill:none;}.cls-2{clip-path:url(#clip-path);}</style><clipPath id="clip-path"><rect class="cls-1" width="24" height="24"/></clipPath></defs><title>laptop-plus</title><g class="cls-2"><path d="M19.23,16.93H4.77a.5.5,0,0,1-.5-.5V6.87a1.51,1.51,0,0,1,1.51-1.5H12a.5.5,0,0,1,.5.5.5.5,0,0,1-.5.5H5.78a.5.5,0,0,0-.51.5v9.06H18.73V11.15a.5.5,0,0,1,.5-.5.5.5,0,0,1,.5.5v5.28A.5.5,0,0,1,19.23,16.93Z"/><path d="M20.75,20.59H3.25a.5.5,0,0,1-.5-.5V16.43a.5.5,0,0,1,.5-.5h17.5a.5.5,0,0,1,.5.5v3.66A.5.5,0,0,1,20.75,20.59Zm-17-1h16.5V16.93H3.75Z"/><path d="M19.63,6.79H14.88a.5.5,0,0,1,0-1h4.75a.5.5,0,0,1,0,1Z"/><path d="M17.26,9.16a.5.5,0,0,1-.5-.5V3.91a.5.5,0,0,1,.5-.5.51.51,0,0,1,.5.5V8.66A.5.5,0,0,1,17.26,9.16Z"/></g></svg>