<svg id="Layer_1" data-name="Layer 1" xmlns="http://www.w3.org/2000/svg" xmlns:xlink="http://www.w3.org/1999/xlink" viewBox="0 0 24 24"><defs><style>.cls-1{fill:none;}.cls-2{clip-path:url(#clip-path);}</style><clipPath id="clip-path"><rect class="cls-1" y="-0.01" width="24" height="24"/></clipPath></defs><title>laptop-code</title><g class="cls-2"><path d="M19.23,16H4.77a.5.5,0,0,1-.5-.5V5.89a1.5,1.5,0,0,1,1.5-1.5H18.23a1.5,1.5,0,0,1,1.5,1.5v9.56A.5.5,0,0,1,19.23,16Zm-14-1H18.73V5.89a.51.51,0,0,0-.5-.5H5.77a.51.51,0,0,0-.5.5Z"/><path d="M20.75,19.61H3.25a.5.5,0,0,1-.5-.5V15.45a.5.5,0,0,1,.5-.5h17.5a.5.5,0,0,1,.5.5v3.66A.5.5,0,0,1,20.75,19.61Zm-17-1h16.5V16H3.75Z"/><path d="M14.55,12.74a.5.5,0,0,1-.35-.85l1.63-1.64L14,8.45a.49.49,0,0,1,.7-.7L16.89,9.9a.5.5,0,0,1,0,.71l-2,2A.5.5,0,0,1,14.55,12.74Z"/><path d="M9.45,12.74a.5.5,0,0,1-.35-.14l-2-2a.5.5,0,0,1,0-.71L9.26,7.75a.49.49,0,0,1,.7.7l-1.79,1.8L9.8,11.89a.5.5,0,0,1-.35.85Z"/></g></svg>