<svg id="Layer_1" data-name="Layer 1" xmlns="http://www.w3.org/2000/svg" xmlns:xlink="http://www.w3.org/1999/xlink" viewBox="0 0 24 24"><defs><style>.cls-1{fill:none;}.cls-2{clip-path:url(#clip-path);}</style><clipPath id="clip-path"><rect class="cls-1" width="24" height="24"/></clipPath></defs><title>laptop-import-45</title><g class="cls-2"><path d="M19.23,16H4.77a.5.5,0,0,1-.5-.5V5.89a1.51,1.51,0,0,1,1.51-1.5H12a.5.5,0,0,1,0,1H5.78a.51.51,0,0,0-.51.5V15H18.73V10.17a.5.5,0,0,1,.5-.5.51.51,0,0,1,.5.5v5.28A.5.5,0,0,1,19.23,16Z"/><path d="M20.75,19.61H3.25a.5.5,0,0,1-.5-.5V15.45a.5.5,0,0,1,.5-.5h17.5a.5.5,0,0,1,.5.5v3.66A.5.5,0,0,1,20.75,19.61Zm-17-1h16.5V16H3.75Z"/><path d="M12.08,12.63a.43.43,0,0,1-.19,0,.5.5,0,0,1-.31-.46V8.32a.5.5,0,0,1,1,0v2.6L17,6.51a.49.49,0,1,1,.7.7l-5.27,5.27A.47.47,0,0,1,12.08,12.63Z"/><path d="M15.89,12.63H12.08a.5.5,0,0,1,0-1h3.81a.5.5,0,0,1,0,1Z"/></g></svg>