<svg id="Layer_1" data-name="Layer 1" xmlns="http://www.w3.org/2000/svg" xmlns:xlink="http://www.w3.org/1999/xlink" viewBox="0 0 24 24"><defs><style>.cls-1{fill:none;}.cls-2{clip-path:url(#clip-path);}</style><clipPath id="clip-path"><rect class="cls-1" width="24" height="24"/></clipPath></defs><title>laptop-cross</title><g class="cls-2"><path d="M19.23,16.58H4.77a.5.5,0,0,1-.5-.5V6.52A1.51,1.51,0,0,1,5.78,5H12a.5.5,0,0,1,0,1H5.78a.5.5,0,0,0-.51.5v9.06H18.73V10.8a.5.5,0,0,1,.5-.5.5.5,0,0,1,.5.5v5.28A.5.5,0,0,1,19.23,16.58Z"/><path d="M20.75,20.24H3.25a.5.5,0,0,1-.5-.5V16.08a.5.5,0,0,1,.5-.5h17.5a.5.5,0,0,1,.5.5v3.66A.5.5,0,0,1,20.75,20.24Zm-17-1h16.5V16.58H3.75Z"/><path d="M18.94,8.12A.51.51,0,0,1,18.58,8L15.22,4.62a.51.51,0,0,1,0-.71.5.5,0,0,1,.71,0l3.36,3.36a.5.5,0,0,1-.35.85Z"/><path d="M15.58,8.12A.51.51,0,0,1,15.22,8a.5.5,0,0,1,0-.7l3.36-3.36a.5.5,0,0,1,.71.71L15.93,8A.49.49,0,0,1,15.58,8.12Z"/></g></svg>