<svg id="Layer_1" data-name="Layer 1" xmlns="http://www.w3.org/2000/svg" xmlns:xlink="http://www.w3.org/1999/xlink" viewBox="0 0 24 24"><defs><style>.cls-1{fill:none;}.cls-2{clip-path:url(#clip-path);}</style><clipPath id="clip-path"><rect class="cls-1" y="0.02" width="24" height="24"/></clipPath></defs><title>layers</title><g class="cls-2"><path d="M12,14.35a.48.48,0,0,1-.26-.07l-9.9-5.9a.51.51,0,0,1,0-.86l9.9-5.9a.53.53,0,0,1,.52,0l9.9,5.9a.51.51,0,0,1,0,.86l-9.9,5.9A.48.48,0,0,1,12,14.35ZM3.08,8,12,13.27,20.92,8,12,2.63Z"/><path d="M12,18.45a.48.48,0,0,1-.26-.07l-10-6a.5.5,0,1,1,.52-.86L12,17.37l9.74-5.85a.5.5,0,1,1,.52.86l-10,6A.48.48,0,0,1,12,18.45Z"/><path d="M12,22.45a.48.48,0,0,1-.26-.07l-10-6a.5.5,0,0,1,.52-.86L12,21.37l9.74-5.85a.5.5,0,1,1,.52.86l-10,6A.48.48,0,0,1,12,22.45Z"/></g></svg>