<svg id="Layer_1" data-name="Layer 1" xmlns="http://www.w3.org/2000/svg" xmlns:xlink="http://www.w3.org/1999/xlink" viewBox="0 0 24 24"><defs><style>.cls-1{fill:none;}.cls-2{clip-path:url(#clip-path);}</style><clipPath id="clip-path"><rect class="cls-1" width="24" height="24"/></clipPath></defs><title>layout2</title><g class="cls-2"><path d="M6.83,18.83a.51.51,0,1,1,.51-.5A.51.51,0,0,1,6.83,18.83Z"/><path d="M11.75,18.84a.51.51,0,1,1,.5-.51A.5.5,0,0,1,11.75,18.84Z"/><circle cx="16.67" cy="18.34" r="0.5"/><path d="M18.59,22.09H5.41a3.5,3.5,0,0,1-3.5-3.5V5.41a3.5,3.5,0,0,1,3.5-3.5H18.59a3.5,3.5,0,0,1,3.5,3.5V18.59A3.5,3.5,0,0,1,18.59,22.09ZM5.41,2.91a2.5,2.5,0,0,0-2.5,2.5V18.59a2.5,2.5,0,0,0,2.5,2.5H18.59a2.5,2.5,0,0,0,2.5-2.5V5.41a2.5,2.5,0,0,0-2.5-2.5Z"/><path d="M21.59,15.67H2.41a.51.51,0,0,1-.47-.32.49.49,0,0,1,.12-.54l9.69-9.29a.5.5,0,0,1,.69,0l9.5,9.28a.5.5,0,0,1,.12.54A.51.51,0,0,1,21.59,15.67Zm-17.94-1H20.37L12.09,6.58Z"/></g></svg>