<svg id="Layer_1" data-name="Layer 1" xmlns="http://www.w3.org/2000/svg" xmlns:xlink="http://www.w3.org/1999/xlink" viewBox="0 0 24 24"><defs><style>.cls-1{fill:none;}.cls-2{clip-path:url(#clip-path);}</style><clipPath id="clip-path"><rect class="cls-1" width="24" height="24"/></clipPath></defs><title>layout4</title><g class="cls-2"><path d="M18.82,22.32H5.18a3.5,3.5,0,0,1-3.5-3.5V5.18a3.5,3.5,0,0,1,3.5-3.5H18.82a3.5,3.5,0,0,1,3.5,3.5V18.82A3.5,3.5,0,0,1,18.82,22.32ZM5.18,2.68a2.5,2.5,0,0,0-2.5,2.5V18.82a2.5,2.5,0,0,0,2.5,2.5H18.82a2.5,2.5,0,0,0,2.5-2.5V5.18a2.5,2.5,0,0,0-2.5-2.5Z"/><path d="M8.12,22.32a.5.5,0,0,1-.5-.5V2.18a.5.5,0,1,1,1,0V21.82A.5.5,0,0,1,8.12,22.32Z"/><path d="M21.82,12.5H8.12a.5.5,0,1,1,0-1h13.7a.5.5,0,0,1,0,1Z"/></g></svg>