<svg id="Layer_1" data-name="Layer 1" xmlns="http://www.w3.org/2000/svg" xmlns:xlink="http://www.w3.org/1999/xlink" viewBox="0 0 24 24"><defs><style>.cls-1{fill:none;}.cls-2{clip-path:url(#clip-path);}</style><clipPath id="clip-path"><rect class="cls-1" width="24" height="24"/></clipPath></defs><title>layout</title><g class="cls-2"><path d="M18.59,22.09H5.41a3.5,3.5,0,0,1-3.5-3.5V5.41a3.5,3.5,0,0,1,3.5-3.5H18.59a3.5,3.5,0,0,1,3.5,3.5V18.59A3.5,3.5,0,0,1,18.59,22.09ZM5.41,2.91a2.5,2.5,0,0,0-2.5,2.5V18.59a2.5,2.5,0,0,0,2.5,2.5H18.59a2.5,2.5,0,0,0,2.5-2.5V5.41a2.5,2.5,0,0,0-2.5-2.5Z"/><path d="M21.59,12.59H2.41a.5.5,0,0,1-.27-.92l9.68-6.21a.52.52,0,0,1,.55,0l9.5,6.21a.49.49,0,0,1,.2.56A.5.5,0,0,1,21.59,12.59Zm-17.48-1h15.8L12.09,6.48Z"/><path d="M18.29,17.34H5.9a.5.5,0,0,1-.5-.5.5.5,0,0,1,.5-.5H18.29a.5.5,0,0,1,.5.5A.5.5,0,0,1,18.29,17.34Z"/></g></svg>