<svg id="Layer_1" data-name="Layer 1" xmlns="http://www.w3.org/2000/svg" xmlns:xlink="http://www.w3.org/1999/xlink" viewBox="0 0 24 24"><defs><style>.cls-1{fill:none;}.cls-2{clip-path:url(#clip-path);}</style><clipPath id="clip-path"><rect class="cls-1" x="-0.15" width="24" height="24"/></clipPath></defs><title>link-alt</title><g class="cls-2"><path d="M16,10.82h-.08a.5.5,0,0,1-.41-.58V6.3A3.53,3.53,0,0,0,12,2.78,3.53,3.53,0,0,0,8.48,6.3v3.94a.5.5,0,1,1-1,.16,1.18,1.18,0,0,1,0-.27V6.3A4.53,4.53,0,0,1,12,1.78a4.45,4.45,0,0,1,3.19,1.33A4.46,4.46,0,0,1,16.52,6.3v3.83a1.18,1.18,0,0,1,0,.27A.49.49,0,0,1,16,10.82Z"/><path d="M16,10.82H8a.5.5,0,0,1-.5-.5.5.5,0,0,1,.5-.5h8a.5.5,0,0,1,.5.5A.5.5,0,0,1,16,10.82Z"/><path d="M12,22.22A4.54,4.54,0,0,1,7.48,17.7V13.87a1.18,1.18,0,0,1,0-.27.5.5,0,1,1,1,.16V17.7A3.53,3.53,0,0,0,12,21.22a3.53,3.53,0,0,0,3.52-3.52V13.76a.5.5,0,1,1,1-.16,1.18,1.18,0,0,1,0,.27V17.7A4.53,4.53,0,0,1,12,22.22Z"/><path d="M16,14.18H8a.5.5,0,0,1-.5-.5.5.5,0,0,1,.5-.5h8a.5.5,0,0,1,.5.5A.5.5,0,0,1,16,14.18Z"/><path d="M12,16a.5.5,0,0,1-.5-.5V8.46a.5.5,0,1,1,1,0v7.08A.5.5,0,0,1,12,16Z"/></g></svg>