<svg id="Layer_1" data-name="Layer 1" xmlns="http://www.w3.org/2000/svg" xmlns:xlink="http://www.w3.org/1999/xlink" viewBox="0 0 24 24"><defs><style>.cls-1{fill:none;}.cls-2{clip-path:url(#clip-path);}</style><clipPath id="clip-path"><rect class="cls-1" width="24" height="24"/></clipPath></defs><title>link-external</title><g class="cls-2"><path d="M12,12.3a.5.5,0,0,1-.35-.85l7.22-7.26a.5.5,0,0,1,.71,0,.5.5,0,0,1,0,.71l-7.23,7.26A.47.47,0,0,1,12,12.3Z"/><path d="M20.24,10.87a.51.51,0,0,1-.5-.5V4H13.39a.5.5,0,0,1,0-1h6.84a.5.5,0,0,1,.5.5v6.83a.5.5,0,0,1-.5.5Z"/><path d="M15.35,21h-10a3.5,3.5,0,0,1-3.5-3.5v-10A3.5,3.5,0,0,1,5.35,4h3a.51.51,0,0,1,.5.5.5.5,0,0,1-.5.5h-3a2.5,2.5,0,0,0-2.5,2.5v10A2.5,2.5,0,0,0,5.35,20h10a2.51,2.51,0,0,0,2.5-2.5v-2a.5.5,0,0,1,.5-.5.51.51,0,0,1,.5.5v2A3.51,3.51,0,0,1,15.35,21Z"/></g></svg>