<svg id="Layer_1" data-name="Layer 1" xmlns="http://www.w3.org/2000/svg" xmlns:xlink="http://www.w3.org/1999/xlink" viewBox="0 0 24 24"><defs><style>.cls-1{fill:none;}.cls-2{clip-path:url(#clip-path);}</style><clipPath id="clip-path"><rect class="cls-1" width="24" height="24"/></clipPath></defs><title>link</title><g class="cls-2"><path d="M7.76,20.74a4.5,4.5,0,0,1-3.18-7.68L6,11.65a.5.5,0,0,1,.71,0,.5.5,0,0,1,0,.7L5.28,13.77a3.5,3.5,0,0,0,5,4.95l2.83-2.83a3.49,3.49,0,0,0,0-5,.5.5,0,0,1,.71-.71,4.5,4.5,0,0,1,0,6.37l-2.83,2.82A4.48,4.48,0,0,1,7.76,20.74Z"/><path d="M10.59,13.91a.5.5,0,0,1-.36-.14,4.5,4.5,0,0,1,0-6.37l2.83-2.82a4.5,4.5,0,1,1,6.36,6.36L18,12.35a.5.5,0,0,1-.71,0,.5.5,0,0,1,0-.7l1.42-1.42a3.5,3.5,0,0,0-4.95-4.95L10.94,8.11a3.49,3.49,0,0,0,0,5,.51.51,0,0,1,0,.71A.49.49,0,0,1,10.59,13.91Z"/></g></svg>