<svg id="Layer_1" data-name="Layer 1" xmlns="http://www.w3.org/2000/svg" xmlns:xlink="http://www.w3.org/1999/xlink" viewBox="0 0 24 24"><defs><style>.cls-1{fill:none;}.cls-2{clip-path:url(#clip-path);}</style><clipPath id="clip-path"><rect class="cls-1" y="-0.03" width="24" height="24"/></clipPath></defs><title>location-marker</title><g class="cls-2"><path d="M11.79,11.45a3.66,3.66,0,1,1,3.66-3.66A3.66,3.66,0,0,1,11.79,11.45Zm0-6.32a2.66,2.66,0,1,0,2.66,2.66A2.66,2.66,0,0,0,11.79,5.13Z"/><path d="M18.25,9.57h-.08A.51.51,0,0,1,17.75,9l0-.18,0-.26a1.58,1.58,0,0,0,0-.38l0-.43a5.88,5.88,0,0,0-11.76,0s0,.14,0,.37a2,2,0,0,0,0,.38c0,.1,0,.19,0,.28l0,.18a.5.5,0,0,1-1,.15l0-.21,0-.21a2.87,2.87,0,0,1,0-.55c0-.21,0-.34,0-.35a6.88,6.88,0,1,1,13.75,0s0,.18,0,.42a2.57,2.57,0,0,1-.06.55,1.62,1.62,0,0,1,0,.18l0,.21A.49.49,0,0,1,18.25,9.57Z"/><path d="M12,23.08a.5.5,0,0,1-.35-.14C5.6,16.89,5.15,8.18,5.13,7.81a.5.5,0,0,1,.48-.52.46.46,0,0,1,.52.48c0,.08.46,8.7,6.22,14.46a.5.5,0,0,1-.35.85Z"/><path d="M12,23.08a.5.5,0,0,1-.35-.85c5.77-5.77,6.22-14.38,6.22-14.46a.46.46,0,0,1,.52-.48.5.5,0,0,1,.48.52c0,.37-.47,9.08-6.52,15.13A.5.5,0,0,1,12,23.08Z"/></g></svg>