<svg id="Layer_1" data-name="Layer 1" xmlns="http://www.w3.org/2000/svg" xmlns:xlink="http://www.w3.org/1999/xlink" viewBox="0 0 24 24"><defs><style>.cls-1{fill:none;}.cls-2{clip-path:url(#clip-path);}</style><clipPath id="clip-path"><rect class="cls-1" y="-0.06" width="24" height="24"/></clipPath></defs><title>lock-circlealt</title><g class="cls-2"><path d="M12,21.19a6.71,6.71,0,1,1,6.71-6.7A6.72,6.72,0,0,1,12,21.19ZM12,8.78a5.71,5.71,0,1,0,5.71,5.71A5.71,5.71,0,0,0,12,8.78Z"/><path d="M15.93,10.19l-.11,0a.49.49,0,0,1-.38-.59A2.9,2.9,0,0,0,15.5,9V7.31a3.5,3.5,0,0,0-7,0V9a2.9,2.9,0,0,0,.06.62.49.49,0,0,1-.38.59.5.5,0,0,1-.6-.38A4.1,4.1,0,0,1,7.5,9V7.31a4.5,4.5,0,1,1,9,0V9a4.1,4.1,0,0,1-.08.83A.5.5,0,0,1,15.93,10.19Z"/></g></svg>