<svg id="Layer_1" data-name="Layer 1" xmlns="http://www.w3.org/2000/svg" xmlns:xlink="http://www.w3.org/1999/xlink" viewBox="0 0 24 24"><defs><style>.cls-1{fill:none;}.cls-2{clip-path:url(#clip-path);}</style><clipPath id="clip-path"><rect class="cls-1" x="0.1" y="0.01" width="24" height="24"/></clipPath></defs><title>menu-vertical</title><g class="cls-2"><path d="M12,6.47A2.5,2.5,0,1,1,14.5,4,2.5,2.5,0,0,1,12,6.47Zm0-4A1.5,1.5,0,1,0,13.5,4,1.5,1.5,0,0,0,12,2.47Z"/><path d="M12,14.5A2.5,2.5,0,1,1,14.5,12,2.5,2.5,0,0,1,12,14.5Zm0-4A1.5,1.5,0,1,0,13.5,12,1.5,1.5,0,0,0,12,10.5Z"/><path d="M12,22.53A2.5,2.5,0,1,1,14.5,20,2.5,2.5,0,0,1,12,22.53Zm0-4A1.5,1.5,0,1,0,13.5,20,1.5,1.5,0,0,0,12,18.53Z"/></g></svg>