<svg id="Layer_1" data-name="Layer 1" xmlns="http://www.w3.org/2000/svg" xmlns:xlink="http://www.w3.org/1999/xlink" viewBox="0 0 24 24"><defs><style>.cls-1{fill:none;}.cls-2{clip-path:url(#clip-path);}</style><clipPath id="clip-path"><rect class="cls-1" y="0.06" width="24" height="24"/></clipPath></defs><title>mic</title><g class="cls-2"><path d="M12,17a5,5,0,0,1-5-5V6.15a5,5,0,0,1,10,0V12A5,5,0,0,1,12,17ZM12,2.16a4,4,0,0,0-4,4V12a4,4,0,1,0,8,0V6.15A4,4,0,0,0,12,2.16Z"/><path d="M16.5,22.84h-9a.5.5,0,0,1-.5-.5.51.51,0,0,1,.5-.5h4V16.53a.5.5,0,0,1,1,0v5.31h4a.51.51,0,0,1,.5.5A.5.5,0,0,1,16.5,22.84Z"/><path d="M16.5,7.85H13.37a.5.5,0,0,1-.5-.5.51.51,0,0,1,.5-.5H16.5a.51.51,0,0,1,.5.5A.5.5,0,0,1,16.5,7.85Z"/><path d="M16.5,11.82H13.37a.5.5,0,1,1,0-1H16.5a.5.5,0,0,1,0,1Z"/></g></svg>