<svg id="Layer_1" data-name="Layer 1" xmlns="http://www.w3.org/2000/svg" xmlns:xlink="http://www.w3.org/1999/xlink" viewBox="0 0 24 24"><defs><style>.cls-1{fill:none;}.cls-2{clip-path:url(#clip-path);}</style><clipPath id="clip-path"><rect class="cls-1" y="0.14" width="24" height="24"/></clipPath></defs><title>monitor</title><g class="cls-2"><path d="M18.62,18.1H5.38A3.88,3.88,0,0,1,1.5,14.23V5.77A3.88,3.88,0,0,1,5.38,1.9H18.62A3.88,3.88,0,0,1,22.5,5.77v8.46A3.88,3.88,0,0,1,18.62,18.1ZM5.38,2.9A2.88,2.88,0,0,0,2.5,5.77v8.46A2.88,2.88,0,0,0,5.38,17.1H18.62a2.88,2.88,0,0,0,2.88-2.87V5.77A2.88,2.88,0,0,0,18.62,2.9Z"/><path d="M12,22.1a.5.5,0,0,1-.5-.5v-4a.5.5,0,0,1,1,0v4A.5.5,0,0,1,12,22.1Z"/><path d="M18,22.1H6a.5.5,0,0,1-.5-.5.5.5,0,0,1,.5-.5H18a.5.5,0,0,1,.5.5A.5.5,0,0,1,18,22.1Z"/></g></svg>