<svg id="Layer_1" data-name="Layer 1" xmlns="http://www.w3.org/2000/svg" xmlns:xlink="http://www.w3.org/1999/xlink" viewBox="0 0 24 24"><defs><style>.cls-1{fill:none;}.cls-2{clip-path:url(#clip-path);}</style><clipPath id="clip-path"><rect class="cls-1" width="24" height="24"/></clipPath></defs><title>mouse-alt</title><g class="cls-2"><path d="M12,21.58a6.34,6.34,0,0,1-6.33-6.33V8.75a6.33,6.33,0,1,1,12.66,0v6.5A6.34,6.34,0,0,1,12,21.58ZM12,3.42A5.33,5.33,0,0,0,6.67,8.75v6.5a5.33,5.33,0,0,0,10.66,0V8.75A5.33,5.33,0,0,0,12,3.42Z"/><path d="M17.83,12.5H6.17a.5.5,0,0,1,0-1H17.83a.5.5,0,0,1,0,1Z"/><path d="M12,12.5a.5.5,0,0,1-.5-.5V2.92a.5.5,0,0,1,1,0V12A.5.5,0,0,1,12,12.5Z"/></g></svg>