<svg id="Layer_1" data-name="Layer 1" xmlns="http://www.w3.org/2000/svg" xmlns:xlink="http://www.w3.org/1999/xlink" viewBox="0 0 24 24"><defs><style>.cls-1{fill:none;}.cls-2{clip-path:url(#clip-path);}</style><clipPath id="clip-path"><rect class="cls-1" width="24" height="24"/></clipPath></defs><title>mouse</title><g class="cls-2"><path d="M12,21.58a6.34,6.34,0,0,1-6.33-6.33V8.75a6.33,6.33,0,1,1,12.66,0v6.5A6.34,6.34,0,0,1,12,21.58ZM12,3.42A5.33,5.33,0,0,0,6.67,8.75v6.5a5.33,5.33,0,0,0,10.66,0V8.75A5.33,5.33,0,0,0,12,3.42Z"/><path d="M12,13.19a1.77,1.77,0,0,1-1.77-1.77V8.58a1.77,1.77,0,1,1,3.54,0v2.84A1.77,1.77,0,0,1,12,13.19Zm0-5.38a.77.77,0,0,0-.77.77v2.84a.77.77,0,1,0,1.54,0V8.58A.77.77,0,0,0,12,7.81Z"/></g></svg>