<svg id="Layer_1" data-name="Layer 1" xmlns="http://www.w3.org/2000/svg" xmlns:xlink="http://www.w3.org/1999/xlink" viewBox="0 0 24 24"><defs><style>.cls-1{fill:none;}.cls-2{clip-path:url(#clip-path);}</style><clipPath id="clip-path"><rect class="cls-1" width="24" height="24"/></clipPath></defs><title>mouse-45</title><g class="cls-2"><path d="M9.7,20.63A6.33,6.33,0,0,1,5.22,9.82l4.6-4.6a6.34,6.34,0,0,1,9,9l-4.6,4.6A6.33,6.33,0,0,1,9.7,20.63ZM14.3,4.37a5.31,5.31,0,0,0-3.77,1.56l-4.6,4.6a5.33,5.33,0,0,0,7.54,7.54l4.6-4.6a5.33,5.33,0,0,0-3.77-9.1Z"/><path d="M12.84,11.66a.47.47,0,0,1-.35-.15.48.48,0,0,1,0-.7l1.94-2a.5.5,0,0,1,.71.71l-2,1.94A.47.47,0,0,1,12.84,11.66Z"/></g></svg>