<svg id="Layer_1" data-name="Layer 1" xmlns="http://www.w3.org/2000/svg" xmlns:xlink="http://www.w3.org/1999/xlink" viewBox="0 0 24 24"><defs><style>.cls-1{fill:none;}.cls-2{clip-path:url(#clip-path);}</style><clipPath id="clip-path"><rect class="cls-1" width="24" height="24"/></clipPath></defs><title>move</title><g class="cls-2"><path d="M12,22.5a.43.43,0,0,1-.19,0A.5.5,0,0,1,11.5,22V3.21L9.23,5.48a.5.5,0,0,1-.71-.71l3.13-3.12a.47.47,0,0,1,.54-.11A.5.5,0,0,1,12.5,2V20.79l2.27-2.27a.5.5,0,0,1,.71.71l-3.13,3.12A.47.47,0,0,1,12,22.5Z"/><path d="M15.13,5.63a.51.51,0,0,1-.36-.15L11.65,2.35a.49.49,0,0,1,.7-.7l3.13,3.12a.51.51,0,0,1,0,.71A.5.5,0,0,1,15.13,5.63Z"/><path d="M12,22.5a.47.47,0,0,1-.35-.15L8.52,19.23a.5.5,0,0,1,.71-.71l3.12,3.13a.48.48,0,0,1,0,.7A.47.47,0,0,1,12,22.5Z"/><path d="M5.13,15.63a.51.51,0,0,1-.36-.15L1.65,12.35a.47.47,0,0,1-.11-.54A.5.5,0,0,1,2,11.5H20.79L18.52,9.23a.5.5,0,0,1,.71-.71l3.12,3.13a.47.47,0,0,1,.11.54.5.5,0,0,1-.46.31H3.21l2.27,2.27a.51.51,0,0,1,0,.71A.5.5,0,0,1,5.13,15.63Z"/><path d="M18.88,15.63a.51.51,0,0,1-.36-.15.51.51,0,0,1,0-.71l3.13-3.12a.49.49,0,1,1,.7.7l-3.12,3.13A.5.5,0,0,1,18.88,15.63Z"/><path d="M2,12.5a.47.47,0,0,1-.35-.15.48.48,0,0,1,0-.7L4.77,8.52a.5.5,0,0,1,.71.71L2.35,12.35A.47.47,0,0,1,2,12.5Z"/></g></svg>