<svg id="Layer_1" data-name="Layer 1" xmlns="http://www.w3.org/2000/svg" xmlns:xlink="http://www.w3.org/1999/xlink" viewBox="0 0 24 24"><defs><style>.cls-1{fill:none;}.cls-2{clip-path:url(#clip-path);}</style><clipPath id="clip-path"><rect class="cls-1" width="24" height="24"/></clipPath></defs><title>mug-code</title><g class="cls-2"><path d="M6.91,14.17A.54.54,0,0,1,6.56,14L5.11,12.57a.48.48,0,0,1,0-.7L6.68,10.3a.48.48,0,0,1,.7,0,.5.5,0,0,1,0,.71L6.17,12.22l1.1,1.1a.51.51,0,0,1,0,.71A.54.54,0,0,1,6.91,14.17Z"/><path d="M10.64,14.17a.54.54,0,0,1-.36-.14.51.51,0,0,1,0-.71l1.1-1.1L10.17,11a.5.5,0,0,1,0-.71.48.48,0,0,1,.7,0l1.57,1.57a.48.48,0,0,1,0,.7L11,14A.54.54,0,0,1,10.64,14.17Z"/><path d="M12,21.24H5.45a3.79,3.79,0,0,1-3.78-3.78V6.54A3.79,3.79,0,0,1,5.45,2.76H12a3.79,3.79,0,0,1,3.78,3.78V17.46A3.79,3.79,0,0,1,12,21.24ZM5.45,3.76A2.79,2.79,0,0,0,2.67,6.54V17.46a2.79,2.79,0,0,0,2.78,2.78H12a2.79,2.79,0,0,0,2.78-2.78V6.54A2.79,2.79,0,0,0,12,3.76Z"/><path d="M17.46,16.87H15.28a.5.5,0,0,1-.5-.5.5.5,0,0,1,.5-.5h2.18a3.87,3.87,0,0,0,0-7.74H15.28a.5.5,0,0,1-.5-.5.5.5,0,0,1,.5-.5h2.18a4.87,4.87,0,0,1,0,9.74Z"/></g></svg>