<svg id="Layer_1" data-name="Layer 1" xmlns="http://www.w3.org/2000/svg" xmlns:xlink="http://www.w3.org/1999/xlink" viewBox="0 0 24 24"><defs><style>.cls-1{fill:none;}.cls-2{clip-path:url(#clip-path);}</style><clipPath id="clip-path"><rect class="cls-1" x="0.13" y="0.04" width="24" height="24"/></clipPath></defs><title>mug</title><g class="cls-2"><path d="M12,21.24H5.45a3.79,3.79,0,0,1-3.78-3.78V6.54A3.79,3.79,0,0,1,5.45,2.76H12a3.79,3.79,0,0,1,3.78,3.78V17.46A3.79,3.79,0,0,1,12,21.24ZM5.45,3.76A2.79,2.79,0,0,0,2.67,6.54V17.46a2.79,2.79,0,0,0,2.78,2.78H12a2.79,2.79,0,0,0,2.78-2.78V6.54A2.79,2.79,0,0,0,12,3.76Z"/><path d="M17.46,16.87H15.28a.5.5,0,0,1,0-1h2.18a3.87,3.87,0,0,0,0-7.74H15.28a.5.5,0,1,1,0-1h2.18a4.87,4.87,0,0,1,0,9.74Z"/></g></svg>