<svg id="Layer_1" data-name="Layer 1" xmlns="http://www.w3.org/2000/svg" xmlns:xlink="http://www.w3.org/1999/xlink" viewBox="0 0 24 24"><defs><style>.cls-1{fill:none;}.cls-2{clip-path:url(#clip-path);}</style><clipPath id="clip-path"><rect class="cls-1" width="24" height="24"/></clipPath></defs><title>plug</title><g class="cls-2"><path d="M18.28,13.53h-4a4.51,4.51,0,0,1,0-9h4a.5.5,0,0,1,.5.5v8A.5.5,0,0,1,18.28,13.53Zm-4-8a3.51,3.51,0,0,0,0,7h3.5v-7Z"/><path d="M21.22,7.79H18.28a.5.5,0,0,1-.5-.5.51.51,0,0,1,.5-.5h2.94a.51.51,0,0,1,.5.5A.5.5,0,0,1,21.22,7.79Z"/><path d="M21.22,11.26H18.28a.5.5,0,0,1,0-1h2.94a.5.5,0,0,1,0,1Z"/><path d="M18.28,19.48H8.9c-1.07,0-3.58.05-5.2-1.54A5.3,5.3,0,0,1,2.28,14,5.37,5.37,0,0,1,3.84,9.87a5.65,5.65,0,0,1,4-1.34h2.48a.5.5,0,0,1,.5.5.51.51,0,0,1-.5.5H7.76a4.73,4.73,0,0,0-3.25,1.08A4.45,4.45,0,0,0,3.28,14a4.34,4.34,0,0,0,1.13,3.22c1.32,1.3,3.53,1.27,4.47,1.25h9.4Z"/></g></svg>