<svg id="Layer_1" data-name="Layer 1" xmlns="http://www.w3.org/2000/svg" xmlns:xlink="http://www.w3.org/1999/xlink" viewBox="0 0 24 24"><defs><style>.cls-1{fill:none;}.cls-2{clip-path:url(#clip-path);}</style><clipPath id="clip-path"><rect class="cls-1" width="24" height="24"/></clipPath></defs><title>power</title><g class="cls-2"><path d="M12,21.81A8.5,8.5,0,0,1,7.83,5.9a.5.5,0,0,1,.49.88,7.49,7.49,0,1,0,7.56.11A.5.5,0,1,1,16.39,6,8.49,8.49,0,0,1,12,21.81Z"/><path d="M12,9.44a.5.5,0,0,1-.5-.5V2.69a.5.5,0,1,1,1,0V8.94A.5.5,0,0,1,12,9.44Z"/></g></svg>