<svg id="Layer_1" data-name="Layer 1" xmlns="http://www.w3.org/2000/svg" xmlns:xlink="http://www.w3.org/1999/xlink" viewBox="0 0 24 24"><defs><style>.cls-1{fill:none;}.cls-2{clip-path:url(#clip-path);}</style><clipPath id="clip-path"><rect class="cls-1" y="-0.06" width="24" height="24"/></clipPath></defs><title>printer</title><g class="cls-2"><path d="M17,17.5H7A3.5,3.5,0,0,1,3.5,14V12A3.5,3.5,0,0,1,7,8.5H17A3.5,3.5,0,0,1,20.5,12v2A3.5,3.5,0,0,1,17,17.5ZM7,9.5A2.5,2.5,0,0,0,4.5,12v2A2.5,2.5,0,0,0,7,16.5H17A2.5,2.5,0,0,0,19.5,14V12A2.5,2.5,0,0,0,17,9.5Z"/><path d="M15.9,20.5H8.1a.5.5,0,0,1-.5-.5V17a.5.5,0,0,1,.5-.5.5.5,0,0,1,.5.5v2.5h6.8V17a.5.5,0,0,1,.5-.5.5.5,0,0,1,.5.5v3A.5.5,0,0,1,15.9,20.5Z"/><path d="M15.9,9.5a.5.5,0,0,1-.5-.5V5a.5.5,0,0,0-.5-.5H9.1a.5.5,0,0,0-.5.5V9a.5.5,0,0,1-.5.5A.5.5,0,0,1,7.6,9V5A1.5,1.5,0,0,1,9.1,3.5h5.8A1.5,1.5,0,0,1,16.4,5V9A.5.5,0,0,1,15.9,9.5Z"/><path d="M12,13.5H8a.5.5,0,0,1,0-1h4a.5.5,0,0,1,0,1Z"/><path d="M16,13.5a.5.5,0,0,1-.35-.85.49.49,0,0,1,.54-.11.36.36,0,0,1,.16.11.5.5,0,0,1-.35.85Z"/></g></svg>