<svg id="Layer_1" data-name="Layer 1" xmlns="http://www.w3.org/2000/svg" xmlns:xlink="http://www.w3.org/1999/xlink" viewBox="0 0 24 24"><defs><style>.cls-1{fill:none;}.cls-2{clip-path:url(#clip-path);}</style><clipPath id="clip-path"><rect class="cls-1" x="0.09" width="24" height="24"/></clipPath></defs><title>processor-alt</title><g class="cls-2"><path d="M15,22.5H9A3.5,3.5,0,0,1,5.5,19V5A3.5,3.5,0,0,1,9,1.5h6A3.5,3.5,0,0,1,18.5,5V19A3.5,3.5,0,0,1,15,22.5ZM9,2.5A2.5,2.5,0,0,0,6.5,5V19A2.5,2.5,0,0,0,9,21.5h6A2.5,2.5,0,0,0,17.5,19V5A2.5,2.5,0,0,0,15,2.5Z"/><path d="M6,12.5H2.54a.5.5,0,1,1,0-1H6a.5.5,0,0,1,0,1Z"/><path d="M21.46,12.5H18a.5.5,0,0,1,0-1h3.46a.5.5,0,0,1,0,1Z"/><path d="M6,7H2.54a.5.5,0,0,1,0-1H6A.5.5,0,0,1,6,7Z"/><path d="M21.46,7H18a.5.5,0,0,1,0-1h3.46a.5.5,0,0,1,0,1Z"/><path d="M6,18H2.54a.5.5,0,1,1,0-1H6a.5.5,0,0,1,0,1Z"/><path d="M21.46,18H18a.5.5,0,0,1,0-1h3.46a.5.5,0,0,1,0,1Z"/></g></svg>