<svg id="Layer_1" data-name="Layer 1" xmlns="http://www.w3.org/2000/svg" xmlns:xlink="http://www.w3.org/1999/xlink" viewBox="0 0 24 24"><defs><style>.cls-1{fill:none;}.cls-2{clip-path:url(#clip-path);}</style><clipPath id="clip-path"><rect class="cls-1" width="24" height="24"/></clipPath></defs><title>processor</title><g class="cls-2"><path d="M16.13,19.63H7.88a3.51,3.51,0,0,1-3.5-3.5V7.88a3.5,3.5,0,0,1,3.5-3.5h8.25a3.51,3.51,0,0,1,3.5,3.5v8.25A3.52,3.52,0,0,1,16.13,19.63ZM7.88,5.38a2.5,2.5,0,0,0-2.5,2.5v8.25a2.51,2.51,0,0,0,2.5,2.5h8.25a2.51,2.51,0,0,0,2.5-2.5V7.88a2.51,2.51,0,0,0-2.5-2.5Z"/><path d="M9.69,5.32a.5.5,0,0,1-.5-.5V2a.5.5,0,0,1,.5-.5.51.51,0,0,1,.5.5V4.82A.5.5,0,0,1,9.69,5.32Z"/><path d="M14.31,5.35a.5.5,0,0,1-.5-.5V2a.51.51,0,0,1,.5-.5.5.5,0,0,1,.5.5V4.85A.5.5,0,0,1,14.31,5.35Z"/><path d="M9.69,22.5a.5.5,0,0,1-.5-.5V19.13a.5.5,0,0,1,.5-.5.5.5,0,0,1,.5.5V22A.5.5,0,0,1,9.69,22.5Z"/><path d="M14.31,22.53a.51.51,0,0,1-.5-.5v-2.9a.5.5,0,0,1,.5-.5.5.5,0,0,1,.5.5V22A.5.5,0,0,1,14.31,22.53Z"/><path d="M22,10.23H19.15a.5.5,0,0,1,0-1H22a.5.5,0,0,1,0,1Z"/><path d="M22,14.85h-2.9a.5.5,0,0,1-.5-.5.5.5,0,0,1,.5-.5H22a.51.51,0,0,1,.5.5A.5.5,0,0,1,22,14.85Z"/><path d="M4.9,10.23H2a.5.5,0,0,1,0-1H4.9a.5.5,0,0,1,0,1Z"/><path d="M4.9,14.85H2a.5.5,0,0,1-.5-.5.51.51,0,0,1,.5-.5H4.9a.5.5,0,0,1,.5.5A.5.5,0,0,1,4.9,14.85Z"/></g></svg>