<svg id="Layer_1" data-name="Layer 1" xmlns="http://www.w3.org/2000/svg" xmlns:xlink="http://www.w3.org/1999/xlink" viewBox="0 0 24 24"><defs><style>.cls-1{fill:none;}.cls-2{clip-path:url(#clip-path);}</style><clipPath id="clip-path"><rect class="cls-1" y="-0.06" width="24" height="24"/></clipPath></defs><title>projector</title><g class="cls-2"><path d="M19.76,16H4.24A2.74,2.74,0,0,1,1.5,13.26V7.74A2.74,2.74,0,0,1,4.24,5H19.76A2.74,2.74,0,0,1,22.5,7.74v5.52A2.74,2.74,0,0,1,19.76,16ZM4.24,6A1.74,1.74,0,0,0,2.5,7.74v5.52A1.74,1.74,0,0,0,4.24,15H19.76a1.74,1.74,0,0,0,1.74-1.74V7.74A1.74,1.74,0,0,0,19.76,6Z"/><path d="M17,13a2.5,2.5,0,1,1,2.5-2.5A2.5,2.5,0,0,1,17,13Zm0-4a1.5,1.5,0,1,0,1.5,1.5A1.5,1.5,0,0,0,17,9Z"/><path d="M12,11H5a.5.5,0,0,1,0-1h7a.5.5,0,0,1,0,1Z"/><path d="M6.28,19a.5.5,0,0,1-.5-.5v-3a.5.5,0,0,1,1,0v3A.5.5,0,0,1,6.28,19Z"/><path d="M17.72,19a.5.5,0,0,1-.5-.5v-3a.5.5,0,0,1,1,0v3A.5.5,0,0,1,17.72,19Z"/></g></svg>