<svg id="Layer_1" data-name="Layer 1" xmlns="http://www.w3.org/2000/svg" xmlns:xlink="http://www.w3.org/1999/xlink" viewBox="0 0 24 24"><defs><style>.cls-1{fill:none;}.cls-2{clip-path:url(#clip-path);}</style><clipPath id="clip-path"><rect class="cls-1" width="24" height="24"/></clipPath></defs><title>qireshark</title><g class="cls-2"><path d="M4.89,16.75a.5.5,0,0,1-.5-.5c0-12.4,14.36-14.19,14.51-14.2a.53.53,0,0,1,.44.17.5.5,0,0,1,.09.47c-2.51,8.2-.05,13.29,0,13.34a.5.5,0,1,1-.89.45c-.11-.21-2.52-5.16-.26-13.32-2.89.52-12.86,3-12.86,13.09A.5.5,0,0,1,4.89,16.75Z"/><path d="M7.19,21.82a.5.5,0,0,1-.5-.5,1.91,1.91,0,1,0-3.81,0,.5.5,0,0,1-1,0,2.91,2.91,0,1,1,5.81,0A.5.5,0,0,1,7.19,21.82Z"/><path d="M12,22a.5.5,0,0,1-.5-.5,1.91,1.91,0,1,0-3.81,0,.5.5,0,0,1-1,0,2.91,2.91,0,1,1,5.81,0A.5.5,0,0,1,12,22Z"/><path d="M16.81,22a.5.5,0,0,1-.5-.5,1.91,1.91,0,1,0-3.81,0,.5.5,0,0,1-1,0,2.91,2.91,0,1,1,5.81,0A.5.5,0,0,1,16.81,22Z"/><path d="M21.62,22a.5.5,0,0,1-.5-.5,1.91,1.91,0,1,0-3.81,0,.5.5,0,0,1-1,0,2.91,2.91,0,1,1,5.81,0A.5.5,0,0,1,21.62,22Z"/></g></svg>