<svg id="Layer_1" data-name="Layer 1" xmlns="http://www.w3.org/2000/svg" xmlns:xlink="http://www.w3.org/1999/xlink" viewBox="0 0 24 24"><defs><style>.cls-1{fill:none;}.cls-2{clip-path:url(#clip-path);}</style><clipPath id="clip-path"><rect class="cls-1" x="-0.04" width="24" height="24"/></clipPath></defs><title>qr-alt</title><g class="cls-2"><path d="M9.84,10.92H7.13A1.15,1.15,0,0,1,6,9.78V7.07A1.16,1.16,0,0,1,7.13,5.92H9.84A1.15,1.15,0,0,1,11,7.07V9.78A1.14,1.14,0,0,1,9.84,10.92Zm-2.71-4A.15.15,0,0,0,7,7.07V9.78a.15.15,0,0,0,.15.14H9.84A.14.14,0,0,0,10,9.78V7.07a.15.15,0,0,0-.14-.15Z"/><path d="M16.88,10.92H14.16A1.14,1.14,0,0,1,13,9.78V7.07a1.15,1.15,0,0,1,1.14-1.15h2.72A1.15,1.15,0,0,1,18,7.07V9.78A1.15,1.15,0,0,1,16.88,10.92Zm-2.72-4a.15.15,0,0,0-.14.15V9.78a.14.14,0,0,0,.14.14h2.72A.14.14,0,0,0,17,9.78V7.07a.15.15,0,0,0-.14-.15Z"/><path d="M9.84,18.08H7.13A1.16,1.16,0,0,1,6,16.93V14.22a1.15,1.15,0,0,1,1.15-1.14H9.84A1.14,1.14,0,0,1,11,14.22v2.71A1.15,1.15,0,0,1,9.84,18.08Zm-2.71-4a.15.15,0,0,0-.15.14v2.71a.15.15,0,0,0,.15.15H9.84a.15.15,0,0,0,.14-.15V14.22a.14.14,0,0,0-.14-.14Z"/><path d="M16.88,18.19H14.16A1.14,1.14,0,0,1,13,17.05V14.33a1.15,1.15,0,0,1,1.14-1.14h2.72A1.15,1.15,0,0,1,18,14.33v2.72A1.15,1.15,0,0,1,16.88,18.19Zm-2.72-4a.14.14,0,0,0-.14.14v2.72a.14.14,0,0,0,.14.14h2.72a.14.14,0,0,0,.14-.14V14.33a.15.15,0,0,0-.14-.14Z"/><path d="M3,8a.5.5,0,0,1-.5-.5V3A.5.5,0,0,1,3,2.5H7.5a.5.5,0,0,1,0,1h-4v4A.5.5,0,0,1,3,8Z"/><path d="M21,8a.5.5,0,0,1-.5-.5v-4h-4a.5.5,0,0,1,0-1H21a.5.5,0,0,1,.5.5V7.5A.5.5,0,0,1,21,8Z"/><path d="M21,21.5H16.5a.5.5,0,0,1,0-1h4v-4a.5.5,0,0,1,1,0V21A.5.5,0,0,1,21,21.5Z"/><path d="M7.5,21.5H3a.5.5,0,0,1-.5-.5V16.5a.5.5,0,0,1,1,0v4h4a.5.5,0,0,1,0,1Z"/></g></svg>