<svg id="Layer_1" data-name="Layer 1" xmlns="http://www.w3.org/2000/svg" xmlns:xlink="http://www.w3.org/1999/xlink" viewBox="0 0 24 24"><defs><style>.cls-1{fill:none;}.cls-2{clip-path:url(#clip-path);}</style><clipPath id="clip-path"><rect class="cls-1" x="-0.15" y="0.06" width="24" height="24"/></clipPath></defs><title>qr</title><g class="cls-2"><path d="M15.83,18H8.71a2.18,2.18,0,0,1-2.18-2.18V8.65A2.18,2.18,0,0,1,8.71,6.47h7.12A2.19,2.19,0,0,1,18,8.65v7.12A2.19,2.19,0,0,1,15.83,18ZM8.71,7.47A1.18,1.18,0,0,0,7.53,8.65v7.12A1.18,1.18,0,0,0,8.71,17h7.12A1.18,1.18,0,0,0,17,15.77V8.65a1.18,1.18,0,0,0-1.18-1.18Z"/><path d="M3,8a.5.5,0,0,1-.5-.5V3A.5.5,0,0,1,3,2.5H7.5a.5.5,0,0,1,0,1h-4v4A.5.5,0,0,1,3,8Z"/><path d="M21,8a.5.5,0,0,1-.5-.5v-4h-4a.5.5,0,0,1,0-1H21a.5.5,0,0,1,.5.5V7.5A.5.5,0,0,1,21,8Z"/><path d="M21,21.5H16.5a.5.5,0,0,1,0-1h4v-4a.5.5,0,0,1,1,0V21A.5.5,0,0,1,21,21.5Z"/><path d="M7.5,21.5H3a.5.5,0,0,1-.5-.5V16.5a.5.5,0,0,1,1,0v4h4a.5.5,0,0,1,0,1Z"/></g></svg>