<svg id="Layer_1" data-name="Layer 1" xmlns="http://www.w3.org/2000/svg" xmlns:xlink="http://www.w3.org/1999/xlink" viewBox="0 0 24 24"><defs><style>.cls-1{fill:none;}.cls-2{clip-path:url(#clip-path);}</style><clipPath id="clip-path"><rect class="cls-1" width="24" height="24"/></clipPath></defs><title>return</title><g class="cls-2"><path d="M18.82,22.32H5.18a3.5,3.5,0,0,1-3.5-3.5V5.18a3.5,3.5,0,0,1,3.5-3.5H18.82a3.5,3.5,0,0,1,3.5,3.5V18.82A3.5,3.5,0,0,1,18.82,22.32ZM5.18,2.68a2.5,2.5,0,0,0-2.5,2.5V18.82a2.5,2.5,0,0,0,2.5,2.5H18.82a2.5,2.5,0,0,0,2.5-2.5V5.18a2.5,2.5,0,0,0-2.5-2.5Z"/><path d="M15.94,15.34H8.06a.5.5,0,0,1-.35-.85l2.34-2.34a.5.5,0,0,1,.71,0,.5.5,0,0,1,0,.7L9.27,14.34h6.17V7a.5.5,0,0,1,.5-.5.51.51,0,0,1,.5.5v7.88A.5.5,0,0,1,15.94,15.34Z"/><path d="M10.34,17.62a.47.47,0,0,1-.35-.15L7.71,15.2a.5.5,0,1,1,.71-.71l2.27,2.28a.5.5,0,0,1-.35.85Z"/></g></svg>