<svg id="Layer_1" data-name="Layer 1" xmlns="http://www.w3.org/2000/svg" xmlns:xlink="http://www.w3.org/1999/xlink" viewBox="0 0 24 24"><defs><style>.cls-1{fill:none;}.cls-2{clip-path:url(#clip-path);}</style><clipPath id="clip-path"><rect class="cls-1" width="24" height="24"/></clipPath></defs><title>router</title><g class="cls-2"><path d="M19.5,20.23H3.5A1.5,1.5,0,0,1,2,18.73v-4a1.5,1.5,0,0,1,1.5-1.5h16a1.5,1.5,0,0,1,1.5,1.5v4A1.5,1.5,0,0,1,19.5,20.23Zm-16-6a.5.5,0,0,0-.5.5v4a.5.5,0,0,0,.5.5h16a.5.5,0,0,0,.5-.5v-4a.5.5,0,0,0-.5-.5Z"/><path d="M8.5,17.23h-2a.5.5,0,0,1-.5-.5.5.5,0,0,1,.5-.5h2a.5.5,0,0,1,.5.5A.5.5,0,0,1,8.5,17.23Z"/><path d="M15.72,14.23h0a.49.49,0,0,1-.49-.5l0-3a.53.53,0,0,1,.51-.5.51.51,0,0,1,.49.51l0,3A.51.51,0,0,1,15.72,14.23Z"/><path d="M18.24,9.23A.48.48,0,0,1,18,9.15c-2.63-1.75-4.35-.08-4.37-.06a.5.5,0,0,1-.7,0,.5.5,0,0,1,0-.71s2.32-2.27,5.63-.06a.5.5,0,0,1-.28.91Z"/><path d="M21.5,6.81a.48.48,0,0,1-.28-.08c-6.46-4.31-10.71-.24-10.89-.06a.5.5,0,0,1-.7,0,.5.5,0,0,1,0-.71s5-4.84,12.15-.06a.5.5,0,0,1-.28.91Z"/></g></svg>