<svg id="Layer_1" data-name="Layer 1" xmlns="http://www.w3.org/2000/svg" xmlns:xlink="http://www.w3.org/1999/xlink" viewBox="0 0 24 24"><defs><style>.cls-1{fill:none;}.cls-2{clip-path:url(#clip-path);}</style><clipPath id="clip-path"><rect class="cls-1" width="24" height="24"/></clipPath></defs><title>router-alt</title><g class="cls-2"><path d="M20,19.23H4a1.5,1.5,0,0,1-1.5-1.5v-4A1.5,1.5,0,0,1,4,12.23H20a1.5,1.5,0,0,1,1.5,1.5v4A1.5,1.5,0,0,1,20,19.23Zm-16-6a.5.5,0,0,0-.5.5v4a.5.5,0,0,0,.5.5H20a.5.5,0,0,0,.5-.5v-4a.5.5,0,0,0-.5-.5Z"/><path d="M9,16.23H7a.5.5,0,0,1-.5-.5.5.5,0,0,1,.5-.5H9a.5.5,0,0,1,.5.5A.5.5,0,0,1,9,16.23Z"/><path d="M8.25,12.5a.52.52,0,0,1-.42-.22L3.33,5.54a.5.5,0,0,1,.14-.69.51.51,0,0,1,.7.14l4.5,6.73a.51.51,0,0,1-.14.7A.57.57,0,0,1,8.25,12.5Z"/><path d="M15.75,12.5a.57.57,0,0,1-.28-.08.51.51,0,0,1-.14-.7L19.83,5a.51.51,0,0,1,.7-.14.5.5,0,0,1,.14.69l-4.5,6.74A.52.52,0,0,1,15.75,12.5Z"/></g></svg>