<svg id="Layer_1" data-name="Layer 1" xmlns="http://www.w3.org/2000/svg" xmlns:xlink="http://www.w3.org/1999/xlink" viewBox="0 0 24 24"><defs><style>.cls-1{fill:none;}.cls-2{clip-path:url(#clip-path);}</style><clipPath id="clip-path"><rect class="cls-1" width="24" height="24"/></clipPath></defs><title>save</title><g class="cls-2"><path d="M15,12.5H5.5A.5.5,0,0,1,5,12V7a.5.5,0,0,1,.5-.5H15a.5.5,0,0,1,.5.5v5A.5.5,0,0,1,15,12.5Zm-9-1h8.5v-4H6Z"/><path d="M12,19.5A2.5,2.5,0,1,1,14.5,17,2.5,2.5,0,0,1,12,19.5Zm0-4A1.5,1.5,0,1,0,13.5,17,1.5,1.5,0,0,0,12,15.5Z"/><path d="M18.15,22H5.85A3.86,3.86,0,0,1,2,18.15V5.85A3.86,3.86,0,0,1,5.85,2h9.44a.52.52,0,0,1,.35.14l6.21,5.92a.51.51,0,0,1,.15.36v9.73A3.86,3.86,0,0,1,18.15,22ZM5.85,3A2.86,2.86,0,0,0,3,5.85v12.3A2.86,2.86,0,0,0,5.85,21h12.3A2.86,2.86,0,0,0,21,18.15V8.63L15.09,3Z"/></g></svg>