<svg id="Layer_1" data-name="Layer 1" xmlns="http://www.w3.org/2000/svg" xmlns:xlink="http://www.w3.org/1999/xlink" viewBox="0 0 24 24"><defs><style>.cls-1{fill:none;}.cls-2{clip-path:url(#clip-path);}</style><clipPath id="clip-path"><rect class="cls-1" width="24" height="24"/></clipPath></defs><title>scanner</title><g class="cls-2"><path d="M19,20.88H5a3.51,3.51,0,0,1-3.5-3.5v-1A3.5,3.5,0,0,1,5,12.88H19a3.5,3.5,0,0,1,3.5,3.5v1A3.51,3.51,0,0,1,19,20.88Zm-14-7a2.5,2.5,0,0,0-2.5,2.5v1A2.51,2.51,0,0,0,5,19.88H19a2.51,2.51,0,0,0,2.5-2.5v-1a2.5,2.5,0,0,0-2.5-2.5Z"/><path d="M21,11.13a.58.58,0,0,1-.18,0l-18-7a.5.5,0,1,1,.36-.93l18,7a.5.5,0,0,1,.29.65A.52.52,0,0,1,21,11.13Z"/><path d="M12,17.38H6a.5.5,0,0,1-.5-.5.5.5,0,0,1,.5-.5h6a.5.5,0,0,1,.5.5A.5.5,0,0,1,12,17.38Z"/></g></svg>