<svg id="Layer_1" data-name="Layer 1" xmlns="http://www.w3.org/2000/svg" xmlns:xlink="http://www.w3.org/1999/xlink" viewBox="0 0 24 24"><defs><style>.cls-1{fill:none;}.cls-2{clip-path:url(#clip-path);}</style><clipPath id="clip-path"><rect class="cls-1" y="-0.13" width="24" height="24"/></clipPath></defs><title>scroll-horizontal</title><g class="cls-2"><path d="M18.54,15.41a.49.49,0,0,1-.35-.15.5.5,0,0,1,0-.71L20.77,12,18.25,9.45a.51.51,0,0,1,0-.71.5.5,0,0,1,.71,0l2.87,2.88a.48.48,0,0,1,0,.7L18.9,15.26A.51.51,0,0,1,18.54,15.41Z"/><path d="M5.4,15.41A.51.51,0,0,1,5,15.26L2.17,12.38a.48.48,0,0,1,0-.7L5.11,8.74a.48.48,0,0,1,.7,0,.5.5,0,0,1,0,.71L3.23,12l2.52,2.52a.51.51,0,0,1,0,.71A.5.5,0,0,1,5.4,15.41Z"/><path d="M12,15.41A3.41,3.41,0,1,1,15.41,12,3.41,3.41,0,0,1,12,15.41Zm0-5.82A2.41,2.41,0,1,0,14.41,12,2.41,2.41,0,0,0,12,9.59Z"/></g></svg>