<svg id="Layer_1" data-name="Layer 1" xmlns="http://www.w3.org/2000/svg" xmlns:xlink="http://www.w3.org/1999/xlink" viewBox="0 0 24 24"><defs><style>.cls-1{fill:none;}.cls-2{clip-path:url(#clip-path);}</style><clipPath id="clip-path"><rect class="cls-1" y="-0.11" width="24" height="24"/></clipPath></defs><title>scroll-vertical</title><g class="cls-2"><path d="M14.91,6a.51.51,0,0,1-.36-.15L12,3.23,9.45,5.75a.51.51,0,0,1-.71,0,.5.5,0,0,1,0-.71l2.87-2.87a.5.5,0,0,1,.71,0L15.26,5.1a.51.51,0,0,1,0,.71A.5.5,0,0,1,14.91,6Z"/><path d="M12,22a.49.49,0,0,1-.35-.15L8.74,18.9a.5.5,0,0,1,.71-.71L12,20.77l2.52-2.52a.5.5,0,1,1,.71.71l-2.88,2.87A.47.47,0,0,1,12,22Z"/><path d="M12,15.41A3.41,3.41,0,1,1,15.41,12,3.41,3.41,0,0,1,12,15.41Zm0-5.82A2.41,2.41,0,1,0,14.41,12,2.41,2.41,0,0,0,12,9.59Z"/></g></svg>