<svg id="Layer_1" data-name="Layer 1" xmlns="http://www.w3.org/2000/svg" xmlns:xlink="http://www.w3.org/1999/xlink" viewBox="0 0 24 24"><defs><style>.cls-1{fill:none;}.cls-2{clip-path:url(#clip-path);}</style><clipPath id="clip-path"><rect class="cls-1" x="0.15" y="-0.06" width="24" height="24"/></clipPath></defs><title>search-plus</title><g class="cls-2"><path d="M11,14.5a.5.5,0,0,1-.5-.5V8a.5.5,0,0,1,1,0v6A.5.5,0,0,1,11,14.5Z"/><path d="M14,11.5H8a.5.5,0,0,1,0-1h6a.5.5,0,0,1,0,1Z"/><path d="M11,19.5A8.5,8.5,0,1,1,19.5,11,8.51,8.51,0,0,1,11,19.5Zm0-16A7.5,7.5,0,1,0,18.5,11,7.5,7.5,0,0,0,11,3.5Z"/><path d="M21,21.5a.47.47,0,0,1-.35-.15L16.31,17a.49.49,0,0,1,.7-.7l4.34,4.34a.48.48,0,0,1,0,.7A.47.47,0,0,1,21,21.5Z"/></g></svg>