<svg id="Layer_1" data-name="Layer 1" xmlns="http://www.w3.org/2000/svg" xmlns:xlink="http://www.w3.org/1999/xlink" viewBox="0 0 24 24"><defs><style>.cls-1{fill:none;}.cls-2{clip-path:url(#clip-path);}</style><clipPath id="clip-path"><rect class="cls-1" width="24" height="24"/></clipPath></defs><title>server-single</title><g class="cls-2"><path d="M18.27,16.5H5.73A3.5,3.5,0,0,1,2.23,13V11a3.5,3.5,0,0,1,3.5-3.5H18.27a3.5,3.5,0,0,1,3.5,3.5v2A3.5,3.5,0,0,1,18.27,16.5ZM5.73,8.5A2.5,2.5,0,0,0,3.23,11v2a2.5,2.5,0,0,0,2.5,2.5H18.27a2.5,2.5,0,0,0,2.5-2.5V11a2.5,2.5,0,0,0-2.5-2.5Z"/><path d="M6.15,12.55a.51.51,0,1,1,.5-.51A.51.51,0,0,1,6.15,12.55Z"/><path d="M9.4,12.55a.51.51,0,1,1,.5-.5A.51.51,0,0,1,9.4,12.55Z"/><path d="M18.23,12.55h-4a.5.5,0,0,1-.5-.5.5.5,0,0,1,.5-.5h4a.5.5,0,0,1,.5.5A.5.5,0,0,1,18.23,12.55Z"/></g></svg>