<svg id="Layer_1" data-name="Layer 1" xmlns="http://www.w3.org/2000/svg" xmlns:xlink="http://www.w3.org/1999/xlink" viewBox="0 0 24 24"><defs><style>.cls-1{fill:none;}.cls-2{clip-path:url(#clip-path);}</style><clipPath id="clip-path"><rect class="cls-1" y="-0.06" width="24" height="24"/></clipPath></defs><title>server-alt</title><g class="cls-2"><circle cx="6.64" cy="8.5" r="0.5"/><path d="M9.89,9a.51.51,0,1,1,.5-.5A.51.51,0,0,1,9.89,9Z"/><path d="M17.64,9h-4a.5.5,0,0,1-.5-.5.5.5,0,0,1,.5-.5h4a.5.5,0,0,1,.5.5A.51.51,0,0,1,17.64,9Z"/><path d="M16.7,21.77H7.3A5.07,5.07,0,0,1,2.23,16.7V7.3A5.07,5.07,0,0,1,7.3,2.23h9.4A5.07,5.07,0,0,1,21.77,7.3v9.4A5.07,5.07,0,0,1,16.7,21.77ZM7.3,3.23A4.07,4.07,0,0,0,3.23,7.3v9.4A4.07,4.07,0,0,0,7.3,20.77h9.4a4.07,4.07,0,0,0,4.07-4.07V7.3A4.07,4.07,0,0,0,16.7,3.23Z"/><circle cx="6.64" cy="15.5" r="0.5"/><path d="M9.89,16a.51.51,0,1,1,.5-.5A.51.51,0,0,1,9.89,16Z"/><path d="M17.64,16h-4a.5.5,0,0,1-.5-.5.5.5,0,0,1,.5-.5h4a.5.5,0,0,1,.5.5A.51.51,0,0,1,17.64,16Z"/></g></svg>