<svg id="Layer_1" data-name="Layer 1" xmlns="http://www.w3.org/2000/svg" xmlns:xlink="http://www.w3.org/1999/xlink" viewBox="0 0 24 24"><defs><style>.cls-1{fill:none;}.cls-2{clip-path:url(#clip-path);}</style><clipPath id="clip-path"><rect class="cls-1" y="0.06" width="24" height="24"/></clipPath></defs><title>settings</title><g class="cls-2"><path d="M12,22.41a2.48,2.48,0,0,1-1.9-.88l-.88-1A1.51,1.51,0,0,0,8,20l-1.34.12a2.5,2.5,0,0,1-2.7-2.69L4,16.06a1.49,1.49,0,0,0-.53-1.26l-1-.87a2.49,2.49,0,0,1,0-3.81l1-.88A1.51,1.51,0,0,0,4,8L3.9,6.63a2.5,2.5,0,0,1,2.69-2.7L7.94,4A1.51,1.51,0,0,0,9.2,3.51l.87-1A2.49,2.49,0,0,1,12,1.59h0a2.48,2.48,0,0,1,1.9.88h0l.88,1A1.5,1.5,0,0,0,16,4l1.34-.12a2.5,2.5,0,0,1,2.7,2.69L20,7.94a1.49,1.49,0,0,0,.53,1.26l1,.87a2.49,2.49,0,0,1,0,3.81l-1,.88A1.51,1.51,0,0,0,20,16l.12,1.34a2.49,2.49,0,0,1-.72,2,2.45,2.45,0,0,1-2,.73L16.06,20a1.53,1.53,0,0,0-1.26.53l-.87,1a2.49,2.49,0,0,1-1.9.89ZM8.1,19a2.48,2.48,0,0,1,1.9.88l.88,1a1.47,1.47,0,0,0,1.14.53h0a1.54,1.54,0,0,0,1.15-.53l.87-1a2.44,2.44,0,0,1,2.1-.88l1.35.1a1.48,1.48,0,0,0,1.18-.43,1.51,1.51,0,0,0,.43-1.19L19,16.11A2.47,2.47,0,0,1,19.86,14l1-.88A1.47,1.47,0,0,0,21.41,12a1.54,1.54,0,0,0-.53-1.15l-1-.87A2.45,2.45,0,0,1,19,7.86l.1-1.35a1.48,1.48,0,0,0-.43-1.18,1.51,1.51,0,0,0-1.19-.43L16.11,5A2.48,2.48,0,0,1,14,4.14l-.88-1A1.47,1.47,0,0,0,12,2.59h0a1.54,1.54,0,0,0-1.15.53l-.87,1A2.41,2.41,0,0,1,7.86,5l-1.35-.1a1.49,1.49,0,0,0-1.18.43A1.51,1.51,0,0,0,4.9,6.55L5,7.89A2.47,2.47,0,0,1,4.14,10l-1,.88A1.47,1.47,0,0,0,2.59,12a1.54,1.54,0,0,0,.53,1.15l1,.87A2.45,2.45,0,0,1,5,16.14l-.1,1.35a1.48,1.48,0,0,0,.43,1.18,1.51,1.51,0,0,0,1.19.43L7.89,19Z"/><path d="M12,15.5a3.5,3.5,0,0,1,0-7h0a3.5,3.5,0,0,1,0,7Zm0-6h0a2.5,2.5,0,0,0,0,5h0a2.5,2.5,0,0,0,0-5Z"/></g></svg>