<svg id="Layer_1" data-name="Layer 1" xmlns="http://www.w3.org/2000/svg" xmlns:xlink="http://www.w3.org/1999/xlink" viewBox="0 0 24 24"><defs><style>.cls-1{fill:none;}.cls-2{clip-path:url(#clip-path);}</style><clipPath id="clip-path"><rect class="cls-1" y="-0.06" width="24" height="24"/></clipPath></defs><title>shield-plus</title><g class="cls-2"><path d="M17.58,21.7a.5.5,0,0,1-.5-.5V13.61a.5.5,0,0,1,1,0V21.2A.5.5,0,0,1,17.58,21.7Z"/><path d="M21.38,17.9h-7.6a.5.5,0,0,1-.5-.5.51.51,0,0,1,.5-.5h7.6a.51.51,0,0,1,.5.5A.5.5,0,0,1,21.38,17.9Z"/><path d="M11.53,21.11c-9.3,0-9.41-9.26-9.41-9.36V2.8a.5.5,0,0,1,.5-.5H20.43a.5.5,0,0,1,.5.5v8.91a.5.5,0,0,1-.5.5.51.51,0,0,1-.5-.5V3.3H3.12v8.45c0,.34.12,8.36,8.41,8.36a.51.51,0,0,1,.5.5A.5.5,0,0,1,11.53,21.11Z"/></g></svg>