<svg id="Layer_1" data-name="Layer 1" xmlns="http://www.w3.org/2000/svg" xmlns:xlink="http://www.w3.org/1999/xlink" viewBox="0 0 24 24"><defs><style>.cls-1{fill:none;}.cls-2{clip-path:url(#clip-path);}</style><clipPath id="clip-path"><rect class="cls-1" width="24" height="24"/></clipPath></defs><title>shield-tick</title><g class="cls-2"><path d="M16.11,20.72a.5.5,0,0,1-.36-.14l-1.94-1.94a.51.51,0,0,1,0-.71.5.5,0,0,1,.71,0l1.59,1.59,4.7-4.7a.5.5,0,0,1,.71,0,.5.5,0,0,1,0,.7l-5.06,5.06A.47.47,0,0,1,16.11,20.72Z"/><path d="M11.74,21.41c-9.29,0-9.4-9.27-9.4-9.36v-9a.5.5,0,0,1,.5-.5H20.65a.5.5,0,0,1,.5.5V12a.5.5,0,0,1-1,0V3.59H3.34v8.46c0,.34.11,8.36,8.4,8.36a.5.5,0,0,1,.5.5A.5.5,0,0,1,11.74,21.41Z"/></g></svg>