<svg id="Layer_1" data-name="Layer 1" xmlns="http://www.w3.org/2000/svg" xmlns:xlink="http://www.w3.org/1999/xlink" viewBox="0 0 24 24"><defs><style>.cls-1{fill:none;}.cls-2{clip-path:url(#clip-path);}</style><clipPath id="clip-path"><rect class="cls-1" width="24" height="24"/></clipPath></defs><title>shield-cross</title><g class="cls-2"><path d="M20.63,20.77a.51.51,0,0,1-.36-.15l-5.14-5.14a.5.5,0,0,1,0-.71.5.5,0,0,1,.7,0L21,19.92a.5.5,0,0,1-.35.85Z"/><path d="M15.48,20.77a.47.47,0,0,1-.35-.15.48.48,0,0,1,0-.7l5.14-5.15a.5.5,0,0,1,.71.71l-5.15,5.14A.47.47,0,0,1,15.48,20.77Z"/><path d="M12,21.41c-9.3,0-9.41-9.27-9.41-9.36v-9a.51.51,0,0,1,.5-.5H20.91a.51.51,0,0,1,.5.5V12a.5.5,0,0,1-.5.5.5.5,0,0,1-.5-.5V3.59H3.59v8.46c0,.34.12,8.36,8.41,8.36a.5.5,0,0,1,.5.5A.5.5,0,0,1,12,21.41Z"/></g></svg>