<svg id="Layer_1" data-name="Layer 1" xmlns="http://www.w3.org/2000/svg" xmlns:xlink="http://www.w3.org/1999/xlink" viewBox="0 0 24 24"><defs><style>.cls-1{fill:none;}.cls-2{clip-path:url(#clip-path);}</style><clipPath id="clip-path"><rect class="cls-1" width="24" height="24"/></clipPath></defs><title>shield-code</title><g class="cls-2"><path d="M10.88,21.41c-9.3,0-9.41-9.27-9.41-9.36v-9a.5.5,0,0,1,.5-.5H19.78a.5.5,0,0,1,.5.5V12a.5.5,0,0,1-.5.5.5.5,0,0,1-.5-.5V3.59H2.47v8.46c0,.34.12,8.36,8.41,8.36a.5.5,0,0,1,.5.5A.51.51,0,0,1,10.88,21.41Z"/><path d="M13,19.3a.49.49,0,0,1-.35-.15L11,17.53a.48.48,0,0,1,0-.7l1.75-1.75a.5.5,0,0,1,.71,0,.5.5,0,0,1,0,.7l-1.4,1.4,1.27,1.27a.5.5,0,0,1,0,.7A.51.51,0,0,1,13,19.3Z"/><path d="M20.41,19.3a.5.5,0,0,1-.35-.85l1.26-1.27-1.39-1.4a.49.49,0,0,1,.7-.7l1.75,1.75a.48.48,0,0,1,0,.7l-1.62,1.62A.47.47,0,0,1,20.41,19.3Z"/><path d="M15.76,20.13a.51.51,0,0,1-.17,0,.52.52,0,0,1-.3-.65l1.87-5a.5.5,0,1,1,.94.35l-1.87,5A.51.51,0,0,1,15.76,20.13Z"/></g></svg>