<svg id="Layer_1" data-name="Layer 1" xmlns="http://www.w3.org/2000/svg" xmlns:xlink="http://www.w3.org/1999/xlink" viewBox="0 0 24 24"><defs><style>.cls-1{fill:none;}.cls-2{clip-path:url(#clip-path);}</style><clipPath id="clip-path"><rect class="cls-1" y="-0.12" width="24" height="24"/></clipPath></defs><title>shield-alt</title><g class="cls-2"><path d="M12,21.41c-9.3,0-9.41-9.27-9.41-9.36v-9a.51.51,0,0,1,.5-.5H20.91a.51.51,0,0,1,.5.5v9C21.41,12.14,21.3,21.41,12,21.41ZM3.59,3.59v8.46c0,.34.12,8.36,8.41,8.36s8.41-8,8.41-8.36V3.59Z"/><path d="M12,21.41a.5.5,0,0,1-.5-.5V3.09a.5.5,0,0,1,1,0V20.91A.5.5,0,0,1,12,21.41Z"/></g></svg>