<svg id="Layer_1" data-name="Layer 1" xmlns="http://www.w3.org/2000/svg" xmlns:xlink="http://www.w3.org/1999/xlink" viewBox="0 0 24 24"><defs><style>.cls-1{fill:none;}.cls-2{clip-path:url(#clip-path);}</style><clipPath id="clip-path"><rect class="cls-1" x="-0.15" y="0.03" width="24" height="24"/></clipPath></defs><title>signout</title><g class="cls-2"><path d="M8.15,20.5A3.5,3.5,0,0,1,4.65,17l0-10A3.5,3.5,0,0,1,8.11,3.5h2.51a.5.5,0,0,1,0,1H8.12A2.52,2.52,0,0,0,5.62,7l0,10a2.51,2.51,0,0,0,.73,1.77,2.54,2.54,0,0,0,1.77.72h2.5a.5.5,0,0,1,0,1H8.15Z"/><path d="M9.88,12.49a.49.49,0,0,1-.5-.49.51.51,0,0,1,.5-.51l9,0h0a.51.51,0,0,1,.5.5.5.5,0,0,1-.5.5l-9,0Z"/><path d="M12.89,16.73a.47.47,0,0,1-.35-.15L8.28,12.35a.51.51,0,0,1,0-.71l4.23-4.25a.5.5,0,0,1,.71,0,.5.5,0,0,1,0,.71L9.34,12l3.9,3.88a.5.5,0,0,1-.35.85Z"/></g></svg>