<svg id="Layer_1" data-name="Layer 1" xmlns="http://www.w3.org/2000/svg" xmlns:xlink="http://www.w3.org/1999/xlink" viewBox="0 0 24 24"><defs><style>.cls-1{fill:none;}.cls-2{clip-path:url(#clip-path);}</style><clipPath id="clip-path"><rect class="cls-1" y="-0.09" width="24" height="24"/></clipPath></defs><title>signin</title><g class="cls-2"><path d="M8.15,20.5A3.5,3.5,0,0,1,4.65,17l0-10A3.5,3.5,0,0,1,8.11,3.5h2.51a.5.5,0,0,1,0,1H8.12A2.52,2.52,0,0,0,5.62,7l0,10a2.51,2.51,0,0,0,.73,1.77,2.54,2.54,0,0,0,1.77.72h2.5a.5.5,0,0,1,0,1H8.15Z"/><path d="M8.63,12.5a.5.5,0,0,1,0-1l9,0h0a.5.5,0,0,1,0,1l-9,0Z"/><path d="M14.65,16.73a.51.51,0,0,1-.36-.15.5.5,0,0,1,0-.7L18.17,12,14.27,8.1a.51.51,0,0,1,0-.71.5.5,0,0,1,.71,0l4.25,4.23a.53.53,0,0,1,.15.36.47.47,0,0,1-.15.35L15,16.58A.5.5,0,0,1,14.65,16.73Z"/></g></svg>