<svg id="Layer_1" data-name="Layer 1" xmlns="http://www.w3.org/2000/svg" xmlns:xlink="http://www.w3.org/1999/xlink" viewBox="0 0 24 24"><defs><style>.cls-1{fill:none;}.cls-2{clip-path:url(#clip-path);}</style><clipPath id="clip-path"><rect class="cls-1" y="0.06" width="24" height="24"/></clipPath></defs><title>sim-export</title><g class="cls-2"><path d="M18.35,22.73a.5.5,0,0,1-.5-.5l0-7.07a.5.5,0,0,1,.5-.5h0a.5.5,0,0,1,.5.5l0,7.07a.51.51,0,0,1-.5.5Z"/><path d="M15,18a.52.52,0,0,1-.35-.14.5.5,0,0,1,0-.71L18,13.83a.5.5,0,0,1,.71,0L22,17.15a.51.51,0,0,1,0,.71.5.5,0,0,1-.71,0l-3-3-3,3A.54.54,0,0,1,15,18Z"/><path d="M8.83,22.27H5.33a3.5,3.5,0,0,1-3.5-3.5V10.48A3.58,3.58,0,0,1,2.2,8.91l2.86-5.7A3.46,3.46,0,0,1,8.19,1.27h7.14a3.5,3.5,0,0,1,3.5,3.5v6a.5.5,0,0,1-.5.5.5.5,0,0,1-.5-.5v-6a2.5,2.5,0,0,0-2.5-2.5H8.19A2.49,2.49,0,0,0,6,3.65L3.1,9.36a2.43,2.43,0,0,0-.27,1.12v8.29a2.51,2.51,0,0,0,2.5,2.5h3.5a.5.5,0,0,1,.5.5A.5.5,0,0,1,8.83,22.27Z"/><path d="M13.83,11.27a.5.5,0,0,1-.5-.5v-5a.51.51,0,0,1,.5-.5.5.5,0,0,1,.5.5v5A.5.5,0,0,1,13.83,11.27Z"/><path d="M8.83,11.27a.5.5,0,0,1-.5-.5v-5a.51.51,0,0,1,.5-.5.5.5,0,0,1,.5.5v5A.5.5,0,0,1,8.83,11.27Z"/></g></svg>