<svg id="Layer_1" data-name="Layer 1" xmlns="http://www.w3.org/2000/svg" xmlns:xlink="http://www.w3.org/1999/xlink" viewBox="0 0 24 24"><defs><style>.cls-1{fill:none;}.cls-2{clip-path:url(#clip-path);}</style><clipPath id="clip-path"><rect class="cls-1" x="0.15" y="-0.03" width="24" height="24"/></clipPath></defs><title>sim</title><g class="cls-2"><path d="M17,22.5H7A3.5,3.5,0,0,1,3.5,19V10.71a3.58,3.58,0,0,1,.37-1.57L6.72,3.43A3.49,3.49,0,0,1,9.85,1.5H17A3.5,3.5,0,0,1,20.5,5V19A3.5,3.5,0,0,1,17,22.5ZM9.85,2.5A2.48,2.48,0,0,0,7.62,3.88L4.76,9.59a2.56,2.56,0,0,0-.26,1.12V19A2.5,2.5,0,0,0,7,21.5H17A2.5,2.5,0,0,0,19.5,19V5A2.5,2.5,0,0,0,17,2.5Z"/><path d="M15.5,11.5A.5.5,0,0,1,15,11V6a.5.5,0,0,1,1,0v5A.5.5,0,0,1,15.5,11.5Z"/><path d="M10.5,11.5A.5.5,0,0,1,10,11V6a.5.5,0,0,1,1,0v5A.5.5,0,0,1,10.5,11.5Z"/></g></svg>