<svg id="Layer_1" data-name="Layer 1" xmlns="http://www.w3.org/2000/svg" xmlns:xlink="http://www.w3.org/1999/xlink" viewBox="0 0 24 24"><defs><style>.cls-1{fill:none;}.cls-2{clip-path:url(#clip-path);}</style><clipPath id="clip-path"><rect class="cls-1" x="-0.15" y="0.06" width="24" height="24"/></clipPath></defs><title>sissiors</title><g class="cls-2"><path d="M18,22.5A3.5,3.5,0,1,1,21.5,19,3.5,3.5,0,0,1,18,22.5Zm0-6A2.5,2.5,0,1,0,20.5,19,2.5,2.5,0,0,0,18,16.5Z"/><path d="M6,22.5A3.5,3.5,0,1,1,9.5,19,3.5,3.5,0,0,1,6,22.5Zm0-6A2.5,2.5,0,1,0,8.5,19,2.5,2.5,0,0,0,6,16.5Z"/><path d="M16.34,17a.49.49,0,0,1-.41-.21L5.59,2.29a.51.51,0,0,1,.12-.7.5.5,0,0,1,.7.12l10.34,14.5a.51.51,0,0,1-.12.7A.52.52,0,0,1,16.34,17Z"/><path d="M7.66,17a.52.52,0,0,1-.29-.09.51.51,0,0,1-.12-.7L17.59,1.71a.5.5,0,0,1,.7-.12.51.51,0,0,1,.12.7L8.07,16.79A.49.49,0,0,1,7.66,17Z"/></g></svg>