<svg id="Layer_1" data-name="Layer 1" xmlns="http://www.w3.org/2000/svg" xmlns:xlink="http://www.w3.org/1999/xlink" viewBox="0 0 24 24"><defs><style>.cls-1{fill:none;}.cls-2{clip-path:url(#clip-path);}</style><clipPath id="clip-path"><rect class="cls-1" width="24" height="24"/></clipPath></defs><title>slider-vertical</title><g class="cls-2"><path d="M6.35,8.21A3.21,3.21,0,1,1,9.56,5,3.21,3.21,0,0,1,6.35,8.21Zm0-5.42A2.21,2.21,0,1,0,8.56,5,2.22,2.22,0,0,0,6.35,2.79Z"/><path d="M20.35,5.5H9.06a.5.5,0,0,1-.5-.5.51.51,0,0,1,.5-.5H20.35a.5.5,0,0,1,.5.5A.5.5,0,0,1,20.35,5.5Z"/><path d="M6.35,22.21A3.21,3.21,0,1,1,9.56,19,3.21,3.21,0,0,1,6.35,22.21Zm0-5.42A2.21,2.21,0,1,0,8.56,19,2.21,2.21,0,0,0,6.35,16.79Z"/><path d="M20.35,19.5H9.06a.51.51,0,0,1-.5-.5.5.5,0,0,1,.5-.5H20.35a.5.5,0,0,1,.5.5A.5.5,0,0,1,20.35,19.5Z"/><path d="M17.65,15.21A3.21,3.21,0,1,1,20.85,12,3.21,3.21,0,0,1,17.65,15.21Zm0-5.42A2.21,2.21,0,1,0,19.85,12,2.21,2.21,0,0,0,17.65,9.79Z"/><path d="M14.94,12.5H3.65a.5.5,0,0,1,0-1H14.94a.5.5,0,0,1,0,1Z"/></g></svg>