<svg id="Layer_1" data-name="Layer 1" xmlns="http://www.w3.org/2000/svg" xmlns:xlink="http://www.w3.org/1999/xlink" viewBox="0 0 24 24"><defs><style>.cls-1{fill:none;}.cls-2{clip-path:url(#clip-path);}</style><clipPath id="clip-path"><rect class="cls-1" width="24" height="24"/></clipPath></defs><title>slider-horizontal</title><g class="cls-2"><path d="M19,9.56a3.21,3.21,0,1,1,3.21-3.21A3.21,3.21,0,0,1,19,9.56Zm0-5.41a2.21,2.21,0,1,0,2.21,2.2A2.21,2.21,0,0,0,19,4.15Z"/><path d="M19,20.85a.5.5,0,0,1-.5-.5V9.06a.5.5,0,0,1,.5-.5.51.51,0,0,1,.5.5V20.35A.5.5,0,0,1,19,20.85Z"/><path d="M5,9.56A3.21,3.21,0,1,1,8.21,6.35,3.21,3.21,0,0,1,5,9.56ZM5,4.15a2.21,2.21,0,1,0,2.21,2.2A2.22,2.22,0,0,0,5,4.15Z"/><path d="M5,20.85a.5.5,0,0,1-.5-.5V9.06a.51.51,0,0,1,.5-.5.5.5,0,0,1,.5.5V20.35A.5.5,0,0,1,5,20.85Z"/><path d="M12,20.85a3.21,3.21,0,1,1,3.21-3.2A3.21,3.21,0,0,1,12,20.85Zm0-5.41a2.21,2.21,0,1,0,2.21,2.21A2.21,2.21,0,0,0,12,15.44Z"/><path d="M12,15.44a.5.5,0,0,1-.5-.5V3.65a.5.5,0,0,1,1,0V14.94A.5.5,0,0,1,12,15.44Z"/></g></svg>