<svg id="Layer_1" data-name="Layer 1" xmlns="http://www.w3.org/2000/svg" xmlns:xlink="http://www.w3.org/1999/xlink" viewBox="0 0 24 24"><defs><style>.cls-1{fill:none;}.cls-2{clip-path:url(#clip-path);}</style><clipPath id="clip-path"><rect class="cls-1" width="24" height="24"/></clipPath></defs><title>smartwatch-play</title><g class="cls-2"><path d="M17,19.92H7a3,3,0,0,1-2.95-3V7A3,3,0,0,1,7,4.08H17a3,3,0,0,1,3,3V17A3,3,0,0,1,17,19.92ZM7,5.08A2,2,0,0,0,5.08,7V17a2,2,0,0,0,2,2H17a2,2,0,0,0,2-2V7a2,2,0,0,0-2-1.95Z"/><path d="M15.88,5.08a.5.5,0,0,1-.5-.5v-1A1.62,1.62,0,0,0,13.77,2H10.24A1.61,1.61,0,0,0,8.63,3.57v1a.5.5,0,0,1-.5.5.5.5,0,0,1-.5-.5v-1A2.61,2.61,0,0,1,10.24,1h3.53a2.61,2.61,0,0,1,2.61,2.61v1A.5.5,0,0,1,15.88,5.08Z"/><path d="M13.77,23H10.24a2.61,2.61,0,0,1-2.61-2.61v-1a.5.5,0,0,1,.5-.5.5.5,0,0,1,.5.5v1A1.61,1.61,0,0,0,10.24,22h3.53a1.62,1.62,0,0,0,1.61-1.61v-1a.5.5,0,0,1,.5-.5.5.5,0,0,1,.5.5v1A2.61,2.61,0,0,1,13.77,23Z"/><path d="M10.5,15.93a.89.89,0,0,1-.39-.09.88.88,0,0,1-.49-.79V9A.88.88,0,0,1,11,8.24l4.07,3a.9.9,0,0,1,0,1.42l-4.07,3A.93.93,0,0,1,10.5,15.93Zm.12-6.74v5.62L14.37,12Z"/></g></svg>