<svg id="Layer_1" data-name="Layer 1" xmlns="http://www.w3.org/2000/svg" xmlns:xlink="http://www.w3.org/1999/xlink" viewBox="0 0 24 24"><defs><style>.cls-1{fill:none;}.cls-2{clip-path:url(#clip-path);}</style><clipPath id="clip-path"><rect class="cls-1" width="24" height="24"/></clipPath></defs><title>smartwatch-bell</title><g class="cls-2"><path d="M17,19.92H7a3,3,0,0,1-2.95-3V7A3,3,0,0,1,7,4.08H17a3,3,0,0,1,3,3V17A3,3,0,0,1,17,19.92ZM7,5.08A2,2,0,0,0,5.08,7V17a2,2,0,0,0,2,2H17a2,2,0,0,0,2-2V7a2,2,0,0,0-2-1.95Z"/><path d="M15.88,5.08a.5.5,0,0,1-.5-.5v-1A1.62,1.62,0,0,0,13.77,2H10.24A1.61,1.61,0,0,0,8.63,3.57v1a.5.5,0,0,1-.5.5.5.5,0,0,1-.5-.5v-1A2.61,2.61,0,0,1,10.24,1h3.53a2.61,2.61,0,0,1,2.61,2.61v1A.5.5,0,0,1,15.88,5.08Z"/><path d="M13.77,23H10.24a2.61,2.61,0,0,1-2.61-2.61v-1a.5.5,0,0,1,.5-.5.5.5,0,0,1,.5.5v1A1.61,1.61,0,0,0,10.24,22h3.53a1.62,1.62,0,0,0,1.61-1.61v-1a.5.5,0,0,1,.5-.5.5.5,0,0,1,.5.5v1A2.61,2.61,0,0,1,13.77,23Z"/><path d="M15.1,14.93H15a.5.5,0,0,1-.44-.56c0-.11,0-.22,0-.34V12.44a2.78,2.78,0,0,0-.75-1.91,2.35,2.35,0,0,0-1.74-.78,2.59,2.59,0,0,0-2.49,2.69V14a1.88,1.88,0,0,0,0,.34.5.5,0,0,1-1,.12c0-.15,0-.3,0-.46V12.44a3.59,3.59,0,0,1,3.49-3.69A3.38,3.38,0,0,1,14.6,9.84a3.76,3.76,0,0,1,1,2.6V14a3.4,3.4,0,0,1,0,.45A.5.5,0,0,1,15.1,14.93Z"/><path d="M15.09,14.93H9.16a.5.5,0,0,1,0-1h5.93a.5.5,0,0,1,0,1Z"/><path d="M12.13,9.75a.5.5,0,0,1-.5-.5v-.8a.5.5,0,0,1,.5-.5.5.5,0,0,1,.5.5v.8A.51.51,0,0,1,12.13,9.75Z"/><path d="M12.13,16.05a1.62,1.62,0,0,1-1.62-1.62.5.5,0,0,1,.5-.5.5.5,0,0,1,.5.5.62.62,0,0,0,.62.62.62.62,0,0,0,.62-.62.5.5,0,0,1,.5-.5.5.5,0,0,1,.5.5A1.63,1.63,0,0,1,12.13,16.05Z"/></g></svg>