<svg id="Layer_1" data-name="Layer 1" xmlns="http://www.w3.org/2000/svg" xmlns:xlink="http://www.w3.org/1999/xlink" viewBox="0 0 24 24"><defs><style>.cls-1{fill:none;}.cls-2{clip-path:url(#clip-path);}</style><clipPath id="clip-path"><rect class="cls-1" width="24" height="24"/></clipPath></defs><title>sqaure-vice-versa</title><g class="cls-2"><path d="M18.7,22.5H5.3a3.81,3.81,0,0,1-3.8-3.8V5.3A3.81,3.81,0,0,1,5.3,1.5H18.7a3.81,3.81,0,0,1,3.8,3.8V18.7A3.81,3.81,0,0,1,18.7,22.5ZM5.3,2.5A2.81,2.81,0,0,0,2.5,5.3V18.7a2.81,2.81,0,0,0,2.8,2.8H18.7a2.81,2.81,0,0,0,2.8-2.8V5.3a2.81,2.81,0,0,0-2.8-2.8Z"/><path d="M16,16.5a.52.52,0,0,1-.35-.14l-2.48-2.48a.51.51,0,0,1,0-.71.5.5,0,0,1,.71,0l1.62,1.62V8.69a.5.5,0,0,1,.5-.5.5.5,0,0,1,.5.5V16a.49.49,0,0,1-.3.46A.48.48,0,0,1,16,16.5Z"/><path d="M16,16.5a.54.54,0,0,1-.35-.14.5.5,0,0,1,0-.71l2.48-2.48a.5.5,0,0,1,.71,0,.51.51,0,0,1,0,.71L16.4,16.36A.54.54,0,0,1,16,16.5Z"/><path d="M8,15.83a.5.5,0,0,1-.5-.5V9.21L5.83,10.83a.5.5,0,0,1-.71,0,.51.51,0,0,1,0-.71L7.6,7.64A.51.51,0,0,1,8.46,8v7.33A.5.5,0,0,1,8,15.83Z"/><path d="M10.44,11a.51.51,0,0,1-.36-.15L7.6,8.35a.5.5,0,1,1,.71-.71l2.48,2.48a.5.5,0,0,1,0,.71A.5.5,0,0,1,10.44,11Z"/></g></svg>