<svg id="Layer_1" data-name="Layer 1" xmlns="http://www.w3.org/2000/svg" xmlns:xlink="http://www.w3.org/1999/xlink" viewBox="0 0 24 24"><defs><style>.cls-1{fill:none;}.cls-2{clip-path:url(#clip-path);}</style><clipPath id="clip-path"><rect class="cls-1" width="24" height="24"/></clipPath></defs><title>square-cross</title><g class="cls-2"><path d="M13.42,11.21a.54.54,0,0,1-.35-.14.5.5,0,0,1,0-.71l6.28-6.28a.5.5,0,0,1,.7,0,.5.5,0,0,1,0,.71l-6.27,6.28A.54.54,0,0,1,13.42,11.21Z"/><path d="M19.7,11.21a.52.52,0,0,1-.35-.14L13.07,4.79a.5.5,0,0,1,0-.71.51.51,0,0,1,.71,0l6.27,6.28a.5.5,0,0,1-.35.85Z"/><path d="M17,20.5H7A3.5,3.5,0,0,1,3.5,17V7A3.5,3.5,0,0,1,7,3.5h3a.5.5,0,0,1,0,1H7A2.5,2.5,0,0,0,4.5,7V17A2.5,2.5,0,0,0,7,19.5H17A2.5,2.5,0,0,0,19.5,17V15a.5.5,0,0,1,1,0v2A3.5,3.5,0,0,1,17,20.5Z"/></g></svg>