<svg id="Layer_1" data-name="Layer 1" xmlns="http://www.w3.org/2000/svg" xmlns:xlink="http://www.w3.org/1999/xlink" viewBox="0 0 24 24"><defs><style>.cls-1{fill:none;}.cls-2{clip-path:url(#clip-path);}</style><clipPath id="clip-path"><rect class="cls-1" width="24" height="24"/></clipPath></defs><title>square-plus</title><g class="cls-2"><path d="M16.06,13a.51.51,0,0,1-.5-.5V3.57a.5.5,0,0,1,.5-.5.5.5,0,0,1,.5.5v8.88A.5.5,0,0,1,16.06,13Z"/><path d="M20.5,8.51H11.62a.51.51,0,0,1-.5-.5.5.5,0,0,1,.5-.5H20.5A.5.5,0,0,1,21,8,.5.5,0,0,1,20.5,8.51Z"/><path d="M16.5,20.93H6.5A3.5,3.5,0,0,1,3,17.43v-10a3.5,3.5,0,0,1,3.5-3.5h3a.5.5,0,0,1,.5.5.5.5,0,0,1-.5.5h-3A2.5,2.5,0,0,0,4,7.43v10a2.5,2.5,0,0,0,2.5,2.5h10a2.5,2.5,0,0,0,2.5-2.5v-2a.5.5,0,0,1,1,0v2A3.5,3.5,0,0,1,16.5,20.93Z"/></g></svg>