<svg id="Layer_1" data-name="Layer 1" xmlns="http://www.w3.org/2000/svg" xmlns:xlink="http://www.w3.org/1999/xlink" viewBox="0 0 24 24"><defs><style>.cls-1{fill:none;}.cls-2{clip-path:url(#clip-path);}</style><clipPath id="clip-path"><rect class="cls-1" width="24" height="24"/></clipPath></defs><title>square-frame</title><g class="cls-2"><path d="M13.9,7.31a.51.51,0,0,1-.36-.15L12,5.6,10.46,7.12a.5.5,0,0,1-.71,0,.48.48,0,0,1,0-.7l1.88-1.88a.5.5,0,0,1,.7,0l1.92,1.92a.5.5,0,0,1-.35.85Z"/><path d="M12,19.39a.5.5,0,0,1-.35-.14L9.75,17.33a.5.5,0,0,1,0-.71.51.51,0,0,1,.71,0L12,18.19l1.52-1.53a.5.5,0,0,1,.71.71l-1.88,1.88A.5.5,0,0,1,12,19.39Z"/><path d="M18.7,22.5H5.3a3.81,3.81,0,0,1-3.8-3.8V5.3A3.81,3.81,0,0,1,5.3,1.5H18.7a3.81,3.81,0,0,1,3.8,3.8V18.7A3.81,3.81,0,0,1,18.7,22.5ZM5.3,2.5A2.81,2.81,0,0,0,2.5,5.3V18.7a2.81,2.81,0,0,0,2.8,2.8H18.7a2.81,2.81,0,0,0,2.8-2.8V5.3a2.81,2.81,0,0,0-2.8-2.8Z"/><path d="M17.08,14.29a.5.5,0,0,1-.35-.85l1.56-1.57-1.52-1.52a.5.5,0,0,1,0-.71.51.51,0,0,1,.71,0l1.87,1.88a.5.5,0,0,1,0,.71l-1.91,1.91A.51.51,0,0,1,17.08,14.29Z"/><path d="M6.88,14.29a.51.51,0,0,1-.36-.15L4.65,12.27a.49.49,0,0,1-.15-.36.47.47,0,0,1,.15-.35L6.56,9.64a.51.51,0,0,1,.71,0,.5.5,0,0,1,0,.71L5.71,11.91l1.52,1.53a.48.48,0,0,1,0,.7A.5.5,0,0,1,6.88,14.29Z"/></g></svg>