<svg id="Layer_1" data-name="Layer 1" xmlns="http://www.w3.org/2000/svg" xmlns:xlink="http://www.w3.org/1999/xlink" viewBox="0 0 24 24"><defs><style>.cls-1{fill:none;}.cls-2{clip-path:url(#clip-path);}</style><clipPath id="clip-path"><rect class="cls-1" width="24" height="24"/></clipPath></defs><title>square-sc-vertical</title><g class="cls-2"><path d="M18.7,22.5H5.3a3.81,3.81,0,0,1-3.8-3.8V5.3A3.81,3.81,0,0,1,5.3,1.5H18.7a3.81,3.81,0,0,1,3.8,3.8V18.7A3.81,3.81,0,0,1,18.7,22.5ZM5.3,2.5A2.81,2.81,0,0,0,2.5,5.3V18.7a2.81,2.81,0,0,0,2.8,2.8H18.7a2.81,2.81,0,0,0,2.8-2.8V5.3a2.81,2.81,0,0,0-2.8-2.8Z"/><path d="M14.91,9.85a.51.51,0,0,1-.36-.15L12,7.12,9.45,9.64a.5.5,0,0,1-.71,0,.48.48,0,0,1,0-.7l2.87-2.88a.5.5,0,0,1,.71,0L15.26,9a.5.5,0,0,1-.35.85Z"/><path d="M12,17.87a.52.52,0,0,1-.35-.14L8.74,14.79a.5.5,0,0,1,0-.71.51.51,0,0,1,.71,0L12,16.66l2.52-2.52a.5.5,0,0,1,.71.71l-2.88,2.88A.5.5,0,0,1,12,17.87Z"/></g></svg>