<svg id="Layer_1" data-name="Layer 1" xmlns="http://www.w3.org/2000/svg" xmlns:xlink="http://www.w3.org/1999/xlink" viewBox="0 0 24 24"><defs><style>.cls-1{fill:none;}.cls-2{clip-path:url(#clip-path);}</style><clipPath id="clip-path"><rect class="cls-1" width="24" height="24"/></clipPath></defs><title>square-vice-versa-alt</title><g class="cls-2"><path d="M18.7,22.5H5.3a3.81,3.81,0,0,1-3.8-3.8V5.3A3.81,3.81,0,0,1,5.3,1.5H18.7a3.81,3.81,0,0,1,3.8,3.8V18.7A3.81,3.81,0,0,1,18.7,22.5ZM5.3,2.5A2.81,2.81,0,0,0,2.5,5.3V18.7a2.81,2.81,0,0,0,2.8,2.8H18.7a2.81,2.81,0,0,0,2.8-2.8V5.3a2.81,2.81,0,0,0-2.8-2.8Z"/><path d="M13.52,10.94a.5.5,0,0,1-.35-.15.5.5,0,0,1,0-.71l1.62-1.62H8.69a.5.5,0,0,1-.5-.5.5.5,0,0,1,.5-.5H16a.5.5,0,0,1,.36.85l-2.48,2.48A.51.51,0,0,1,13.52,10.94Z"/><path d="M16,8.46a.49.49,0,0,1-.35-.15L13.17,5.83a.5.5,0,0,1,0-.71.51.51,0,0,1,.71,0L16.36,7.6a.51.51,0,0,1,0,.71A.51.51,0,0,1,16,8.46Z"/><path d="M10.48,19a.54.54,0,0,1-.36-.14L7.64,16.4A.51.51,0,0,1,8,15.54h7.33a.5.5,0,0,1,.5.5.5.5,0,0,1-.5.5H9.2l1.63,1.63a.5.5,0,0,1,0,.71A.52.52,0,0,1,10.48,19Z"/><path d="M8,16.54a.54.54,0,0,1-.36-.14.51.51,0,0,1,0-.71l2.48-2.48a.51.51,0,0,1,.71,0,.5.5,0,0,1,0,.71L8.35,16.4A.52.52,0,0,1,8,16.54Z"/></g></svg>