<svg id="Layer_1" data-name="Layer 1" xmlns="http://www.w3.org/2000/svg" xmlns:xlink="http://www.w3.org/1999/xlink" viewBox="0 0 24 24"><defs><style>.cls-1{fill:none;}.cls-2{clip-path:url(#clip-path);}</style><clipPath id="clip-path"><rect class="cls-1" width="24" height="24"/></clipPath></defs><title>square-47</title><g class="cls-2"><path d="M18.7,22.5H5.3a3.81,3.81,0,0,1-3.8-3.8V5.3A3.81,3.81,0,0,1,5.3,1.5H18.7a3.81,3.81,0,0,1,3.8,3.8V18.7A3.81,3.81,0,0,1,18.7,22.5ZM5.3,2.5A2.81,2.81,0,0,0,2.5,5.3V18.7a2.81,2.81,0,0,0,2.8,2.8H18.7a2.81,2.81,0,0,0,2.8-2.8V5.3a2.81,2.81,0,0,0-2.8-2.8Z"/><path d="M8.35,16.45A.51.51,0,0,1,8,16.3a.51.51,0,0,1,0-.71l7.31-7.3a.48.48,0,0,1,.54-.11.5.5,0,0,1,.31.46V16a.5.5,0,0,1-.5.5.51.51,0,0,1-.5-.5V9.85L8.7,16.3A.5.5,0,0,1,8.35,16.45Z"/><path d="M15.65,9.14H8.35a.5.5,0,0,1,0-1h7.3a.5.5,0,0,1,0,1Z"/></g></svg>