<svg id="Layer_1" data-name="Layer 1" xmlns="http://www.w3.org/2000/svg" xmlns:xlink="http://www.w3.org/1999/xlink" viewBox="0 0 24 24"><defs><style>.cls-1{fill:none;}.cls-2{clip-path:url(#clip-path);}</style><clipPath id="clip-path"><rect class="cls-1" width="24" height="24"/></clipPath></defs><title>square-sc-horizontal</title><g class="cls-2"><path d="M18.7,22.5H5.3a3.81,3.81,0,0,1-3.8-3.8V5.3A3.81,3.81,0,0,1,5.3,1.5H18.7a3.81,3.81,0,0,1,3.8,3.8V18.7A3.81,3.81,0,0,1,18.7,22.5ZM5.3,2.5A2.81,2.81,0,0,0,2.5,5.3V18.7a2.81,2.81,0,0,0,2.8,2.8H18.7a2.81,2.81,0,0,0,2.8-2.8V5.3a2.81,2.81,0,0,0-2.8-2.8Z"/><path d="M14.54,15.3a.5.5,0,0,1-.35-.85l2.58-2.59L14.25,9.34A.5.5,0,1,1,15,8.63l2.87,2.88a.48.48,0,0,1,0,.7L14.9,15.15A.51.51,0,0,1,14.54,15.3Z"/><path d="M9.4,15.3A.51.51,0,0,1,9,15.15L6.17,12.28a.5.5,0,0,1,0-.71L9.11,8.63a.5.5,0,0,1,.7,0,.5.5,0,0,1,0,.71L7.23,11.92l2.52,2.53a.5.5,0,0,1-.35.85Z"/></g></svg>