<svg id="Layer_1" data-name="Layer 1" xmlns="http://www.w3.org/2000/svg" xmlns:xlink="http://www.w3.org/1999/xlink" viewBox="0 0 24 24"><defs><style>.cls-1{fill:none;}.cls-2{clip-path:url(#clip-path);}</style><clipPath id="clip-path"><rect class="cls-1" width="24" height="24"/></clipPath></defs><title>star</title><g class="cls-2"><path d="M17.31,22.08a1.87,1.87,0,0,1-1.11-.37L12.53,19a.9.9,0,0,0-1.06,0L7.8,21.71a1.9,1.9,0,0,1-2.92-2.12l1.4-4.32a.9.9,0,0,0-.32-1L2.29,11.6A1.9,1.9,0,0,1,3.4,8.17H7.94a.89.89,0,0,0,.85-.62L10.2,3.23a1.89,1.89,0,0,1,3.6,0h0l1.41,4.32a.89.89,0,0,0,.85.62H20.6a1.9,1.9,0,0,1,1.11,3.43L18,14.27a.9.9,0,0,0-.32,1l1.4,4.32a1.86,1.86,0,0,1-.69,2.12A1.88,1.88,0,0,1,17.31,22.08ZM12,17.87a1.94,1.94,0,0,1,1.12.36l3.67,2.67a.9.9,0,0,0,1.38-1l-1.4-4.32a1.88,1.88,0,0,1,.69-2.12l3.67-2.67a.9.9,0,0,0-.53-1.62H16.06a1.89,1.89,0,0,1-1.8-1.31L12.85,3.54a.89.89,0,0,0-1.7,0L9.74,7.86a1.89,1.89,0,0,1-1.8,1.31H3.4a.9.9,0,0,0-.53,1.62l3.67,2.67a1.88,1.88,0,0,1,.69,2.12L5.83,19.9a.9.9,0,0,0,1.38,1l3.67-2.67A1.94,1.94,0,0,1,12,17.87Z"/></g></svg>