<svg id="Layer_1" data-name="Layer 1" xmlns="http://www.w3.org/2000/svg" xmlns:xlink="http://www.w3.org/1999/xlink" viewBox="0 0 24 24"><defs><style>.cls-1{fill:none;}.cls-2{clip-path:url(#clip-path);}</style><clipPath id="clip-path"><rect class="cls-1" x="-0.15" y="0.03" width="24" height="24"/></clipPath></defs><title>stats</title><g class="cls-2"><path d="M22,22.5H2a.5.5,0,0,1-.5-.5V2a.5.5,0,0,1,1,0V21.5H22a.5.5,0,0,1,0,1Z"/><path d="M7,18.75a.5.5,0,0,1-.5-.5V12a.5.5,0,0,1,1,0v6.25A.5.5,0,0,1,7,18.75Z"/><path d="M12,18.75a.5.5,0,0,1-.5-.5V4.5a.5.5,0,0,1,1,0V18.25A.5.5,0,0,1,12,18.75Z"/><path d="M17,18.75a.5.5,0,0,1-.5-.5v-10a.5.5,0,0,1,1,0v10A.5.5,0,0,1,17,18.75Z"/></g></svg>