<svg id="Layer_1" data-name="Layer 1" xmlns="http://www.w3.org/2000/svg" xmlns:xlink="http://www.w3.org/1999/xlink" viewBox="0 0 24 24"><defs><style>.cls-1{fill:none;}.cls-2{clip-path:url(#clip-path);}</style><clipPath id="clip-path"><rect class="cls-1" width="24" height="24"/></clipPath></defs><title>stats-alt_1</title><g class="cls-2"><path d="M18.7,22.5H5.3a3.81,3.81,0,0,1-3.8-3.8V5.3A3.81,3.81,0,0,1,5.3,1.5H18.7a3.81,3.81,0,0,1,3.8,3.8V18.7A3.81,3.81,0,0,1,18.7,22.5ZM5.3,2.5A2.81,2.81,0,0,0,2.5,5.3V18.7a2.81,2.81,0,0,0,2.8,2.8H18.7a2.81,2.81,0,0,0,2.8-2.8V5.3a2.81,2.81,0,0,0-2.8-2.8Z"/><path d="M7.52,22.5A.5.5,0,0,1,7,22V13.79a.5.5,0,0,1,.5-.5.5.5,0,0,1,.5.5V22A.5.5,0,0,1,7.52,22.5Z"/><path d="M16.49,22.5A.5.5,0,0,1,16,22V10.92a.5.5,0,0,1,.5-.5.5.5,0,0,1,.5.5V22A.5.5,0,0,1,16.49,22.5Z"/><path d="M12,22.5a.5.5,0,0,1-.5-.5V6.92a.5.5,0,0,1,1,0V22A.5.5,0,0,1,12,22.5Z"/></g></svg>