<svg id="Layer_1" data-name="Layer 1" xmlns="http://www.w3.org/2000/svg" xmlns:xlink="http://www.w3.org/1999/xlink" viewBox="0 0 24 24"><defs><style>.cls-1{fill:none;}.cls-2{clip-path:url(#clip-path);}</style><clipPath id="clip-path"><rect class="cls-1" x="-0.15" y="0.06" width="24" height="24"/></clipPath></defs><title>stats-alt</title><g class="cls-2"><path d="M22,22.5H2a.5.5,0,0,1-.5-.5V2a.5.5,0,0,1,1,0V21.5H22a.5.5,0,0,1,0,1Z"/><path d="M6.38,16.88A.51.51,0,0,1,6,16.73.51.51,0,0,1,6,16l4.38-4.37a.48.48,0,0,1,.7,0l2.78,2.77L20.4,7.9a.49.49,0,1,1,.7.7l-6.87,6.88a.51.51,0,0,1-.71,0l-2.77-2.77-4,4A.5.5,0,0,1,6.38,16.88Z"/></g></svg>