<svg id="Layer_1" data-name="Layer 1" xmlns="http://www.w3.org/2000/svg" xmlns:xlink="http://www.w3.org/1999/xlink" viewBox="0 0 24 24"><defs><style>.cls-1{fill:none;}.cls-2{clip-path:url(#clip-path);}</style><clipPath id="clip-path"><rect class="cls-1" width="24" height="24"/></clipPath></defs><title>tag-plus</title><g class="cls-2"><path d="M14.54,21.65a.51.51,0,0,1-.5-.5v-6a.5.5,0,0,1,.5-.5.5.5,0,0,1,.5.5v6A.5.5,0,0,1,14.54,21.65Z"/><path d="M17.54,18.65h-6a.51.51,0,0,1-.5-.5.5.5,0,0,1,.5-.5h6a.5.5,0,0,1,.5.5A.5.5,0,0,1,17.54,18.65Z"/><path d="M19.77,16.81a.5.5,0,0,1-.35-.85,1.92,1.92,0,0,0,0-2.7L9.51,3.35H4V8.83l6.35,6.36a.5.5,0,0,1,0,.71.48.48,0,0,1-.7,0L3.17,9.4A.54.54,0,0,1,3,9V2.85a.5.5,0,0,1,.5-.5H9.71a.53.53,0,0,1,.36.15L20.12,12.56a2.92,2.92,0,0,1,0,4.11A.5.5,0,0,1,19.77,16.81Z"/><path d="M7.53,7.36A.51.51,0,0,1,7,6.85a.43.43,0,0,1,0-.19.42.42,0,0,1,.11-.16.51.51,0,0,1,.54-.11.64.64,0,0,1,.16.11A.42.42,0,0,1,8,6.66a.46.46,0,0,1,0,.19.51.51,0,0,1-.5.51Z"/></g></svg>