<svg id="Layer_1" data-name="Layer 1" xmlns="http://www.w3.org/2000/svg" xmlns:xlink="http://www.w3.org/1999/xlink" viewBox="0 0 24 24"><defs><style>.cls-1{fill:none;}.cls-2{clip-path:url(#clip-path);}</style><clipPath id="clip-path"><rect class="cls-1" width="24" height="24"/></clipPath></defs><title>tag-export</title><g class="cls-2"><path d="M19.77,16.92a.47.47,0,0,1-.35-.15.5.5,0,0,1,0-.71,1.91,1.91,0,0,0,0-2.69L9.51,3.46H4V8.94l6.35,6.36a.49.49,0,1,1-.7.7L3.17,9.5A.5.5,0,0,1,3,9.15V3a.5.5,0,0,1,.5-.5H9.71a.52.52,0,0,1,.36.14L20.12,12.66a2.92,2.92,0,0,1,0,4.11A.47.47,0,0,1,19.77,16.92Z"/><path d="M7.53,7.46A.51.51,0,0,1,7,7a.41.41,0,0,1,0-.19.45.45,0,0,1,.11-.17.44.44,0,0,1,.16-.1.49.49,0,0,1,.54.1A.45.45,0,0,1,8,6.77.41.41,0,0,1,8,7a.47.47,0,0,1-.15.35.36.36,0,0,1-.16.11A.58.58,0,0,1,7.53,7.46Z"/><path d="M14.55,21.54a.5.5,0,0,1-.5-.5V16a.5.5,0,0,1,.5-.5h0a.5.5,0,0,1,.5.5V21a.5.5,0,0,1-.5.5Z"/><path d="M12.15,18.16a.51.51,0,0,1-.36-.15.5.5,0,0,1,0-.7l2.39-2.4a.5.5,0,0,1,.71,0l2.4,2.38a.5.5,0,0,1-.71.71l-2-2-2,2A.49.49,0,0,1,12.15,18.16Z"/></g></svg>