<svg id="Layer_1" data-name="Layer 1" xmlns="http://www.w3.org/2000/svg" xmlns:xlink="http://www.w3.org/1999/xlink" viewBox="0 0 24 24"><defs><style>.cls-1{fill:none;}.cls-2{clip-path:url(#clip-path);}</style><clipPath id="clip-path"><rect class="cls-1" width="24" height="24"/></clipPath></defs><title>tag-import</title><g class="cls-2"><path d="M19.77,16.82a.46.46,0,0,1-.35-.14.5.5,0,0,1,0-.71,1.91,1.91,0,0,0,0-2.69L9.51,3.37H4V8.85l6.35,6.36a.49.49,0,1,1-.7.7L3.17,9.41A.52.52,0,0,1,3,9.05V2.87a.5.5,0,0,1,.5-.5H9.71a.52.52,0,0,1,.36.14L20.12,12.57a2.92,2.92,0,0,1,0,4.11A.46.46,0,0,1,19.77,16.82Z"/><path d="M7.53,7.37a.51.51,0,0,1-.35-.15A.47.47,0,0,1,7,6.87a.41.41,0,0,1,0-.19.39.39,0,0,1,.11-.17.51.51,0,0,1,.7,0A.39.39,0,0,1,8,6.68a.41.41,0,0,1,0,.19.47.47,0,0,1-.15.35A.51.51,0,0,1,7.53,7.37Z"/><path d="M14.9,20.93a.5.5,0,0,1-.5-.5V15.35a.5.5,0,0,1,.5-.5h0a.5.5,0,0,1,.5.5v5.08a.5.5,0,0,1-.5.5Z"/><path d="M14.91,21.63a.52.52,0,0,1-.36-.14l-2.4-2.39a.51.51,0,0,1,0-.71.5.5,0,0,1,.71,0l2,2,2-2.05a.5.5,0,0,1,.71,0,.5.5,0,0,1,0,.7l-2.39,2.41a.5.5,0,0,1-.35.14Z"/></g></svg>