<svg id="Layer_1" data-name="Layer 1" xmlns="http://www.w3.org/2000/svg" xmlns:xlink="http://www.w3.org/1999/xlink" viewBox="0 0 24 24"><defs><style>.cls-1{fill:none;}.cls-2{clip-path:url(#clip-path);}</style><clipPath id="clip-path"><rect class="cls-1" width="24" height="24"/></clipPath></defs><title>tag-cross</title><g class="cls-2"><path d="M12.77,21.21a.5.5,0,0,1-.35-.15.51.51,0,0,1,0-.71l4.24-4.24a.5.5,0,0,1,.71.71l-4.24,4.24A.51.51,0,0,1,12.77,21.21Z"/><path d="M17,21.21a.51.51,0,0,1-.36-.15l-4.24-4.24a.51.51,0,0,1,0-.71.5.5,0,0,1,.71,0l4.24,4.24a.5.5,0,0,1,0,.71A.49.49,0,0,1,17,21.21Z"/><path d="M19.77,17.25a.47.47,0,0,1-.35-.15.48.48,0,0,1,0-.7,1.93,1.93,0,0,0,0-2.7L9.51,3.79H4V9.27l6.35,6.36a.5.5,0,0,1,0,.71.48.48,0,0,1-.7,0L3.17,9.83A.5.5,0,0,1,3,9.48V3.29a.5.5,0,0,1,.5-.5H9.71a.53.53,0,0,1,.36.15L20.12,13a2.9,2.9,0,0,1,0,4.1A.47.47,0,0,1,19.77,17.25Z"/><path d="M7.53,7.79a.5.5,0,0,1-.35-.14A.48.48,0,0,1,7,7.29a.47.47,0,0,1,.15-.35.51.51,0,0,1,.7,0A.47.47,0,0,1,8,7.29a.51.51,0,0,1-.15.36A.5.5,0,0,1,7.53,7.79Z"/></g></svg>