<svg id="Layer_1" data-name="Layer 1" xmlns="http://www.w3.org/2000/svg" xmlns:xlink="http://www.w3.org/1999/xlink" viewBox="0 0 24 24"><defs><style>.cls-1{fill:none;}.cls-2{clip-path:url(#clip-path);}</style><clipPath id="clip-path"><rect class="cls-1" width="24" height="24"/></clipPath></defs><title>tag</title><g class="cls-2"><path d="M15.28,21a2.88,2.88,0,0,1-2-.85l-10.06-10A.52.52,0,0,1,3,9.71V3.53a.5.5,0,0,1,.5-.5H9.71a.52.52,0,0,1,.36.14L20.12,13.23a2.91,2.91,0,0,1,0,4.11l-2.78,2.78A2.89,2.89,0,0,1,15.28,21ZM4,9.51l9.91,9.91a2,2,0,0,0,2.69,0l2.79-2.79A1.89,1.89,0,0,0,20,15.28a1.85,1.85,0,0,0-.55-1.34L9.51,4H4Z"/><path d="M7.53,8a.53.53,0,0,1-.36-.15.91.91,0,0,1-.11-.16.65.65,0,0,1,0-.19.51.51,0,0,1,.15-.36.53.53,0,0,1,.71,0A.57.57,0,0,1,8,7.33a.71.71,0,0,1,0,.2.65.65,0,0,1,0,.19A.53.53,0,0,1,7.72,8,.65.65,0,0,1,7.53,8Z"/></g></svg>