<svg id="Layer_1" data-name="Layer 1" xmlns="http://www.w3.org/2000/svg" xmlns:xlink="http://www.w3.org/1999/xlink" viewBox="0 0 24 24"><defs><style>.cls-1{fill:none;}.cls-2{clip-path:url(#clip-path);}</style><clipPath id="clip-path"><rect class="cls-1" x="0.08" y="0.02" width="24" height="24"/></clipPath></defs><title>terminal</title><g class="cls-2"><path d="M2.82,18.84a.54.54,0,0,1-.35-.14.5.5,0,0,1,0-.71l6-6-6-6a.5.5,0,0,1,0-.71.51.51,0,0,1,.71,0l6.34,6.35a.5.5,0,0,1,0,.71L3.18,18.7A.54.54,0,0,1,2.82,18.84Z"/><path d="M21.19,18.38H12.08a.5.5,0,0,1,0-1h9.11a.5.5,0,0,1,0,1Z"/></g></svg>