<svg id="Layer_1" data-name="Layer 1" xmlns="http://www.w3.org/2000/svg" xmlns:xlink="http://www.w3.org/1999/xlink" viewBox="0 0 24 24"><defs><style>.cls-1{fill:none;}.cls-2{clip-path:url(#clip-path);}</style><clipPath id="clip-path"><rect class="cls-1" width="24" height="24"/></clipPath></defs><title>ticket</title><g class="cls-2"><path d="M22,16.72H2a.5.5,0,0,1-.5-.5V13.89a.5.5,0,0,1,.5-.5.5.5,0,0,1,.5.5v1.83h19V13.89a.5.5,0,0,1,.5-.5.5.5,0,0,1,.5.5v2.33A.5.5,0,0,1,22,16.72Z"/><path d="M22,10.61a.5.5,0,0,1-.5-.5V8.28h-19v1.83a.5.5,0,0,1-.5.5.5.5,0,0,1-.5-.5V7.78a.5.5,0,0,1,.5-.5H22a.5.5,0,0,1,.5.5v2.33A.5.5,0,0,1,22,10.61Z"/><path d="M2,14.39a.5.5,0,0,1-.5-.5.5.5,0,0,1,.5-.5A1.39,1.39,0,0,0,3.4,12,1.37,1.37,0,0,0,2,10.61a.5.5,0,0,1-.5-.5.5.5,0,0,1,.5-.5,2.39,2.39,0,0,1,0,4.78Z"/><path d="M22,14.39a2.39,2.39,0,0,1,0-4.78.5.5,0,0,1,.5.5.5.5,0,0,1-.5.5,1.39,1.39,0,0,0,0,2.78.5.5,0,0,1,.5.5A.5.5,0,0,1,22,14.39Z"/></g></svg>