<svg id="Layer_1" data-name="Layer 1" xmlns="http://www.w3.org/2000/svg" xmlns:xlink="http://www.w3.org/1999/xlink" viewBox="0 0 24 24"><defs><style>.cls-1{fill:none;}.cls-2{clip-path:url(#clip-path);}</style><clipPath id="clip-path"><rect class="cls-1" width="24" height="24"/></clipPath></defs><title>toggle</title><g class="cls-2"><path d="M7.66,14.27A2.27,2.27,0,1,1,9.93,12,2.28,2.28,0,0,1,7.66,14.27Zm0-3.54A1.27,1.27,0,1,0,8.93,12,1.27,1.27,0,0,0,7.66,10.73Z"/><path d="M16.21,18H7.79a6,6,0,0,1,0-12h8.42a6,6,0,0,1,0,12ZM7.79,7a5,5,0,0,0,0,10h8.42a5,5,0,0,0,0-10Z"/></g></svg>