<svg id="Layer_1" data-name="Layer 1" xmlns="http://www.w3.org/2000/svg" xmlns:xlink="http://www.w3.org/1999/xlink" viewBox="0 0 24 24"><defs><style>.cls-1{fill:none;}.cls-2{clip-path:url(#clip-path);}</style><clipPath id="clip-path"><rect class="cls-1" y="-0.06" width="24" height="24"/></clipPath></defs><title>trash</title><g class="cls-2"><path d="M16.5,22h-9a.51.51,0,0,1-.5-.45l-1.5-16a.56.56,0,0,1,.13-.39A.51.51,0,0,1,6,5H18a.51.51,0,0,1,.37.16.56.56,0,0,1,.13.39l-1.5,16A.51.51,0,0,1,16.5,22ZM8,21H16L17.45,6H6.55Z"/><path d="M19,6H5A.5.5,0,0,1,5,5H19a.5.5,0,0,1,0,1Z"/><path d="M14.5,3h-5a.5.5,0,0,1,0-1h5a.5.5,0,0,1,0,1Z"/></g></svg>