<svg id="Layer_1" data-name="Layer 1" xmlns="http://www.w3.org/2000/svg" xmlns:xlink="http://www.w3.org/1999/xlink" viewBox="0 0 24 24"><defs><style>.cls-1{fill:none;}.cls-2{clip-path:url(#clip-path);}</style><clipPath id="clip-path"><rect class="cls-1" y="-0.01" width="24" height="24"/></clipPath></defs><title>tree</title><g class="cls-2"><path d="M8.63,10H4.4a1.5,1.5,0,0,1-1.5-1.5V4.31a1.5,1.5,0,0,1,1.5-1.5H8.63a1.5,1.5,0,0,1,1.5,1.5V8.54A1.5,1.5,0,0,1,8.63,10ZM4.4,3.81a.5.5,0,0,0-.5.5V8.54a.5.5,0,0,0,.5.5H8.63a.5.5,0,0,0,.5-.5V4.31a.5.5,0,0,0-.5-.5Z"/><path d="M19.6,10H15.37a1.5,1.5,0,0,1-1.5-1.5V4.31a1.5,1.5,0,0,1,1.5-1.5H19.6a1.5,1.5,0,0,1,1.5,1.5V8.54A1.5,1.5,0,0,1,19.6,10ZM15.37,3.81a.5.5,0,0,0-.5.5V8.54a.5.5,0,0,0,.5.5H19.6a.5.5,0,0,0,.5-.5V4.31a.5.5,0,0,0-.5-.5Z"/><path d="M8.63,21.19H4.4a1.5,1.5,0,0,1-1.5-1.5V15.46A1.5,1.5,0,0,1,4.4,14H8.63a1.5,1.5,0,0,1,1.5,1.5v4.23A1.5,1.5,0,0,1,8.63,21.19ZM4.4,15a.5.5,0,0,0-.5.5v4.23a.5.5,0,0,0,.5.5H8.63a.5.5,0,0,0,.5-.5V15.46a.5.5,0,0,0-.5-.5Z"/><path d="M6.52,15a.5.5,0,0,1-.5-.5V9.54a.5.5,0,0,1,.5-.5.51.51,0,0,1,.5.5v4.92A.51.51,0,0,1,6.52,15Z"/><path d="M14.37,6.92H9.63a.5.5,0,0,1-.5-.5.51.51,0,0,1,.5-.5h4.74a.51.51,0,0,1,.5.5A.5.5,0,0,1,14.37,6.92Z"/></g></svg>