<svg id="Layer_1" data-name="Layer 1" xmlns="http://www.w3.org/2000/svg" xmlns:xlink="http://www.w3.org/1999/xlink" viewBox="0 0 24 24"><defs><style>.cls-1{fill:none;}.cls-2{clip-path:url(#clip-path);}</style><clipPath id="clip-path"><rect class="cls-1" width="24" height="24"/></clipPath></defs><title>tree-alt</title><g class="cls-2"><path d="M9.76,10.79H5.53A1.5,1.5,0,0,1,4,9.29V5.06a1.5,1.5,0,0,1,1.5-1.5H9.76a1.5,1.5,0,0,1,1.5,1.5V9.29A1.5,1.5,0,0,1,9.76,10.79ZM5.53,4.56a.5.5,0,0,0-.5.5V9.29a.5.5,0,0,0,.5.5H9.76a.5.5,0,0,0,.5-.5V5.06a.5.5,0,0,0-.5-.5Z"/><path d="M18.47,9.55h-2A1.5,1.5,0,0,1,15,8.05v-2a1.5,1.5,0,0,1,1.5-1.5h2A1.5,1.5,0,0,1,20,6.07v2A1.5,1.5,0,0,1,18.47,9.55Zm-2-4a.5.5,0,0,0-.5.5v2a.5.5,0,0,0,.5.5h2a.5.5,0,0,0,.5-.5v-2a.5.5,0,0,0-.5-.5Z"/><path d="M8.86,20.44H6.13a1.5,1.5,0,0,1-1.5-1.5V16.21a1.5,1.5,0,0,1,1.5-1.5H8.86a1.5,1.5,0,0,1,1.5,1.5v2.73A1.5,1.5,0,0,1,8.86,20.44ZM6.13,15.71a.5.5,0,0,0-.5.5v2.73a.5.5,0,0,0,.5.5H8.86a.5.5,0,0,0,.5-.5V16.21a.5.5,0,0,0-.5-.5Z"/><path d="M7.65,15.71a.5.5,0,0,1-.5-.5V10.29a.5.5,0,0,1,.5-.5.51.51,0,0,1,.5.5v4.92A.5.5,0,0,1,7.65,15.71Z"/><path d="M15.5,7.68H10.76a.51.51,0,0,1-.5-.5.5.5,0,0,1,.5-.5H15.5a.5.5,0,0,1,.5.5A.51.51,0,0,1,15.5,7.68Z"/></g></svg>