<svg id="Layer_1" data-name="Layer 1" xmlns="http://www.w3.org/2000/svg" xmlns:xlink="http://www.w3.org/1999/xlink" viewBox="0 0 24 24"><defs><style>.cls-1{fill:none;}.cls-2{clip-path:url(#clip-path);}</style><clipPath id="clip-path"><rect class="cls-1" width="24" height="24"/></clipPath></defs><title>twitter</title><g class="cls-2"><path d="M16,10.83a.51.51,0,0,1-.5-.51.51.51,0,0,1,1,0A.51.51,0,0,1,16,10.83Z"/><path d="M13.42,20.25H5.67a.5.5,0,0,1-.5-.5V14.47a.5.5,0,0,1,.5-.5.5.5,0,0,1,.5.5v4.78h7.25A7.25,7.25,0,0,0,18.55,6.88a7.17,7.17,0,0,0-5.13-2.13A7.26,7.26,0,0,0,6.61,9.53a.51.51,0,0,1-.64.3.5.5,0,0,1-.3-.64,8.25,8.25,0,0,1,16,2.81,8.26,8.26,0,0,1-8.25,8.25Z"/><path d="M9,15.73c-1.93,0-6.67-1.48-6.67-3.73S7.07,8.27,9,8.27a3.73,3.73,0,0,1,0,7.46ZM9,9.27c-1.88,0-5.67,1.5-5.67,2.73S7.12,14.73,9,14.73A2.73,2.73,0,0,0,9,9.27Z"/></g></svg>