<svg id="Layer_1" data-name="Layer 1" xmlns="http://www.w3.org/2000/svg" xmlns:xlink="http://www.w3.org/1999/xlink" viewBox="0 0 24 24"><defs><style>.cls-1{fill:none;}.cls-2{clip-path:url(#clip-path);}</style><clipPath id="clip-path"><rect class="cls-1" width="24" height="24"/></clipPath></defs><title>unlock-alt</title><g class="cls-2"><path d="M20.6,22.32H7.1A2.08,2.08,0,0,1,5,20.24V14.57A2.08,2.08,0,0,1,7.1,12.49H20.6a2.08,2.08,0,0,1,2.08,2.08v5.67A2.08,2.08,0,0,1,20.6,22.32ZM7.1,13.49A1.08,1.08,0,0,0,6,14.57v5.67A1.08,1.08,0,0,0,7.1,21.32H20.6a1.08,1.08,0,0,0,1.08-1.08V14.57a1.08,1.08,0,0,0-1.08-1.08Z"/><path d="M9.88,13.49a.5.5,0,0,1-.5-.5V6.21A3.54,3.54,0,0,0,5.85,2.68a3.46,3.46,0,0,0-2.49,1,3.5,3.5,0,0,0-1,2.49.51.51,0,0,1-.5.5.5.5,0,0,1-.5-.5A4.49,4.49,0,0,1,2.65,3a4.43,4.43,0,0,1,3.2-1.33,4.53,4.53,0,0,1,4.53,4.53V13A.51.51,0,0,1,9.88,13.49Z"/></g></svg>