<svg id="Layer_1" data-name="Layer 1" xmlns="http://www.w3.org/2000/svg" xmlns:xlink="http://www.w3.org/1999/xlink" viewBox="0 0 24 24"><defs><style>.cls-1{fill:none;}.cls-2{clip-path:url(#clip-path);}</style><clipPath id="clip-path"><rect class="cls-1" y="-0.06" width="24" height="24"/></clipPath></defs><title>upload</title><g class="cls-2"><path d="M7,19.38a3.5,3.5,0,0,1-3.5-3.49v-2.5a.51.51,0,0,1,.5-.51H4a.51.51,0,0,1,.5.5v2.5A2.51,2.51,0,0,0,7,18.38H7l10,0a2.48,2.48,0,0,0,2.49-2.5v-2.5a.5.5,0,0,1,.5-.5h0a.5.5,0,0,1,.5.49v2.5A3.5,3.5,0,0,1,17,19.35l-10,0Z"/><path d="M12,15.87a.51.51,0,0,1-.5-.5l0-9a.5.5,0,0,1,.5-.5h0a.5.5,0,0,1,.5.49l0,9a.51.51,0,0,1-.5.51Z"/><path d="M7.74,9.88a.5.5,0,0,1-.35-.15.51.51,0,0,1,0-.71l4.23-4.25A.53.53,0,0,1,12,4.62h0a.47.47,0,0,1,.35.15L16.58,9a.5.5,0,0,1,0,.71.5.5,0,0,1-.7,0L12,5.83,8.1,9.73A.51.51,0,0,1,7.74,9.88Z"/></g></svg>