<svg id="Layer_1" data-name="Layer 1" xmlns="http://www.w3.org/2000/svg" xmlns:xlink="http://www.w3.org/1999/xlink" viewBox="0 0 24 24"><defs><style>.cls-1{fill:none;}.cls-2{clip-path:url(#clip-path);}</style><clipPath id="clip-path"><rect class="cls-1" x="0.15" y="-0.06" width="24" height="24"/></clipPath></defs><title>USB</title><g class="cls-2"><path d="M15.48,22.5h-7a2,2,0,0,1-2-2V8A.5.5,0,0,1,7,7.5H17a.5.5,0,0,1,.5.5V20.48A2,2,0,0,1,15.48,22.5Zm-8-14v12a1,1,0,0,0,1,1h7a1,1,0,0,0,1-1V8.5Z"/><path d="M15.25,7.5a.5.5,0,0,1-.5-.5V2.5H9.25V7a.5.5,0,0,1-1,0V2a.5.5,0,0,1,.5-.5h6.5a.5.5,0,0,1,.5.5V7A.5.5,0,0,1,15.25,7.5Z"/></g></svg>