<svg id="Layer_1" data-name="Layer 1" xmlns="http://www.w3.org/2000/svg" xmlns:xlink="http://www.w3.org/1999/xlink" viewBox="0 0 24 24"><defs><style>.cls-1{fill:none;}.cls-2{clip-path:url(#clip-path);}</style><clipPath id="clip-path"><rect class="cls-1" y="-0.03" width="24" height="24"/></clipPath></defs><title>user-external</title><g class="cls-2"><path d="M14.53,22a.5.5,0,0,1-.35-.85l4.73-4.76a.5.5,0,0,1,.71.71l-4.73,4.75A.51.51,0,0,1,14.53,22Z"/><path d="M19.93,21a.5.5,0,0,1-.5-.5v-4h-4a.51.51,0,0,1-.5-.5.5.5,0,0,1,.5-.5h4.48a.5.5,0,0,1,.35.14.53.53,0,0,1,.15.36v4.47a.5.5,0,0,1-.5.5Z"/><path d="M13.07,13a5.5,5.5,0,1,1,5.5-5.5A5.51,5.51,0,0,1,13.07,13Zm0-10a4.5,4.5,0,1,0,4.5,4.5A4.51,4.51,0,0,0,13.07,3Z"/><path d="M4.07,21a.5.5,0,0,1-.5-.5,8.51,8.51,0,0,1,8.5-8.5h2a.5.5,0,0,1,0,1h-2a7.51,7.51,0,0,0-7.5,7.5A.5.5,0,0,1,4.07,21Z"/></g></svg>