<svg id="Layer_1" data-name="Layer 1" xmlns="http://www.w3.org/2000/svg" xmlns:xlink="http://www.w3.org/1999/xlink" viewBox="0 0 24 24"><defs><style>.cls-1{fill:none;}.cls-2{clip-path:url(#clip-path);}</style><clipPath id="clip-path"><rect class="cls-1" y="0.03" width="24" height="24"/></clipPath></defs><title>user-cross</title><g class="cls-2"><path d="M12.84,12.59a5.5,5.5,0,1,1,5.5-5.5A5.5,5.5,0,0,1,12.84,12.59Zm0-10a4.5,4.5,0,1,0,4.5,4.5A4.49,4.49,0,0,0,12.84,2.59Z"/><path d="M3.84,20.59a.5.5,0,0,1-.5-.5,8.51,8.51,0,0,1,8.5-8.5h2a.5.5,0,0,1,.5.5.51.51,0,0,1-.5.5h-2a7.5,7.5,0,0,0-7.5,7.5A.51.51,0,0,1,3.84,20.59Z"/><path d="M14.51,22.41a.5.5,0,0,1-.36-.14.51.51,0,0,1,0-.71l5.66-5.66a.5.5,0,1,1,.71.71l-5.66,5.66A.47.47,0,0,1,14.51,22.41Z"/><path d="M20.16,22.41a.49.49,0,0,1-.35-.14l-5.66-5.66a.5.5,0,1,1,.71-.71l5.66,5.66a.51.51,0,0,1,0,.71A.5.5,0,0,1,20.16,22.41Z"/></g></svg>