<svg id="Layer_1" data-name="Layer 1" xmlns="http://www.w3.org/2000/svg" xmlns:xlink="http://www.w3.org/1999/xlink" viewBox="0 0 24 24"><defs><style>.cls-1{fill:none;}.cls-2{clip-path:url(#clip-path);}</style><clipPath id="clip-path"><rect class="cls-1" y="-0.08" width="24" height="24"/></clipPath></defs><title>user-terminal</title><g class="cls-2"><path d="M11.05,22.21a.5.5,0,0,1-.35-.15.48.48,0,0,1,0-.7l2-2L10.51,17.2a.5.5,0,0,1,0-.7.5.5,0,0,1,.71,0L13.74,19a.49.49,0,0,1,.15.36.49.49,0,0,1-.15.35l-2.33,2.33A.51.51,0,0,1,11.05,22.21Z"/><path d="M12.17,12.79a5.5,5.5,0,1,1,5.5-5.5A5.51,5.51,0,0,1,12.17,12.79Zm0-10a4.5,4.5,0,1,0,4.5,4.5A4.51,4.51,0,0,0,12.17,2.79Z"/><path d="M3.17,20.79a.5.5,0,0,1-.5-.5,8.51,8.51,0,0,1,8.5-8.5h2a.5.5,0,1,1,0,1h-2a7.5,7.5,0,0,0-7.5,7.5A.5.5,0,0,1,3.17,20.79Z"/><path d="M20.83,19.78H16.77a.5.5,0,1,1,0-1h4.06a.5.5,0,0,1,0,1Z"/></g></svg>