<svg id="Layer_1" data-name="Layer 1" xmlns="http://www.w3.org/2000/svg" xmlns:xlink="http://www.w3.org/1999/xlink" viewBox="0 0 24 24"><defs><style>.cls-1{fill:none;}.cls-2{clip-path:url(#clip-path);}</style><clipPath id="clip-path"><rect class="cls-1" y="-0.03" width="24" height="24"/></clipPath></defs><title>user-code</title><g class="cls-2"><path d="M12.28,22.21a.5.5,0,0,1-.35-.15L9.59,19.73a.52.52,0,0,1-.14-.35A.52.52,0,0,1,9.59,19l2.53-2.52a.5.5,0,0,1,.71,0,.5.5,0,0,1,0,.7l-2.17,2.18,2,2a.5.5,0,0,1,0,.7A.51.51,0,0,1,12.28,22.21Z"/><path d="M18.27,22.21a.5.5,0,0,1-.35-.85l2-2L17.73,17.2a.5.5,0,0,1,0-.7.5.5,0,0,1,.71,0L21,19a.49.49,0,0,1,.15.36.49.49,0,0,1-.15.35l-2.33,2.33A.51.51,0,0,1,18.27,22.21Z"/><path d="M12.39,12.79a5.5,5.5,0,1,1,5.5-5.5A5.51,5.51,0,0,1,12.39,12.79Zm0-10a4.5,4.5,0,1,0,4.5,4.5A4.51,4.51,0,0,0,12.39,2.79Z"/><path d="M3.39,20.79a.5.5,0,0,1-.5-.5,8.51,8.51,0,0,1,8.5-8.5h2a.5.5,0,0,1,0,1h-2a7.5,7.5,0,0,0-7.5,7.5A.5.5,0,0,1,3.39,20.79Z"/></g></svg>