<svg id="Layer_1" data-name="Layer 1" xmlns="http://www.w3.org/2000/svg" xmlns:xlink="http://www.w3.org/1999/xlink" viewBox="0 0 24 24"><defs><style>.cls-1{fill:none;}.cls-2{clip-path:url(#clip-path);}</style><clipPath id="clip-path"><rect class="cls-1" y="-0.03" width="24" height="24"/></clipPath></defs><title>user</title><g class="cls-2"><path d="M12,13.5A5.5,5.5,0,1,1,17.5,8,5.51,5.51,0,0,1,12,13.5Zm0-10A4.5,4.5,0,1,0,16.5,8,4.51,4.51,0,0,0,12,3.5Z"/><path d="M21,21.5a.5.5,0,0,1-.5-.5A7.5,7.5,0,0,0,13,13.5H11A7.5,7.5,0,0,0,3.5,21a.5.5,0,0,1-1,0A8.51,8.51,0,0,1,11,12.5h2A8.51,8.51,0,0,1,21.5,21,.5.5,0,0,1,21,21.5Z"/></g></svg>