<svg id="Layer_1" data-name="Layer 1" xmlns="http://www.w3.org/2000/svg" xmlns:xlink="http://www.w3.org/1999/xlink" viewBox="0 0 24 24"><defs><style>.cls-1{fill:none;}.cls-2{clip-path:url(#clip-path);}</style><clipPath id="clip-path"><rect class="cls-1" y="-0.03" width="24" height="24"/></clipPath></defs><title>user-import</title><g class="cls-2"><path d="M17,21.6a.5.5,0,0,1-.5-.5l0-6.71a.51.51,0,0,1,.5-.5h0a.5.5,0,0,1,.5.5l0,6.71a.5.5,0,0,1-.5.5Z"/><path d="M17,22.53a.51.51,0,0,1-.35-.15l-3.17-3.15a.5.5,0,0,1,.71-.71L17,21.32l2.8-2.82a.51.51,0,0,1,.71,0,.5.5,0,0,1,0,.71l-3.15,3.17a.58.58,0,0,1-.36.15Z"/><path d="M12.84,12.47A5.5,5.5,0,1,1,18.34,7,5.5,5.5,0,0,1,12.84,12.47Zm0-10A4.5,4.5,0,1,0,17.34,7,4.51,4.51,0,0,0,12.84,2.47Z"/><path d="M3.84,20.47a.5.5,0,0,1-.5-.5,8.52,8.52,0,0,1,8.5-8.5h2a.5.5,0,0,1,.5.5.5.5,0,0,1-.5.5h-2A7.52,7.52,0,0,0,4.34,20,.5.5,0,0,1,3.84,20.47Z"/></g></svg>