<svg id="Layer_1" data-name="Layer 1" xmlns="http://www.w3.org/2000/svg" xmlns:xlink="http://www.w3.org/1999/xlink" viewBox="0 0 24 24"><defs><style>.cls-1{fill:none;}.cls-2{clip-path:url(#clip-path);}</style><clipPath id="clip-path"><rect class="cls-1" y="-0.08" width="24" height="24"/></clipPath></defs><title>user-tick</title><g class="cls-2"><path d="M11.5,13A5.5,5.5,0,1,1,17,7.5,5.51,5.51,0,0,1,11.5,13Zm0-10A4.5,4.5,0,1,0,16,7.5,4.51,4.51,0,0,0,11.5,3Z"/><path d="M2.5,21a.5.5,0,0,1-.5-.5A8.51,8.51,0,0,1,10.5,12h2a.5.5,0,0,1,0,1h-2A7.5,7.5,0,0,0,3,20.5.5.5,0,0,1,2.5,21Z"/><path d="M14.5,22a.47.47,0,0,1-.35-.15l-4-4a.49.49,0,0,1,.7-.7l3.63,3.62,6.64-7.6a.5.5,0,0,1,.76.66l-7,8a.49.49,0,0,1-.36.17Z"/></g></svg>