<svg id="Layer_1" data-name="Layer 1" xmlns="http://www.w3.org/2000/svg" xmlns:xlink="http://www.w3.org/1999/xlink" viewBox="0 0 24 24"><defs><style>.cls-1{fill:none;}.cls-2{clip-path:url(#clip-path);}</style><clipPath id="clip-path"><rect class="cls-1" y="-0.03" width="24" height="24"/></clipPath></defs><title>user-export</title><g class="cls-2"><path d="M17,22.53a.5.5,0,0,1-.5-.5l0-6.71a.5.5,0,0,1,.5-.5h0a.5.5,0,0,1,.5.5l0,6.7a.52.52,0,0,1-.5.51Z"/><path d="M13.83,18.06a.54.54,0,0,1-.35-.14.5.5,0,0,1,0-.71L16.63,14a.5.5,0,0,1,.71,0l3.17,3.15a.5.5,0,0,1,0,.71.5.5,0,0,1-.71,0L17,15.1l-2.8,2.81A.51.51,0,0,1,13.83,18.06Z"/><path d="M12.84,12.47A5.5,5.5,0,1,1,18.34,7,5.5,5.5,0,0,1,12.84,12.47Zm0-10A4.5,4.5,0,1,0,17.34,7,4.51,4.51,0,0,0,12.84,2.47Z"/><path d="M3.84,20.47a.5.5,0,0,1-.5-.5,8.52,8.52,0,0,1,8.5-8.5h2a.5.5,0,0,1,.5.5.5.5,0,0,1-.5.5h-2A7.52,7.52,0,0,0,4.34,20,.5.5,0,0,1,3.84,20.47Z"/></g></svg>