<svg id="Layer_1" data-name="Layer 1" xmlns="http://www.w3.org/2000/svg" xmlns:xlink="http://www.w3.org/1999/xlink" viewBox="0 0 24 24"><defs><style>.cls-1{fill:none;}.cls-2{clip-path:url(#clip-path);}</style><clipPath id="clip-path"><rect class="cls-1" width="24" height="24"/></clipPath></defs><title>volume</title><g class="cls-2"><path d="M19,20.74a.52.52,0,0,1-.25-.07L9.53,15.25H5a.5.5,0,0,1-.5-.5V9.25a.5.5,0,0,1,.5-.5H9.53l9.22-5.42a.5.5,0,0,1,.5,0,.5.5,0,0,1,.25.43V20.24a.5.5,0,0,1-.25.43A.55.55,0,0,1,19,20.74ZM5.5,14.25H9.67a.54.54,0,0,1,.25.06l8.58,5V4.64L9.92,9.69a.54.54,0,0,1-.25.06H5.5Z"/></g></svg>