<svg id="Layer_1" data-name="Layer 1" xmlns="http://www.w3.org/2000/svg" xmlns:xlink="http://www.w3.org/1999/xlink" viewBox="0 0 24 24"><defs><style>.cls-1{fill:none;}.cls-2{clip-path:url(#clip-path);}</style><clipPath id="clip-path"><rect class="cls-1" y="-0.06" width="24" height="24"/></clipPath></defs><title>volume-slash</title><g class="cls-2"><path d="M16.5,20.74a.52.52,0,0,1-.25-.07L7,15.25H2.5a.5.5,0,0,1-.5-.5V9.25a.5.5,0,0,1,.5-.5H7l9.22-5.42a.5.5,0,0,1,.5,0,.5.5,0,0,1,.25.43V20.24a.5.5,0,0,1-.25.43A.55.55,0,0,1,16.5,20.74ZM3,14.25H7.17a.54.54,0,0,1,.25.06l8.58,5V4.64L7.42,9.69a.54.54,0,0,1-.25.06H3Z"/><path d="M21.5,21.5a.47.47,0,0,1-.35-.15l-18-18a.49.49,0,0,1,.7-.7l18,18a.48.48,0,0,1,0,.7A.47.47,0,0,1,21.5,21.5Z"/></g></svg>