<svg id="Layer_1" data-name="Layer 1" xmlns="http://www.w3.org/2000/svg" xmlns:xlink="http://www.w3.org/1999/xlink" viewBox="0 0 24 24"><defs><style>.cls-1{fill:none;}.cls-2{clip-path:url(#clip-path);}</style><clipPath id="clip-path"><rect class="cls-1" width="24" height="24"/></clipPath></defs><title>webpage</title><g class="cls-2"><path d="M15.66,22.85H5.38A3.38,3.38,0,0,1,2,19.48v-15A3.38,3.38,0,0,1,5.38,1.15H15.66A3.37,3.37,0,0,1,19,4.52a.5.5,0,0,1-.5.5.5.5,0,0,1-.5-.5,2.37,2.37,0,0,0-2.38-2.37H5.38A2.38,2.38,0,0,0,3,4.52v15a2.38,2.38,0,0,0,2.38,2.37H15.66A2.37,2.37,0,0,0,18,19.48V13.23a.51.51,0,0,1,.5-.5.5.5,0,0,1,.5.5v6.25A3.37,3.37,0,0,1,15.66,22.85Z"/><path d="M18.4,13.73H8.76a3.59,3.59,0,0,1-3.59-3.59V7.62A3.6,3.6,0,0,1,8.76,4H18.4A3.61,3.61,0,0,1,22,7.62v2.52A3.6,3.6,0,0,1,18.4,13.73ZM8.76,5a2.6,2.6,0,0,0-2.59,2.6v2.52a2.59,2.59,0,0,0,2.59,2.59H18.4A2.6,2.6,0,0,0,21,10.14V7.62A2.61,2.61,0,0,0,18.4,5Z"/><path d="M14.66,16.82H6.58a.5.5,0,0,1-.5-.5.5.5,0,0,1,.5-.5h8.08a.5.5,0,0,1,.5.5A.5.5,0,0,1,14.66,16.82Z"/><path d="M14.71,19.9H6.62a.5.5,0,0,1,0-1h8.09a.5.5,0,0,1,0,1Z"/></g></svg>