<svg id="Layer_1" data-name="Layer 1" xmlns="http://www.w3.org/2000/svg" xmlns:xlink="http://www.w3.org/1999/xlink" viewBox="0 0 24 24"><defs><style>.cls-1{fill:none;}.cls-2{clip-path:url(#clip-path);}</style><clipPath id="clip-path"><rect class="cls-1" width="24" height="24"/></clipPath></defs><title>webpage-alt</title><g class="cls-2"><path d="M14,13.73H10a2.5,2.5,0,0,1-2.5-2.5V6.52A2.51,2.51,0,0,1,10,4H14a2.51,2.51,0,0,1,2.5,2.5v4.71A2.5,2.5,0,0,1,14,13.73ZM10,5a1.5,1.5,0,0,0-1.5,1.5v4.71a1.5,1.5,0,0,0,1.5,1.5H14a1.5,1.5,0,0,0,1.5-1.5V6.52A1.5,1.5,0,0,0,14,5Z"/><path d="M16,16.82H7.92a.5.5,0,0,1-.5-.5.5.5,0,0,1,.5-.5H16a.5.5,0,0,1,.5.5A.5.5,0,0,1,16,16.82Z"/><path d="M16,19.9H8a.5.5,0,0,1,0-1H16a.5.5,0,0,1,0,1Z"/><path d="M17.14,22.85H6.86a3.38,3.38,0,0,1-3.38-3.37v-15A3.38,3.38,0,0,1,6.86,1.15H17.14a3.38,3.38,0,0,1,3.38,3.37v15A3.38,3.38,0,0,1,17.14,22.85ZM6.86,2.15A2.38,2.38,0,0,0,4.48,4.52v15a2.38,2.38,0,0,0,2.38,2.37H17.14a2.38,2.38,0,0,0,2.38-2.37v-15a2.38,2.38,0,0,0-2.38-2.37Z"/></g></svg>