<svg id="Layer_1" data-name="Layer 1" xmlns="http://www.w3.org/2000/svg" xmlns:xlink="http://www.w3.org/1999/xlink" viewBox="0 0 24 24"><defs><style>.cls-1{fill:none;}.cls-2{clip-path:url(#clip-path);}</style><clipPath id="clip-path"><rect class="cls-1" y="0.06" width="24" height="24"/></clipPath></defs><title>webpage-alt4</title><g class="cls-2"><path d="M15.66,22.86H5.38A3.39,3.39,0,0,1,2,19.48v-15A3.39,3.39,0,0,1,5.38,1.14H15.66A3.39,3.39,0,0,1,19,4.52a.5.5,0,0,1-1,0,2.39,2.39,0,0,0-2.38-2.38H5.38A2.39,2.39,0,0,0,3,4.52v15a2.39,2.39,0,0,0,2.38,2.38H15.66A2.39,2.39,0,0,0,18,19.48V14.22a.5.5,0,1,1,1,0v5.26A3.39,3.39,0,0,1,15.66,22.86Z"/><path d="M18.4,14.73H8.76a3.59,3.59,0,0,1-3.59-3.59V8.62A3.6,3.6,0,0,1,8.76,5H18.4A3.6,3.6,0,0,1,22,8.62v2.52A3.6,3.6,0,0,1,18.4,14.73ZM8.76,6a2.6,2.6,0,0,0-2.59,2.6v2.52a2.59,2.59,0,0,0,2.59,2.59H18.4A2.6,2.6,0,0,0,21,11.14V8.62A2.61,2.61,0,0,0,18.4,6Z"/><path d="M14.67,18.82H6.58a.51.51,0,0,1-.5-.5.5.5,0,0,1,.5-.5h8.09a.5.5,0,0,1,.5.5A.51.51,0,0,1,14.67,18.82Z"/></g></svg>