<svg id="Layer_1" data-name="Layer 1" xmlns="http://www.w3.org/2000/svg" xmlns:xlink="http://www.w3.org/1999/xlink" viewBox="0 0 24 24"><defs><style>.cls-1{fill:none;}.cls-2{clip-path:url(#clip-path);}</style><clipPath id="clip-path"><rect class="cls-1" width="24" height="24"/></clipPath></defs><title>weird-a</title><g class="cls-2"><path d="M12,21.58A9.58,9.58,0,1,1,21.58,12,9.59,9.59,0,0,1,12,21.58ZM12,3.42A8.58,8.58,0,1,0,20.58,12,8.59,8.59,0,0,0,12,3.42Z"/><path d="M21.08,21.58a.5.5,0,0,1-.5-.5V12a.5.5,0,0,1,.5-.5.5.5,0,0,1,.5.5v9.08A.5.5,0,0,1,21.08,21.58Z"/></g></svg>