<svg id="Layer_1" data-name="Layer 1" xmlns="http://www.w3.org/2000/svg" xmlns:xlink="http://www.w3.org/1999/xlink" viewBox="0 0 24 24"><defs><style>.cls-1{fill:none;}.cls-2{clip-path:url(#clip-path);}</style><clipPath id="clip-path"><rect class="cls-1" y="-0.12" width="24" height="24"/></clipPath></defs><title>window-stats</title><g class="cls-2"><path d="M19.08,20.38H4.92a3.51,3.51,0,0,1-3.5-3.5V7.13a3.5,3.5,0,0,1,3.5-3.5H19.08a3.5,3.5,0,0,1,3.5,3.5v9.75A3.51,3.51,0,0,1,19.08,20.38ZM4.92,4.63a2.5,2.5,0,0,0-2.5,2.5v9.75a2.51,2.51,0,0,0,2.5,2.5H19.08a2.51,2.51,0,0,0,2.5-2.5V7.13a2.5,2.5,0,0,0-2.5-2.5Z"/><path d="M5.6,8.27a.79.79,0,1,1,.79-.79A.79.79,0,0,1,5.6,8.27Zm0-1a.21.21,0,0,0-.21.21c0,.23.43.23.43,0A.21.21,0,0,0,5.6,7.27Z"/><path d="M9.48,8.27a.79.79,0,1,1,.79-.79A.79.79,0,0,1,9.48,8.27Zm0-1a.21.21,0,0,0-.21.21c0,.23.42.23.42,0A.21.21,0,0,0,9.48,7.27Z"/><path d="M13.35,8.27a.79.79,0,1,1,.79-.79A.79.79,0,0,1,13.35,8.27Zm0-1a.21.21,0,0,0-.21.21c0,.23.43.23.43,0A.21.21,0,0,0,13.35,7.27Z"/><path d="M5.82,17.22a.51.51,0,0,1-.36-.15.49.49,0,0,1,0-.7L9.2,12.7a.49.49,0,0,1,.7,0l2.59,2.58,5.33-5.61a.5.5,0,1,1,.72.69l-5.68,6a.48.48,0,0,1-.35.16.44.44,0,0,1-.36-.15L9.54,13.76,6.17,17.08A.52.52,0,0,1,5.82,17.22Z"/></g></svg>