<svg xmlns="http://www.w3.org/2000/svg" fill="none" viewBox="0 0 48 48">
  
<g transform="matrix(1,0,0,1,0,0)"><path fill="#75a1ff" fill-rule="evenodd" d="M3.12664 15.9135C2.49002 16.5501 2.18309 17.4531 2.597 18.2527C2.91591 18.8687 3.44521 19.6581 4.32107 20.5339C5.19693 21.4098 5.98634 21.9391 6.60235 22.258C7.40189 22.6719 8.30489 22.365 8.94152 21.7284L10.8431 19.8268C18.5226 12.1473 30.2666 12.8544 37.9462 20.5339L39.2678 21.8556C39.8304 22.4182 40.6101 22.7168 41.3253 22.3682C41.9398 22.0687 42.7708 21.5241 43.761 20.5339C44.7512 19.5437 45.2958 18.7128 45.5953 18.0982C45.9439 17.383 45.6453 16.6033 45.0827 16.0407L43.761 14.7191C32.87 3.82802 15.2121 3.82802 4.32107 14.7191L3.12664 15.9135ZM11.5719 24.4388C10.9583 25.0524 10.6524 25.917 11.045 26.6909C11.3552 27.3022 11.883 28.0959 12.7799 28.9928C13.6769 29.8897 14.4705 30.4175 15.0819 30.7277C15.8557 31.1204 16.7203 30.8145 17.3339 30.2009L17.8349 29.6999C21.2625 26.2724 26.8196 26.2724 30.2472 29.6999L30.8353 30.2881C31.398 30.8507 32.1778 31.1502 32.8935 30.8026C33.504 30.5062 34.3266 29.9684 35.3022 28.9928C36.2778 28.0172 36.8155 27.1946 37.112 26.5842C37.4595 25.8684 37.16 25.0886 36.5974 24.526L36.0093 23.9379C29.3994 17.328 18.6827 17.328 12.0728 23.9379L11.5719 24.4388ZM27.577 40.5473C29.5296 38.5946 29.5296 35.4288 27.577 33.4762C25.6243 31.5236 22.4585 31.5236 20.5059 33.4762C18.5533 35.4288 18.5533 38.5946 20.5059 40.5473C22.4585 42.4999 25.6243 42.4999 27.577 40.5473Z" clip-rule="evenodd"></path></g></svg>