<svg xmlns="http://www.w3.org/2000/svg" fill="none" viewBox="0 0 48 48">
  
  
  
<g transform="matrix(1,0,0,1,0,0)"><path fill="#75a1ff" d="M16.2713 3.00168C18.4401 3.0289 19.7711 4.73621 19.869 6.90302C19.9414 8.50416 20 10.7914 20 14C20 18.579 19.8806 21.2817 19.7723 22.7915C19.6946 23.8732 19.041 24.7591 17.9647 24.8929C17.4593 24.9557 16.8142 25 16 25C15.1858 25 14.5407 24.9557 14.0353 24.8929C12.959 24.7591 12.3054 23.8732 12.2277 22.7915C12.1194 21.2817 12 18.579 12 14C12 10.7914 12.0586 8.50417 12.131 6.90302C12.2289 4.73621 13.5599 3.0289 15.7287 3.00168C15.817 3.00057 15.9074 3 16 3C16.0926 3 16.183 3.00057 16.2713 3.00168Z"></path><path fill="#75a1ff" d="M31.7287 3.00168C29.5599 3.0289 28.2289 4.73621 28.131 6.90302C28.0586 8.50416 28 10.7914 28 14C28 18.579 28.1194 21.2817 28.2277 22.7915C28.3054 23.8732 28.959 24.7591 30.0353 24.8929C30.5407 24.9557 31.1858 25 32 25C32.8142 25 33.4593 24.9557 33.9647 24.8929C35.041 24.7591 35.6946 23.8732 35.7723 22.7915C35.8806 21.2817 36 18.579 36 14C36 10.7914 35.9414 8.50417 35.869 6.90302C35.7711 4.73621 34.4401 3.0289 32.2713 3.00168C32.183 3.00057 32.0926 3 32 3C31.9074 3 31.817 3.00057 31.7287 3.00168Z"></path><path fill="#1b5ff3" fill-rule="evenodd" d="M38.891 16.5816C40.5403 16.7613 41.7053 18.089 41.8046 19.7451C41.9778 22.6311 42.1506 27.1398 41.7808 29.9854C41.6936 30.6571 41.3756 31.2664 40.8982 31.7469C39.4319 33.2225 35.7849 36.5762 30.7885 38.9755C30.5323 41.2268 30.3187 42.8285 30.1787 43.8117C30.0742 44.5452 29.561 45.1466 28.843 45.3291C27.6963 45.6205 25.8481 46 24 46C22.1519 46 20.3037 45.6205 19.157 45.3291C18.439 45.1466 17.9258 44.5452 17.8213 43.8117C17.6813 42.8285 17.4677 41.2268 17.2115 38.9755C12.2151 36.5762 8.5681 33.2224 7.10182 31.7468C6.62442 31.2664 6.30646 30.6571 6.21918 29.9854C5.84938 27.1398 6.02225 22.631 6.19538 19.7451C6.29473 18.089 7.45974 16.7613 9.109 16.5816C11.6237 16.3076 16.1868 16 24 16C31.8132 16 36.3763 16.3076 38.891 16.5816Z" clip-rule="evenodd"></path></g></svg>