<svg xmlns="http://www.w3.org/2000/svg" fill="none" viewBox="0 0 48 48">
  
  
  
  
  
<g transform="matrix(1,0,0,1,0,0)"><path fill="#75a1ff" d="M4.45248 8.62382C4.64517 6.38804 6.2854 4.71471 8.51994 4.50814C11.2533 4.25546 15.7977 4 23 4C30.2023 4 34.7467 4.25546 37.4801 4.50814C39.7146 4.71471 41.3548 6.38804 41.5475 8.62382C41.7737 11.2487 42 15.499 42 22C42 28.501 41.7737 32.7513 41.5475 35.3762C41.3548 37.612 39.7146 39.2853 37.4801 39.4919C34.7467 39.7445 30.2023 40 23 40C15.7977 40 11.2533 39.7445 8.51994 39.4919C6.2854 39.2853 4.64517 37.612 4.45248 35.3762C4.22626 32.7513 4 28.501 4 22C4 15.499 4.22626 11.2487 4.45248 8.62382Z"></path><path fill="#1b5ff3" fill-rule="evenodd" d="M41.7749 12H4.22461C4.29404 10.6581 4.37314 9.5416 4.45224 8.62382C4.64493 6.38804 6.28516 4.71471 8.5197 4.50814C11.253 4.25546 15.7974 4 22.9998 4C30.2021 4 34.7465 4.25546 37.4798 4.50814C39.7144 4.71471 41.3546 6.38804 41.5473 8.62382C41.6264 9.5416 41.7055 10.6581 41.7749 12Z" clip-rule="evenodd"></path><path fill="#1b5ff3" d="M10 18.597C10 17.8191 10.5933 17.1755 11.3702 17.1364C12.6132 17.0738 14.7019 17 17.6364 17C20.1977 17 21.7925 17.0563 22.745 17.1121C23.4727 17.1549 24 17.7541 24 18.483V19.517C24 20.2459 23.4727 20.8451 22.745 20.8879C21.7925 20.9437 20.1977 21 17.6364 21C14.7019 21 12.6132 20.9262 11.3702 20.8636C10.5933 20.8245 10 20.1809 10 19.403V18.597Z"></path><path fill="#1b5ff3" d="M10 26.4255C10 25.7224 10.4925 25.1365 11.1937 25.0854C11.8226 25.0396 12.7329 25 14 25C15.2671 25 16.1774 25.0396 16.8063 25.0854C17.5075 25.1365 18 25.7224 18 26.4255V27.5745C18 28.2776 17.5075 28.8635 16.8063 28.9146C16.1774 28.9604 15.2671 29 14 29C12.7329 29 11.8226 28.9604 11.1937 28.9146C10.4925 28.8635 10 28.2776 10 27.5745V26.4255Z"></path><g>
    <path fill="#1b5ff3" d="M24.1955 28.5798C24.3408 26.9277 25.3682 25.6103 27.0104 25.378C28.4481 25.1747 30.6563 25 34 25C37.3437 25 39.5519 25.1747 40.9896 25.378C42.6318 25.6103 43.6592 26.9277 43.8045 28.5798C43.9089 29.7673 44 31.2925 44 33C44 37.5142 41.6175 41.7382 37.6037 43.8039C36.2629 44.494 34.9544 45 34 45C33.0456 45 31.7371 44.494 30.3963 43.8039C26.3825 41.7382 24 37.5142 24 33C24 31.2925 24.0911 29.7673 24.1955 28.5798Z"></path>
    <path fill="#75a1ff" fill-rule="evenodd" d="M39.6565 30.2827C40.1492 30.7855 40.2276 31.5652 39.8283 32.145C37.7971 35.0936 35.9657 37.0522 34.8921 38.0951C34.3087 38.6618 33.4345 38.7383 32.7814 38.2536C31.8476 37.5608 30.4543 36.3724 29.0998 34.6341C28.725 34.1532 28.7161 33.4875 29.0466 32.9751L29.5231 32.2366C29.9339 31.5997 30.812 31.4735 31.3542 32.003C32.6297 33.2485 33.6906 34.5161 33.6906 34.5161C33.6906 34.5161 35.2443 32.3464 37.5196 29.9152C37.9964 29.4056 38.7999 29.4082 39.2883 29.9067L39.6565 30.2827Z" clip-rule="evenodd"></path>
  </g></g></svg>