<svg xmlns="http://www.w3.org/2000/svg" fill="none" viewBox="0 0 48 48">
  
  
  
  
<g transform="matrix(1,0,0,1,0,0)"><path fill="#75a1ff" d="M29.4441 4.0636C29.4441 4.0636 31.8924 5 36.3924 9.5C40.8759 13.9835 41.8161 16.4361 41.8229 16.454C41.9322 18.5905 42 21.089 42 24C42 32.6855 41.3965 37.6989 40.8884 40.3807C40.562 42.1035 39.2177 43.2843 37.4743 43.4724C35.1211 43.7263 30.9685 44 24 44C17.0315 44 12.8789 43.7263 10.5257 43.4724C8.78233 43.2843 7.43803 42.1035 7.11161 40.3807C6.6035 37.6989 6 32.6855 6 24C6 15.3145 6.6035 10.3011 7.11161 7.61934C7.43803 5.89653 8.78233 4.7157 10.5257 4.52758C12.8789 4.27365 17.0315 4 24 4C26.0497 4 27.8558 4.02371 29.4441 4.0636Z"></path><path fill="#1b5ff3" d="M14 33C14 34.1046 14.8954 35 16 35H30C31.1046 35 32 34.1046 32 33C32 31.8954 31.1046 31 30 31H16C14.8954 31 14 31.8954 14 33Z"></path><path fill="#1b5ff3" d="M14 24C14 25.1046 14.8954 26 16 26H24C25.1046 26 26 25.1046 26 24C26 22.8954 25.1046 22 24 22H16C14.8954 22 14 22.8954 14 24Z"></path><path fill="#1b5ff3" d="M41.8229 16.4539C38.9434 17.1782 35.5436 17.2263 32.6071 16.3292C31.3656 15.9499 30.3976 14.9828 29.9786 13.7542C28.9348 10.6935 28.6769 6.94714 29.4441 4.06348C29.4441 4.06348 31.8923 4.99988 36.3923 9.49988C40.8923 13.9999 41.8229 16.4539 41.8229 16.4539Z"></path></g></svg>