<svg xmlns="http://www.w3.org/2000/svg" fill="none" viewBox="0 0 48 48">
  
  
<g transform="matrix(1,0,0,1,0,0)"><path fill="#1b5ff3" d="M7.40002 33.7649C7.57332 35.5136 8.76175 36.8513 10.4938 37.1481C12.8614 37.5538 17.046 38 24 38C30.954 38 35.1386 37.5538 37.5062 37.1481C39.2382 36.8513 40.4267 35.5136 40.6 33.7649C40.8008 31.7388 41 28.3743 41 23C41 17.6257 40.8008 14.2612 40.6 12.2351C40.4267 10.4864 39.2382 9.14868 37.5062 8.85189C35.1386 8.44621 30.954 8 24 8C17.046 8 12.8614 8.44621 10.4938 8.85189C8.76175 9.14868 7.57332 10.4864 7.40002 12.2351C7.19923 14.2612 7 17.6257 7 23C7 28.3743 7.19923 31.7388 7.40002 33.7649Z"></path><path fill="#75a1ff" d="M23.9998 40C16.1497 40 11.2993 39.7261 8.45888 39.465C6.28223 39.2649 4.67757 37.6696 4.48274 35.4924C4.44543 35.0755 4.40806 34.6144 4.37156 34.1056C4.28957 32.963 5.20382 32 6.34936 32H17.2791C17.9086 32 18.4675 32.4028 18.6665 33C18.8656 33.5972 19.4245 34 20.054 34H27.9458C28.5753 34 29.1341 33.5972 29.3332 33C29.5323 32.4028 30.0911 32 30.7206 32H41.6503C42.7958 32 43.7101 32.963 43.6281 34.1056C43.5916 34.6144 43.5542 35.0755 43.5169 35.4924C43.3221 37.6696 41.7174 39.2649 39.5408 39.465C36.7003 39.7261 31.8499 40 23.9998 40Z"></path></g></svg>