<svg xmlns="http://www.w3.org/2000/svg" fill="none" viewBox="0 0 48 48">
  
  
  
  
<g transform="matrix(1,0,0,1,0,0)"><path fill="#75a1ff" d="M7 12H41C39.6053 29.4343 38.6968 37.142 38.2748 40.2105C38.1133 41.384 37.4926 42.4 36.3633 42.7575C34.5753 43.3236 30.9787 44 24 44C17.0213 44 13.4247 43.3236 11.6367 42.7575C10.5074 42.4 9.88667 41.384 9.72525 40.2105C9.30316 37.142 8.39474 29.4343 7 12Z"></path><path fill="#1b5ff3" d="M21.883 4C20.1613 4 18.6328 5.10172 18.0883 6.73509L17.6332 8.10029C14.3721 8.20688 11.7966 8.38293 9.90684 8.55117C7.52749 8.76299 5.62603 10.499 5.04668 12.8164L4.779 13.8871C4.3243 15.7059 5.29506 17.3191 7.16188 17.4918C9.89253 17.7445 14.9029 18 24.0008 18C33.0986 18 38.109 17.7445 40.8397 17.4918C42.7065 17.3191 43.6773 15.7059 43.2226 13.8871L42.9549 12.8164C42.3755 10.499 40.4741 8.76299 38.0947 8.55117C36.2047 8.3829 33.6287 8.20682 30.3667 8.10024L29.9117 6.73509C29.3672 5.10172 27.8387 4 26.117 4H21.883Z"></path><path fill="#1b5ff3" d="M18.1435 23C16.9857 23 16.0711 23.9823 16.1536 25.137L16.8686 35.1472C16.9432 36.1912 17.8119 37 18.8585 37C20.0162 37 20.9308 36.0177 20.8483 34.863L20.1333 24.8528C20.0587 23.8088 19.1901 23 18.1435 23Z"></path><path fill="#1b5ff3" d="M29.8585 23C28.8119 23 27.9432 23.8088 27.8686 24.8528L27.1536 34.8629C27.0711 36.0177 27.9857 37 29.1435 37C30.1901 37 31.0587 36.1912 31.1333 35.1472L31.8483 25.1371C31.9308 23.9823 31.0162 23 29.8585 23Z"></path></g></svg>