<svg xmlns="http://www.w3.org/2000/svg" fill="none" viewBox="0 0 48 48">
  
  
  
  
  
  
<g transform="matrix(1,0,0,1,0,0)"><path fill="#75a1ff" d="M37.5029 7.49087C39.2287 7.66409 40.5821 8.80641 40.9206 10.5075C41.4217 13.0254 42 17.6351 42 25.5C42 33.3649 41.4216 37.9746 40.9206 40.4925C40.5821 42.1936 39.2287 43.3359 37.5029 43.5091C35.1547 43.7448 30.9968 44 24 44C17.0032 44 12.8453 43.7448 10.4971 43.5091C8.77133 43.3359 7.4179 42.1936 7.07939 40.4925C6.57835 37.9746 6 33.3649 6 25.5C6 17.6351 6.57835 13.0254 7.07939 10.5075C7.4179 8.80642 8.77133 7.66409 10.4971 7.49087C12.8453 7.25519 17.0032 7 24 7C30.9968 7 35.1547 7.25519 37.5029 7.49087Z"></path><path fill="#1b5ff3" fill-rule="evenodd" d="M29.1142 4.04889C30.8639 4.08452 32.184 5.62908 31.979 7.36711L31.7449 9.3514C31.5668 10.8619 30.2865 12 28.7656 12H19.2383C17.7174 12 16.4371 10.8619 16.259 9.3514L16.0249 7.36712C15.8199 5.6291 17.14 4.08454 18.8897 4.0489C20.41 4.01794 22.1082 4 24.0023 4C25.8962 4 27.5941 4.01794 29.1142 4.04889Z" clip-rule="evenodd"></path><path fill="#1b5ff3" d="M14 32.5C14 31.0662 14.9176 30.011 16.3513 30.0005C16.3999 30.0002 16.4495 30 16.5 30C16.5505 30 16.6001 30.0002 16.6487 30.0005C18.0824 30.011 19 31.0662 19 32.5C19 33.9338 18.0824 34.989 16.6487 34.9995C16.6001 34.9998 16.5505 35 16.5 35C16.4495 35 16.3999 34.9998 16.3513 34.9995C14.9176 34.989 14 33.9338 14 32.5Z"></path><path fill="#1b5ff3" d="M22.0223 31.6561C22.0738 30.7531 22.7667 30.1517 23.6689 30.0871C24.3343 30.0395 25.2601 30 26.5 30C27.7399 30 28.6657 30.0395 29.3311 30.0871C30.2333 30.1517 30.9262 30.7531 30.9777 31.6561C30.9915 31.8982 31 32.1779 31 32.5C31 32.8221 30.9915 33.1018 30.9777 33.3439C30.9262 34.2469 30.2333 34.8483 29.3311 34.9129C28.6657 34.9605 27.7399 35 26.5 35C25.2601 35 24.3343 34.9605 23.6689 34.9129C22.7667 34.8483 22.0738 34.2469 22.0223 33.3439C22.0085 33.1018 22 32.8221 22 32.5C22 32.1779 22.0085 31.8982 22.0223 31.6561Z"></path><path fill="#1b5ff3" d="M14 22.5C14 21.0662 14.9176 20.011 16.3513 20.0005C16.3999 20.0002 16.4495 20 16.5 20C16.5505 20 16.6001 20.0002 16.6487 20.0005C18.0824 20.011 19 21.0662 19 22.5C19 23.9338 18.0824 24.989 16.6487 24.9995C16.6001 24.9998 16.5505 25 16.5 25C16.4495 25 16.3999 24.9998 16.3513 24.9995C14.9176 24.989 14 23.9338 14 22.5Z"></path><path fill="#1b5ff3" d="M22.0421 21.5102C22.1194 20.6837 22.7993 20.1808 23.6274 20.1236C24.5253 20.0616 25.9363 20 28 20C30.0637 20 31.4747 20.0616 32.3726 20.1236C33.2007 20.1808 33.8806 20.6837 33.9579 21.5102C33.9835 21.7839 34 22.1111 34 22.5C34 22.8889 33.9835 23.2161 33.9579 23.4898C33.8806 24.3163 33.2007 24.8192 32.3726 24.8764C31.4747 24.9384 30.0637 25 28 25C25.9363 25 24.5253 24.9384 23.6274 24.8764C22.7993 24.8192 22.1194 24.3163 22.0421 23.4898C22.0165 23.2161 22 22.8889 22 22.5C22 22.1111 22.0165 21.7839 22.0421 21.5102Z"></path></g></svg>