<svg xmlns="http://www.w3.org/2000/svg" fill="none" viewBox="0 0 48 48">
  
  
<g transform="matrix(1,0,0,1,0,0)"><path fill="#75a1ff" d="M4.65388 8.57316C4.84496 6.92575 5.84441 5.56573 7.46374 5.20762C9.9896 4.64902 14.8855 4 24 4C33.1145 4 38.0104 4.64902 40.5363 5.20762C42.1556 5.56573 43.155 6.92575 43.3461 8.57316C43.6351 11.0644 44 15.1673 44 20C44 29.0284 39.2351 37.4764 31.2074 41.6079C28.5258 42.988 25.9087 44 24 44C22.0913 44 19.4742 42.988 16.7926 41.6079C8.76493 37.4764 4 29.0284 4 20C4 15.1673 4.36493 11.0644 4.65388 8.57316Z"></path><path fill="#1b5ff3" fill-rule="evenodd" d="M14.095 10.6436C12.4866 10.9338 11.5015 12.2609 11.3409 13.8874C11.1733 15.5841 11 18.0121 11 20.8C11 26.1141 13.5797 31.0107 17.9023 34.1019C20.106 35.6779 22.4243 37 24 37C25.5757 37 27.894 35.6779 30.0977 34.1019C34.4203 31.0107 37 26.1141 37 20.8C37 18.0121 36.8267 15.5841 36.6591 13.8874C36.4985 12.2609 35.5134 10.9338 33.905 10.6436C32.0941 10.3169 29.0388 10 24 10C18.9612 10 15.9059 10.3169 14.095 10.6436ZM28 20C28 21.4832 27.1928 22.7778 25.9937 23.4685L26.7004 27.0021C26.8773 27.8865 26.4208 28.7585 25.5289 28.8922C25.1091 28.9551 24.5995 29 24 29C23.4005 29 22.8909 28.9551 22.4711 28.8922C21.5792 28.7585 21.1227 27.8865 21.2996 27.0021L22.0063 23.4685C20.8072 22.7778 20 21.4832 20 20C20 17.7909 21.7909 16 24 16C26.2091 16 28 17.7909 28 20Z" clip-rule="evenodd"></path></g></svg>